<svg width="470" height="296" viewBox="0 0 470 296" fill="none" xmlns="http://www.w3.org/2000/svg">
<g clip-path="url(#clip0_2575:24838)">
<path opacity="0.5" d="M55.1 135.7C55.1 125 46.4 116.3 35.7 116.3C31.5 116.3 27.6 117.7 24.4 120C21.1 108.5 10.5 100 -2.1 100C-13.4 100 -23.1 106.8 -27.4 116.5C-28.2 116.4 -28.9 116.3 -29.7 116.3C-38.5 116.3 -46 122.2 -48.3 130.3C-50.4 129 -52.8 128.2 -55.5 128.2C-63 128.2 -69 134.2 -69 141.7H54.3C54.8 139.8 55.1 137.8 55.1 135.7Z" fill="white"/>
<path opacity="0.6" d="M341.4 222.6C339.9 222.6 338.5 222.9 337.2 223.5C335.1 218.6 330.2 215.2 324.5 215.2C324 215.2 323.4 215.2 322.9 215.3C319.8 208.6 313.1 204 305.3 204C296.5 204 289 209.9 286.7 218C284.6 216.7 282.2 215.9 279.5 215.9C272 215.9 266 221.9 266 229.4H351C349.5 225.4 345.8 222.6 341.4 222.6Z" fill="white"/>
<path opacity="0.4" d="M470 74C470 66.6 463.9 60.5 456.5 60.5C453.6 60.5 450.9 61.4 448.7 63C446.5 54.8 439 48.7 430 48.7C425.3 48.7 420.9 50.4 417.6 53.2C413.7 44.8 405.2 39 395.4 39C383 39 372.7 48.3 371.3 60.4C369.5 59.6 367.5 59.1 365.3 59.1C357.4 59.1 351 65.5 351 73.4C351 73.6 351 73.9 351 74.1H470V74Z" fill="white"/>
</g>
<defs>
<clipPath id="clip0_2575:24838">
<rect width="470" height="296" fill="white"/>
</clipPath>
</defs>
</svg>
