<svg viewBox="0 0 40 40" fill="none" xmlns="http://www.w3.org/2000/svg">
    <g clip-path="url(#clip0_1799:23661)">
    <path d="M29.3829 0H5.94543C4.00684 0 2.42981 1.57703 2.42981 3.51562V31.797C2.42981 33.3227 3.41247 34.6113 4.77356 35.0967V11.5173C4.77356 9.95297 5.38356 8.48125 6.4902 7.37461L9.80442 4.06039C10.9111 2.95375 12.3828 2.34375 13.9472 2.34375H32.6827C32.1973 0.982656 30.9087 0 29.3829 0Z" fill="#333333"/>
    <path d="M34.0709 4.70312C23.717 4.70312 26.7303 4.70312 16.4928 4.70312V12.8906C16.4928 13.5383 15.9686 14.0781 15.3209 14.0781H7.1178V36.4845C7.1178 38.4235 8.69436 40.0001 10.6334 40.0001H34.0709C36.0092 40.0001 37.5709 38.4235 37.5709 36.4845V8.20312C37.5709 6.26484 36.0092 4.70312 34.0709 4.70312ZM31.7272 32.9688H12.9772C12.3295 32.9688 11.8053 32.4446 11.8053 31.797C11.8053 31.1493 12.3295 30.6251 12.9772 30.6251H31.7272C32.3748 30.6251 32.899 31.1493 32.899 31.797C32.899 32.4446 32.3748 32.9688 31.7272 32.9688ZM31.7272 28.2813H12.9772C12.3295 28.2813 11.8053 27.7571 11.8053 27.1095C11.8053 26.4618 12.3295 25.9376 12.9772 25.9376H31.7272C32.3748 25.9376 32.899 26.4618 32.899 27.1095C32.899 27.7571 32.3748 28.2813 31.7272 28.2813ZM31.7272 23.5938H12.9772C12.3295 23.5938 11.8053 23.0696 11.8053 22.422C11.8053 21.7743 12.3295 21.2501 12.9772 21.2501H31.7272C32.3748 21.2501 32.899 21.7743 32.899 22.422C32.899 23.0696 32.3748 23.5938 31.7272 23.5938ZM31.7272 18.9063H12.9772C12.3295 18.9063 11.8053 18.3821 11.8053 17.7345C11.8053 17.0868 12.3295 16.5626 12.9772 16.5626H31.7272C32.3748 16.5626 32.899 17.0868 32.899 17.7345C32.899 18.3821 32.3748 18.9063 31.7272 18.9063Z" fill="#333333"/>
    <path d="M13.9472 4.6875C13.0087 4.6875 12.1253 5.05375 11.4615 5.7175L8.14731 9.03172C7.36598 9.81297 7.11731 10.6866 7.11731 11.7188H14.1486V4.6875H13.9472Z" fill="#333333"/>
    </g>
    <defs>
    <clipPath id="clip0_1799:23661">
    <rect width="40" height="40" fill="white"/>
    </clipPath>
    </defs>
</svg>