<svg viewBox="0 0 104 92" fill="none" xmlns="http://www.w3.org/2000/svg">
    <path d="M28.2242 88.644H3.04688V15.976H13.977C14.8184 15.976 15.5005 15.2941 15.5005 14.4526C15.5005 13.611 14.8184 12.9291 13.977 12.9291H1.52344C0.682094 12.9291 0 13.611 0 14.4526V90.1674C0 91.009 0.682094 91.6909 1.52344 91.6909H28.2242C29.0656 91.6909 29.7477 91.009 29.7477 90.1674C29.7477 89.3259 29.0656 88.644 28.2242 88.644Z" fill="#333333"/>
    <path d="M9.2555 71.8422H12.6314V83.997C12.6314 84.8385 13.3135 85.5204 14.1549 85.5204H20.4645C21.3059 85.5204 21.988 84.8385 21.988 83.997V71.8422H25.3639C26.8815 71.4552 27.2406 70.5883 26.4411 69.2414L18.387 61.1875C17.792 60.5927 16.8274 60.5927 16.2326 61.1875L8.17854 69.2414C6.80501 70.7813 7.95611 71.9661 9.2555 71.8422ZM17.3096 64.4192L21.6857 68.7953H20.4643C19.623 68.7953 18.9409 69.4772 18.9409 70.3187V82.4735H15.6783V70.3187C15.6783 69.4772 14.9962 68.7953 14.1549 68.7953H12.9335L17.3096 64.4192Z" fill="#E51A1E"/>
    <path d="M103.992 14.2965C103.956 13.9518 103.799 13.6203 103.554 13.3751L90.9336 0.754748C90.6514 0.472811 90.2568 0.308685 89.8562 0.308685H64.6181C63.7766 0.308685 63.0947 0.990576 63.0947 1.83212V12.9288H20.6172C19.7758 12.9288 19.0938 13.6107 19.0938 14.4523C19.0938 15.2938 19.7758 15.9757 20.6172 15.9757H30.0215V35.3482C30.2366 36.5964 30.956 37.0579 32.1801 36.7327L39.3809 33.4292L46.5816 36.7327C47.5024 37.1558 48.7402 36.4749 48.7402 35.3482V15.9757H63.0945V58.6178C63.0945 59.4593 63.7764 60.1412 64.6179 60.1412H75.7146V88.6437H34.8644C34.023 88.6437 33.3409 89.3256 33.3409 90.1671C33.3409 91.0087 34.023 91.6906 34.8644 91.6906H77.2383C78.0798 91.6906 78.7617 91.0087 78.7617 90.1671V60.1412H86.9375C87.779 60.1412 88.4609 59.4593 88.4609 58.6178C88.4609 57.7762 87.779 57.0943 86.9375 57.0943H66.1416V3.35556H88.3336V14.4521C88.3336 15.2936 89.0155 15.9755 89.857 15.9755H100.953V57.0943H93.5777C92.7361 57.0943 92.0542 57.7762 92.0542 58.6178C92.0542 59.4593 92.7361 60.1412 93.5777 60.1412H102.477C103.318 60.1412 104 59.4593 104 58.6178V14.4523C104 14.4001 103.997 14.3481 103.992 14.2965ZM45.6936 32.9732L40.0162 30.3688C39.5927 30.1837 39.1692 30.1837 38.7457 30.3688L33.0683 32.9732V15.9757H45.6936V32.9732ZM91.3804 5.51051L98.7984 12.9284H91.3804V5.51051Z" fill="#333333"/>
    <path d="M50.4766 83.9971C50.4766 84.8386 51.1587 85.5205 52 85.5205H70.9286C71.7702 85.5205 72.4521 84.8386 72.4521 83.9971V77.5479C72.4521 76.7063 71.7702 76.0244 70.9286 76.0244H52C51.1587 76.0244 50.4766 76.7063 50.4766 77.5479V83.9971ZM53.5232 79.0713H69.4052V82.4736H53.5232V79.0713Z" fill="#333333"/>
    <path d="M52 72.7582H70.9286C71.7702 72.7582 72.4521 72.0763 72.4521 71.2348C72.4521 70.3932 71.7702 69.7113 70.9286 69.7113H52C51.1587 69.7113 50.4766 70.3932 50.4766 71.2348C50.4766 72.0763 51.1585 72.7582 52 72.7582Z" fill="#333333"/>
    <path d="M70.9291 9.66644H83.5483C84.3898 9.66644 85.0717 8.98455 85.0717 8.14301C85.0717 7.30146 84.3898 6.61957 83.5483 6.61957H70.9291C70.0876 6.61957 69.4057 7.30146 69.4057 8.14301C69.4057 8.98455 70.0876 9.66644 70.9291 9.66644Z" fill="#333333"/>
    <path d="M70.9291 22.2852H96.1672C97.0088 22.2852 97.6907 21.6033 97.6907 20.7617C97.6907 19.9202 97.0088 19.2383 96.1672 19.2383H70.9291C70.0876 19.2383 69.4057 19.9202 69.4057 20.7617C69.4057 21.6033 70.0876 22.2852 70.9291 22.2852Z" fill="#333333"/>
    <path d="M70.9291 28.5947H96.1672C97.0088 28.5947 97.6907 27.9128 97.6907 27.0713C97.6907 26.2297 97.0088 25.5479 96.1672 25.5479H70.9291C70.0876 25.5479 69.4057 26.2297 69.4057 27.0713C69.4057 27.9128 70.0876 28.5947 70.9291 28.5947Z" fill="#333333"/>
    <path d="M70.9291 34.9043H96.1672C97.0088 34.9043 97.6907 34.2224 97.6907 33.3809C97.6907 32.5393 97.0088 31.8574 96.1672 31.8574H70.9291C70.0876 31.8574 69.4057 32.5393 69.4057 33.3809C69.4057 34.2224 70.0876 34.9043 70.9291 34.9043Z" fill="#333333"/>
    <path d="M97.6898 39.6904C97.6898 38.8489 97.0079 38.167 96.1664 38.167H83.5474C82.7059 38.167 82.024 38.8489 82.024 39.6904C82.024 40.532 82.7059 41.2139 83.5474 41.2139H96.1664C97.0077 41.2139 97.6898 40.5318 97.6898 39.6904Z" fill="#333333"/>
    <path d="M97.6914 46C97.6914 45.1585 97.0095 44.4766 96.168 44.4766H89.8583C89.0168 44.4766 88.3349 45.1585 88.3349 46C88.3349 46.8415 89.0168 47.5234 89.8583 47.5234H96.168C97.0093 47.5234 97.6914 46.8415 97.6914 46Z" fill="#333333"/>
    <path d="M70.9291 47.5232C71.7707 47.5232 72.4526 46.8413 72.4526 45.9997C72.4526 45.1001 73.1844 44.3684 74.0839 44.3684C74.9833 44.3684 75.7152 45.1003 75.7152 45.9997C75.7152 48.5792 77.8139 50.6779 80.3933 50.6779C82.9728 50.6779 85.0715 48.5792 85.0715 45.9997C85.0715 45.1582 84.3896 44.4763 83.5481 44.4763C82.7065 44.4763 82.0246 45.1582 82.0246 45.9997C82.0246 46.8994 81.2928 47.631 80.3933 47.631C79.4939 47.631 78.762 46.8992 78.762 45.9997C78.762 43.4203 76.6634 41.3216 74.0839 41.3216C71.5044 41.3216 69.4057 43.4203 69.4057 45.9997C69.4057 46.8413 70.0876 47.5232 70.9291 47.5232Z" fill="#E51A1E"/>
</svg>