<svg viewBox="0 0 40 40" fill="none" xmlns="http://www.w3.org/2000/svg">
    <path d="M27.6183 17.1429C30.2483 17.1429 32.3802 15.011 32.3802 12.381C32.3802 9.75112 30.2483 7.61914 27.6183 7.61914C24.9884 7.61914 22.8564 9.75112 22.8564 12.381C22.8564 15.011 24.9884 17.1429 27.6183 17.1429Z" fill="#ED1651"/>
    <path d="M20.0012 9.5238C22.6311 9.5238 24.7631 7.39182 24.7631 4.7619C24.7631 2.13198 22.6311 0 20.0012 0C17.3712 0 15.2393 2.13198 15.2393 4.7619C15.2393 7.39182 17.3712 9.5238 20.0012 9.5238Z" fill="#B0CB1F"/>
    <path d="M12.3803 17.1429C15.0102 17.1429 17.1422 15.011 17.1422 12.381C17.1422 9.75112 15.0102 7.61914 12.3803 7.61914C9.75038 7.61914 7.61841 9.75112 7.61841 12.381C7.61841 15.011 9.75038 17.1429 12.3803 17.1429Z" fill="#ED1651"/>
    <path d="M4.7619 24.7618C7.39182 24.7618 9.5238 22.6299 9.5238 19.9999C9.5238 17.37 7.39182 15.238 4.7619 15.238C2.13198 15.238 0 17.37 0 19.9999C0 22.6299 2.13198 24.7618 4.7619 24.7618Z" fill="#ED1651"/>
    <path d="M20.0012 24.7618C22.6311 24.7618 24.7631 22.6299 24.7631 19.9999C24.7631 17.37 22.6311 15.238 20.0012 15.238C17.3712 15.238 15.2393 17.37 15.2393 19.9999C15.2393 22.6299 17.3712 24.7618 20.0012 24.7618Z" fill="#ED1651"/>
    <path d="M20.0012 39.9999C22.6311 39.9999 24.7631 37.8679 24.7631 35.238C24.7631 32.6081 22.6311 30.4761 20.0012 30.4761C17.3712 30.4761 15.2393 32.6081 15.2393 35.238C15.2393 37.8679 17.3712 39.9999 20.0012 39.9999Z" fill="#ED1651"/>
    <path d="M12.3803 32.381C15.0102 32.381 17.1422 30.249 17.1422 27.6191C17.1422 24.9892 15.0102 22.8572 12.3803 22.8572C9.75038 22.8572 7.61841 24.9892 7.61841 27.6191C7.61841 30.249 9.75038 32.381 12.3803 32.381Z" fill="#ED1651"/>
    <path d="M27.6183 32.381C30.2483 32.381 32.3802 30.249 32.3802 27.6191C32.3802 24.9892 30.2483 22.8572 27.6183 22.8572C24.9884 22.8572 22.8564 24.9892 22.8564 27.6191C22.8564 30.249 24.9884 32.381 27.6183 32.381Z" fill="#ED1651"/>
    <path d="M35.238 24.7618C37.8679 24.7618 39.9999 22.6299 39.9999 19.9999C39.9999 17.37 37.8679 15.238 35.238 15.238C32.608 15.238 30.4761 17.37 30.4761 19.9999C30.4761 22.6299 32.608 24.7618 35.238 24.7618Z" fill="#ED1651"/>
</svg>