<svg viewBox="0 0 68 69" fill="none" xmlns="http://www.w3.org/2000/svg">
    <ellipse cx="43.3105" cy="20.9655" rx="6.82759" ry="6.82759" fill="#E51A1E"/>
    <path d="M7 4.75H9.25V7H7V4.75Z" fill="#333333"/>
    <path d="M11.5 4.75H13.75V7H11.5V4.75Z" fill="#333333"/>
    <path d="M16 4.75H18.25V7H16V4.75Z" fill="#333333"/>
    <path d="M44.125 18.25H41.875V20.5H39.625V22.75H41.875V25H44.125V22.75H46.375V20.5H44.125V18.25Z" fill="#333333"/>
    <path d="M43 13.75C41.4425 13.75 39.9199 14.2119 38.6249 15.0772C37.3298 15.9425 36.3205 17.1724 35.7245 18.6114C35.1284 20.0503 34.9725 21.6337 35.2763 23.1613C35.5802 24.6889 36.3302 26.0921 37.4315 27.1935C38.5329 28.2948 39.9361 29.0448 41.4637 29.3487C42.9913 29.6525 44.5747 29.4966 46.0136 28.9006C47.4526 28.3045 48.6825 27.2952 49.5478 26.0001C50.4131 24.7051 50.875 23.1825 50.875 21.625C50.8723 19.5372 50.0418 17.5358 48.5655 16.0595C47.0892 14.5832 45.0878 13.7527 43 13.75ZM43 27.25C41.8875 27.25 40.7999 26.9201 39.8749 26.302C38.9499 25.6839 38.2289 24.8054 37.8032 23.7776C37.3774 22.7498 37.266 21.6188 37.4831 20.5276C37.7001 19.4365 38.2359 18.4342 39.0225 17.6475C39.8092 16.8609 40.8115 16.3251 41.9026 16.1081C42.9938 15.891 44.1248 16.0024 45.1526 16.4282C46.1804 16.8539 47.0589 17.5749 47.677 18.4999C48.2951 19.4249 48.625 20.5125 48.625 21.625C48.6232 23.1163 48.03 24.546 46.9755 25.6005C45.921 26.655 44.4913 27.2482 43 27.25Z" fill="#333333"/>
    <path d="M28.375 39.625C29.5685 39.625 30.7131 39.1509 31.557 38.307C32.4009 37.4631 32.875 36.3185 32.875 35.125V32.875H30.625V35.125C30.625 35.7217 30.3879 36.294 29.966 36.716C29.544 37.1379 28.9717 37.375 28.375 37.375C27.7783 37.375 27.206 37.1379 26.784 36.716C26.3621 36.294 26.125 35.7217 26.125 35.125V32.875H23.875V35.125C23.875 36.3185 24.3491 37.4631 25.193 38.307C26.0369 39.1509 27.1815 39.625 28.375 39.625Z" fill="#333333"/>
    <path d="M63.25 49.75C62.4596 49.7508 61.6834 49.9604 61 50.3575V5.875C61 4.38316 60.4074 2.95242 59.3525 1.89752C58.2976 0.842632 56.8668 0.25 55.375 0.25H5.875C4.38316 0.25 2.95242 0.842632 1.89752 1.89752C0.842632 2.95242 0.25 4.38316 0.25 5.875V55.375C0.25 56.8668 0.842632 58.2976 1.89752 59.3525C2.95242 60.4074 4.38316 61 5.875 61H31.1763L35.4062 68.3125L37.3525 67.1875L32.5037 58.795C32.2782 58.4094 32.1726 57.9655 32.2002 57.5196C32.2279 57.0738 32.3877 56.6463 32.6591 56.2916C32.9306 55.9369 33.3015 55.671 33.7246 55.5278C34.1477 55.3846 34.6039 55.3706 35.035 55.4875C35.3218 55.5622 35.5903 55.6945 35.8243 55.8763C36.0583 56.0581 36.2529 56.2856 36.3963 56.545L38.6463 60.4375C38.7727 60.651 38.9649 60.8179 39.194 60.9132C39.4231 61.0085 39.6769 61.0271 39.9175 60.9663C40.1572 60.9017 40.3689 60.7597 40.5194 60.5623C40.67 60.3649 40.7511 60.1233 40.75 59.875V40.75C40.75 40.1533 40.9871 39.581 41.409 39.159C41.831 38.7371 42.4033 38.5 43 38.5C43.5967 38.5 44.169 38.7371 44.591 39.159C45.0129 39.581 45.25 40.1533 45.25 40.75V56.5C45.25 56.7984 45.3685 57.0845 45.5795 57.2955C45.7905 57.5065 46.0766 57.625 46.375 57.625C46.6734 57.625 46.9595 57.5065 47.1705 57.2955C47.3815 57.0845 47.5 56.7984 47.5 56.5V52C47.5 51.4033 47.7371 50.831 48.159 50.409C48.581 49.9871 49.1533 49.75 49.75 49.75C50.3467 49.75 50.919 49.9871 51.341 50.409C51.7629 50.831 52 51.4033 52 52V56.5C52 56.7984 52.1185 57.0845 52.3295 57.2955C52.5405 57.5065 52.8266 57.625 53.125 57.625C53.4234 57.625 53.7095 57.5065 53.9205 57.2955C54.1315 57.0845 54.25 56.7984 54.25 56.5V53.125C54.25 52.5283 54.4871 51.956 54.909 51.534C55.331 51.1121 55.9033 50.875 56.5 50.875C57.0967 50.875 57.669 51.1121 58.091 51.534C58.5129 51.956 58.75 52.5283 58.75 53.125V56.5C58.75 56.7984 58.8685 57.0845 59.0795 57.2955C59.2905 57.5065 59.5766 57.625 59.875 57.625C60.1734 57.625 60.4595 57.5065 60.6705 57.2955C60.8815 57.0845 61 56.7984 61 56.5V54.25C61 53.6533 61.2371 53.081 61.659 52.659C62.081 52.2371 62.6533 52 63.25 52C63.8467 52 64.419 52.2371 64.841 52.659C65.2629 53.081 65.5 53.6533 65.5 54.25V67.75H67.75V54.25C67.75 53.0565 67.2759 51.9119 66.432 51.068C65.5881 50.2241 64.4435 49.75 63.25 49.75ZM58.75 49.2325C58.0666 48.8354 57.2904 48.6258 56.5 48.625C55.4409 48.6207 54.4152 48.9959 53.6087 49.6825C53.0018 48.6699 52.0206 47.937 50.8774 47.6423C49.7342 47.3475 48.5209 47.5146 47.5 48.1075V40.75C47.5 39.5565 47.0259 38.4119 46.182 37.568C45.3381 36.7241 44.1935 36.25 43 36.25C41.8065 36.25 40.6619 36.7241 39.818 37.568C38.9741 38.4119 38.5 39.5565 38.5 40.75V55.6787L38.3537 55.42C37.8153 54.4776 36.9536 53.7623 35.9282 53.4066C34.9029 53.0508 33.7833 53.0787 32.7769 53.4851C31.7705 53.8915 30.9455 54.6489 30.4547 55.6169C29.9639 56.5849 29.8406 57.698 30.1075 58.75H5.875C4.98072 58.7473 4.12382 58.3909 3.49147 57.7585C2.85911 57.1262 2.50267 56.2693 2.5 55.375V11.5H58.75V49.2325ZM58.75 9.25H2.5V5.875C2.50267 4.98072 2.85911 4.12382 3.49147 3.49147C4.12382 2.85911 4.98072 2.50267 5.875 2.5H55.375C56.2693 2.50267 57.1262 2.85911 57.7585 3.49147C58.3909 4.12382 58.7473 4.98072 58.75 5.875V9.25Z" fill="#333333"/>
    <path d="M35.125 28.375H27.25V25C27.25 24.7016 27.1315 24.4155 26.9205 24.2045C26.7095 23.9935 26.4234 23.875 26.125 23.875H22.75V22.75C22.75 21.2582 22.1574 19.8274 21.1025 18.7725C20.0476 17.7176 18.6168 17.125 17.125 17.125C15.6332 17.125 14.2024 17.7176 13.1475 18.7725C12.0926 19.8274 11.5 21.2582 11.5 22.75V23.875H8.125C7.82663 23.875 7.54048 23.9935 7.32951 24.2045C7.11853 24.4155 7 24.7016 7 25V40.75C7.00267 41.6443 7.35911 42.5012 7.99146 43.1335C8.62382 43.7659 9.48072 44.1223 10.375 44.125H32.875C33.7693 44.1223 34.6262 43.7659 35.2585 43.1335C35.8909 42.5012 36.2473 41.6443 36.25 40.75V29.5C36.25 29.2016 36.1315 28.9155 35.9205 28.7045C35.7095 28.4935 35.4234 28.375 35.125 28.375ZM13.75 22.75C13.75 21.8549 14.1056 20.9964 14.7385 20.3635C15.3714 19.7306 16.2299 19.375 17.125 19.375C18.0201 19.375 18.8786 19.7306 19.5115 20.3635C20.1444 20.9964 20.5 21.8549 20.5 22.75V23.875H13.75V22.75ZM10.375 41.875C10.0766 41.875 9.79048 41.7565 9.5795 41.5455C9.36853 41.3345 9.25 41.0484 9.25 40.75V26.125H11.5V30.625H13.75V26.125H20.5V40.75C20.503 41.1338 20.5715 41.5142 20.7025 41.875H10.375ZM22.75 26.125H25V28.375H22.75V26.125ZM34 40.75C34 41.0484 33.8815 41.3345 33.6705 41.5455C33.4595 41.7565 33.1734 41.875 32.875 41.875H23.875C23.5766 41.875 23.2905 41.7565 23.0795 41.5455C22.8685 41.3345 22.75 41.0484 22.75 40.75V30.625H34V40.75Z" fill="#333333"/>
</svg>