<svg viewBox="0 0 46 40" fill="none" xmlns="http://www.w3.org/2000/svg">
    <path d="M45.6714 12.5114L43.0857 2.16286C42.7686 0.891428 41.6257 0 40.3143 0H5.40286C4.09143 0 2.94857 0.891428 2.62857 2.16286L0.0428571 12.5114C0.0142857 12.6229 0 12.74 0 12.8571C0 16.7943 3.04286 20 6.78571 20C8.96 20 10.9 18.9171 12.1429 17.2371C13.3857 18.9171 15.3257 20 17.5 20C19.6743 20 21.6143 18.9171 22.8571 17.2371C24.1 18.9171 26.0371 20 28.2143 20C30.3914 20 32.3286 18.9171 33.5714 17.2371C34.8143 18.9171 36.7514 20 38.9286 20C42.6714 20 45.7143 16.7943 45.7143 12.8571C45.7143 12.74 45.7 12.6229 45.6714 12.5114Z" fill="black"/>
    <path d="M38.9286 22.8572C36.9829 22.8572 35.1343 22.263 33.5715 21.1772C30.4457 23.3515 25.9829 23.3515 22.8572 21.1772C19.7315 23.3515 15.2686 23.3515 12.1429 21.1772C10.58 22.263 8.73146 22.8572 6.78575 22.8572C5.38289 22.8572 4.06003 22.5287 2.85718 21.9687V37.143C2.85718 38.7201 4.13718 40.0001 5.71432 40.0001H17.1429V28.5715H28.5715V40.0001H40C41.5772 40.0001 42.8572 38.7201 42.8572 37.143V21.9687C41.6543 22.5287 40.3315 22.8572 38.9286 22.8572Z" fill="black"/>
</svg>