<svg viewBox="0 0 80 80" fill="none" xmlns="http://www.w3.org/2000/svg">
    <g clip-path="url(#clip0_1793:23072)">
        <rect x="17.6923" y="2.30762" width="3.84616" height="11.5385" fill="#E51A1E"/>
        <rect x="37.6923" y="2.30762" width="3.84616" height="11.5385" fill="#E51A1E"/>
        <rect x="58.4615" y="2.30762" width="3.84616" height="11.5385" fill="#E51A1E"/>
        <path d="M78.8258 7.51469H63.7181V3.67906C63.7181 1.65047 62.0678 0 60.0391 0C58.0103 0 56.36 1.65047 56.36 3.67906V7.51469H43.6789V3.67906C43.6791 1.65047 42.0286 0 40 0C37.9714 0 36.3209 1.65047 36.3209 3.67906V7.51469H23.6398V3.67906C23.6398 1.65047 21.9895 0 19.9609 0C17.9323 0 16.2819 1.65047 16.2819 3.67906V7.51469H1.17422C0.525625 7.51469 0 8.04031 0 8.68891V78.8259C0 79.4742 0.525625 80 1.17422 80H78.8259C79.4745 80 80.0002 79.4742 80.0002 78.8258V8.68891C80 8.04031 79.4744 7.51469 78.8258 7.51469ZM58.7084 3.67906C58.7084 2.94531 59.3053 2.34828 60.0392 2.34828C60.7731 2.34828 61.37 2.94516 61.37 3.67906V12.4462C61.37 13.18 60.7731 13.777 60.0392 13.777C59.3053 13.777 58.7084 13.1802 58.7084 12.4462V3.67906ZM38.6692 3.67906C38.6692 2.94531 39.2661 2.34828 40 2.34828C40.7339 2.34828 41.3308 2.94516 41.3308 3.67906V12.4462C41.3308 13.18 40.7339 13.777 40 13.777C39.2661 13.777 38.6692 13.1802 38.6692 12.4462V3.67906ZM18.6302 3.67906C18.6302 2.94531 19.227 2.34828 19.9609 2.34828C20.6948 2.34828 21.2917 2.94516 21.2917 3.67906V12.4462C21.2917 13.18 20.6948 13.777 19.9609 13.777C19.227 13.777 18.6302 13.1802 18.6302 12.4462V3.67906ZM77.6517 20.0391H69.9022C69.2536 20.0391 68.728 20.5648 68.728 21.2133C68.728 21.8617 69.2536 22.3875 69.9022 22.3875H77.6517V77.6517H2.34828V22.3875H64.4748C65.1234 22.3875 65.6491 21.8617 65.6491 21.2133C65.6491 20.5648 65.1234 20.0391 64.4748 20.0391H2.34828V9.86297H16.2817V12.4461C16.2817 14.4747 17.9322 16.1252 19.9608 16.1252C21.9894 16.1252 23.6398 14.4747 23.6398 12.4461V9.86297H36.3209V12.4461C36.3209 14.4747 37.9714 16.1252 40 16.1252C42.0286 16.1252 43.6791 14.4747 43.6791 12.4461V9.86297H56.3602V12.4461C56.3602 14.4747 58.0106 16.1252 60.0392 16.1252C62.0678 16.1252 63.7183 14.4747 63.7183 12.4461V9.86297H77.6517V20.0391Z" fill="#333333"/>
        <path d="M70.0588 51.1938C70.7074 51.1938 71.233 50.668 71.233 50.0196C71.233 49.3712 70.7074 48.8454 70.0588 48.8454H61.2133V31.1546H70.0588C70.7074 31.1546 71.233 30.6288 71.233 29.9804C71.233 29.332 70.7074 28.8062 70.0588 28.8062H61.2133V26.223C61.2133 25.5746 60.6877 25.0488 60.0391 25.0488C59.3905 25.0488 58.8649 25.5746 58.8649 26.223V28.8062H41.1743V26.223C41.1743 25.5746 40.6487 25.0488 40.0001 25.0488C39.3515 25.0488 38.8258 25.5746 38.8258 26.223V28.8062H21.1351V26.223C21.1351 25.5746 20.6094 25.0488 19.9608 25.0488C19.3122 25.0488 18.7866 25.5746 18.7866 26.223V28.8062H9.94131C9.29271 28.8062 8.76709 29.332 8.76709 29.9804C8.76709 30.6288 9.29271 31.1546 9.94131 31.1546H18.7868V48.8454H9.94131C9.29271 48.8454 8.76709 49.3712 8.76709 50.0196C8.76709 50.668 9.29271 51.1938 9.94131 51.1938H18.7868V68.8846H9.94131C9.29271 68.8846 8.76709 69.4104 8.76709 70.0588C8.76709 70.7073 9.29271 71.233 9.94131 71.233H18.7868V73.8162C18.7868 74.4646 19.3124 74.9904 19.961 74.9904C20.6096 74.9904 21.1352 74.4646 21.1352 73.8162V71.2329H38.826V73.816C38.826 74.4644 39.3516 74.9902 40.0002 74.9902C40.6488 74.9902 41.1744 74.4644 41.1744 73.816V71.2329H58.8652V73.816C58.8652 74.4644 59.3908 74.9902 60.0394 74.9902C60.688 74.9902 61.2137 74.4644 61.2137 73.816V71.2329H70.0591C70.7077 71.2329 71.2333 70.7071 71.2333 70.0587C71.2333 69.4102 70.7077 68.8844 70.0591 68.8844H61.2137V51.1938H70.0588ZM58.8651 48.8455H57.6649C57.0163 48.8455 56.4907 49.3713 56.4907 50.0198C56.4907 50.6682 57.0163 51.194 57.6649 51.194H58.8651V68.8848H41.1743V67.7105C41.1743 67.0621 40.6487 66.5363 40.0001 66.5363C39.3515 66.5363 38.8258 67.0621 38.8258 67.7105V68.8848H21.1351V51.1938H22.3352C22.9838 51.1938 23.5094 50.668 23.5094 50.0196C23.5094 49.3712 22.9838 48.8454 22.3352 48.8454H21.1351V31.1546H38.8258V32.4332C38.8258 33.0816 39.3515 33.6074 40.0001 33.6074C40.6487 33.6074 41.1743 33.0816 41.1743 32.4332V31.1546H58.8651V48.8455Z" fill="#333333"/>
        <path d="M40.0001 35.0684C31.9287 35.0684 25.3621 41.6349 25.3621 49.7063C25.3621 57.7777 31.9287 64.3443 40.0001 64.3443C48.0715 64.3443 54.638 57.7777 54.638 49.7063C54.638 41.6349 48.0715 35.0684 40.0001 35.0684ZM40.0001 61.996C33.2235 61.996 27.7104 56.4829 27.7104 49.7063C27.7104 42.9298 33.2235 37.4168 40.0001 37.4168C46.7766 37.4168 52.2898 42.9299 52.2898 49.7065C52.2898 56.483 46.7766 61.996 40.0001 61.996Z" fill="#333333"/>
        <path d="M43.2563 48.4381C43.9049 48.4381 44.4306 47.9124 44.4306 47.2639V46.4499C44.4306 44.5774 42.9999 43.0327 41.1742 42.8514V41.5653C41.1742 40.9169 40.6485 40.3911 39.9999 40.3911C39.3513 40.3911 38.8257 40.9169 38.8257 41.5653V42.9077C36.9731 43.2669 35.5693 44.9006 35.5693 46.8567C35.5693 49.0753 37.3743 50.8802 39.5927 50.8802H40.4067C41.3304 50.8802 42.0818 51.6316 42.0818 52.5553C42.0818 53.4791 41.3304 54.2305 40.4067 54.2305H39.1856C38.4863 54.2305 37.9174 53.6616 37.9174 52.9624C37.9174 52.3139 37.3918 51.7881 36.7432 51.7881C36.0946 51.7881 35.569 52.3139 35.569 52.9624C35.569 54.8349 36.9996 56.3795 38.8254 56.5608V57.8469C38.8254 58.4953 39.351 59.0211 39.9996 59.0211C40.6482 59.0211 41.1738 58.4953 41.1738 57.8469V56.5046C43.0265 56.1453 44.4302 54.5116 44.4302 52.5555C44.4302 50.3369 42.6252 48.532 40.4068 48.532H39.5929C38.6692 48.532 37.9177 47.7806 37.9177 46.8569C37.9177 45.9331 38.6692 45.1817 39.5929 45.1817H40.814C41.5132 45.1817 42.0821 45.7506 42.0821 46.4499V47.2639C42.0821 47.9125 42.6077 48.4381 43.2563 48.4381Z" fill="#333333"/>
    </g>
    <defs>
        <clipPath id="clip0_1793:23072">
            <rect width="80" height="80" fill="white"/>
        </clipPath>
    </defs>
</svg>