<svg viewBox="0 0 72 72" fill="none" xmlns="http://www.w3.org/2000/svg">
    <g clip-path="url(#clip0_1856:24131)">
        <rect x="15.9231" y="2.0769" width="3.46154" height="10.3846" fill="#E51A1E"/>
        <rect x="33.9231" y="2.0769" width="3.46153" height="10.3846" fill="#E51A1E"/>
        <rect x="52.6155" y="2.0769" width="3.46154" height="10.3846" fill="#E51A1E"/>
        <path d="M70.9432 6.76322H57.3463V3.31116C57.3463 1.48542 55.861 0 54.0352 0C52.2093 0 50.724 1.48542 50.724 3.31116V6.76322H39.311V3.31116C39.3112 1.48542 37.8257 0 36 0C34.1743 0 32.6888 1.48542 32.6888 3.31116V6.76322H21.2759V3.31116C21.2759 1.48542 19.7906 0 17.9648 0C16.1391 0 14.6537 1.48542 14.6537 3.31116V6.76322H1.0568C0.473062 6.76322 0 7.23628 0 7.82002V70.9433C0 71.5268 0.473062 72 1.0568 72H70.9433C71.5271 72 72.0001 71.5268 72.0001 70.9432V7.82002C72 7.23628 71.5269 6.76322 70.9432 6.76322ZM52.8376 3.31116C52.8376 2.65078 53.3748 2.11345 54.0353 2.11345C54.6958 2.11345 55.233 2.65064 55.233 3.31116V11.2016C55.233 11.862 54.6958 12.3993 54.0353 12.3993C53.3748 12.3993 52.8376 11.8621 52.8376 11.2016V3.31116ZM34.8023 3.31116C34.8023 2.65078 35.3395 2.11345 36 2.11345C36.6605 2.11345 37.1977 2.65064 37.1977 3.31116V11.2016C37.1977 11.862 36.6605 12.3993 36 12.3993C35.3395 12.3993 34.8023 11.8621 34.8023 11.2016V3.31116ZM16.7671 3.31116C16.7671 2.65078 17.3043 2.11345 17.9648 2.11345C18.6254 2.11345 19.1625 2.65064 19.1625 3.31116V11.2016C19.1625 11.862 18.6254 12.3993 17.9648 12.3993C17.3043 12.3993 16.7671 11.8621 16.7671 11.2016V3.31116ZM69.8866 18.0352H62.912C62.3282 18.0352 61.8552 18.5084 61.8552 19.092C61.8552 19.6755 62.3282 20.1488 62.912 20.1488H69.8866V69.8866H2.11345V20.1488H58.0274C58.6111 20.1488 59.0842 19.6755 59.0842 19.092C59.0842 18.5084 58.6111 18.0352 58.0274 18.0352H2.11345V8.87667H14.6535V11.2015C14.6535 13.0272 16.139 14.5126 17.9647 14.5126C19.7904 14.5126 21.2759 13.0272 21.2759 11.2015V8.87667H32.6888V11.2015C32.6888 13.0272 34.1743 14.5126 36 14.5126C37.8257 14.5126 39.3112 13.0272 39.3112 11.2015V8.87667H50.7241V11.2015C50.7241 13.0272 52.2096 14.5126 54.0353 14.5126C55.861 14.5126 57.3465 13.0272 57.3465 11.2015V8.87667H69.8866V18.0352Z" fill="#333333"/>
        <path d="M63.0529 46.0743C63.6367 46.0743 64.1097 45.6011 64.1097 45.0175C64.1097 44.4339 63.6367 43.9607 63.0529 43.9607H55.092V28.039H63.0529C63.6367 28.039 64.1097 27.5658 64.1097 26.9822C64.1097 26.3986 63.6367 25.9254 63.0529 25.9254H55.092V23.6006C55.092 23.017 54.6189 22.5438 54.0352 22.5438C53.4515 22.5438 52.9784 23.017 52.9784 23.6006V25.9254H37.0569V23.6006C37.0569 23.017 36.5838 22.5438 36.0001 22.5438C35.4163 22.5438 34.9433 23.017 34.9433 23.6006V25.9254H19.0216V23.6006C19.0216 23.017 18.5485 22.5438 17.9648 22.5438C17.381 22.5438 16.908 23.017 16.908 23.6006V25.9254H8.94718C8.36344 25.9254 7.89038 26.3986 7.89038 26.9822C7.89038 27.5658 8.36344 28.039 8.94718 28.039H16.9081V43.9607H8.94718C8.36344 43.9607 7.89038 44.4339 7.89038 45.0175C7.89038 45.6011 8.36344 46.0743 8.94718 46.0743H16.9081V61.996H8.94718C8.36344 61.996 7.89038 62.4692 7.89038 63.0528C7.89038 63.6364 8.36344 64.1096 8.94718 64.1096H16.9081V66.4344C16.9081 67.018 17.3812 67.4912 17.9649 67.4912C18.5486 67.4912 19.0217 67.018 19.0217 66.4344V64.1095H34.9434V66.4343C34.9434 67.0179 35.4165 67.4911 36.0002 67.4911C36.5839 67.4911 37.057 67.0179 37.057 66.4343V64.1095H52.9787V66.4343C52.9787 67.0179 53.4518 67.4911 54.0355 67.4911C54.6192 67.4911 55.0923 67.0179 55.0923 66.4343V64.1095H63.0532C63.6369 64.1095 64.11 63.6363 64.11 63.0527C64.11 62.4691 63.6369 61.9959 63.0532 61.9959H55.0923V46.0743H63.0529ZM52.9786 43.9609H51.8984C51.3147 43.9609 50.8416 44.4341 50.8416 45.0177C50.8416 45.6013 51.3147 46.0745 51.8984 46.0745H52.9786V61.9962H37.0569V60.9394C37.0569 60.3558 36.5838 59.8826 36.0001 59.8826C35.4163 59.8826 34.9433 60.3558 34.9433 60.9394V61.9962H19.0216V46.0743H20.1017C20.6854 46.0743 21.1585 45.6011 21.1585 45.0175C21.1585 44.4339 20.6854 43.9607 20.1017 43.9607H19.0216V28.039H34.9433V29.1898C34.9433 29.7734 35.4163 30.2466 36.0001 30.2466C36.5838 30.2466 37.0569 29.7734 37.0569 29.1898V28.039H52.9786V43.9609Z" fill="#333333"/>
        <path d="M35.9999 31.5616C28.7356 31.5616 22.8257 37.4715 22.8257 44.7358C22.8257 52.0001 28.7356 57.91 35.9999 57.91C43.2641 57.91 49.174 52.0001 49.174 44.7358C49.174 37.4715 43.2641 31.5616 35.9999 31.5616ZM35.9999 55.7965C29.9009 55.7965 24.9391 50.8347 24.9391 44.7358C24.9391 38.6369 29.9009 33.6752 35.9999 33.6752C42.0988 33.6752 47.0606 38.637 47.0606 44.736C47.0606 50.8349 42.0988 55.7965 35.9999 55.7965Z" fill="#333333"/>
        <path d="M38.9308 43.5945C39.5145 43.5945 39.9876 43.1213 39.9876 42.5377V41.805C39.9876 40.1198 38.7 38.7296 37.0568 38.5665V37.409C37.0568 36.8254 36.5838 36.3522 36 36.3522C35.4163 36.3522 34.9433 36.8254 34.9433 37.409V38.6171C33.2759 38.9404 32.0125 40.4108 32.0125 42.1712C32.0125 44.168 33.637 45.7923 35.6336 45.7923H36.3661C37.1975 45.7923 37.8737 46.4686 37.8737 47.3C37.8737 48.1313 37.1975 48.8076 36.3661 48.8076H35.2671C34.6378 48.8076 34.1258 48.2956 34.1258 47.6663C34.1258 47.0827 33.6527 46.6095 33.069 46.6095C32.4853 46.6095 32.0122 47.0827 32.0122 47.6663C32.0122 49.3516 33.2998 50.7418 34.943 50.9049V52.0624C34.943 52.646 35.416 53.1192 35.9998 53.1192C36.5835 53.1192 37.0566 52.646 37.0566 52.0624V50.8543C38.7239 50.531 39.9873 49.0606 39.9873 47.3001C39.9873 45.3034 38.3628 43.679 36.3662 43.679H35.6337C34.8023 43.679 34.1261 43.0028 34.1261 42.1714C34.1261 41.34 34.8023 40.6637 35.6337 40.6637H36.7327C37.362 40.6637 37.874 41.1758 37.874 41.805V42.5377C37.874 43.1214 38.3471 43.5945 38.9308 43.5945Z" fill="#333333"/>
    </g>
    <defs>
        <clipPath id="clip0_1856:24131">
            <rect width="72" height="72" fill="white"/>
        </clipPath>
    </defs>
</svg>