<svg viewBox="0 0 80 80" fill="none" xmlns="http://www.w3.org/2000/svg">
    <g clip-path="url(#clip0_1793:23041)">
        <path d="M61.9861 30.469C55.0225 30.469 49.3572 36.1343 49.3572 43.0981C49.3572 50.0617 55.0223 55.727 61.9861 55.727C68.9498 55.727 74.6152 50.0617 74.6152 43.0981C74.615 36.1345 68.9497 30.469 61.9861 30.469ZM61.9861 53.3767C56.3186 53.3767 51.7076 48.7657 51.7076 43.0982C51.7076 37.4306 56.3186 32.8196 61.9861 32.8196C67.6537 32.8196 72.2647 37.4306 72.2647 43.0982C72.2645 48.7657 67.6537 53.3767 61.9861 53.3767Z" fill="#333333"/>
        <path d="M66.3751 40.5915L64.3268 40.2938L63.4106 38.4374C62.827 37.2563 61.1435 37.2579 60.5614 38.4378L59.6451 40.2938L57.597 40.5915C56.2945 40.7806 55.774 42.3828 56.7164 43.3013L58.1985 44.746L57.8487 46.7865C57.6265 48.0835 58.9895 49.0732 60.154 48.4609L61.986 47.4978L63.8181 48.4609C64.9829 49.0729 66.346 48.0832 66.1232 46.7862L65.7735 44.746L67.2559 43.3012C68.1982 42.3826 67.6775 40.7806 66.3751 40.5915ZM63.5459 45.6624C61.8965 44.7954 61.9487 44.8621 60.4262 45.6624C60.7431 43.8167 60.6876 43.8898 59.4625 42.6954C61.1575 42.4492 61.1589 42.5384 61.986 40.8617C62.7407 42.3913 62.6559 42.4259 64.51 42.6954C63.2845 43.8901 63.2295 43.8182 63.5459 45.6624Z" fill="#333333"/>
        <path d="M41.4397 12.3381H28.3868C26.7296 12.3381 25.3813 13.6864 25.3813 15.3436V16.5049C25.3813 18.1622 26.7294 19.5103 28.3868 19.5103H41.4397C43.0969 19.5103 44.4452 18.1622 44.4452 16.5049V15.3438C44.4453 13.6866 43.0971 12.3381 41.4397 12.3381ZM42.0947 16.505C42.0947 16.8664 41.801 17.1602 41.4396 17.1602H28.3866C28.0252 17.1602 27.7314 16.8664 27.7314 16.505V15.3438C27.7314 14.9825 28.0252 14.6886 28.3866 14.6886H41.4396C41.801 14.6886 42.0947 14.9825 42.0947 15.3438V16.505Z" fill="#333333"/>
        <rect x="27.2" y="14.3999" width="15.2" height="3.2" fill="#E51A1E"/>
        <path d="M55.2 76.8001V59.6001H68.4V76.8001L62 74.0001L55.2 76.8001Z" fill="#E51A1E" stroke="#333333"/>
        <path d="M79.0128 44.6802C78.3725 44.5765 77.7687 45.0115 77.6647 45.6521C76.4053 53.4133 69.7139 58.9829 61.9861 58.9829C53.3069 58.9829 46.1014 51.9376 46.1014 43.0983C46.1014 34.3394 53.2273 27.2135 61.9861 27.2135C69.6614 27.2135 76.3892 32.6846 77.6647 40.5443C77.7686 41.1849 78.3725 41.6198 79.0128 41.5162C79.6536 41.4121 80.0884 40.8085 79.9847 40.168C79.0398 34.3447 75.2677 29.2372 69.8264 26.6402V2.24318C69.8264 1.14287 68.9311 0.247559 67.8308 0.247559H37.0137C36.3645 0.247559 35.8386 0.773652 35.8386 1.42271C35.8386 2.07178 36.3645 2.59787 37.0137 2.59787H67.4759V25.7066C65.668 25.1337 63.7741 24.8627 61.9861 24.8627C59.7917 24.8627 57.6866 25.2526 55.7364 25.9662C55.7128 25.9647 55.6892 25.9626 55.6652 25.9626H12.878C12.2288 25.9626 11.7028 26.4887 11.7028 27.1377C11.7028 27.7868 12.2289 28.3129 12.878 28.3129H51.3255C49.7266 29.469 48.3219 30.8772 47.1702 32.4796H12.878C12.2288 32.4796 11.7028 33.0057 11.7028 33.6548C11.7028 34.3038 12.2289 34.8299 12.878 34.8299H45.7358C45.0684 36.1363 44.5541 37.533 44.2164 38.9966H12.878C12.2288 38.9966 11.7028 39.5227 11.7028 40.1718C11.7028 40.8208 12.2288 41.3469 12.878 41.3469H43.8355C43.7803 41.9232 43.7509 42.5069 43.7509 43.0976C43.7509 45.3046 44.1469 47.4702 44.9022 49.4777H2.35031V13.5776H11.2744C12.4077 13.5776 13.3298 12.6554 13.3298 11.5221V2.59803H31.5294C32.1786 2.59803 32.7045 2.07193 32.7045 1.42287C32.7045 0.773809 32.1784 0.247715 31.5294 0.247715H12.1547C11.8541 0.247715 11.55 0.365527 11.3236 0.591934L0.344062 11.5715C0.343594 11.5719 0.343281 11.5726 0.342813 11.573C0.12 11.7963 0 12.1029 0 12.4026V49.5366C0 50.8005 1.02844 51.8287 2.29203 51.8287H45.9808C46.8139 53.3499 47.8575 54.7402 49.0723 55.9601V77.9923C49.0723 79.2157 50.2941 80.0662 51.4416 79.6416L61.9861 75.7382L72.5306 79.6416C73.6763 80.0657 74.9 79.2185 74.9 77.9923V55.9557C77.585 53.2574 79.3756 49.7827 79.9847 46.0283C80.0886 45.3879 79.6536 44.7841 79.0128 44.6802ZM10.9795 4.26006V11.2272H4.01234L10.9795 4.26006ZM54.1459 76.134L51.4228 77.1419V57.9555C52.2081 58.516 53.1623 59.089 54.1459 59.5594V76.134ZM67.4761 75.264L62.597 73.4577C62.2034 73.3119 61.7697 73.3115 61.3756 73.4576L56.4961 75.264V60.4883H56.4962C59.9909 61.5933 63.8473 61.6348 67.4761 60.4883V75.264ZM72.5497 77.1423L69.8266 76.1341V59.5585C70.7936 59.0963 71.7439 58.531 72.5497 57.9557V77.1423Z" fill="#333333"/>
    </g>
    <defs>
        <clipPath id="clip0_1793:23041">
            <rect width="80" height="80" fill="white"/>
        </clipPath>
    </defs>
</svg>