<svg viewBox="0 0 72 72" fill="none" xmlns="http://www.w3.org/2000/svg">
    <g clip-path="url(#clip0_1856:24126)">
        <ellipse cx="36" cy="45.6" rx="4" ry="4" fill="#E51A1E"/>
        <ellipse cx="9.6" cy="46.4" rx="1.6" ry="1.6" fill="#E51A1E"/>
        <path d="M64.8861 1.07403L62.9855 0.58184C62.0028 0.326958 60.9789 0.470329 60.1033 0.985586C59.2276 1.50084 58.6053 2.32591 58.3515 3.30864L58.3295 3.39158C57.9878 3.1779 57.6121 3.01311 57.2111 2.90929C55.0781 2.35613 52.8929 3.64207 52.3398 5.77506L50.0486 14.6146C49.496 16.7476 50.7814 18.9328 52.9144 19.486C53.2473 19.5722 53.5851 19.615 53.9207 19.615C53.9899 19.615 54.0591 19.6101 54.1278 19.6068L50.872 32.1713C50.6567 32.1455 50.4403 32.1251 50.2211 32.1163L31.3027 31.3446C30.7232 31.3248 30.2299 31.7736 30.2063 32.3553C30.1821 32.937 30.6347 33.4281 31.217 33.4517L50.1348 34.2241C52.0563 34.3021 53.8114 35.2364 54.9507 36.7866C56.0916 38.3384 56.4585 40.2956 55.9587 42.1562L54.2805 48.4024C54.2783 48.4107 54.2761 48.4183 54.2739 48.4266L52.3337 55.6479C51.4647 58.8806 48.5221 61.1383 45.1767 61.1383H26.4028C23.3481 61.1383 20.7064 59.2992 19.5765 56.6152C19.5754 56.6125 19.5743 56.6092 19.5726 56.6064C19.2958 55.9456 19.109 55.2348 19.0316 54.4872L18.2784 47.217H20.3988L21.1294 54.2696C21.4106 56.9833 23.6771 59.0295 26.4028 59.0295H45.1773C47.5701 59.0295 49.6751 57.4139 50.2969 55.1008L53.9224 41.609C54.3772 39.9139 53.6971 38.6427 53.2511 38.0358C52.8062 37.4299 51.7982 36.4032 50.0491 36.3318L23.9743 35.2678C22.707 35.2183 21.5408 35.7116 20.696 36.6482C20.2302 37.1651 19.4732 38.2736 19.6402 39.888L20.1807 45.1076H18.0604L17.5424 40.1056C17.3534 38.284 17.9642 36.4741 19.2178 35.1398C20.4697 33.8071 22.2346 33.0853 24.0616 33.16L26.7176 33.2688C27.2987 33.2908 27.7904 32.8398 27.814 32.2581C27.8376 31.6758 27.3855 31.1847 26.8033 31.1611L24.1479 31.0523C21.7111 30.9523 19.3518 31.9164 17.6802 33.6956C16.0076 35.4765 15.1924 37.8918 15.444 40.3226L15.9395 45.1076H12.4414C12.0058 43.8799 10.8336 42.9983 9.45865 42.9983C7.71402 42.9983 6.2946 44.4177 6.2946 46.1623C6.2946 47.9069 7.71402 49.3264 9.45865 49.3264C10.8336 49.3264 12.0058 48.4447 12.4414 47.217H14.9013L1.74352 59.3409C0.635557 60.3615 0 61.8106 0 63.3169C0 64.677 0.508116 65.9772 1.43096 66.9791C2.40929 68.041 3.74248 68.6584 5.18498 68.7177C5.26079 68.7205 5.33604 68.7221 5.4113 68.7221C6.7714 68.7221 8.06284 68.2189 9.06918 67.2917L13.2918 63.4015C13.7202 63.0065 13.7477 62.3396 13.3533 61.9112C12.9583 61.4827 12.2915 61.4552 11.863 61.8502L7.63987 65.7404C6.99222 66.337 6.15177 66.6435 5.27122 66.61C4.39177 66.5737 3.57878 66.1975 2.98223 65.5498C2.41918 64.9384 2.10937 64.1458 2.10937 63.3169C2.10937 62.3984 2.49663 61.5146 3.17284 60.8916L16.3196 48.7781L16.9332 54.7042C17.0073 55.4205 17.1606 56.1099 17.3803 56.7668L15.1715 58.802C14.7431 59.1964 14.7156 59.8639 15.1105 60.2923C15.3182 60.5176 15.6016 60.6324 15.8862 60.6324C16.1416 60.6324 16.3981 60.5401 16.6008 60.3533L18.3213 58.7685C20.0082 61.4783 23.0064 63.2482 26.4028 63.2482H32.8314V66.131H29.8097C28.0667 66.131 26.6478 67.5493 26.6478 69.2972C26.6478 71.0402 28.0667 72.4585 29.8097 72.4585H42.189C43.9325 72.4585 45.3509 71.0402 45.3509 69.2928C45.3509 67.5493 43.9325 66.131 42.189 66.131H39.1595V63.2482H45.1773C49.4746 63.2482 53.2549 60.3478 54.3712 56.1955L56.1334 49.6373C59.8802 49.0836 62.9597 46.3463 63.9243 42.6269L65.6206 36.0802C65.7667 35.5166 65.4283 34.9409 64.8642 34.7948C64.3006 34.6481 63.7249 34.9871 63.5788 35.5512L61.8825 42.0979C61.2134 44.6786 59.2348 46.6501 56.7475 47.3521L57.9961 42.7033C58.6635 40.2209 58.173 37.6089 56.6508 35.5375C55.6873 34.2257 54.392 33.2463 52.9204 32.6766L60.3933 3.83763C60.5064 3.40037 60.7833 3.03288 61.1733 2.80382C61.5628 2.5742 62.0182 2.50993 62.456 2.62419L64.3571 3.11638C68.2979 4.13755 70.6726 8.17392 69.652 12.1141L64.7071 31.1973C64.5609 31.7609 64.8993 32.3366 65.4635 32.4827C66.0271 32.6289 66.6027 32.2899 66.7489 31.7263L71.6938 12.6437C73.0067 7.57681 69.953 2.38689 64.8861 1.07403ZM21.738 39.6705C21.6551 38.868 22.0314 38.317 22.2626 38.0605C22.6625 37.6172 23.2074 37.3733 23.7974 37.3733C23.8287 37.3733 23.8595 37.3738 23.8897 37.3749L49.9629 38.4389C50.7869 38.4725 51.2818 38.9174 51.5515 39.2849C51.8223 39.6529 52.1003 40.2605 51.885 41.0614L48.2595 54.5531C47.8854 55.9467 46.6176 56.9195 45.1773 56.9195H26.4028C24.762 56.9195 23.397 55.6869 23.2278 54.0521L22.5197 47.2164H31.0088C31.601 49.4813 33.6636 51.1578 36.1114 51.1578C39.0195 51.1578 41.3848 48.7919 41.3848 45.8844C41.3848 42.9763 39.0195 40.6109 36.1114 40.6109C33.4675 40.6109 31.2725 42.5665 30.8956 45.1076H22.3011L21.738 39.6705ZM32.9473 45.8844C32.9473 44.1397 34.3668 42.7203 36.1114 42.7203C37.856 42.7203 39.2754 44.1397 39.2754 45.8844C39.2754 47.629 37.856 49.0484 36.1114 49.0484C34.3668 49.0484 32.9473 47.629 32.9473 45.8844ZM9.45865 47.2164C8.87747 47.2164 8.40396 46.7435 8.40396 46.1618C8.40396 45.5806 8.87747 45.1076 9.45865 45.1076C10.0404 45.1076 10.5133 45.5806 10.5133 46.1618C10.5133 46.7435 10.0404 47.2164 9.45865 47.2164ZM43.2415 69.2967C43.2415 69.8773 42.7691 70.3492 42.189 70.3492H29.8097C29.2296 70.3492 28.7572 69.8773 28.7572 69.2923C28.7572 68.7117 29.2296 68.2398 29.8097 68.2398H42.189C42.7691 68.2398 43.2415 68.7122 43.2415 69.2967ZM37.0502 66.1304H34.9408V63.2476H37.0502V66.1304ZM53.4439 17.4441C52.437 17.1832 51.83 16.1511 52.091 15.1436L54.3816 6.3046C54.6431 5.2977 55.6747 4.69016 56.6816 4.95109C57.1133 5.06315 57.483 5.32187 57.7374 5.67728L54.72 17.3222C54.325 17.5095 53.8762 17.5562 53.4439 17.4441Z" fill="#333333"/>
    </g>
    <defs>
        <clipPath id="clip0_1856:24126">
            <rect width="72" height="72" fill="white"/>
        </clipPath>
    </defs>
</svg>