<svg viewBox="0 0 44 58" fill="none" xmlns="http://www.w3.org/2000/svg">
    <path d="M25.3672 43H18.8672V51L21.8672 49.5L24.8672 51L25.3672 43Z" fill="#E51A1E"/>
    <path d="M32.2031 40.3272H36.6646C37.134 40.3272 37.5142 39.9469 37.5142 39.4776C37.5142 39.0082 37.134 38.6279 36.6646 38.6279H32.2031C31.7338 38.6279 31.3535 39.0082 31.3535 39.4776C31.3535 39.9469 31.7338 40.3272 32.2031 40.3272Z" fill="#333333"/>
    <path d="M38.6874 33.2503C35.7992 31.9645 30.2474 31.2045 28.213 30.9593V27.1458C29.7869 25.9086 31.4877 23.9017 31.6327 20.9548H31.6871C33.3506 20.9548 34.7038 19.6011 34.7038 17.9369V16.9111C34.7038 16.4715 34.6068 16.0393 34.4244 15.6447C34.608 15.3572 34.7084 15.021 34.7084 14.667C34.7084 13.6424 34.3127 12.6838 33.6571 11.9586V9.02913C33.6571 5.85683 31.6468 3.01713 28.6547 1.96291C28.2123 1.80725 27.7269 2.03949 27.571 2.48198C27.4152 2.92446 27.6475 3.40966 28.0901 3.56565C30.4036 4.38062 31.958 6.5763 31.958 9.02913V10.8422C31.8324 10.8003 31.7043 10.7637 31.5733 10.7344C25.1325 9.29116 18.6006 9.29116 12.1593 10.7344C12.0283 10.7637 11.9002 10.8003 11.7747 10.8422V9.02913C11.7747 6.57641 13.329 4.38073 15.6425 3.56565L20.0749 2.00403C21.2301 1.59711 22.5023 1.59711 23.6575 2.00403L24.3607 2.25178C24.8033 2.40755 25.2885 2.1752 25.4443 1.73271C25.6002 1.29011 25.3678 0.805027 24.9253 0.649034L24.2221 0.401282C22.7027 -0.13376 21.0294 -0.13376 19.5102 0.401282L15.0777 1.96291C12.0855 3.01713 10.0753 5.85672 10.0753 9.02913V11.9586C9.41971 12.6838 9.02389 13.6425 9.02389 14.6671C9.02389 15.0211 9.12426 15.3573 9.30789 15.6447C9.12562 16.0392 9.02865 16.4713 9.02865 16.911V17.9368C9.02865 19.6008 10.3819 20.9547 12.0453 20.9547H12.0998C12.2451 23.902 13.9456 25.9087 15.5194 27.1457V30.9593C13.485 31.2045 7.93319 31.9645 5.045 33.2503C1.98032 34.615 0 37.6644 0 41.0192V54.0914C0 56.2466 1.75353 58.0001 3.90876 58.0001H39.8238C41.979 58.0001 43.7325 56.2466 43.7325 54.0914V41.0192C43.7325 37.6644 41.7522 34.615 38.6874 33.2503ZM16.0807 32.6049L20.2062 36.3742L17.8975 37.1047C17.0294 37.3791 16.08 37.0004 15.6398 36.2037L13.8163 32.9035C14.8176 32.7571 15.6326 32.657 16.0807 32.6049ZM21.8504 29.6687C21.8557 29.6689 21.8609 29.6689 21.8663 29.6689C21.8716 29.6689 21.8768 29.6689 21.8821 29.6687C23.0402 29.6471 24.795 29.1982 26.5139 28.2604V31.3429L21.8664 35.5891L17.2189 31.3429V28.2604C18.9375 29.198 20.6923 29.6471 21.8504 29.6687ZM27.6518 32.6049C28.0998 32.657 28.9148 32.7571 29.9162 32.9035L28.0927 36.2038C27.6524 37.0005 26.7027 37.3794 25.8349 37.1048L23.5262 36.3743L27.6518 32.6049ZM33.0045 17.9368C33.0045 18.6639 32.4135 19.2554 31.6871 19.2554H31.6461L31.6513 16.2206C31.9014 16.285 32.1515 16.3512 32.4014 16.4205C32.5779 16.4695 32.7567 16.4886 32.9337 16.4846C32.9799 16.62 33.0045 16.7631 33.0045 16.911V17.9368ZM12.5308 12.3925C18.7244 11.0048 25.0065 11.0042 31.2017 12.3925C32.249 12.6272 33.0091 13.5838 33.0091 14.6671C33.0091 14.7501 32.9305 14.8033 32.8557 14.7832C25.5636 12.7599 18.1689 12.7598 10.8768 14.7832C10.8014 14.8033 10.7234 14.7496 10.7234 14.6671C10.7233 13.5837 11.4834 12.6273 12.5308 12.3925ZM10.728 17.9368V16.911C10.728 16.7637 10.7524 16.6212 10.7983 16.4863C10.98 16.4904 11.1487 16.4712 11.3312 16.4205C11.5811 16.3512 11.8311 16.285 12.0812 16.2206L12.0864 19.2554H12.0453C11.3189 19.2554 10.728 18.6639 10.728 17.9368ZM13.788 20.5451L13.7798 15.8222C19.1559 14.6816 24.5766 14.6816 29.9527 15.8222L29.9446 20.5464C29.9446 23.0011 28.7218 24.5427 26.8321 26.0604C25.0736 27.3229 23.0054 27.9425 21.8663 27.9691C20.1297 27.9286 18.2878 26.9554 16.8307 26.0101C15.1608 24.7895 13.788 22.9824 13.788 20.5451ZM5.73627 34.8027C7.30254 34.1053 9.8256 33.5623 12.0308 33.1857L14.1524 37.0254C14.9828 38.5283 16.7731 39.2429 18.4101 38.7248L21.8661 37.6312L25.3222 38.7248C26.959 39.2427 28.7496 38.5281 29.5799 37.0254L31.7015 33.1857C33.9068 33.5623 36.4299 34.1053 37.9961 34.8027C40.4485 35.8946 42.0332 38.3348 42.0332 41.0192V48.3872H38.4159C38.0989 48.3872 37.7951 48.4444 37.5139 48.5486V44.5599C37.5139 43.154 36.37 42.0103 34.9642 42.0103C33.6674 42.0103 16.4531 42.0103 15.4591 42.0103C14.9899 42.0103 14.6095 42.3906 14.6095 42.8599C14.6095 43.3293 14.9899 43.7095 15.4591 43.7095H17.74V50.794C17.74 51.2706 17.999 51.7101 18.4157 51.9412C18.8325 52.1722 19.3422 52.1591 19.7467 51.9065L21.866 50.5824L23.9855 51.9065C24.3898 52.159 24.8998 52.1722 25.3166 51.9411C25.7333 51.71 25.9922 51.2705 25.9922 50.794V43.7095H34.9641C35.4331 43.7095 35.8145 44.091 35.8145 44.5599V50.9884C35.8145 51.4858 35.41 51.8905 34.9125 51.8905C32.3873 51.8905 30.3082 53.8323 30.0872 56.3009H13.6451C13.4241 53.8323 11.345 51.8905 8.81975 51.8905C8.32232 51.8905 7.91778 51.4858 7.91778 50.9884V44.5599C7.91778 44.091 8.29921 43.7095 8.7681 43.7095H11.4614C11.9307 43.7095 12.3111 43.3293 12.3111 42.8599C12.3111 42.3906 11.9307 42.0103 11.4614 42.0103H8.7681C7.36224 42.0103 6.21852 43.154 6.21852 44.5599V48.5487C5.93735 48.4444 5.63352 48.3873 5.31655 48.3873H1.69927V41.0193C1.69927 38.3348 3.28389 35.8946 5.73627 34.8027ZM19.4395 43.7095H24.2931V50.0949L22.5614 49.0131C22.1389 48.7491 21.5935 48.7495 21.1713 49.013L19.4394 50.0949V43.7095H19.4395ZM1.69927 54.0913V50.0864H5.31655C5.81398 50.0864 6.21852 50.491 6.21852 50.9884V50.9885V50.9886C6.21863 52.4229 7.38546 53.5898 8.81975 53.5898C10.407 53.5898 11.7227 54.7713 11.9355 56.3009H3.90876C2.69039 56.3008 1.69927 55.3096 1.69927 54.0913ZM39.8238 56.3008H31.7969C32.0096 54.7712 33.3253 53.5896 34.9126 53.5896C36.3469 53.5896 37.5139 52.4227 37.5139 50.9883C37.5139 50.4909 37.9184 50.0863 38.4159 50.0863H42.0332V54.0913C42.0332 55.3096 41.0421 56.3008 39.8238 56.3008Z" fill="#333333"/>
</svg>