<svg viewBox="0 0 48 38" fill="none" xmlns="http://www.w3.org/2000/svg">
    <path d="M46.8827 36.7941H42.0262C41.4089 36.7941 40.9084 36.2937 40.9084 35.6763V20.1817C40.9084 19.5643 41.4089 19.064 42.0262 19.064H46.8827C47.5001 19.064 48.0005 19.5643 48.0005 20.1817V35.6763C48.0005 36.2937 47.5001 36.7941 46.8827 36.7941ZM38.4399 22.3251C37.5718 21.8836 35.393 20.9338 32.7203 20.9338C29.2387 20.9338 25.5638 23.5127 25.5638 23.5127C22.7766 23.5127 16.9482 23.5127 16.0217 23.5127C14.7968 23.5127 12.1835 24.1575 12.1835 27.2523C12.1835 29.8312 14.6033 30.9917 16.0217 30.9917C17.4401 30.9917 27.0467 30.9917 27.0467 30.9917C28.0703 31.0901 28.9164 32.2027 28.9164 32.2027C28.9164 32.2027 18.2153 32.2027 15.9383 32.2027C13.6612 32.2027 11.4217 30.6049 11.0355 28.9334C8.39209 27.1281 4.92613 23.4415 3.32754 21.7639C1.44448 19.7876 -1.17246 21.9303 0.576717 24.4276C1.43836 25.6578 4.7884 29.2578 8.67852 33.2352C12.1671 36.8019 18.3986 37.7799 23.2057 37.7799C28.3327 37.7799 33.4904 34.9895 38.3478 34.1971C38.6603 34.1461 38.8453 33.8109 38.8453 33.4942V22.9884C38.8453 22.708 38.69 22.4521 38.4399 22.3251ZM10.5503 26.4231C11.1995 26.2646 11.8209 25.5062 11.5413 25.0358C10.9346 24.0151 6.44464 20.2074 4.90793 19.5911C3.65123 19.087 3.36589 20.1801 3.36589 20.1801C3.36589 20.1801 10.0093 25.953 10.5503 26.4231ZM11.8304 23.7483C12.4796 23.5898 13.101 22.8314 12.8214 22.361C12.2148 21.3403 9.11954 18.9273 7.58283 18.311C6.32605 17.8069 6.04079 18.9 6.04079 18.9C6.04079 18.9 11.2894 23.2781 11.8304 23.7483ZM32.9476 3.67973V15.2162C32.9476 17.1269 31.3986 18.6758 29.4879 18.6758H16.4921C14.5813 18.6758 13.0324 17.1269 13.0324 15.2162V3.67973C13.0324 1.76899 14.5813 0.219971 16.4921 0.219971H21.7788V2.82413H24.2335V0.219971H29.488C31.3987 0.219971 32.9476 1.76899 32.9476 3.67973ZM26.2687 10.267L22.5625 5.84891L18.8428 10.2509C18.9209 10.2509 18.9204 10.2509 21.0137 10.2509V15.3349H24.0846V10.2509C26.2475 10.2509 26.2687 10.267 26.2687 10.267Z" fill="black"/>
</svg>