<svg viewBox="0 0 58 58" fill="none" xmlns="http://www.w3.org/2000/svg">
    <g clip-path="url(#clip0_1854:24117)">
        <rect x="29" y="49" width="12" height="4" fill="#E51A1E"/>
        <rect x="25.4609" y="11.9457" width="8.12614" height="4.76307" transform="rotate(-45 25.4609 11.9457)" fill="#E51A1E"/>
        <rect x="45" y="50" width="5" height="3" fill="#E51A1E"/>
        <path d="M4.37726 31.5688C3.52411 30.7157 3.52411 29.3275 4.37726 28.4748L25.1967 7.65537C25.5286 7.32349 25.5286 6.78541 25.1967 6.45397C24.8648 6.12165 24.3267 6.12209 23.9953 6.45397L3.17542 27.2734C1.66028 28.7886 1.66028 31.2546 3.17542 32.7702L8.41955 38.0139C8.58505 38.1794 8.80276 38.2626 9.02003 38.2626C9.23775 38.2626 9.45502 38.1799 9.62096 38.0139C9.95284 37.682 9.95284 37.144 9.62096 36.8125L4.37726 31.5688Z" fill="#333333"/>
        <path d="M21.0801 16.8067L8.22352 29.6633C7.89164 29.9952 7.89164 30.5333 8.22352 30.8652C8.38946 31.0306 8.60673 31.1138 8.82444 31.1138C9.04171 31.1138 9.25898 31.0311 9.42492 30.8652L22.2815 18.0086C22.6134 17.6767 22.6134 17.1386 22.2815 16.8067C21.95 16.4753 21.412 16.4753 21.0801 16.8067Z" fill="#333333"/>
        <path d="M28.8528 15.4483C29.7334 15.4483 30.6139 15.1134 31.2843 14.443L33.8562 11.8711C35.197 10.5303 35.197 8.34877 33.8562 7.00798C32.5154 5.66718 30.3338 5.66718 28.993 7.00798L26.4212 9.57982C25.7716 10.2294 25.4141 11.0927 25.4141 12.0114C25.4141 12.9296 25.7716 13.7934 26.4212 14.443C27.0916 15.1134 27.9722 15.4483 28.8528 15.4483ZM27.6226 10.7812L30.1944 8.20938C30.8728 7.53102 31.9764 7.53102 32.6543 8.20938C33.3327 8.88774 33.3327 9.99135 32.6543 10.6693L30.0825 13.2411C29.4046 13.9195 28.301 13.9195 27.6226 13.2411C27.2943 12.9128 27.1133 12.476 27.1133 12.0114C27.1133 11.5468 27.2943 11.1096 27.6226 10.7812Z" fill="#333333"/>
        <path d="M52.2429 28.2695H44.0645L50.3658 21.9682C51.8814 20.4526 51.8814 17.9865 50.3658 16.4709L34.9197 1.02529C34.1856 0.291169 33.2094 -0.113281 32.1713 -0.113281C31.1332 -0.113281 30.157 0.291169 29.4224 1.02529L26.3957 4.05203C26.0643 4.3839 26.0643 4.92155 26.3957 5.25343C26.7276 5.58531 27.2657 5.58531 27.5971 5.25343L30.6243 2.22669C31.0371 1.81339 31.5867 1.58594 32.1713 1.58594C32.7554 1.58594 33.305 1.81339 33.7183 2.22669L49.1639 17.6724C50.0171 18.5255 50.0171 19.9132 49.1639 20.7664L41.6613 28.269H20.1904L26.366 22.0934C26.6979 21.762 26.6979 21.2239 26.366 20.892C26.0342 20.5601 25.4961 20.5601 25.1646 20.892L17.7876 28.2695H15.1233C12.9798 28.2695 11.2363 30.013 11.2363 32.156V53.9999C11.2363 56.1429 12.9798 57.8868 15.1233 57.8868H52.2429C54.3864 57.8868 56.1299 56.1429 56.1299 53.9999V50.8598C56.1299 50.3903 55.7498 50.0102 55.2803 50.0102C54.8112 50.0102 54.4306 50.3903 54.4306 50.8598V53.9999C54.4306 55.2061 53.4496 56.1876 52.2429 56.1876H15.1233C13.917 56.1876 12.9356 55.2061 12.9356 53.9999V42.0783H54.4306V47.4614C54.4306 47.9305 54.8108 48.311 55.2803 48.311C55.7498 48.311 56.1299 47.9305 56.1299 47.4614V32.1565C56.1299 30.013 54.3864 28.2695 52.2429 28.2695ZM15.1233 29.9687H52.2429C53.4492 29.9687 54.4306 30.9502 54.4306 32.1565V35.1319H12.9356V32.1565C12.9356 30.9502 13.917 29.9687 15.1233 29.9687ZM12.9356 40.3791V36.8311H54.4306V40.3791H12.9356Z" fill="#333333"/>
        <path d="M45.1191 48.311C44.401 48.311 43.8164 48.8956 43.8164 49.6138V52.8503C43.8164 53.5689 44.401 54.153 45.1191 54.153H50.2673C50.9854 54.153 51.57 53.5689 51.57 52.8503V49.6138C51.57 48.8956 50.9854 48.311 50.2673 48.311H45.1191ZM49.8708 52.4538H45.5156V50.0103H49.8708V52.4538Z" fill="#333333"/>
        <path d="M29.5957 48.311C28.8775 48.311 28.293 48.8956 28.293 49.6138V52.8503C28.293 53.5689 28.8775 54.153 29.5957 54.153H40.4844C41.2026 54.153 41.7872 53.5689 41.7872 52.8503V49.6138C41.7872 48.8956 41.2026 48.311 40.4844 48.311H29.5957ZM40.088 52.4538H29.9922V50.0103H40.088V52.4538Z" fill="#333333"/>
        <path d="M19.2793 52.4537C18.8102 52.4537 18.4297 52.8343 18.4297 53.3033C18.4297 53.7728 18.8102 54.153 19.2793 54.153H24.7044C25.1735 54.153 25.554 53.7728 25.554 53.3033C25.554 52.8343 25.1735 52.4537 24.7044 52.4537H19.2793Z" fill="#333333"/>
    </g>
    <defs>
        <clipPath id="clip0_1854:24117">
            <rect width="58" height="58" fill="white"/>
        </clipPath>
    </defs>
</svg>