<svg viewBox="0 0 58 44" fill="none" xmlns="http://www.w3.org/2000/svg">
    <rect x="7" y="13" width="12" height="10" fill="#E51A1E"/>
    <rect x="39" y="20" width="9" height="3" fill="#E51A1E"/>
    <path d="M18.2489 12.22H8.497C7.32103 12.22 6.36426 13.1767 6.36426 14.3527V22.0515C6.36426 23.2275 7.32103 24.1843 8.497 24.1843H18.2488C19.4248 24.1843 20.3816 23.2275 20.3816 22.0515V14.3527C20.3816 13.1767 19.4249 12.22 18.2489 12.22ZM18.6823 14.3527V17.3525H14.2225V13.9191H18.2488C18.488 13.9192 18.6823 14.1137 18.6823 14.3527ZM8.06348 22.0515V14.3527C8.06348 14.1137 8.25798 13.9192 8.497 13.9192H12.5232V22.4851H8.497C8.25798 22.4851 8.06348 22.2906 8.06348 22.0515ZM18.2489 22.4851H14.2226V19.0517H18.6825V22.0514C18.6823 22.2906 18.488 22.4851 18.2489 22.4851Z" fill="#333333"/>
    <path d="M6.36426 33.9999C6.36426 34.4692 6.74466 34.8495 7.21387 34.8495H32.2153C32.6845 34.8495 33.0649 34.4692 33.0649 33.9999C33.0649 33.5306 32.6845 33.1503 32.2153 33.1503H7.21387C6.74466 33.1503 6.36426 33.5306 6.36426 33.9999Z" fill="#333333"/>
    <path d="M7.21387 36.3862C6.74466 36.3862 6.36426 36.7665 6.36426 37.2358C6.36426 37.7052 6.74466 38.0854 7.21387 38.0854H19.7146C20.1838 38.0854 20.5642 37.7052 20.5642 37.2358C20.5642 36.7665 20.1838 36.3862 19.7146 36.3862H7.21387Z" fill="#333333"/>
    <path d="M22.3027 29.9466V27.8926C22.3027 27.4233 21.9223 27.043 21.4531 27.043C20.9839 27.043 20.6035 27.4233 20.6035 27.8926V29.9466C20.6035 30.4159 20.9839 30.7962 21.4531 30.7962C21.9223 30.7962 22.3027 30.4159 22.3027 29.9466Z" fill="#333333"/>
    <path d="M26.1865 29.9466V27.8926C26.1865 27.4233 25.8061 27.043 25.3369 27.043C24.8677 27.043 24.4873 27.4233 24.4873 27.8926V29.9466C24.4873 30.4159 24.8677 30.7962 25.3369 30.7962C25.8061 30.7962 26.1865 30.4159 26.1865 29.9466Z" fill="#333333"/>
    <path d="M30.0693 29.9466V27.8926C30.0693 27.4233 29.6889 27.043 29.2197 27.043C28.7505 27.043 28.3701 27.4233 28.3701 27.8926V29.9466C28.3701 30.4159 28.7505 30.7962 29.2197 30.7962C29.6889 30.7962 30.0693 30.4159 30.0693 29.9466Z" fill="#333333"/>
    <path d="M33.9531 29.9466V27.8926C33.9531 27.4233 33.5727 27.043 33.1035 27.043C32.6343 27.043 32.2539 27.4233 32.2539 27.8926V29.9466C32.2539 30.4159 32.6343 30.7962 33.1035 30.7962C33.5727 30.7962 33.9531 30.4159 33.9531 29.9466Z" fill="#333333"/>
    <path d="M38.7256 27.8926V29.9466C38.7256 30.4159 39.106 30.7962 39.5752 30.7962C40.0444 30.7962 40.4248 30.4159 40.4248 29.9466V27.8926C40.4248 27.4233 40.0444 27.043 39.5752 27.043C39.106 27.043 38.7256 27.4234 38.7256 27.8926Z" fill="#333333"/>
    <path d="M42.6084 27.8926V29.9466C42.6084 30.4159 42.9888 30.7962 43.458 30.7962C43.9272 30.7962 44.3076 30.4159 44.3076 29.9466V27.8926C44.3076 27.4233 43.9272 27.043 43.458 27.043C42.9888 27.043 42.6084 27.4234 42.6084 27.8926Z" fill="#333333"/>
    <path d="M46.4922 27.8926V29.9466C46.4922 30.4159 46.8726 30.7962 47.3418 30.7962C47.811 30.7962 48.1914 30.4159 48.1914 29.9466V27.8926C48.1914 27.4233 47.811 27.043 47.3418 27.043C46.8726 27.043 46.4922 27.4234 46.4922 27.8926Z" fill="#333333"/>
    <path d="M7.21387 30.7962C7.68308 30.7962 8.06347 30.4159 8.06347 29.9466V27.8926C8.06347 27.4233 7.68308 27.043 7.21387 27.043C6.74466 27.043 6.36426 27.4233 6.36426 27.8926V29.9466C6.36426 30.4159 6.74466 30.7962 7.21387 30.7962Z" fill="#333333"/>
    <path d="M11.9473 29.9466V27.8926C11.9473 27.4233 11.5669 27.043 11.0977 27.043C10.6284 27.043 10.248 27.4233 10.248 27.8926V29.9466C10.248 30.4159 10.6284 30.7962 11.0977 30.7962C11.5669 30.7962 11.9473 30.4159 11.9473 29.9466Z" fill="#333333"/>
    <path d="M15.8311 29.9466V27.8926C15.8311 27.4233 15.4507 27.043 14.9814 27.043C14.5122 27.043 14.1318 27.4233 14.1318 27.8926V29.9466C14.1318 30.4159 14.5122 30.7962 14.9814 30.7962C15.4507 30.7962 15.8311 30.4159 15.8311 29.9466Z" fill="#333333"/>
    <path d="M58.0006 8.63135C58.0006 3.87195 54.1285 0 49.3692 0C45.1064 0 41.5578 3.10708 40.8633 7.17501H18.8789C18.4097 7.17501 18.0293 7.55529 18.0293 8.02462C18.0293 8.49394 18.4097 8.87423 18.8789 8.87423H40.7413C40.8712 13.5515 44.7316 17.2609 49.366 17.2626C49.3671 17.2626 49.3681 17.2627 49.3692 17.2627C49.3704 17.2627 49.3692 17.2627 49.3692 17.2627C49.3702 17.2627 49.3711 17.2626 49.3721 17.2626C50.6132 17.2621 51.8165 16.9891 52.8573 16.5286V30.8165C52.8573 31.2858 53.2377 31.6661 53.7069 31.6661C54.1761 31.6661 54.5565 31.2858 54.5565 30.8165V15.525C56.6467 13.9483 58.0006 11.4451 58.0006 8.63135ZM49.3692 1.69922C53.1917 1.69922 56.3014 4.80902 56.3014 8.63135C56.3014 12.4611 53.1829 15.5634 49.3692 15.5634C45.472 15.5634 42.2851 12.3196 42.4442 8.35053C42.6221 4.53295 45.7403 1.69922 49.3692 1.69922Z" fill="#333333"/>
    <path d="M47.0184 11.9012C47.306 12.3672 47.954 12.4438 48.3422 12.0558L53.8375 6.56045C54.1693 6.22853 54.1693 5.69067 53.8375 5.35887C53.5057 5.02719 52.9677 5.02719 52.636 5.35887L47.9003 10.0947L46.0678 7.12538C45.8216 6.72607 45.298 6.60225 44.8987 6.84852C44.4993 7.09502 44.3754 7.6185 44.6218 8.0177L47.0184 11.9012Z" fill="#333333"/>
    <path d="M53.7063 33.9317C53.2371 33.9317 52.8567 34.312 52.8567 34.7813V38.2854C52.8567 40.02 51.4454 41.4313 49.7106 41.4313H4.84527C3.11048 41.4313 1.69922 40.02 1.69922 38.2854V12.0203C1.69922 10.2856 3.11048 8.87427 4.84527 8.87427H14.9135C15.3827 8.87427 15.7631 8.49398 15.7631 8.02466C15.7631 7.55533 15.3827 7.17505 14.9135 7.17505H4.84527C2.17364 7.17505 0 9.34858 0 12.0203V38.2853C0 40.9569 2.17364 43.1304 4.84527 43.1304H49.7106C52.3823 43.1304 54.5559 40.9568 54.5559 38.2853V34.7812C54.5559 34.312 54.1755 33.9317 53.7063 33.9317Z" fill="#333333"/>
    <path d="M49.2194 22.8781V20.3666C49.2194 19.6464 48.6334 19.0604 47.9131 19.0604H39.2369C38.5167 19.0604 37.9307 19.6464 37.9307 20.3666V22.8781C37.9307 23.5984 38.5167 24.1844 39.2369 24.1844H47.9131C48.6334 24.1844 49.2194 23.5984 49.2194 22.8781ZM47.5201 22.4851H39.6298V20.7596H47.5201V22.4851Z" fill="#333333"/>
</svg>