<svg viewBox="0 0 47 36" fill="none" xmlns="http://www.w3.org/2000/svg">
    <path d="M40.9697 0H5.7066C2.5588 0 0 2.5588 0 5.7066V29.8076C0 32.9554 2.5588 35.5142 5.7066 35.5142H40.96C44.1078 35.5142 46.6666 32.9554 46.6666 29.8076V5.71625C46.6763 2.56845 44.1175 0 40.9697 0ZM44.0692 29.8076C44.0692 31.5166 42.6788 32.9071 40.9697 32.9071H5.7066C3.99751 32.9071 2.60707 31.5166 2.60707 29.8076V5.71625C2.60707 4.00717 3.99751 2.61673 5.7066 2.61673H40.96C42.6691 2.61673 44.0596 4.00717 44.0596 5.71625V29.8076H44.0692Z" fill="#333333"/>
    <path d="M29.4343 17.4578L40.8475 7.22258C41.3786 6.73979 41.4269 5.91905 40.9441 5.37832C40.4613 4.84725 39.6406 4.79897 39.0998 5.28176L23.3608 19.4082L20.2903 16.666C20.2806 16.6563 20.271 16.6467 20.271 16.637C20.2034 16.5694 20.1358 16.5115 20.0585 16.4536L7.56388 5.27211C7.02315 4.78931 6.20241 4.83759 5.71962 5.37832C5.23682 5.91905 5.2851 6.73979 5.82583 7.22258L17.3742 17.5447L5.87411 28.3109C5.35269 28.8034 5.32373 29.6241 5.81617 30.1552C6.07688 30.4256 6.42449 30.5704 6.7721 30.5704C7.09074 30.5704 7.40939 30.4545 7.66044 30.2228L19.3343 19.302L22.5015 22.1312C22.7525 22.3533 23.0615 22.4595 23.3705 22.4595C23.6795 22.4595 23.9981 22.3436 24.2395 22.1215L27.4935 19.2055L39.0998 30.2324C39.3509 30.4738 39.6792 30.5897 39.9978 30.5897C40.3454 30.5897 40.6834 30.4545 40.9441 30.1842C41.4365 29.6627 41.4172 28.8323 40.8958 28.3399L29.4343 17.4578Z" fill="#333333"/>
</svg>