<svg viewBox="0 0 109 112" fill="none" xmlns="http://www.w3.org/2000/svg">
    <path d="M79.6565 106.207C70.0017 110.553 61.6332 112 50.2075 112C23.4955 112 0 92.8497 0 61.3112C0 28.483 23.8158 0 60.186 0C88.508 0 108.784 19.4723 108.784 46.5063C108.784 70 95.5885 84.805 78.2093 84.805C70.6458 84.805 65.1752 80.9428 64.3702 72.4133H64.0482C59.0608 80.6208 51.8192 84.805 43.2897 84.805C32.83 84.805 25.2665 77.0805 25.2665 63.8838C25.2665 44.2523 39.7495 26.39 62.9212 26.39C70.0017 26.39 78.0465 28.161 82.0715 30.4132L77.245 60.1842C75.6367 69.6762 76.762 74.0232 81.2682 74.1825C88.1878 74.3435 96.8765 65.492 96.8765 46.9875C96.8765 26.068 83.3595 9.814 58.415 9.814C33.796 9.814 12.2307 29.1253 12.2307 59.8605C12.2307 86.7335 29.449 102.021 53.4275 102.021C61.635 102.021 70.3255 100.252 76.7602 96.8712L79.6565 106.207ZM65.3345 39.7477C64.0465 39.4258 62.4365 39.1037 60.3452 39.1037C49.7262 39.1037 41.356 49.5635 41.356 61.9535C41.356 68.068 44.093 71.9303 49.4025 71.9303C55.356 71.9303 61.6332 64.3668 63.0805 55.034L65.3345 39.7477Z" fill="black"/>
</svg>