<svg viewBox="0 0 72 72" fill="none" xmlns="http://www.w3.org/2000/svg">
    <path d="M21.1035 24.2069L21.7242 21.7241H22.9656L26.6897 25.4482L29.7932 22.6567L32.8966 18.6207L35.3794 17.3793L36.6208 18.6207V21.1034L29.7932 27.3103L26.6897 29.7931L24.8277 27.931L21.1035 24.2069Z" fill="#E51A1E"/>
    <path d="M42.9095 42.3872H16.5721C15.9891 42.3872 15.5166 42.8598 15.5166 43.4427C15.5166 44.0258 15.9892 44.4983 16.5721 44.4983H42.9095C43.4925 44.4983 43.965 44.0256 43.965 43.4427C43.965 42.8597 43.4925 42.3872 42.9095 42.3872Z" fill="#333333"/>
    <path d="M34.731 47.3556H16.5721C15.9891 47.3556 15.5166 47.8282 15.5166 48.4111C15.5166 48.994 15.9892 49.4666 16.5721 49.4666H34.731C35.314 49.4666 35.7865 48.994 35.7865 48.4111C35.7865 47.8282 35.314 47.3556 34.731 47.3556Z" fill="#333333"/>
    <path d="M65.3646 21.6263C65.9477 21.6263 66.4202 21.1536 66.4202 20.5707V11.0223C66.4202 10.4394 65.9477 9.96678 65.3646 9.96678H53.3942V1.05553C53.3942 0.47264 52.9217 0 52.3387 0H6.63536C6.05233 0 5.57983 0.47264 5.57983 1.05553V37.3089C5.57983 37.8918 6.05233 38.3644 6.63536 38.3644C7.21839 38.3644 7.69089 37.8918 7.69089 37.3089V2.1112H51.2832V50.8974H43.3141C42.7311 50.8974 42.2586 51.3701 42.2586 51.953V59.922L7.69103 59.9222V41.5311C7.69103 40.9482 7.21853 40.4756 6.6355 40.4756C6.05247 40.4756 5.57997 40.9482 5.57997 41.5311V60.9777C5.57997 61.5607 6.05247 62.0332 6.6355 62.0332H18.6059V70.9443C18.6059 71.5274 19.0784 71.9999 19.6614 71.9999H56.3403C56.3489 71.9999 56.3572 71.9989 56.3656 71.9986C56.3915 71.9979 56.4174 71.9973 56.4431 71.9948C56.4632 71.9928 56.483 71.9892 56.5029 71.9859C56.5168 71.9838 56.531 71.9824 56.5449 71.9796C56.5662 71.9754 56.5868 71.9695 56.6076 71.9641C56.62 71.9609 56.6325 71.9585 56.6446 71.9549C56.6647 71.9488 56.6844 71.9411 56.7041 71.9338C56.7166 71.9291 56.7293 71.9253 56.7417 71.9203C56.7606 71.9124 56.7789 71.9031 56.7973 71.8943C56.8099 71.8882 56.8227 71.883 56.835 71.8765C56.8546 71.8661 56.8734 71.8542 56.8923 71.8425C56.9027 71.836 56.9135 71.8304 56.9238 71.8237C56.9492 71.8068 56.9737 71.7882 56.9977 71.7691C57.0008 71.7666 57.0042 71.7646 57.0073 71.7619C57.0346 71.7397 57.0609 71.7161 57.086 71.6909L66.1106 62.6662C66.1441 62.6327 66.1741 62.5966 66.2026 62.5592C66.2095 62.5502 66.2162 62.5412 66.2227 62.532C66.2494 62.4945 66.2745 62.4559 66.296 62.4155C66.297 62.4136 66.2977 62.4117 66.2987 62.4098C66.319 62.371 66.3362 62.3307 66.3515 62.2896C66.3556 62.2789 66.3594 62.2682 66.3631 62.2574C66.3775 62.2144 66.3903 62.1705 66.3993 62.1258C66.3993 62.1255 66.3995 62.1252 66.3995 62.1249C66.4082 62.0809 66.4131 62.0359 66.4162 61.9908C66.4171 61.979 66.4176 61.9673 66.4179 61.9555C66.4183 61.9435 66.4196 61.9318 66.4196 61.9199V24.793C66.4196 24.2101 65.9471 23.7375 65.3641 23.7375C64.781 23.7375 64.3085 24.2101 64.3085 24.793V60.8641H56.3399C55.7569 60.8641 55.2844 61.3367 55.2844 61.9196V69.8887H20.7167V62.0331H43.3141C43.3227 62.0331 43.331 62.032 43.3394 62.0318C43.3653 62.0313 43.3912 62.0306 43.4169 62.028C43.437 62.0261 43.4568 62.0224 43.4767 62.0192C43.4906 62.0171 43.5048 62.0157 43.5187 62.0128C43.5399 62.0086 43.5606 62.0027 43.5814 61.9972C43.5937 61.994 43.6063 61.9916 43.6184 61.9879C43.6385 61.9819 43.6582 61.9742 43.6779 61.9669C43.6904 61.9622 43.7031 61.9584 43.7154 61.9534C43.7344 61.9455 43.7527 61.9362 43.7711 61.9273C43.7836 61.9213 43.7964 61.9161 43.8088 61.9096C43.8284 61.8992 43.8472 61.8873 43.8661 61.8756C43.8765 61.8691 43.8873 61.8635 43.8975 61.8567C43.923 61.8399 43.9475 61.8215 43.9715 61.8022C43.9746 61.7997 43.978 61.7975 43.9811 61.7952C44.0084 61.7729 44.0347 61.7492 44.0598 61.7241L53.0844 52.6994C53.1179 52.6659 53.148 52.6298 53.1765 52.5924C53.1834 52.5835 53.19 52.5745 53.1965 52.5655C53.2234 52.528 53.2484 52.4893 53.2699 52.4487C53.2708 52.447 53.2715 52.4453 53.2723 52.4436C53.2928 52.4047 53.31 52.3642 53.3255 52.3228C53.3294 52.3121 53.3333 52.3016 53.3368 52.2908C53.3515 52.2477 53.3643 52.204 53.3731 52.159C53.3731 52.1587 53.3731 52.1584 53.3733 52.1581C53.382 52.1141 53.3869 52.069 53.39 52.0238C53.3908 52.012 53.3913 52.0004 53.3917 51.9885C53.3921 51.9766 53.3935 51.9649 53.3935 51.953V12.0778H64.3084V20.5707C64.3091 21.1536 64.7816 21.6263 65.3646 21.6263ZM57.3956 62.9751H62.8164L57.3956 68.3959V62.9751ZM44.3695 58.4293V53.0085H49.7903L44.3695 58.4293Z" fill="#333333"/>
    <path d="M36.9891 17.4246C36.4469 16.8823 35.7257 16.5836 34.9589 16.5836C34.1921 16.5838 33.4711 16.8824 32.9287 17.4247L26.7004 23.653L24.6013 21.5539C24.0592 21.0116 23.3381 20.7129 22.5711 20.7129C21.8042 20.7129 21.0832 21.0116 20.5409 21.5539C19.4216 22.6734 19.4216 24.4947 20.5409 25.6141L24.6704 29.7436C25.2128 30.2858 25.9338 30.5845 26.7004 30.5845C27.4674 30.5845 28.1884 30.2857 28.7306 29.7434L36.989 21.4851C37.5312 20.9428 37.8301 20.2217 37.8301 19.4549C37.8301 18.6878 37.5315 17.9668 36.9891 17.4246ZM35.4961 19.9921L27.2376 28.2505C27.0941 28.3941 26.9034 28.4732 26.7004 28.4732C26.5005 28.4732 26.3046 28.3919 26.1633 28.2507L22.034 24.1214C21.7375 23.8249 21.7375 23.3427 22.034 23.0466C22.1775 22.903 22.3682 22.8241 22.5711 22.8241C22.7741 22.8241 22.9649 22.903 23.1083 23.0466L25.9539 25.8921C26.1519 26.0901 26.4203 26.2014 26.7003 26.2014C26.9803 26.2014 27.2486 26.0901 27.4467 25.8921L34.4216 18.9173C34.5652 18.7737 34.756 18.6947 34.9589 18.6947C35.1617 18.6947 35.3525 18.7737 35.4961 18.9173C35.6397 19.0609 35.7186 19.2517 35.7186 19.4546C35.7189 19.6577 35.6397 19.8485 35.4961 19.9921Z" fill="#333333"/>
    <path d="M28.7651 7.86841C25.5258 7.86841 22.4225 8.857 19.7907 10.7273C19.3155 11.0649 19.204 11.7239 19.5416 12.1992C19.8793 12.6744 20.538 12.7859 21.0136 12.4481C23.286 10.8331 25.9665 9.97947 28.7649 9.97947C36.1521 9.97947 42.1621 15.9895 42.1621 23.3766C42.1621 30.7638 36.1521 36.774 28.7649 36.774C21.3778 36.774 15.3678 30.7639 15.3678 23.3766C15.3678 20.3737 16.3383 17.5359 18.1746 15.1699C18.5322 14.7094 18.4487 14.0462 17.9882 13.6889C17.5277 13.3315 16.8647 13.4149 16.5071 13.8755C14.3807 16.6151 13.2568 19.9007 13.2568 23.3766C13.2568 31.928 20.2138 38.885 28.7651 38.885C37.3163 38.885 44.2733 31.928 44.2733 23.3766C44.2733 14.8253 37.3165 7.86841 28.7651 7.86841Z" fill="#333333"/>
</svg>