<svg viewBox="0 0 66 72" fill="none" xmlns="http://www.w3.org/2000/svg">
    <ellipse cx="40.3448" cy="67.0343" rx="5.58621" ry="3.72414" fill="#E51A1E"/>
    <path d="M10.3074 54.5976C10.8834 54.6282 11.3852 54.1794 11.4126 53.5972C11.4417 53.0157 10.9937 52.521 10.4122 52.492C8.36542 52.39 6.76193 50.7102 6.76193 48.6677C6.76193 48.0854 6.29008 47.6135 5.70775 47.6135C5.12542 47.6135 4.65356 48.0854 4.65356 48.6677C4.65371 51.8349 7.13708 54.4397 10.3074 54.5976Z" fill="#333333"/>
    <path d="M61.9939 31.3763C63.5259 7.66759 37.3704 -8.16163 17.1624 4.45162C16.6681 4.75916 16.5165 5.40924 16.8242 5.90358C17.1318 6.39792 17.7817 6.54917 18.2762 6.24177C36.2756 -5.1707 60.4747 8.52133 59.8856 29.8216C59.092 29.3759 58.2366 29.028 57.3342 28.7979C55.5647 -3.17731 9.7328 -3.15271 7.97484 28.7979C7.07246 29.0282 6.21702 29.3761 5.42343 29.8216C5.34472 22.3208 8.25357 15.1118 13.6442 9.8676C14.0617 9.46153 14.0708 8.79416 13.6648 8.37698C13.2586 7.95966 12.5912 7.95053 12.1742 8.35646C5.8853 14.3892 2.89479 22.7606 3.31506 31.3763C1.27599 33.3079 0 36.0378 0 39.0618V48.6519C0 54.4921 4.75142 59.2435 10.5916 59.2435H12.0762C14.0676 59.2435 15.723 57.7775 16.0202 55.8681C19.1096 55.3832 21.4802 52.7038 21.4802 49.4804V38.2335C21.4802 35.01 19.1094 32.3306 16.0201 31.8457C15.7228 29.9362 14.0675 28.4703 12.076 28.4703C11.4172 28.464 10.7514 28.4522 10.0928 28.483C12.0125 -0.254684 53.3068 -0.233601 55.2162 28.483C54.5569 28.4522 53.8927 28.4668 53.233 28.4703C51.2415 28.4703 49.5862 29.9363 49.2889 31.8457C46.1996 32.3306 43.8288 35.01 43.8288 38.2335V49.4804C43.8288 52.7038 46.1994 55.3832 49.2888 55.8681C49.586 57.7775 51.2414 59.2435 53.2328 59.2435H54.7174C55.6825 59.2435 56.6168 59.1112 57.5059 58.8684C57.6799 62.7593 54.5483 66.061 50.6294 66.051H46.9219C46.4383 63.8573 44.4797 62.2105 42.1428 62.2105H37.7913C31.3079 62.4562 31.3075 71.7544 37.7913 72H42.1428C44.4797 72 46.4383 70.3532 46.9219 68.1595H50.6294C56.1488 68.1353 60.0781 63.4372 59.6143 58.0391C62.9953 56.268 65.309 52.7261 65.309 48.652V39.0619C65.309 36.0378 64.0332 33.3079 61.9939 31.3763ZM19.3718 38.2333V49.4802C19.3718 51.52 17.9635 53.2369 16.0679 53.7095V34.0041C17.9635 34.4766 19.3718 36.1935 19.3718 38.2333ZM12.076 30.5785C13.1146 30.5785 13.9594 31.4236 13.9594 32.462V55.2515C13.9594 56.2901 13.1145 57.1349 12.076 57.1349H10.5916C5.91398 57.1349 2.10837 53.3294 2.10837 48.6516V39.0615C2.10837 34.3839 5.91384 30.5783 10.5916 30.5783H12.076V30.5785ZM42.1429 69.8912H37.7914C34.0991 69.7506 34.1019 64.4578 37.7914 64.3186H42.1429C45.8351 64.4592 45.8323 69.752 42.1429 69.8912ZM63.2006 48.6518C63.2006 53.3294 59.3952 57.135 54.7174 57.135H53.2328C52.1942 57.135 51.3495 56.2901 51.3495 55.2517V50.6107C51.3495 49.2477 49.2411 49.2477 49.2411 50.6107V53.7088C47.3458 53.2361 45.9372 51.5199 45.9372 49.4804V38.2335C45.9372 36.1938 47.3458 34.4778 49.2411 34.0051V45.0379C49.2411 46.4009 51.3495 46.4009 51.3495 45.0379V32.4623C51.3495 31.4237 52.1944 30.5788 53.2328 30.5788H54.7174C59.395 30.5788 63.2006 34.3843 63.2006 39.0621V48.6518Z" fill="#333333"/>
</svg>