<svg viewBox="0 0 64 64" fill="none" xmlns="http://www.w3.org/2000/svg">
    <path d="M53.3353 23.5123H41.0546L43.8293 11.0144C44.1706 9.47166 44.0604 7.86328 43.5121 6.38146C42.9637 4.89964 42.0002 3.60704 40.7369 2.65813L38.8261 1.22504C38.1367 0.705877 37.3449 0.339185 36.503 0.149271C35.6612 -0.0406433 34.7886 -0.0494416 33.9431 0.12346C33.0977 0.296361 32.2986 0.647012 31.5989 1.15217C30.8992 1.65732 30.3149 2.30543 29.8847 3.05354C26.1076 9.92813 21.8038 16.4999 17.012 22.71C16.8277 22.3198 16.5367 21.9897 16.1727 21.7579C15.8087 21.5261 15.3865 21.4022 14.9549 21.4003H2.28563C1.67945 21.4003 1.09809 21.6411 0.669447 22.0698C0.240807 22.4984 0 23.0798 0 23.686V59.6024C0 60.2086 0.240807 60.79 0.669447 61.2186C1.09809 61.6473 1.67945 61.8881 2.28563 61.8881H14.9618C15.5088 61.8841 16.0357 61.6817 16.4447 61.3185C16.8538 60.9553 17.1171 60.456 17.1857 59.9133C18.3678 61.1966 19.8021 62.2221 21.3989 62.9253C22.9957 63.6285 24.7206 63.9944 26.4654 64H39.0135C41.0907 64.0023 43.1362 63.4905 44.9675 62.5102C46.7988 61.5299 48.3591 60.1117 49.5091 58.3819L61.9841 39.6694C63.0267 38.104 63.625 36.285 63.7153 34.4064C63.8056 32.5277 63.3845 30.6597 62.4968 29.0015C61.6092 27.3433 60.2883 25.957 58.6749 24.9903C57.0616 24.0237 55.2161 23.5128 53.3353 23.5123ZM12.6761 57.3168H4.57127V25.9693H12.6761V57.3168ZM58.1808 37.1369L45.7058 55.8471C44.9722 56.9497 43.9773 57.8538 42.8096 58.4787C41.642 59.1036 40.3379 59.4299 39.0135 59.4287H26.4654C25.2168 59.4259 23.986 59.1339 22.8693 58.5755C21.7526 58.0171 20.7804 57.2077 20.029 56.2105L17.2474 52.5032V29.0298C22.0221 25.0002 28.8196 14.0954 33.848 5.33003C33.9537 5.14339 34.0985 4.98181 34.2724 4.85635C34.4464 4.7309 34.6455 4.64454 34.8559 4.6032C35.0686 4.55865 35.2883 4.56007 35.5004 4.60737C35.7125 4.65468 35.912 4.74677 36.0856 4.87748L37.9941 6.31057C38.5547 6.73253 38.9821 7.30684 39.2252 7.965C39.4684 8.62316 39.5171 9.33737 39.3655 10.0224L35.9782 25.3019C35.9039 25.636 35.9056 25.9825 35.9832 26.3159C36.0607 26.6492 36.2122 26.9609 36.4263 27.2279C36.6404 27.4949 36.9118 27.7104 37.2203 27.8585C37.5288 28.0066 37.8667 28.0835 38.209 28.0835H53.3421C54.3958 28.0844 55.4295 28.371 56.3331 28.9129C57.2368 29.4547 57.9766 30.2314 58.4738 31.1604C58.971 32.0893 59.207 33.1357 59.1566 34.1882C59.1062 35.2406 58.7714 36.2597 58.1877 37.1369H58.1808Z" fill="#E51A1E"/>
</svg>