<svg viewBox="0 0 62 64" fill="none" xmlns="http://www.w3.org/2000/svg">
    <path d="M41.3753 34.3933L46.8543 40.0773H55.0213L54.7768 41.4984L53.1628 44.5853L50.864 46.5943L47.685 47.8683L44.3102 47.5743L42.1093 46.5943L40.2997 43.8993L39.2731 41.4984V38.1664L41.3753 34.3933Z" fill="#E51A1E"/>
    <path d="M60.1354 33.3324C60.6522 33.3324 61.0711 32.9127 61.0711 32.3949V1.5625C61.0711 0.700875 60.3716 0 59.5115 0H15.1129C14.2528 0 13.5533 0.700875 13.5533 1.5625V29.8931H10.1828C9.39334 29.8931 8.68652 30.302 8.29175 30.9869C7.89711 31.6718 7.89711 32.4895 8.29175 33.1744L10.1541 36.4059C9.08978 36.5513 8.26618 37.4654 8.26618 38.5709V40.3851C8.26618 40.8199 8.39494 41.2244 8.61416 41.5654C7.13078 42.2934 5.7829 43.238 4.6369 44.3709C2.16398 46.8155 0.802124 49.9634 0.802124 53.2346C0.802124 57.1848 2.78071 60.9118 6.23032 63.4603C6.70145 63.8083 7.28911 64 7.88501 64H15.113H20.8735H59.5117C60.3717 64 61.0713 63.2991 61.0713 62.4375V36.7699C61.0713 36.252 60.6523 35.8324 60.1355 35.8324C59.6187 35.8324 59.1997 36.252 59.1997 36.7699V62.125H23.5037C25.4502 60.215 26.7311 57.8561 27.183 55.2878C27.2727 54.7779 26.9329 54.2916 26.4239 54.2018C25.9152 54.1116 25.4296 54.4525 25.3399 54.9622C24.8446 57.7772 23.1592 60.3111 20.5829 62.125H7.88488C7.68588 62.125 7.49273 62.0633 7.34102 61.9511C4.37476 59.7599 2.67341 56.5828 2.67341 53.2346C2.67341 50.4689 3.8375 47.795 5.95121 45.7056C7.35561 44.3174 9.11149 43.2501 11.061 42.5728H17.1139C21.2224 44.0006 24.3303 47.1234 25.2286 50.964C25.3465 51.4681 25.8496 51.7815 26.3533 51.6629C26.8565 51.5449 27.1688 51.0404 27.0509 50.5363C26.1451 46.6639 23.3428 43.4265 19.5512 41.5646C19.77 41.2239 19.8986 40.8196 19.8986 40.3853V38.571C19.8986 37.4655 19.075 36.5512 18.0108 36.406L19.8731 33.1745C20.2678 32.4896 20.2678 31.6719 19.8731 30.987C19.4783 30.3021 18.7715 29.8932 17.9821 29.8932H15.4249V1.875H59.1997V32.3949C59.1996 32.9127 59.6186 33.3324 60.1354 33.3324V33.3324ZM18.027 38.5709V40.3851C18.027 40.5575 17.887 40.6976 17.7151 40.6976H10.4496C10.2777 40.6976 10.1377 40.5575 10.1377 40.3851V38.5709C10.1377 38.3985 10.2777 38.2584 10.4496 38.2584H17.7151C17.8871 38.2584 18.027 38.3985 18.027 38.5709ZM17.9819 31.7681C18.1386 31.7681 18.2185 31.866 18.2521 31.9244C18.2856 31.9828 18.3304 32.1009 18.2521 32.2369L15.8625 36.3835H12.3021L9.9125 32.2369C9.83427 32.101 9.87894 31.9828 9.9125 31.9244C9.94607 31.866 10.0259 31.7681 10.1826 31.7681H17.9819Z" fill="#333333"/>
    <path d="M14.0821 58.7663C14.5989 58.7663 15.0179 58.3467 15.0179 57.8288V56.7701H15.155C16.7416 56.7701 18.0323 55.477 18.0323 53.8875C18.0323 52.298 16.7416 51.0048 15.155 51.0048H13.0093C12.4547 51.0048 12.0035 50.5528 12.0035 49.9972C12.0035 49.4416 12.4547 48.9896 13.0093 48.9896H16.79C17.3068 48.9896 17.7258 48.57 17.7258 48.0521C17.7258 47.5342 17.3068 47.1146 16.79 47.1146H15.0179V46.0558C15.0179 45.538 14.5989 45.1183 14.0821 45.1183C13.5653 45.1183 13.1464 45.538 13.1464 46.0558V47.1146H13.0093C11.4227 47.1146 10.132 48.4077 10.132 49.9972C10.132 51.5867 11.4227 52.8798 13.0093 52.8798H15.155C15.7096 52.8798 16.1608 53.3318 16.1608 53.8875C16.1608 54.4431 15.7096 54.8951 15.155 54.8951H11.3743C10.8575 54.8951 10.4385 55.3147 10.4385 55.8326C10.4385 56.3505 10.8575 56.7701 11.3743 56.7701H13.1464V57.8288C13.1464 58.3466 13.5652 58.7663 14.0821 58.7663Z" fill="#333333"/>
    <path d="M56.3916 26.9486V17.8493C56.3916 17.1256 55.804 16.5368 55.0816 16.5368H52.7109C51.9885 16.5368 51.4009 17.1256 51.4009 17.8493V26.3861H49.758V14.0738C49.758 13.3501 49.1704 12.7613 48.448 12.7613H46.0773C45.3549 12.7613 44.7673 13.3501 44.7673 14.0738V26.3861H43.1244V10.804C43.1244 10.0802 42.5368 9.49146 41.8144 9.49146H39.4438C38.7213 9.49146 38.1337 10.0802 38.1337 10.804V26.3861H36.4908V21.2501C36.4908 20.7322 36.0719 20.3126 35.5551 20.3126C35.0383 20.3126 34.6193 20.7322 34.6193 21.2501V26.3861H33.3716V14.0913H34.6193V16.8751C34.6193 17.393 35.0383 17.8126 35.5551 17.8126C36.0719 17.8126 36.4908 17.393 36.4908 16.8751V13.5288C36.4908 12.8051 35.9032 12.2163 35.1808 12.2163H32.8102C32.0878 12.2163 31.5001 12.8051 31.5001 13.5288V26.386H29.8573V16.6171C29.8573 15.8933 29.2696 15.3046 28.5472 15.3046H26.1766C25.4542 15.3046 24.8665 15.8933 24.8665 16.6171V26.386H23.2237V19.7733C23.2237 19.0496 22.636 18.4608 21.9136 18.4608H19.543C18.8206 18.4608 18.2329 19.0496 18.2329 19.7733V26.9485C18.2329 27.6722 18.8206 28.261 19.543 28.261H55.0817C55.804 28.2611 56.3916 27.6723 56.3916 26.9486V26.9486ZM21.352 26.3861H21.1158H20.1043V20.336H21.352V26.3861ZM27.9856 26.3861H26.7379V17.1797H27.9856V26.3861ZM41.2529 26.3861H40.0052V11.3665H41.2529V26.3861ZM47.8865 26.3861H46.6388V14.6363H47.8865V26.3861ZM54.5201 26.3861H53.5564H53.2724V18.4118H54.5201V26.3861Z" fill="#333333"/>
    <path d="M54.812 39.241H54.3522C53.8901 35.5516 50.7415 32.6875 46.9357 32.6875C45.2092 32.6875 43.6187 33.2785 42.3516 34.2669L42.0239 33.939C41.8485 33.7635 41.6106 33.6649 41.3627 33.6649C41.3625 33.6649 41.3623 33.6649 41.362 33.6649C41.1139 33.665 40.8759 33.764 40.7005 33.9399C39.0628 35.5828 38.1235 37.8566 38.1235 40.1784C38.1235 45.0464 42.0766 49.0069 46.9356 49.0069C51.7946 49.0069 55.7476 45.0464 55.7476 40.1784C55.7478 39.6606 55.3288 39.241 54.812 39.241ZM46.9357 34.5625C49.7077 34.5625 52.0148 36.5893 52.4617 39.241H47.3229L43.6889 35.6049C44.6058 34.9496 45.7261 34.5625 46.9357 34.5625V34.5625ZM46.9357 47.132C43.1087 47.132 39.9952 44.0126 39.9952 40.1785C39.9952 38.6643 40.5025 37.1759 41.4093 35.974L46.2744 40.8418C46.4499 41.0173 46.6878 41.1159 46.9357 41.1159H53.8135C53.3552 44.5085 50.4455 47.132 46.9357 47.132Z" fill="#333333"/>
    <path d="M25.2787 35.7231H35.7572C36.274 35.7231 36.693 35.3035 36.693 34.7856C36.693 34.2678 36.274 33.8481 35.7572 33.8481H25.2787C24.7619 33.8481 24.3429 34.2678 24.3429 34.7856C24.3429 35.3035 24.7619 35.7231 25.2787 35.7231Z" fill="#333333"/>
    <path d="M25.2787 39.3185H35.7572C36.274 39.3185 36.693 38.8989 36.693 38.381C36.693 37.8631 36.274 37.4435 35.7572 37.4435H25.2787C24.7619 37.4435 24.3429 37.8631 24.3429 38.381C24.3429 38.8989 24.7619 39.3185 25.2787 39.3185Z" fill="#333333"/>
    <path d="M26.7134 42.9135H35.7565C36.2733 42.9135 36.6922 42.4939 36.6922 41.976C36.6922 41.4581 36.2733 41.0385 35.7565 41.0385H26.7134C26.1966 41.0385 25.7776 41.4581 25.7776 41.976C25.7776 42.4939 26.1966 42.9135 26.7134 42.9135V42.9135Z" fill="#333333"/>
    <path d="M29.5846 46.5087H35.7569C36.2737 46.5087 36.6927 46.089 36.6927 45.5712C36.6927 45.0533 36.2737 44.6337 35.7569 44.6337H29.5846C29.0678 44.6337 28.6488 45.0533 28.6488 45.5712C28.6488 46.089 29.0677 46.5087 29.5846 46.5087Z" fill="#333333"/>
    <path d="M29.7293 6.47681C30.2461 6.47681 30.6651 6.05718 30.6651 5.53931C30.6651 5.02143 30.2461 4.60181 29.7293 4.60181H19.2214C18.7046 4.60181 18.2856 5.02143 18.2856 5.53931C18.2856 6.05718 18.7046 6.47681 19.2214 6.47681H29.7293Z" fill="#333333"/>
    <path d="M49.6339 6.47681H55.4049C55.9217 6.47681 56.3407 6.05718 56.3407 5.53931C56.3407 5.02143 55.9217 4.60181 55.4049 4.60181H49.6339C49.1171 4.60181 48.6981 5.02143 48.6981 5.53931C48.6981 6.05718 49.1171 6.47681 49.6339 6.47681Z" fill="#333333"/>
    <path d="M49.6339 9.78448H55.4049C55.9217 9.78448 56.3407 9.36486 56.3407 8.84698C56.3407 8.32911 55.9217 7.90948 55.4049 7.90948H49.6339C49.1171 7.90948 48.6981 8.32911 48.6981 8.84698C48.6981 9.36486 49.1171 9.78448 49.6339 9.78448Z" fill="#333333"/>
    <path d="M32.5475 57.9936H52.8564C54.4501 57.9936 55.7467 56.6946 55.7467 55.098C55.7467 53.5013 54.4501 52.2023 52.8564 52.2023H32.5475C30.9538 52.2023 29.6572 53.5013 29.6572 55.098C29.6572 56.6946 30.9538 57.9936 32.5475 57.9936ZM48.0325 54.0773H52.8565C53.4182 54.0773 53.8753 54.5352 53.8753 55.098C53.8753 55.6607 53.4182 56.1186 52.8565 56.1186H48.0325V54.0773ZM32.5475 54.0773H46.1609V56.1186H32.5475C31.9858 56.1186 31.5288 55.6607 31.5288 55.098C31.5288 54.5352 31.9858 54.0773 32.5475 54.0773V54.0773Z" fill="#333333"/>
</svg>