<svg viewBox="0 0 57 64" fill="none" xmlns="http://www.w3.org/2000/svg">
    <rect class="painted" x="13.4377" y="6.51587" width="20.7869" height="8.01356" fill="#E51A1E"/>
    <path d="M56.8425 18.4683C56.6919 17.9043 56.3308 17.4326 55.8258 17.1406L53.9899 16.0786C53.485 15.7866 52.8967 15.709 52.3333 15.8604C51.7704 16.0112 51.2995 16.373 51.0081 16.8789L49.9125 18.7798C49.4475 18.561 48.9255 18.5127 48.423 18.6475C47.8601 18.7988 47.3893 19.1606 47.0979 19.6665L47.0286 19.7861V11.6875C47.0286 9.10254 44.93 7 42.3498 7H35.525C35.3725 5.94189 34.464 5.125 33.3664 5.125H30.1848V2.8125C30.1848 1.26172 28.9255 0 27.3775 0H20.5152C18.9673 0 17.7079 1.26172 17.7079 2.8125V5.125H14.5263C13.4288 5.125 12.5198 5.94189 12.3677 7H5.54297C2.96279 7 0.864136 9.10254 0.864136 11.6875V59.3125C0.864136 61.8975 2.96279 64 5.54297 64H34.7448C35.2614 64 35.6805 63.5806 35.6805 63.0625C35.6805 62.5444 35.2614 62.125 34.7448 62.125H5.54297C3.99506 62.125 2.73567 60.8633 2.73567 59.3125V11.6875C2.73567 10.1367 3.99506 8.875 5.54297 8.875H12.3429V13.4375C12.3429 14.6436 13.3225 15.625 14.5263 15.625H33.3664C34.5703 15.625 35.5499 14.6436 35.5499 13.4375V12.5625H41.4764V29.4209L31.9545 45.9438C31.6104 46.5405 31.4545 47.2192 31.5037 47.9067L31.9209 53.7632C31.9574 54.2754 32.243 54.7368 32.6846 54.9976C32.9283 55.1411 33.2017 55.2139 33.4766 55.2139C33.6998 55.2139 33.9235 55.1655 34.1321 55.0688L39.5118 52.5693C40.1561 52.27 40.6844 51.7861 41.0393 51.1704L41.4764 50.4121V58.4375H6.41635V12.5625H8.91173C9.42835 12.5625 9.8475 12.1431 9.8475 11.625C9.8475 11.1069 9.42835 10.6875 8.91173 10.6875H6.10443C5.24421 10.6875 4.54482 11.3882 4.54482 12.25V58.75C4.54482 59.6118 5.24421 60.3125 6.10443 60.3125H41.7884C42.6481 60.3125 43.348 59.6118 43.348 58.75V47.1641L45.1571 44.0249V59.3125C45.1571 60.8633 43.8977 62.125 42.3498 62.125H39.1112C38.5946 62.125 38.1754 62.5444 38.1754 63.0625C38.1754 63.5801 38.5946 64 39.1112 64H42.3498C44.9295 64 47.0286 61.897 47.0286 59.3125V40.7773L54.9232 27.0781L56.1704 24.9141C56.4619 24.4082 56.5394 23.8188 56.3883 23.2549C56.2538 22.7515 55.9511 22.3232 55.529 22.0288L56.6246 20.1279C56.9161 19.6221 56.9936 19.0327 56.8425 18.4683V18.4683ZM52.6286 17.8164C52.7144 17.6675 52.905 17.6162 53.0541 17.7021L54.8901 18.7642C54.9871 18.8203 55.0226 18.9072 55.0353 18.9536C55.0475 19.0005 55.0602 19.0928 55.0041 19.1904L53.9129 21.0835L51.5379 19.71L52.6286 17.8164ZM48.7184 20.604C48.7744 20.5068 48.8612 20.4712 48.9075 20.459C48.9543 20.4458 49.0464 20.4336 49.1434 20.4897L54.4353 23.5508C54.5328 23.6069 54.5684 23.6934 54.5806 23.7402C54.5933 23.7866 54.6054 23.8794 54.5494 23.9766L53.7701 25.3286L47.9396 21.9561L48.7184 20.604ZM19.5795 2.8125C19.5795 2.29541 19.9991 1.875 20.5152 1.875H27.3775C27.8937 1.875 28.3133 2.29541 28.3133 2.8125V5.125H19.5795V2.8125ZM33.6784 13.4375C33.6784 13.6099 33.5385 13.75 33.3664 13.75H14.5263C14.3543 13.75 14.2144 13.6099 14.2144 13.4375V7.3125C14.2144 7.14014 14.3543 7 14.5263 7H33.3664C33.5385 7 33.6784 7.14014 33.6784 7.3125V13.4375ZM41.7884 10.6875H35.5499V8.875H42.3498C43.8977 8.875 45.1571 10.1367 45.1571 11.6875V23.0342L43.348 26.1733V12.25C43.348 11.3882 42.6486 10.6875 41.7884 10.6875ZM47.0038 23.5801L52.8343 26.9526L41.3624 46.8599L35.5314 43.4873L47.0038 23.5801ZM39.4187 50.2329C39.2574 50.5127 39.0171 50.7324 38.7247 50.8682V50.8687L33.7554 53.1772L33.3703 47.7734C33.3479 47.4609 33.4191 47.1528 33.5755 46.8818L34.5956 45.1108L40.4266 48.4834L39.4187 50.2329Z" fill="#333333"/>
    <path d="M10.5294 52.3047C10.7073 52.4634 10.9295 52.541 11.1503 52.541C11.4086 52.541 11.6655 52.4346 11.8502 52.2261L13.7056 50.1333L15.1419 51.8496C15.43 52.1943 15.8525 52.3975 16.3009 52.4082C16.7498 52.416 17.1806 52.2354 17.4843 51.9048L19.2115 50.0259L21.126 52.1968C21.4686 52.585 22.0598 52.6216 22.4468 52.2788C22.8342 51.936 22.8708 51.3438 22.5286 50.9556L20.3852 48.5249C20.0932 48.1938 19.6731 48.0015 19.2325 47.9971C19.2271 47.9966 19.2218 47.9966 19.2164 47.9966C18.7812 47.9966 18.364 48.1797 18.0691 48.5005L16.3482 50.3726L14.9075 48.6514C14.6161 48.3032 14.1886 48.0996 13.7344 48.0928C13.2801 48.0825 12.8478 48.2778 12.5466 48.6177L10.4514 50.981C10.1078 51.3682 10.1429 51.9609 10.5294 52.3047V52.3047Z" fill="#E51A1E"/>
    <path d="M38.1388 20.6875C38.1388 20.1694 37.7197 19.75 37.2031 19.75H10.6273C10.1107 19.75 9.69153 20.1694 9.69153 20.6875C9.69153 21.2056 10.1107 21.625 10.6273 21.625H37.2031C37.7197 21.625 38.1388 21.2056 38.1388 20.6875Z" fill="#333333"/>
    <path d="M10.7521 26.625H21.8565C22.3731 26.625 22.7923 26.2056 22.7923 25.6875C22.7923 25.1694 22.3731 24.75 21.8565 24.75H10.7521C10.2354 24.75 9.81628 25.1694 9.81628 25.6875C9.81628 26.2056 10.2354 26.625 10.7521 26.625Z" fill="#333333"/>
    <path d="M31.5262 25.6875C31.5262 25.1694 31.107 24.75 30.5904 24.75H26.2235C25.7069 24.75 25.2877 25.1694 25.2877 25.6875C25.2877 26.2056 25.7069 26.625 26.2235 26.625H30.5904C31.107 26.625 31.5262 26.2056 31.5262 25.6875Z" fill="#333333"/>
    <path d="M10.7521 31.625H19.7354C20.252 31.625 20.6712 31.2056 20.6712 30.6875C20.6712 30.1694 20.252 29.75 19.7354 29.75H10.7521C10.2354 29.75 9.81628 30.1694 9.81628 30.6875C9.81628 31.2056 10.2354 31.625 10.7521 31.625Z" fill="#333333"/>
    <path d="M27.9701 29.75H23.728C23.2114 29.75 22.7922 30.1694 22.7922 30.6875C22.7922 31.2056 23.2114 31.625 23.728 31.625H27.9701C28.4868 31.625 28.9059 31.2056 28.9059 30.6875C28.9059 30.1694 28.4868 29.75 27.9701 29.75Z" fill="#333333"/>
    <path d="M10.7521 36.625H17.24C17.7567 36.625 18.1758 36.2056 18.1758 35.6875C18.1758 35.1694 17.7567 34.75 17.24 34.75H10.7521C10.2354 34.75 9.81628 35.1694 9.81628 35.6875C9.81628 36.2056 10.2354 36.625 10.7521 36.625Z" fill="#333333"/>
    <path d="M28.9059 35.6875C28.9059 35.1694 28.4868 34.75 27.9702 34.75H21.2326C20.716 34.75 20.2969 35.1694 20.2969 35.6875C20.2969 36.2056 20.716 36.625 21.2326 36.625H27.9702C28.4868 36.625 28.9059 36.2056 28.9059 35.6875Z" fill="#333333"/>
    <path d="M10.7521 41.625H17.24C17.7567 41.625 18.1758 41.2056 18.1758 40.6875C18.1758 40.1694 17.7567 39.75 17.24 39.75H10.7521C10.2354 39.75 9.81628 40.1694 9.81628 40.6875C9.81628 41.2056 10.2354 41.625 10.7521 41.625Z" fill="#333333"/>
</svg>