<svg viewBox="0 0 58 58" fill="none" xmlns="http://www.w3.org/2000/svg">
    <path d="M17 19.5L17.5 17.5H18.5L21.5 20.5L24 18.2512L26.5 15L28.5 14L29.5 15V17L24 22L21.5 24L20 22.5L17 19.5Z" fill="#E51A1E"/>
    <path d="M34.5665 34.1453H13.3503C12.8806 34.1453 12.5 34.526 12.5 34.9956C12.5 35.4652 12.8807 35.8458 13.3503 35.8458H34.5665C35.0361 35.8458 35.4168 35.4651 35.4168 34.9956C35.4168 34.5259 35.0361 34.1453 34.5665 34.1453Z" fill="#333333"/>
    <path d="M27.9783 38.1476H13.3503C12.8806 38.1476 12.5 38.5283 12.5 38.9979C12.5 39.4674 12.8807 39.8482 13.3503 39.8482H27.9783C28.4479 39.8482 28.8286 39.4674 28.8286 38.9979C28.8286 38.5283 28.4479 38.1476 27.9783 38.1476Z" fill="#333333"/>
    <path d="M52.6541 17.4212C53.1238 17.4212 53.5044 17.0404 53.5044 16.5709V8.87908C53.5044 8.40953 53.1238 8.02879 52.6541 8.02879H43.0113V0.850287C43.0113 0.380738 42.6307 0 42.161 0H5.34443C4.87477 0 4.49414 0.380738 4.49414 0.850287V30.0544C4.49414 30.5239 4.87477 30.9047 5.34443 30.9047C5.81409 30.9047 6.19472 30.5239 6.19472 30.0544V1.70069H41.3107V41.0007H34.8912C34.4215 41.0007 34.0409 41.3815 34.0409 41.851V48.2705L6.19483 48.2706V33.4556C6.19483 32.9861 5.8142 32.6053 5.34454 32.6053C4.87488 32.6053 4.49425 32.9861 4.49425 33.4556V49.1209C4.49425 49.5906 4.87488 49.9712 5.34454 49.9712H14.9874V57.1496C14.9874 57.6193 15.368 57.9999 15.8377 57.9999H45.3845C45.3914 57.9999 45.3981 57.9991 45.4049 57.9989C45.4258 57.9983 45.4466 57.9979 45.4673 57.9958C45.4835 57.9942 45.4995 57.9913 45.5155 57.9887C45.5267 57.987 45.5381 57.9858 45.5493 57.9836C45.5665 57.9802 45.5831 57.9754 45.5999 57.9711C45.6098 57.9685 45.6199 57.9666 45.6297 57.9636C45.6459 57.9588 45.6617 57.9525 45.6776 57.9467C45.6877 57.9429 45.6979 57.9399 45.7078 57.9358C45.7231 57.9294 45.7378 57.922 45.7527 57.9148C45.7628 57.9099 45.7731 57.9058 45.783 57.9005C45.7988 57.8922 45.814 57.8825 45.8291 57.8731C45.8375 57.8679 45.8463 57.8634 45.8545 57.858C45.875 57.8444 45.8947 57.8294 45.9141 57.814C45.9166 57.812 45.9193 57.8104 45.9218 57.8082C45.9438 57.7903 45.965 57.7713 45.9853 57.751L53.2551 50.4811C53.282 50.4541 53.3062 50.425 53.3291 50.3949C53.3347 50.3876 53.3401 50.3804 53.3453 50.373C53.3669 50.3428 53.387 50.3117 53.4044 50.2791C53.4052 50.2776 53.4057 50.2761 53.4065 50.2746C53.4229 50.2433 53.4368 50.2108 53.4491 50.1777C53.4524 50.1691 53.4555 50.1605 53.4584 50.1518C53.4701 50.1171 53.4804 50.0818 53.4876 50.0457C53.4876 50.0455 53.4877 50.0453 53.4877 50.0451C53.4948 50.0096 53.4987 49.9734 53.5012 49.937C53.5019 49.9275 53.5024 49.9181 53.5026 49.9086C53.5029 49.8989 53.5039 49.8895 53.5039 49.8799V19.9721C53.5039 19.5026 53.1233 19.1218 52.6537 19.1218C52.184 19.1218 51.8034 19.5026 51.8034 19.9721V49.0294H45.3842C44.9145 49.0294 44.5339 49.4101 44.5339 49.8797V56.2992H16.6877V49.9711H34.8912C34.8981 49.9711 34.9048 49.9702 34.9116 49.9701C34.9324 49.9696 34.9533 49.9691 34.974 49.967C34.9902 49.9654 35.0062 49.9625 35.0221 49.9599C35.0334 49.9582 35.0448 49.9571 35.056 49.9548C35.0731 49.9514 35.0898 49.9466 35.1065 49.9422C35.1164 49.9396 35.1266 49.9377 35.1363 49.9347C35.1525 49.9299 35.1684 49.9236 35.1842 49.9177C35.1943 49.914 35.2045 49.9109 35.2145 49.9069C35.2298 49.9005 35.2445 49.893 35.2593 49.8859C35.2694 49.881 35.2797 49.8769 35.2897 49.8716C35.3055 49.8633 35.3206 49.8536 35.3358 49.8442C35.3442 49.839 35.3529 49.8345 35.3612 49.829C35.3817 49.8155 35.4014 49.8006 35.4208 49.7851C35.4233 49.7831 35.426 49.7814 35.4285 49.7794C35.4505 49.7615 35.4716 49.7424 35.4919 49.7222L42.7617 42.4523C42.7887 42.4253 42.8129 42.3962 42.8359 42.3661C42.8415 42.359 42.8468 42.3517 42.852 42.3445C42.8736 42.3142 42.8938 42.2831 42.9111 42.2503C42.9118 42.249 42.9124 42.2476 42.9131 42.2462C42.9296 42.2149 42.9434 42.1822 42.9559 42.1489C42.9591 42.1403 42.9622 42.1318 42.9651 42.1231C42.9768 42.0884 42.9872 42.0532 42.9943 42.017C42.9943 42.0167 42.9943 42.0165 42.9944 42.0163C43.0014 41.9808 43.0054 41.9445 43.0079 41.9081C43.0086 41.8986 43.0089 41.8892 43.0092 41.8797C43.0096 41.87 43.0107 41.8606 43.0107 41.851V9.72937H51.8032V16.5709C51.8038 17.0404 52.1844 17.4212 52.6541 17.4212ZM46.2346 50.73H50.6013L46.2346 55.0967V50.73ZM35.7414 47.068V42.7013H40.1081L35.7414 47.068Z" fill="#333333"/>
    <path d="M29.7973 14.0364C29.3605 13.5996 28.7796 13.359 28.1619 13.359C27.5441 13.3591 26.9633 13.5997 26.5264 14.0365L21.5092 19.0538L19.8183 17.3628C19.3816 16.926 18.8007 16.6854 18.1828 16.6854C17.565 16.6854 16.9842 16.926 16.5474 17.3628C15.6457 18.2646 15.6457 19.7319 16.5474 20.6336L19.8739 23.9601C20.3108 24.3969 20.8916 24.6375 21.5092 24.6375C22.127 24.6375 22.7078 24.3968 23.1446 23.96L29.7972 17.3074C30.234 16.8706 30.4747 16.2897 30.4747 15.672C30.4747 15.054 30.2342 14.4732 29.7973 14.0364ZM28.5946 16.1047L21.9419 22.7574C21.8263 22.873 21.6727 22.9367 21.5092 22.9367C21.3481 22.9367 21.1903 22.8712 21.0765 22.7575L17.7501 19.4311C17.5113 19.1923 17.5113 18.8039 17.7501 18.5653C17.8657 18.4496 18.0194 18.3861 18.1828 18.3861C18.3463 18.3861 18.5 18.4496 18.6156 18.5653L20.9078 20.8575C21.0673 21.017 21.2835 21.1066 21.5091 21.1066C21.7346 21.1066 21.9508 21.017 22.1104 20.8575L27.729 15.2389C27.8447 15.1232 27.9984 15.0596 28.1619 15.0596C28.3252 15.0596 28.4789 15.1232 28.5946 15.2389C28.7103 15.3546 28.7738 15.5083 28.7738 15.6718C28.774 15.8353 28.7103 15.9891 28.5946 16.1047Z" fill="#333333"/>
    <path d="M23.1724 6.33838C20.563 6.33838 18.0631 7.13474 15.9431 8.64138C15.5603 8.91337 15.4705 9.4442 15.7424 9.82709C16.0144 10.2099 16.545 10.2997 16.9282 10.0276C18.7588 8.72657 20.918 8.03895 23.1723 8.03895C29.1231 8.03895 33.9645 12.8804 33.9645 18.8311C33.9645 24.7819 29.1231 29.6234 23.1723 29.6234C17.2216 29.6234 12.3801 24.782 12.3801 18.8311C12.3801 16.4121 13.162 14.1261 14.6412 12.2202C14.9293 11.8492 14.862 11.3149 14.491 11.0271C14.1201 10.7392 13.586 10.8064 13.298 11.1774C11.585 13.3843 10.6797 16.031 10.6797 18.8311C10.6797 25.7197 16.2839 31.324 23.1724 31.324C30.0609 31.324 35.6652 25.7197 35.6652 18.8311C35.6652 11.9425 30.061 6.33838 23.1724 6.33838Z" fill="#333333"/>
</svg>