<svg viewBox="0 0 25 33" fill="none" xmlns="http://www.w3.org/2000/svg">
    <path d="M12.0777 0C5.41838 0 0 5.41837 0 12.0784C0 13.8155 0.355562 15.4742 1.05628 17.0086C4.07604 23.6165 9.86575 30.5931 11.5687 32.5737C11.6963 32.7218 11.8823 32.8071 12.078 32.8071C12.2738 32.8071 12.4598 32.7218 12.5874 32.5737C14.2896 30.5934 20.0793 23.6172 23.1001 17.0086C23.8012 15.4742 24.1564 13.8155 24.1564 12.0784C24.1557 5.41837 18.7373 0 12.0777 0ZM12.0777 18.3519C8.61843 18.3519 5.80382 15.5373 5.80382 12.078C5.80382 8.61843 8.61843 5.80382 12.0777 5.80382C15.537 5.80382 18.3516 8.61843 18.3516 12.078C18.3519 15.5373 15.5373 18.3519 12.0777 18.3519Z" fill="#E51A1E"/>
</svg>