<svg viewBox="0 0 52 64" fill="none" xmlns="http://www.w3.org/2000/svg">
    <path d="M50.2464 28.9835C50.0807 28.9242 48.4944 28.3649 45.8605 27.6893V20.1154C45.8605 9.02375 36.8366 0 25.745 0C14.6532 0 5.6295 9.02375 5.6295 20.1155V27.6894C2.99575 28.365 1.40925 28.9244 1.24362 28.9836L0 29.4284V59.693L1.24362 60.1377C1.68475 60.2952 12.2006 64 25.745 64C39.2894 64 49.8052 60.2952 50.2464 60.1375L51.49 59.6927V29.4282L50.2464 28.9835ZM9.3795 20.1155C9.3795 11.0915 16.7211 3.75 25.745 3.75C34.7689 3.75 42.1105 11.0915 42.1105 20.1155V26.8248C40.6055 26.515 38.928 26.2135 37.1105 25.9521V20.1155C37.1105 13.8485 32.012 8.75 25.745 8.75C19.478 8.75 14.3795 13.8485 14.3795 20.1155V25.9521C12.562 26.2135 10.8845 26.515 9.3795 26.8248V20.1155ZM33.3605 25.499C30.9761 25.2659 28.42 25.121 25.745 25.121C23.07 25.121 20.514 25.2659 18.1295 25.499V20.1155C18.1295 15.9164 21.5459 12.5 25.745 12.5C29.9442 12.5 33.3605 15.9164 33.3605 20.1155V25.499ZM47.74 57.0062C44.6259 57.9529 36.0099 60.25 25.745 60.25C15.4792 60.25 6.863 57.9526 3.75 57.0062V32.1136C6.858 31.1665 15.4537 28.871 25.745 28.871C36.0107 28.871 44.627 31.1685 47.74 32.1149V57.0062Z" fill="#E51A1E"/>
    <path d="M20.1201 41.1226C20.1201 43.5669 21.6877 45.6511 23.8701 46.4251V51.7487H27.6201V46.4251C29.8025 45.6511 31.3701 43.5669 31.3701 41.1226C31.3701 38.0209 28.8467 35.4976 25.7451 35.4976C22.6435 35.4976 20.1201 38.0209 20.1201 41.1226ZM27.6201 41.1226C27.6201 42.1564 26.779 42.9976 25.7451 42.9976C24.7112 42.9976 23.8701 42.1564 23.8701 41.1226C23.8701 40.0887 24.7112 39.2476 25.7451 39.2476C26.779 39.2476 27.6201 40.0887 27.6201 41.1226Z" fill="#E51A1E"/>
</svg>