<svg viewBox="0 0 58 58" fill="none" xmlns="http://www.w3.org/2000/svg">
    <path fill-rule="evenodd" clip-rule="evenodd" d="M38 28.5C38 28.1 34 23.6667 32 21.5L28 13L29 6.5L32.5 3L35.5 1H40L43.5 2L47 5.5L49 10.5L48 15.5L45 21.5L41.5 25.5L38 28.5ZM38.5 17C41.5376 17 44 14.5376 44 11.5C44 8.46243 41.5376 6 38.5 6C35.4624 6 33 8.46243 33 11.5C33 14.5376 35.4624 17 38.5 17Z" fill="#D54545"/>
    <path d="M58 38.3436V19.643C58 19.2333 57.7305 18.8722 57.3378 18.7557L48.6856 16.1887C49.3553 14.5505 49.7728 12.9245 49.7728 11.4149C49.7728 5.12078 44.6521 0 38.3579 0C32.0636 0 26.943 5.12066 26.943 11.4149C26.943 12.9245 27.3605 14.5505 28.0302 16.1887L19.6413 18.6776L1.18875 13.2024C0.908872 13.1196 0.606038 13.1734 0.37194 13.348C0.137843 13.5226 0 13.7977 0 14.0898V32.8137C0 32.8159 0 32.8183 0 32.8205V51.5213C0 51.931 0.269392 52.2921 0.662311 52.4086L19.3641 57.9577C19.3695 57.9593 19.378 57.9617 19.378 57.9617C19.381 57.9626 19.3841 57.9629 19.3871 57.9637C19.4215 57.9736 19.4568 57.9811 19.4928 57.9869C19.5024 57.9885 19.5121 57.9901 19.5218 57.9914C19.5606 57.9964 19.5998 57.9997 19.6398 57.9999C19.6827 57.9999 19.7221 57.9964 19.761 57.9914C19.7706 57.9901 19.7801 57.9885 19.7897 57.9869C19.8258 57.9811 19.8612 57.9735 19.8957 57.9637C19.8987 57.9629 19.9018 57.9626 19.9047 57.9617L19.9133 57.9592C19.9187 57.9575 37.983 52.5979 37.983 52.5979C38.0977 52.6488 38.2243 52.6777 38.358 52.6777C38.4916 52.6777 38.6184 52.6488 38.733 52.5979L56.8112 57.9616C56.8978 57.9873 56.9864 57.9999 57.0746 57.9999C57.2718 57.9999 57.4664 57.9368 57.6282 57.816C57.8622 57.6413 58.0001 57.3663 58.0001 57.0743V38.351C58 38.3485 58 38.346 58 38.3436V38.3436ZM56.1489 20.3338V37.1188L39.2834 32.1147V29.4823C40.4903 28.2395 45.23 23.1893 47.9064 17.8883L56.1489 20.3338ZM38.3579 1.85106C43.6313 1.85106 47.9217 6.14134 47.9217 11.4149C47.9217 12.9181 47.4188 14.5923 46.6368 16.2875C46.5981 16.3495 46.5662 16.4167 46.5424 16.489C44.3122 21.1968 39.9984 26.022 38.3576 27.7677C36.7178 26.0239 32.4079 21.2053 30.1769 16.4991C30.1519 16.4199 30.1169 16.3465 30.0741 16.2795C29.2949 14.5874 28.794 12.9162 28.794 11.4148C28.794 6.14134 33.0844 1.85106 38.3579 1.85106V1.85106ZM37.4323 29.4821V32.1146L20.5668 37.1186V20.3338L28.8093 17.8883C31.4859 23.1893 36.2254 28.2395 37.4323 29.4821ZM1.85106 34.0455L8.24563 35.9428C8.33349 35.9689 8.42209 35.9813 8.50922 35.9813C8.90843 35.9813 9.27679 35.7211 9.39612 35.3188C9.54162 34.8288 9.26223 34.3137 8.77207 34.1683L1.85106 32.1147V15.3298L18.7157 20.3338V37.1188L12.3213 35.2214C11.8314 35.0758 11.3162 35.3553 11.1708 35.8455C11.0253 36.3355 11.3047 36.8506 11.7949 36.996L18.7159 39.0495V55.8345L1.85106 50.8305V34.0455V34.0455ZM39.2834 50.8305V44.13C39.2834 43.6188 38.8691 43.2044 38.3579 43.2044C37.8466 43.2044 37.4323 43.6188 37.4323 44.13V50.8305L20.5668 55.8344V39.0495L37.4323 34.0455V40.4279C37.4323 40.939 37.8466 41.3534 38.3579 41.3534C38.8691 41.3534 39.2834 40.939 39.2834 40.4279V34.0455L56.1489 39.0495V55.8345L39.2834 50.8305V50.8305Z" fill="#333333"/>
    <path d="M38.3576 17.8935C41.9299 17.8935 44.8364 14.9872 44.8364 11.4148C44.8364 7.84245 41.9299 4.93604 38.3576 4.93604C34.7853 4.93604 31.8789 7.84233 31.8789 11.4148C31.8789 14.9871 34.7853 17.8935 38.3576 17.8935ZM38.3576 6.7871C40.9094 6.7871 42.9853 8.86301 42.9853 11.4148C42.9853 13.9665 40.9094 16.0424 38.3576 16.0424C35.8059 16.0424 33.73 13.9665 33.73 11.4148C33.73 8.86301 35.8059 6.7871 38.3576 6.7871Z" fill="black"/>
</svg>