<svg viewBox="0 0 43 40" fill="none" xmlns="http://www.w3.org/2000/svg">
    <path d="M41.2264 8.34027C26.9008 5.49299 27.8282 5.64167 27.5037 5.69627C27.4 5.71358 26.1285 5.96914 23.165 6.56182C21.9226 2.9792 18.514 0.399933 14.5139 0.399933C10.51 0.399933 7.09878 2.98406 5.85924 6.57196L1.47811 5.70138C0.714479 5.54997 0 6.13374 0 6.91469V35.9425C0 36.5327 0.417027 37.0407 0.995851 37.1557C15.2003 39.979 14.2704 39.7967 14.3645 39.8082C14.6632 39.8449 13.7401 39.9976 27.7091 37.2038L40.7441 39.7946C41.5082 39.9462 42.2222 39.3615 42.2222 38.5814V9.55358C42.2222 8.96337 41.8052 8.45539 41.2264 8.34027ZM14.5139 2.87389C18.197 2.87389 21.1936 5.87035 21.1936 9.55358C21.1936 12.6611 16.2211 20.5493 14.5139 23.1594C12.8086 20.5522 7.8342 12.6618 7.8342 9.55358C7.8342 5.87035 10.8307 2.87389 14.5139 2.87389ZM2.47396 8.42158L5.37756 8.99859C5.36651 9.18224 5.36024 9.36712 5.36024 9.5535C5.36024 11.6163 6.70962 14.9452 9.48557 19.7305C11.1065 22.5246 12.7044 24.9236 13.2769 25.7686V37.0742L2.47396 34.9271V8.42158ZM15.7509 25.7686C16.3233 24.9236 17.9213 22.5247 19.5422 19.7305C22.3182 14.9452 23.6675 11.6163 23.6675 9.55358C23.6675 9.36358 23.661 9.17506 23.6496 8.98795L26.4714 8.42347V34.9284L15.7509 37.0725V25.7686ZM39.7483 37.0743L28.9453 34.9272V8.42166L39.7483 10.5688V37.0743Z" fill="#333333"/>
    <path d="M14.5136 13.4295C16.6507 13.4295 18.3894 11.6908 18.3894 9.55358C18.3894 7.4164 16.6507 5.6777 14.5136 5.6777C12.3764 5.6777 10.6377 7.4164 10.6377 9.55358C10.6377 11.6908 12.3764 13.4295 14.5136 13.4295ZM14.5136 8.15167C15.2866 8.15167 15.9155 8.78055 15.9155 9.55358C15.9155 10.3266 15.2866 10.9555 14.5136 10.9555C13.7405 10.9555 13.1117 10.3266 13.1117 9.55358C13.1117 8.78055 13.7405 8.15167 14.5136 8.15167Z" fill="#333333"/>
</svg>