<svg viewBox="0 0 80 15" fill="none" xmlns="http://www.w3.org/2000/svg">
    <path d="M8.4299 0.373291C8.66721 0.403097 8.90452 0.436415 9.14183 0.462045C9.99615 0.548426 11.3725 1.0838 11.9895 1.56316C10.186 3.10093 9.18929 5.05161 9.18929 7.44844C9.18929 9.77407 10.1385 11.7675 11.9895 13.3337C11.7048 13.4761 11.4675 13.6185 11.1827 13.7609C10.5182 14.0931 9.75884 14.3304 8.95198 14.4253C6.95858 14.6627 5.12655 14.1406 3.54133 12.8591C2.21714 11.7675 1.38655 10.3436 1.09229 8.68245C0.74297 6.64159 1.18911 4.77633 2.45919 3.1294C3.5081 1.76725 4.88924 0.912933 6.57889 0.54273C6.86366 0.473436 7.19589 0.453976 7.52813 0.410786C7.57559 0.403524 7.62305 0.391421 7.67051 0.381644H8.4299V0.373291Z" fill="#898989"/>
    <path d="M17.163 0.373047C17.4003 0.402473 17.5901 0.429052 17.8274 0.461326C18.8716 0.606085 19.8683 0.978661 20.7226 1.57194C22.3363 2.67305 23.3805 4.18234 23.7602 6.10455C24.1399 8.2878 23.6178 10.2812 22.1465 11.9898C21.1023 13.2713 19.7259 14.0307 18.1122 14.3629C16.2612 14.6952 14.5051 14.3629 12.9389 13.3188C12.9389 13.3188 12.8914 13.3188 12.8914 13.2713C14.6949 11.7525 15.6442 9.80658 15.6442 7.43348C15.6442 5.05089 14.6949 3.1097 12.8439 1.5482C13.2236 1.33937 13.6033 1.13529 13.983 0.964422C14.6949 0.631714 15.5018 0.442341 16.3087 0.399626C16.3561 0.397252 16.4036 0.382065 16.451 0.373047H17.163Z" fill="#898989"/>
    <path d="M12.417 1.88995C16.119 4.72818 15.9766 10.2907 12.417 12.9486C8.99972 10.3382 8.62002 4.92752 12.417 1.88995Z" fill="#898989"/>
    <path d="M29.5978 5.10783V5.67737C29.9775 5.15529 30.4996 4.95595 31.0691 4.99392C31.6861 5.02715 32.1608 5.29768 32.493 5.81976C32.5405 5.72484 32.5879 5.67737 32.6354 5.62991C32.9676 5.25022 33.3948 5.04613 33.9168 4.99867C34.2965 4.96545 34.7237 5.01291 35.1034 5.20275C35.6255 5.44006 35.9102 5.86722 36.0052 6.43676V6.91138V9.61671V9.80656H34.961V9.61671V7.14869C34.961 6.95885 34.961 6.769 34.9135 6.62661C34.7237 6.05707 34.344 5.96215 33.9168 5.96215C33.5846 5.96215 33.2524 6.10453 33.0151 6.3893C32.9201 6.57915 32.8252 6.81646 32.8252 7.05377V9.61671V9.80656H31.7811V9.61671C31.7811 8.7624 31.7811 7.90808 31.7336 7.05377C31.7336 6.86392 31.6861 6.62661 31.6387 6.48423C31.4488 6.10453 31.1641 6.00961 30.8318 5.96215C30.3572 5.96215 29.8826 6.10453 29.6927 6.62661C29.6453 6.81646 29.5978 7.05377 29.5978 7.29108V9.61671V9.80656H28.5536V5.10783H29.5978Z" fill="#898989"/>
    <path d="M76.1442 7.45723C76.1584 7.57114 76.1679 7.6898 76.1869 7.8037C76.41 8.94279 77.625 9.1801 78.3369 8.70548C78.8827 8.37325 79.0393 7.8037 78.9492 7.17721C78.821 6.28492 78.0189 5.78657 77.1456 6.02388C76.5334 6.18525 76.1537 6.7453 76.1442 7.45723ZM78.9207 5.63469V3.23787L79.9554 3.23663V9.78638H78.9159V9.31176C78.7024 9.45415 78.5078 9.64399 78.2752 9.73892C77.2026 10.2135 75.7407 9.73892 75.2614 8.40998C74.8912 7.38006 75.0374 6.40709 75.8357 5.60498C76.2059 5.23003 76.6757 5.04019 77.2073 4.99272C77.7247 4.94052 78.204 5.03544 78.6217 5.35343C78.7214 5.42937 78.802 5.51955 78.9207 5.62397" fill="#898989"/>
    <path d="M66.9508 7.48093V7.86063C66.9508 8.99971 68.3747 9.18956 68.8493 8.66748C69.7985 8.28779 69.7985 7.81317 69.7985 7.19616C69.3239 6.29438 68.8493 5.7723 67.9001 6.05708C67.4254 6.24692 66.9508 6.769 66.9508 7.48093ZM69.7985 9.28449C69.3239 9.61672 68.8493 9.85403 68.3747 9.90149C67.4254 10.0439 66.4762 9.42687 66.0016 8.33525C65.527 7.43347 65.527 6.57916 66.4762 5.81977C66.9508 5.34515 67.4254 5.06037 67.9001 5.00342C68.3747 4.95596 68.8493 5.01766 69.3239 5.25022C69.3239 5.34515 69.3239 5.48753 69.7985 5.62992V5.10784H70.7478V9.80657H69.7985V9.28449Z" fill="#898989"/>
    <path d="M40.7993 7.43344C40.8467 6.67405 40.2772 6.00958 39.5178 5.96212C38.9957 5.96212 38.5685 6.10451 38.2838 6.53166C37.999 6.91136 37.9515 7.29105 37.999 7.71821C38.1414 8.57253 38.8058 9.04715 39.7076 8.90476C40.467 8.76237 40.8467 8.09791 40.7993 7.43344ZM40.7518 5.62989V5.20273C40.7518 5.15527 40.7993 5.10781 40.8467 5.10781H41.7485V9.80654H40.7518V9.28445L40.7043 9.33192C40.2772 9.80654 39.7076 9.94892 39.0906 9.90146C38.0465 9.854 37.1921 9.09461 36.9548 8.05044C36.8125 7.29105 36.9548 6.53166 37.4295 5.91466C37.8092 5.34512 38.3787 5.06034 39.0432 5.00339C39.6127 4.94644 40.1348 5.06034 40.5619 5.44004C40.6094 5.4875 40.6569 5.58243 40.7518 5.62989Z" fill="#898989"/>
    <path d="M55.5597 7.05381C55.5597 6.24695 55.0851 5.8198 54.1358 5.91472C53.6612 6.00965 53.1866 6.53173 53.1866 7.05381H55.5597ZM56.0343 8.47767C56.0343 8.71497 56.5089 8.95228 56.5089 9.14213V9.33198C55.5597 9.8066 55.0851 9.94899 54.1358 9.90152C53.1866 9.85406 52.2374 9.18959 52.2374 8.05051C52.2374 7.24365 52.2374 6.48426 52.712 5.86726C53.1866 5.34518 53.6612 5.06041 54.1358 5.00345C54.6105 4.9465 55.0851 5.05091 55.5597 5.39264C56.5089 5.77234 56.5089 6.29442 56.5089 6.91142V7.86066H53.1866C53.1866 8.47766 53.6612 8.90482 54.1358 8.95228C55.0851 9.04721 55.5597 8.85736 56.0343 8.57259V8.47767Z" fill="#898989"/>
    <path d="M42.7449 9.28447C42.9348 9.04716 43.0772 8.76239 43.267 8.52508C43.267 8.52508 43.3145 8.57254 43.3619 8.57254C43.9789 8.9997 44.6434 9.09462 45.3553 8.90478C45.4977 8.90478 45.6401 8.80985 45.7825 8.71493C45.9723 8.52508 45.9249 8.24031 45.6876 8.14539C45.4028 8.05046 45.1655 7.95554 44.8807 7.95554C44.501 7.86061 44.0739 7.81315 43.6942 7.6233C43.267 7.43346 42.9822 7.10122 42.9822 6.6266C42.8873 6.05706 43.1246 5.6299 43.5993 5.29767C43.9315 5.10782 44.3112 5.01765 44.6909 4.99866C45.4028 4.96544 46.0198 5.05561 46.6368 5.34513C46.6843 5.39259 46.7792 5.44006 46.8267 5.48752C46.6843 5.77229 46.5419 6.05706 46.3995 6.29437C46.1147 6.19945 45.83 6.05706 45.5926 6.0096C45.213 5.91468 44.8333 5.86721 44.4536 5.96214C44.2637 6.05706 44.0739 6.15199 44.0264 6.38929C44.0264 6.57914 44.0739 6.67407 44.2163 6.76899C44.4536 6.81645 44.6909 6.86391 44.9756 6.91138C45.3553 7.0063 45.735 7.0063 46.1147 7.19615C46.5893 7.386 46.9216 7.71823 46.969 8.24031C47.0165 8.80985 46.7792 9.23701 46.3046 9.56924C45.9249 9.80655 45.4977 9.90148 45.0231 9.90148C44.3112 9.94894 43.5992 9.85401 42.9822 9.47432C42.9348 9.42686 42.8399 9.3794 42.7924 9.33193L42.7449 9.28447Z" fill="#898989"/>
    <path d="M48.4403 6.05715H47.6334V5.10791H48.4403V3.69354H49.3895V5.10791H50.3388H51.288V5.25029V6.05715H49.3895V6.19953C49.3895 6.81654 49.3895 7.481 49.8641 8.09801V8.47771C49.8641 8.80994 49.8641 8.99979 50.3388 8.90486C50.8134 8.8574 50.8134 8.76248 51.288 8.71501V9.52187V9.61679C50.8134 9.8541 50.3388 9.94902 49.8641 9.90156C49.8641 9.90156 49.3895 9.80664 48.9149 9.56933C48.9149 9.33202 48.4403 8.99979 48.4403 8.66755V6.72161V6.05715Z" fill="#898989"/>
    <path d="M64.5775 8.52506C65.0521 8.80984 65.0521 9.04715 65.0521 9.33192C65.0521 9.52177 65.0521 9.66415 64.5775 9.75908C63.6282 10.0438 62.679 9.99639 61.7298 9.37938C61.2551 9.04715 61.2551 8.61999 61.2551 8.09791C60.7805 7.33852 61.2551 6.67405 61.2551 6.00958C61.7298 5.44004 62.2044 5.15527 63.1536 5.03661C63.6282 4.94169 64.1028 4.96542 64.5775 5.20273C65.0521 5.29765 65.0521 5.39258 65.0521 5.53496C65.0521 5.81974 65.0521 6.10451 64.5775 6.38928C64.5775 6.29436 64.5775 6.15197 64.1028 6.10451C63.6282 5.91466 63.1536 5.91466 62.679 6.24689C62.2044 6.4842 62.2044 6.81644 62.2044 7.19613C62.2044 7.62329 62.2044 8.09791 62.679 8.4776C62.679 8.76238 63.1536 8.90476 63.1536 8.95222C63.6282 8.95222 64.1028 8.8573 64.5775 8.57253V8.52506Z" fill="#898989"/>
    <path d="M57.9328 9.80662V9.61677V5.25027V5.10789H58.882V5.58251C58.882 5.3452 59.3567 5.10789 59.8313 5.02246C59.8313 4.95126 60.3059 5.00347 60.7805 5.10789C60.7805 5.44012 60.7805 5.77235 60.3059 6.05713C60.3059 6.00966 59.8313 6.00966 59.8313 5.9622C59.3567 5.9622 58.882 6.24697 58.882 6.72159V7.24367V9.61677V9.80662H57.9328Z" fill="#898989"/>
    <path d="M72.1713 5.10787H73.1206V5.20279V5.62995C73.5952 4.92277 74.0698 4.88955 75.019 5.10787C75.019 5.4401 74.5444 5.77234 74.5444 6.10457C74.5444 5.96218 74.0698 5.96218 73.5952 6.00965C73.5952 6.05711 73.1206 6.34188 73.1206 6.76904V7.19619V9.61675V9.8066H72.1713V5.10787Z" fill="#898989"/>
</svg>