<svg viewBox="0 0 49 15" fill="none" xmlns="http://www.w3.org/2000/svg">
    <path d="M4.68516 0.413627H4.78009C5.98088 0.554114 6.64534 1.25845 6.97758 2.36431C7.49966 4.27703 8.0692 6.185 8.63874 8.05974C8.63874 8.1072 8.63874 8.20213 8.6862 8.24959C8.6862 8.29705 8.73367 8.34451 8.82859 8.34451C8.92351 8.34451 8.92351 8.29705 8.97098 8.24959C9.0659 7.96482 9.11336 7.68005 9.20829 7.39528C9.6829 5.63918 10.205 3.94005 10.6796 2.22193C10.9169 1.40558 11.439 0.836038 12.2458 0.503804C12.4357 0.425018 12.673 0.447799 12.8629 0.392269L12.9103 0.392127C12.9578 0.438782 13.0527 0.415573 13.1476 0.415668C14.4766 0.417329 15.758 0.416854 17.087 0.416854C17.5141 0.416854 17.5141 0.416854 17.5141 0.86442V4.14879V13.5937C17.5141 13.7361 17.5616 13.8785 17.4667 13.9734C17.4192 14.0209 17.3243 14.0209 17.2294 14.0209H13.1951C13.0527 13.9734 13.0527 13.831 13.0527 13.7361V12.6445V6.3795C13.0527 6.28457 13.1476 6.09472 12.9578 6.04726C12.8629 6.04726 12.8154 6.23711 12.8154 6.33203C12.3408 7.89828 11.8662 9.41706 11.3915 10.9833L10.5372 13.6886C10.4898 13.831 10.4898 13.9734 10.2999 14.0209H7.30981C7.16742 14.0209 7.16742 13.8785 7.11996 13.7836L5.98088 10.0815C5.60118 8.80005 5.17402 7.51858 4.79433 6.23711C4.78483 6.18965 4.77534 6.18965 4.75636 6.14219C4.72788 6.09472 4.6994 6.04726 4.63296 6.04726C4.576 6.04726 4.57126 6.14219 4.56651 6.18965C4.55702 6.23711 4.56176 6.33203 4.56176 6.42696V13.5462C4.56176 13.6412 4.56651 13.7361 4.55227 13.831C4.54278 13.9259 4.53329 14.0209 4.40989 14.0209H0.423084C0.338127 14.0209 0.248899 14.0209 0.163942 13.9734C0.132048 13.9259 0.146191 13.831 0.146191 13.7836C0.145451 9.3696 0.145498 5.0031 0.145835 0.636603C0.145835 0.550222 0.137957 0.486149 0.157701 0.423499C0.23981 0.375088 0.329987 0.399103 0.415894 0.399009C1.75432 0.397205 3.09275 0.398249 4.42168 0.396588C4.50711 0.396493 4.59729 0.419702 4.68272 0.373047" fill="#898989"/>
    <path d="M28.9999 0.413574H29.0948C29.1422 0.460087 29.2372 0.436831 29.3321 0.437305C30.4712 0.438729 31.6103 0.443001 32.7493 0.433983C32.9867 0.432559 33.0341 0.500904 33.0341 0.693125V0.906704V13.6265V14.0062C32.9867 14.0537 32.9867 14.0537 32.9392 14.0537C31.5153 14.1011 30.0915 14.0537 28.7151 14.0537C28.5727 14.0537 28.5727 13.9113 28.5727 13.8163V13.1993V6.41229C28.5727 6.31736 28.6202 6.12752 28.4778 6.12752C28.3354 6.08005 28.3354 6.22244 28.2879 6.31736C27.576 7.88361 26.8641 9.40239 26.1521 10.9686C25.8674 11.5382 25.6301 12.1077 25.3453 12.6773C24.8707 13.579 24.1587 14.1011 23.0671 14.0537H19.4125C19.3651 14.0537 19.3651 14.0537 19.3651 14.0062C19.3176 13.9113 19.3176 13.8163 19.3176 13.674V0.859242V0.72445C19.3176 0.478122 19.3651 0.457714 19.6024 0.457714C20.8839 0.456765 22.1179 0.457239 23.3994 0.457239C23.6841 0.457714 23.7316 0.475275 23.7316 0.773336V4.08143V8.02552C23.7316 8.12044 23.6841 8.26283 23.7316 8.35775C23.874 8.50014 23.9689 8.35775 24.0164 8.26283C24.2062 7.97806 24.3011 7.64582 24.4435 7.36105C25.108 5.93719 25.7724 4.4991 26.4369 3.07049C26.6268 2.65283 26.8166 2.23042 27.0065 1.81275C27.3387 1.18625 27.8133 0.763843 28.4778 0.521787C28.6202 0.459612 28.81 0.486191 28.9999 0.432084" fill="#898989"/>
    <path d="M48.5542 5.3966V5.77629C48.5542 5.96614 48.5542 6.0136 48.0795 6.0136C46.6082 5.96614 45.042 6.0136 43.4757 5.96614C42.5265 5.96614 41.5298 6.0136 40.5806 5.96614C37.5905 5.82375 34.9801 3.70695 34.2681 0.650403V0.516086C34.2681 0.465776 34.2681 0.443469 34.3156 0.440621C34.4105 0.43635 34.458 0.438248 34.5529 0.438248H43.9978H44.3301C45.2318 0.418789 46.0387 0.814621 46.7506 1.35901C47.6049 1.99975 48.0795 2.86355 48.5542 3.88398V4.72881V4.77627V5.30309V5.39802V5.3966Z" fill="#898989"/>
    <path d="M39.1568 14.0347H35.1225H34.8378V6.86796C34.8378 6.67811 34.8852 6.58319 35.0751 6.58319C39.3941 6.63065 43.6657 6.63065 48.0796 6.58319V6.86796C47.3203 8.62405 45.8964 9.62075 43.903 9.71568C42.4317 9.76314 40.9129 9.71568 39.4416 9.71568C39.2517 9.71568 39.2043 9.71568 39.2043 9.95299V13.7974C39.2043 13.8923 39.2043 13.9398 39.1568 14.0347Z" fill="#898989"/>
</svg>