<svg viewBox="0 0 72 72" fill="none" xmlns="http://www.w3.org/2000/svg">
    <rect x="11.1725" y="9.93103" width="6.2069" height="4.96552" fill="#E51A1E"/>
    <rect x="11.1725" y="9.93103" width="6.2069" height="4.96552" fill="#E51A1E"/>
    <rect x="22.3448" y="62.069" width="8.68966" height="3.72414" fill="#E51A1E"/>
    <rect x="22.3448" y="62.069" width="8.68966" height="3.72414" fill="#E51A1E"/>
    <path d="M30.2302 4.29846H23.978C23.3954 4.29846 22.9233 4.77068 22.9233 5.35315C22.9233 5.93562 23.3954 6.40784 23.978 6.40784H30.2302C30.8128 6.40784 31.2849 5.93562 31.2849 5.35315C31.285 4.77068 30.8128 4.29846 30.2302 4.29846Z" fill="#333333"/>
    <path d="M30.143 60.8472H24.0654C22.5533 60.8472 21.3231 62.0775 21.3231 63.5895V64.6242C21.3231 66.1363 22.5534 67.3665 24.0654 67.3665H30.143C31.6551 67.3665 32.8853 66.1362 32.8853 64.6242V63.5895C32.8853 62.0775 31.6551 60.8472 30.143 60.8472ZM30.7758 64.6243C30.7758 64.9673 30.486 65.2572 30.143 65.2572H24.0654C23.7225 65.2572 23.4326 64.9675 23.4326 64.6243V63.5896C23.4326 63.2466 23.7225 62.9568 24.0654 62.9568H30.143C30.486 62.9568 30.7758 63.2466 30.7758 63.5896V64.6243Z" fill="#333333"/>
    <path d="M65.1595 37.4065C64.5769 37.4065 64.1048 37.8788 64.1048 38.4612V50.1584C64.1048 50.3792 63.9871 50.5938 63.7693 50.7091L46.9027 36.7474L64.1047 23.9539V33.5388C64.1047 34.1213 64.5767 34.5935 65.1594 34.5935C65.742 34.5935 66.214 34.1213 66.214 33.5388V21.8551V21.8287C66.214 21.8232 66.2132 21.8178 66.2131 21.8123C66.2128 21.8064 66.2124 21.8004 66.2119 21.7945C66.1806 20.494 65.0928 19.4417 63.7696 19.4417H48.4226V7.19536C48.4226 3.22777 45.1947 0 41.2274 0H29.5652C28.9826 0 28.5105 0.472219 28.5105 1.05469C28.5105 1.63716 28.9826 2.10938 29.5652 2.10938H41.2274C44.0316 2.10938 46.3131 4.39088 46.3131 7.19522V19.4417H43.8312C43.8312 18.6358 43.8312 11.6857 43.8312 10.7423C43.8312 9.57473 42.8813 8.62453 41.7134 8.62453C41.421 8.62453 12.8408 8.62453 12.4946 8.62453C11.3267 8.62453 10.3768 9.57445 10.3768 10.7423C10.3768 12.5795 10.3768 54.3194 10.3768 56.382C10.3768 57.5499 11.3267 58.4999 12.4946 58.4999H41.7134C42.8813 58.4999 43.8312 57.5499 43.8312 56.382V52.8931H46.3131V64.8045C46.3131 67.6088 44.0316 69.8903 41.2274 69.8903H12.981C10.1767 69.8903 7.89516 67.6088 7.89516 64.8045V7.19536C7.89516 4.39102 10.1765 2.10952 12.981 2.10952H24.6432C25.2258 2.10952 25.6979 1.6373 25.6979 1.05483C25.6979 0.472359 25.2258 0.000140625 24.6432 0.000140625H12.981C9.01341 0 5.78564 3.22777 5.78564 7.19536V64.8046C5.78564 68.7722 9.01341 72 12.981 72H41.2275C45.195 72 48.4227 68.7722 48.4227 64.8046V52.8933H63.4794C64.9875 52.8933 66.2142 51.6665 66.2142 50.1586V38.4614C66.2143 37.8787 65.7421 37.4065 65.1595 37.4065ZM63.7697 21.5512C63.7791 21.5512 63.788 21.553 63.7971 21.5537L42.9675 37.045C42.8635 37.1222 42.727 37.1197 42.6264 37.045C41.8693 36.4819 22.5552 22.1181 21.7966 21.5537C21.8058 21.553 21.8148 21.5512 21.8241 21.5512C23.6238 21.5512 61.9019 21.5512 63.7697 21.5512ZM38.6913 36.7476L21.8248 50.7091C21.6047 50.5925 21.4892 50.3738 21.4892 50.1584V23.9541L38.6913 36.7476ZM19.1248 10.736L41.7217 10.7423V14.1789H19.1248V10.736ZM12.4946 10.7342L17.0153 10.7355V14.1789H12.494L12.4946 10.7342ZM41.7134 56.3903L12.4864 56.382L12.4937 16.2885C12.8415 16.2885 41.4299 16.2885 41.7217 16.2885V19.4417H21.8242C20.489 19.4417 19.3925 20.5125 19.3799 21.8289V21.842L19.3797 21.8551V50.1583C19.3797 51.6652 20.6005 52.8896 22.1095 52.8929C22.1112 52.8929 22.1128 52.8931 22.1145 52.8931H41.7196L41.7134 56.3903ZM25.043 50.7836L40.4342 38.0433L41.3677 38.7374C42.2136 39.367 43.3632 39.3796 44.2263 38.7375L45.1599 38.0433L60.5511 50.7836H25.043Z" fill="#333333"/>
</svg>