<svg viewBox="0 0 52 19" fill="none" xmlns="http://www.w3.org/2000/svg">
    <path fill-rule="evenodd" clip-rule="evenodd" d="M13.2827 16.229C14.8788 16.229 16.611 16.7702 18.5288 18.4485C18.7206 18.6168 18.976 18.4079 18.8089 18.199C16.9247 15.8482 15.1819 15.4004 13.4435 15.0223C11.3172 14.5596 10.224 13.3776 9.46126 12.0801C9.31013 11.8218 9.24208 11.8668 9.22794 12.1991C9.21115 12.6045 9.23943 13.1422 9.33222 13.6711C9.24561 13.6746 9.15989 13.6728 9.07328 13.6728C6.03133 13.6728 3.5656 11.2365 3.5656 8.23173C3.5656 5.22603 6.03133 2.78974 9.07328 2.78974C12.1143 2.78974 14.5801 5.22603 14.5801 8.23173C14.5801 8.44504 14.5695 8.65658 14.5456 8.8646C14.1435 8.79232 13.3525 8.78527 12.7957 8.83199C12.5872 8.84962 12.6172 8.94657 12.7745 8.9739C14.5951 9.29915 15.8465 10.4142 16.1329 12.4371C16.139 12.4838 16.2 12.497 16.2248 12.4573C16.9982 11.183 17.406 9.72135 17.4037 8.23173C17.4037 3.6844 13.6742 0 9.07328 0C4.47235 0 0.741943 3.68528 0.741943 8.23173C0.741943 12.7782 4.47147 16.4643 9.07328 16.4643C10.2929 16.4643 11.5045 16.229 13.2818 16.229H13.2827ZM13.9013 13.2409C14.2725 13.5494 14.3856 13.9179 14.1894 14.1779C14.0807 14.3207 13.904 14.3983 13.6919 14.3983C13.4842 14.3983 13.2721 14.3224 13.1254 14.1955C12.7878 13.9046 12.6888 13.4331 12.9089 13.1642C12.9946 13.0602 13.1351 13.0021 13.3021 13.0021C13.5054 13.0021 13.7184 13.0867 13.9022 13.24L13.9013 13.2409ZM15.6123 12.4538C15.6671 12.8152 15.5513 12.965 15.4356 12.965C15.3092 12.965 15.1501 12.8178 14.9636 12.5296C14.778 12.2449 14.7109 11.9179 14.8028 11.7531C14.8629 11.6438 14.9893 11.5962 15.1492 11.6561C15.4585 11.7707 15.5796 12.2379 15.6123 12.4538ZM27.1606 10.5693L26.1999 9.42784C26.1772 9.40096 26.1627 9.36813 26.1582 9.33327C26.1537 9.29841 26.1593 9.26299 26.1744 9.23122C26.1895 9.19945 26.2134 9.17268 26.2433 9.1541C26.2732 9.13551 26.3079 9.12589 26.3431 9.12639H28.3528C28.4482 8.84433 28.503 8.54464 28.503 8.23173C28.503 6.80204 27.4248 5.56979 25.9472 5.56979C24.4686 5.56979 23.3913 6.80204 23.3913 8.23173C23.3913 9.6623 24.4695 10.8769 25.9472 10.8769C26.3952 10.8769 26.8053 10.7641 27.1606 10.5684V10.5693ZM31.507 12.4979C31.6113 12.6125 31.5247 12.7958 31.3682 12.7958H29.1756C29.1315 12.7959 29.0878 12.7863 29.0478 12.7677C29.0078 12.7491 28.9724 12.722 28.944 12.6883L28.5729 12.2476C27.7897 12.7495 26.8781 13.0158 25.9472 13.0144C23.2782 13.0144 21.1067 10.8699 21.1067 8.23173C21.1067 5.59447 23.2782 3.44906 25.9472 3.44906C28.6162 3.44906 30.7876 5.59447 30.7876 8.23173C30.7876 9.18368 30.5048 10.0686 30.0187 10.8143L31.507 12.4979ZM51.7622 3.66942H49.9726C49.8409 3.66942 49.7339 3.77519 49.7339 3.90476V12.5605C49.7339 12.6891 49.8409 12.7949 49.9726 12.7949H51.7622C51.893 12.7949 51.9999 12.6891 51.9999 12.5596V3.90476C51.9997 3.87374 51.9933 3.84307 51.9812 3.81449C51.9691 3.78592 51.9515 3.76001 51.9293 3.73824C51.9072 3.71647 51.8809 3.69926 51.8521 3.6876C51.8233 3.67595 51.7924 3.67007 51.7613 3.6703L51.7622 3.66942ZM48.7503 3.66942H46.7486C46.6979 3.66908 46.6485 3.68489 46.6074 3.71454C46.5664 3.74419 46.536 3.78613 46.5205 3.83425L44.9359 8.94922L43.1949 3.82808C43.1785 3.78154 43.148 3.74125 43.1076 3.71281C43.0673 3.68438 43.019 3.66921 42.9695 3.66942H41.5723C41.5227 3.66915 41.4743 3.68429 41.4338 3.71272C41.3932 3.74115 41.3626 3.78147 41.346 3.82808L39.605 8.94922L38.0204 3.83425C38.005 3.78627 37.9747 3.74443 37.9339 3.7148C37.893 3.68516 37.8438 3.66927 37.7933 3.66942H35.7906C35.753 3.66928 35.7159 3.67798 35.6823 3.69483C35.6486 3.71167 35.6194 3.73619 35.5971 3.76637C35.5752 3.7962 35.5609 3.83085 35.5554 3.86737C35.5498 3.9039 35.5532 3.94122 35.5653 3.97616L38.5056 12.6363C38.5221 12.6829 38.5528 12.7232 38.5933 12.7516C38.6339 12.78 38.6823 12.7952 38.7318 12.7949H40.3209C40.3703 12.795 40.4185 12.7798 40.4589 12.7514C40.4992 12.7229 40.5298 12.6827 40.5462 12.6363L42.2705 7.57682L43.9947 12.6363C44.0112 12.6829 44.0419 12.7232 44.0824 12.7516C44.123 12.78 44.1714 12.7952 44.221 12.7949H45.81C45.8594 12.795 45.9076 12.7798 45.948 12.7514C45.9883 12.7229 46.0189 12.6827 46.0353 12.6363L48.9765 3.97616C48.9885 3.94115 48.9917 3.90379 48.986 3.86726C48.9803 3.83073 48.9659 3.79612 48.9438 3.76637C48.9215 3.73619 48.8923 3.71167 48.8587 3.69483C48.8251 3.67798 48.7879 3.66928 48.7503 3.66942ZM34.807 3.90476V12.5605C34.807 12.6891 34.7009 12.7949 34.5684 12.7949H32.7796C32.7484 12.7952 32.7175 12.7892 32.6886 12.7775C32.6598 12.7658 32.6335 12.7485 32.6113 12.7267C32.5891 12.7048 32.5715 12.6788 32.5595 12.6501C32.5474 12.6214 32.5411 12.5907 32.541 12.5596V3.90476C32.541 3.77519 32.6479 3.6703 32.7796 3.6703H34.5693C34.7001 3.6703 34.807 3.77607 34.807 3.90564V3.90476Z" fill="#898989"/>
</svg>