<svg viewBox="0 0 68 80" fill="none" xmlns="http://www.w3.org/2000/svg">
    <path d="M20.2222 34.6663L22.4444 32.8885H23.7777L29.5555 39.1108L38.4444 29.7774L45.1111 24.4441L46.8888 25.7774V28.8885L32.6666 42.6663L29.9999 44.8885L28.2222 43.9996L20.6666 36.8885L20.2222 34.6663Z" fill="#E51A1E"/>
    <path d="M64.3618 64.2183C63.6557 62.8729 61.5747 63.9646 62.2805 65.3103L64.2563 69.0766L55.8916 69.7278C54.9236 69.8032 54.0246 70.2844 53.425 71.0479L48.2456 77.6449L41.5728 64.9246C42.8595 64.4094 44.2614 64.4217 45.6243 64.414C50.0521 64.3886 52.4327 63.0028 54.6635 59.1708C55.3914 57.9203 56.1133 56.6853 57.2946 55.8061L59.3585 59.7404C60.0445 61.048 62.1438 59.9906 61.4398 58.6484L59.2886 54.5478C63.0442 52.0441 64.5089 50.1796 64.5354 45.5129C64.5495 43.0756 64.9892 41.3448 66.209 39.2206C68.4492 35.3201 68.452 32.476 66.209 28.5705C64.9948 26.456 64.5493 24.7308 64.5354 22.2778C64.5099 17.8502 63.1216 15.472 59.2893 13.2434C57.1713 12.0121 55.9026 10.7494 54.6635 8.62025C52.4353 4.79341 50.0579 3.40263 45.6243 3.37709C43.1859 3.3633 41.4529 2.92347 39.3271 1.70427C31.1505 -2.9839 29.7107 3.49868 22.3753 3.37709C17.9477 3.40247 15.5669 4.78824 13.3361 8.62025C12.1035 10.7376 10.8399 12.0049 8.71033 13.2432C0.697669 17.8545 5.4916 22.3695 1.79043 28.5708C-0.44946 32.4715 -0.452437 35.3149 1.79027 39.2206C5.62338 45.9474 0.487861 49.0377 8.7108 54.5482L1.65457 67.9995C0.876922 69.4511 1.91468 71.2917 3.52514 71.4173L11.9256 72.0713C12.2398 72.0957 12.5315 72.2518 12.726 72.4995L17.9275 79.1244C18.9497 80.4263 21.0422 80.2181 21.814 78.7773L28.5177 65.9981C32.5968 68.3363 35.403 68.3336 39.4818 65.9981L46.1903 78.7864C46.9621 80.2273 49.038 80.4412 50.0721 79.1244L55.2735 72.4995C55.4679 72.2518 55.7597 72.0957 56.0737 72.0713L64.4741 71.4173C66.0721 71.2927 67.1231 69.4522 66.3497 68.0085L64.3618 64.2183ZM19.7542 77.6449L14.5748 71.0481C13.9753 70.2844 13.0763 69.8033 12.1082 69.7278L3.74357 69.0766L10.705 55.8061C11.8864 56.6853 12.6082 57.9201 13.3363 59.1707C15.5641 62.9977 17.9419 64.3883 22.3754 64.4138C23.7385 64.4215 25.1402 64.4093 26.427 64.9245L19.7542 77.6449ZM33.9998 65.6517C30.2306 65.3577 28.8673 62.0105 22.3887 62.0635C18.7778 62.0428 17.1848 61.11 15.3675 57.9881C13.9348 55.5275 12.3642 53.9532 9.89193 52.5159C6.77004 50.7008 5.83507 49.1098 5.81438 45.4996C5.79824 42.666 5.24575 40.5178 3.82865 38.0499C1.99741 34.8611 1.99741 32.9299 3.82865 29.7411C5.24043 27.2824 5.79809 25.139 5.81438 22.2913C5.83507 18.681 6.77004 17.0903 9.89193 15.2752C12.3535 13.8438 13.9287 12.2743 15.3676 9.80279C17.1848 6.68106 18.7781 5.74812 22.3889 5.72744C30.1255 6.00227 31.3593 -0.298234 38.1579 3.74312C40.6179 5.15411 42.763 5.71114 45.6112 5.72744C49.2219 5.74812 50.8151 6.68106 52.6324 9.80279C56.2471 16.6113 62.2827 14.5524 62.1855 22.2913C62.2017 25.1249 62.7542 27.2731 64.1714 29.741C66.0026 32.9303 66.0026 34.861 64.1713 38.0501C62.7595 40.5087 62.2018 42.6521 62.1855 45.4995C62.1651 49.1098 61.2299 50.7008 58.1081 52.5157C55.7382 53.8937 54.0127 55.6166 52.6324 57.9881C50.8153 61.1099 49.2219 62.0428 45.6112 62.0635C42.7768 62.0796 40.627 62.6316 38.158 64.048C36.7198 64.8728 35.3616 65.6517 33.9998 65.6517Z" fill="#333333"/>
    <path d="M57.0204 33.8958C57.1776 15.2685 35.3022 4.18028 20.3994 15.3445C19.1747 16.2439 20.5654 18.1378 21.7904 17.2391C35.1705 7.21459 54.8141 17.1762 54.6699 33.8959C53.6311 61.2611 14.3655 61.2564 13.3296 33.8955C13.3296 29.3044 14.8127 24.9539 17.6185 21.3143C18.5463 20.111 16.6849 18.6763 15.757 19.8794C4.0891 34.7145 15.1312 57.0615 34 56.9031C46.6934 56.9032 57.0204 46.582 57.0204 33.8958Z" fill="#333333"/>
    <path d="M27.0549 44.9883C28.4615 46.3942 30.8488 46.3974 32.2586 44.9883L47.2864 29.9695C48.6933 28.5634 48.6966 26.1762 47.2864 24.7669C45.8514 23.3327 43.5172 23.3331 42.0826 24.7669L29.6567 37.1852L25.3079 32.8391C23.8733 31.4057 21.5389 31.4056 20.1043 32.8393C18.6974 34.2454 18.6941 36.6326 20.1043 38.0419L27.0549 44.9883ZM21.7657 34.5019C22.3926 33.9925 23.0196 33.9925 23.6466 34.5018L28.826 39.678C29.2849 40.1368 30.0285 40.1368 30.4875 39.678L43.7441 26.4294C44.2541 25.9197 45.1151 25.9202 45.6252 26.4296C46.1441 27.0555 46.144 27.6814 45.625 28.3072L30.5972 43.3259C29.9703 43.8449 29.3433 43.8449 28.7164 43.3259L21.7658 36.3795C21.2469 35.7536 21.2469 35.1277 21.7657 34.5019Z" fill="#333333"/>
    <path d="M33.9998 8.41749C35.5122 8.41749 35.5147 6.06714 33.9998 6.06714C32.4876 6.06714 32.4851 8.41749 33.9998 8.41749Z" fill="#333333"/>
    <path d="M20.6654 11.9883C22.1777 11.9883 22.1803 9.63794 20.6654 9.63794C19.153 9.63794 19.1505 11.9883 20.6654 11.9883Z" fill="#333333"/>
    <path d="M10.9037 21.7441C12.416 21.7441 12.4185 19.3938 10.9037 19.3938C9.39128 19.3938 9.38877 21.7441 10.9037 21.7441Z" fill="#333333"/>
    <path d="M7.33066 32.7205C5.81828 32.7205 5.81577 35.0708 7.33066 35.0708C8.84303 35.0708 8.84554 32.7205 7.33066 32.7205Z" fill="#333333"/>
    <path d="M10.9037 46.0469C9.39128 46.0469 9.38877 48.3972 10.9037 48.3972C12.416 48.3972 12.4185 46.0469 10.9037 46.0469Z" fill="#333333"/>
    <path d="M20.6654 55.8027C19.153 55.8027 19.1505 58.1531 20.6654 58.1531C22.1776 58.1531 22.1801 55.8027 20.6654 55.8027Z" fill="#333333"/>
    <path d="M33.9998 59.3735C32.4875 59.3735 32.485 61.7239 33.9998 61.7239C35.5122 61.7239 35.5147 59.3735 33.9998 59.3735Z" fill="#333333"/>
    <path d="M47.3344 55.8027C45.8221 55.8027 45.8196 58.1531 47.3344 58.1531C48.8468 58.1531 48.8493 55.8027 47.3344 55.8027Z" fill="#333333"/>
    <path d="M57.096 46.0469C55.5837 46.0469 55.5812 48.3972 57.096 48.3972C58.6084 48.3972 58.6109 46.0469 57.096 46.0469Z" fill="#333333"/>
    <path d="M60.669 35.0708C62.1814 35.0708 62.1839 32.7205 60.669 32.7205C59.1567 32.7205 59.1542 35.0708 60.669 35.0708Z" fill="#333333"/>
    <path d="M57.096 21.7441C58.6084 21.7441 58.6109 19.3938 57.096 19.3938C55.5837 19.3938 55.5812 21.7441 57.096 21.7441Z" fill="#333333"/>
    <path d="M47.3344 11.9883C48.8467 11.9883 48.8493 9.63794 47.3344 9.63794C45.822 9.63794 45.8197 11.9883 47.3344 11.9883Z" fill="#333333"/>
</svg>