<svg width="51" height="50" viewBox="0 0 51 50" fill="none" xmlns="http://www.w3.org/2000/svg">
<path d="M25.9305 25.2859L15.9282 18.6177C15.6771 18.4503 15.3854 18.3542 15.084 18.3396C14.7826 18.3251 14.4829 18.3926 14.2169 18.5349C13.9509 18.6773 13.7285 18.8892 13.5734 19.1481C13.4183 19.4069 13.3364 19.703 13.3364 20.0047V30.007C13.3364 30.2815 13.4041 30.5517 13.5336 30.7937C13.6631 31.0356 13.8504 31.2419 14.0788 31.3941L24.0734 38.0574L24.1222 38.0892C24.4612 38.3009 24.865 38.3838 25.26 38.3228H25.262C25.3364 38.3109 25.41 38.2942 25.4822 38.2727H25.4834C25.6545 38.2217 25.8162 38.1435 25.9624 38.0411L35.9328 31.3941C36.1612 31.2419 36.3485 31.0356 36.478 30.7937C36.6075 30.5517 36.6752 30.2815 36.6752 30.007V20.0047C36.6752 19.7303 36.6075 19.4601 36.478 19.2181C36.3485 18.9761 36.1612 18.7699 35.9328 18.6177L25.9305 11.9495C25.6567 11.7668 25.335 11.6692 25.0058 11.6692C24.6766 11.6692 24.3549 11.7668 24.0811 11.9495L19.0812 15.2836C18.8528 15.4358 18.6656 15.6421 18.5361 15.884C18.4067 16.126 18.3389 16.3962 18.3389 16.6706C18.3389 16.945 18.4067 17.2152 18.5361 17.4572C18.6656 17.6991 18.8528 17.9054 19.0812 18.0576L29.0835 24.7258C29.2656 24.8492 29.4703 24.9354 29.6859 24.9793C29.9014 25.0232 30.1235 25.024 30.3394 24.9816C30.5553 24.9393 30.7606 24.8547 30.9436 24.7326C31.1266 24.6106 31.2836 24.4535 31.4057 24.2705C31.5277 24.0874 31.6123 23.8821 31.6546 23.6662C31.6968 23.4503 31.696 23.2282 31.652 23.0127C31.6081 22.7972 31.5219 22.5924 31.3985 22.4104C31.2751 22.2283 31.1168 22.0724 30.9329 21.9518L23.0111 16.6706L25.0058 15.3401L33.3411 20.8968V29.1149L26.6729 33.5605V26.6729C26.6729 26.3985 26.6052 26.1283 26.4757 25.8863C26.3462 25.6443 26.1589 25.4381 25.9305 25.2859ZM23.3388 33.5605L16.6705 29.1149V23.1194L23.3388 27.565V33.5605ZM50.0116 25.0059C50.0158 28.2866 49.3733 31.536 48.1208 34.5683C46.8682 37.6005 45.0302 40.3561 42.7119 42.6774C40.3935 44.9988 37.6403 46.8403 34.6097 48.0968C31.5791 49.3533 28.3305 50 25.0498 50C21.769 50 18.5204 49.3533 15.4898 48.0968C12.4592 46.8403 9.70598 44.9988 7.38764 42.6774C5.06929 40.3561 3.23129 37.6005 1.97874 34.5683C0.726185 31.536 0.0836562 28.2866 0.0878954 25.0059C0.0878954 24.5637 0.263531 24.1397 0.576164 23.8271C0.888797 23.5145 1.31282 23.3388 1.75495 23.3388C2.19708 23.3388 2.6211 23.5145 2.93373 23.8271C3.24637 24.1397 3.422 24.5637 3.422 25.0059C3.42751 30.3167 5.38495 35.4402 8.92196 39.4018C12.459 43.3634 17.3288 45.8867 22.605 46.4917C27.8813 47.0967 33.1958 45.7412 37.5378 42.683C41.8797 39.6248 44.946 35.0773 46.1535 29.9056C47.361 24.7338 46.6253 19.2987 44.0865 14.634C41.5476 9.96934 37.3828 6.40061 32.3841 4.60667C27.3854 2.81274 21.9018 2.91876 16.9762 4.90457C12.0506 6.89039 8.02678 10.6174 5.67015 15.3768H9.15579C9.59792 15.3768 10.0219 15.5524 10.3346 15.865C10.6472 16.1777 10.8228 16.6017 10.8228 17.0438C10.8228 17.4859 10.6472 17.91 10.3346 18.2226C10.0219 18.5352 9.59792 18.7109 9.15579 18.7109H1.66705C1.22492 18.7109 0.800902 18.5352 0.488269 18.2226C0.175636 17.91 0 17.4859 0 17.0438V9.08176C0 8.63963 0.175636 8.2156 0.488269 7.90297C0.800902 7.59034 1.22492 7.4147 1.66705 7.4147C2.10918 7.4147 2.53321 7.59034 2.84584 7.90297C3.15847 8.2156 3.33411 8.63963 3.33411 9.08176V12.6755C6.04877 7.8724 10.2787 4.10435 15.3624 1.96065C20.4461 -0.183051 26.097 -0.581512 31.4312 0.827578C36.7654 2.23667 41.4823 5.37386 44.8441 9.74853C48.2059 14.1232 50.0232 19.4887 50.0116 25.0059Z" fill="white"/>
</svg>
