<svg viewBox="0 0 41 42" fill="none" xmlns="http://www.w3.org/2000/svg">
    <path d="M36.7221 8.07275C37.6959 9.34872 38.5204 10.7349 39.1786 12.2036L20.505 26.1542L12.7008 21.1962V15.2316L20.505 20.1895L36.7221 8.07275Z" fill="#21A038"/>
    <path d="M4.73601 20.7752C4.73601 20.5075 4.74245 20.2417 4.75533 19.9773L0.0257581 19.7424C0.00966015 20.085 5.71546e-06 20.4309 5.71546e-06 20.78C-0.00200659 23.5076 0.527369 26.2086 1.55778 28.7283C2.58818 31.248 4.09932 33.5367 6.00453 35.4631L9.35933 32.0648C7.89277 30.5845 6.72934 28.8251 5.93592 26.8876C5.14249 24.9501 4.73471 22.8728 4.73601 20.7752Z" fill="url(#paint0_linear_1799:23915)"/>
    <path d="M20.5006 4.79844C20.7646 4.79844 21.0269 4.80824 21.2877 4.82128L21.5244 0.0264393C21.1853 0.0101248 20.844 0.00196853 20.5006 0.00196853C17.808 -0.00135924 15.1414 0.534366 12.6537 1.57838C10.166 2.6224 7.90633 4.15415 6.00439 6.08567L9.3592 9.48562C10.8199 7.99884 12.5562 6.81933 14.4682 6.01494C16.3803 5.21055 18.4303 4.79712 20.5006 4.79844Z" fill="url(#paint1_linear_1799:23915)"/>
    <path d="M20.5007 36.7521C20.2368 36.7521 19.9743 36.7521 19.712 36.7309L19.4753 41.5241C19.8155 41.5415 20.1574 41.5503 20.5007 41.5503C23.1922 41.5531 25.8576 41.017 28.3439 39.9727C30.8303 38.9284 33.0885 37.3964 34.989 35.4649L31.6406 32.0667C30.1796 33.5526 28.4435 34.7315 26.5318 35.5356C24.6202 36.3397 22.5705 36.7532 20.5007 36.7521Z" fill="url(#paint2_linear_1799:23915)"/>
    <path d="M29.387 7.5863L33.3728 4.60889C29.7297 1.61918 25.1822 -0.0082991 20.4944 3.18255e-05V4.79814C23.6687 4.79415 26.7694 5.76636 29.387 7.5863Z" fill="url(#paint3_linear_1799:23915)"/>
    <path d="M41 20.775C41.0026 19.5268 40.8948 18.2808 40.678 17.052L36.2656 20.3475C36.2656 20.4896 36.2656 20.6314 36.2656 20.775C36.2668 23.0073 35.805 25.2149 34.9105 27.2548C34.0158 29.2946 32.7081 31.1212 31.0724 32.6161L34.255 36.1809C36.3816 34.2352 38.081 31.8583 39.2429 29.2044C40.405 26.5504 41.0036 23.6785 41 20.775Z" fill="#21A038"/>
    <path d="M20.5008 36.7519C18.298 36.7526 16.1196 36.2845 14.1066 35.3779C12.0936 34.4713 10.2909 33.1463 8.81533 31.4888L5.29956 34.7125C7.21917 36.8681 9.56439 38.5906 12.1832 39.7686C14.8019 40.9464 17.6357 41.5533 20.5008 41.5499V36.7519Z" fill="url(#paint4_linear_1799:23915)"/>
    <path d="M9.92921 8.93363L6.74826 5.3689C4.62103 7.3142 2.92102 9.69093 1.75847 12.3449C0.595937 14.9989 -0.00316948 17.8709 1.26097e-05 20.7747H4.73602C4.73504 18.5425 5.19683 16.3349 6.09144 14.295C6.98606 12.2553 8.29355 10.4287 9.92921 8.93363Z" fill="url(#paint5_linear_1799:23915)"/>
    <defs>
    <linearGradient id="paint0_linear_1799:23915" x1="6.96235" y1="34.8644" x2="1.66363" y2="19.7503" gradientUnits="userSpaceOnUse">
    <stop offset="0.14" stop-color="#F1E813"/>
    <stop offset="0.3" stop-color="#E6E418"/>
    <stop offset="0.58" stop-color="#C9DA26"/>
    <stop offset="0.89" stop-color="#A2CC39"/>
    </linearGradient>
    <linearGradient id="paint1_linear_1799:23915" x1="7.35661" y1="6.93403" x2="20.7288" y2="1.90575" gradientUnits="userSpaceOnUse">
    <stop offset="0.06" stop-color="#0FA7DF"/>
    <stop offset="0.54" stop-color="#0098F8"/>
    <stop offset="0.92" stop-color="#0290EA"/>
    </linearGradient>
    <linearGradient id="paint2_linear_1799:23915" x1="19.1631" y1="38.6544" x2="34.2532" y2="35.2907" gradientUnits="userSpaceOnUse">
    <stop offset="0.12" stop-color="#A2CC39"/>
    <stop offset="0.28" stop-color="#86C239"/>
    <stop offset="0.87" stop-color="#219F38"/>
    </linearGradient>
    <linearGradient id="paint3_linear_1799:23915" x1="19.5093" y1="1.60701" x2="32.4236" y2="5.53942" gradientUnits="userSpaceOnUse">
    <stop offset="0.06" stop-color="#0290EA"/>
    <stop offset="0.79" stop-color="#0C89CA"/>
    </linearGradient>
    <linearGradient id="paint4_linear_1799:23915" x1="6.48758" y1="34.1284" x2="20.5576" y2="39.3171" gradientUnits="userSpaceOnUse">
    <stop offset="0.13" stop-color="#F1E813"/>
    <stop offset="0.3" stop-color="#EAE616"/>
    <stop offset="0.53" stop-color="#D8DF1F"/>
    <stop offset="0.8" stop-color="#BAD52D"/>
    <stop offset="0.98" stop-color="#A2CC39"/>
    </linearGradient>
    <linearGradient id="paint5_linear_1799:23915" x1="1.76434" y1="21.3555" x2="7.52623" y2="6.56578" gradientUnits="userSpaceOnUse">
    <stop offset="0.07" stop-color="#A2CC39"/>
    <stop offset="0.26" stop-color="#81C45E"/>
    <stop offset="0.92" stop-color="#0FA7DF"/>
    </linearGradient>
    </defs>
</svg>