<svg width="48" height="48" viewBox="0 0 48 48" fill="none" xmlns="http://www.w3.org/2000/svg">
<path d="M48 15.2V11.2C47.9928 10.9554 47.9328 10.7152 47.824 10.496L43.92 2.65601C43.5209 1.85658 42.9066 1.18441 42.1462 0.715171C41.3858 0.245934 40.5095 -0.00174672 39.616 9.27268e-06H8.384C7.49048 -0.00174672 6.61421 0.245934 5.85382 0.715171C5.09343 1.18441 4.4791 1.85658 4.08 2.65601L0.176 10.48C0.0649661 10.7041 0.00486437 10.95 0 11.2V15.2C0.00183734 16.3834 0.294671 17.5481 0.852704 18.5916C1.41074 19.6351 2.21684 20.5254 3.2 21.184V44.8H1.6C1.17565 44.8 0.768687 44.9686 0.468629 45.2686C0.168571 45.5687 0 45.9757 0 46.4C0 46.8243 0.168571 47.2313 0.468629 47.5314C0.768687 47.8314 1.17565 48 1.6 48H46.4C46.8243 48 47.2313 47.8314 47.5314 47.5314C47.8314 47.2313 48 46.8243 48 46.4C48 45.9757 47.8314 45.5687 47.5314 45.2686C47.2313 44.9686 46.8243 44.8 46.4 44.8H44.8V21.184C45.7832 20.5254 46.5893 19.6351 47.1473 18.5916C47.7053 17.5481 47.9982 16.3834 48 15.2ZM44.8 15.2C44.8 16.2609 44.3786 17.2783 43.6284 18.0284C42.8783 18.7786 41.8609 19.2 40.8 19.2C39.7391 19.2 38.7217 18.7786 37.9716 18.0284C37.2214 17.2783 36.8 16.2609 36.8 15.2V12.8H44.8V15.2ZM3.2 15.2V12.8H11.2V15.2C11.2 16.2609 10.7786 17.2783 10.0284 18.0284C9.27828 18.7786 8.26087 19.2 7.2 19.2C6.13913 19.2 5.12172 18.7786 4.37157 18.0284C3.62143 17.2783 3.2 16.2609 3.2 15.2ZM14.4 12.8H22.4V15.2C22.4 16.2609 21.9786 17.2783 21.2284 18.0284C20.4783 18.7786 19.4609 19.2 18.4 19.2C17.3391 19.2 16.3217 18.7786 15.5716 18.0284C14.8214 17.2783 14.4 16.2609 14.4 15.2V12.8ZM25.6 12.8H33.6V15.2C33.6 16.2609 33.1786 17.2783 32.4284 18.0284C31.6783 18.7786 30.6609 19.2 29.6 19.2C28.5391 19.2 27.5217 18.7786 26.7716 18.0284C26.0214 17.2783 25.6 16.2609 25.6 15.2V12.8ZM6.944 4.08001C7.07818 3.81371 7.2841 3.59021 7.53855 3.43472C7.79299 3.27923 8.08582 3.19793 8.384 3.20001H39.616C39.9142 3.19793 40.207 3.27923 40.4615 3.43472C40.7159 3.59021 40.9218 3.81371 41.056 4.08001L43.808 9.60001H4.192L6.944 4.08001ZM28.8 44.8H19.2V35.2C19.2 34.7757 19.3686 34.3687 19.6686 34.0686C19.9687 33.7686 20.3757 33.6 20.8 33.6H27.2C27.6243 33.6 28.0313 33.7686 28.3314 34.0686C28.6314 34.3687 28.8 34.7757 28.8 35.2V44.8ZM41.6 44.8H32V35.2C32 33.927 31.4943 32.7061 30.5941 31.8059C29.6939 30.9057 28.473 30.4 27.2 30.4H20.8C19.527 30.4 18.3061 30.9057 17.4059 31.8059C16.5057 32.7061 16 33.927 16 35.2V44.8H6.4V22.4C6.66485 22.4425 6.93198 22.4692 7.2 22.48C8.28007 22.4707 9.34422 22.2185 10.3136 21.7421C11.283 21.2658 12.1328 20.5774 12.8 19.728C13.4749 20.5632 14.3281 21.2368 15.2971 21.6996C16.266 22.1623 17.3262 22.4025 18.4 22.4025C19.4738 22.4025 20.534 22.1623 21.5029 21.6996C22.4719 21.2368 23.3251 20.5632 24 19.728C24.6749 20.5632 25.5281 21.2368 26.4971 21.6996C27.466 22.1623 28.5262 22.4025 29.6 22.4025C30.6738 22.4025 31.734 22.1623 32.7029 21.6996C33.6719 21.2368 34.5251 20.5632 35.2 19.728C35.8752 20.5627 36.7285 21.2359 37.6974 21.6982C38.6663 22.1605 39.7264 22.4003 40.8 22.4C41.0664 22.4158 41.3336 22.4158 41.6 22.4V44.8Z" fill="white"/>
</svg>
