<svg viewBox="0 0 82 80" fill="none" xmlns="http://www.w3.org/2000/svg">
    <g clip-path="url(#clip0_1818:22393)">
        <rect x="1.81818" y="32.7112" width="78.1818" height="7.26914" fill="#E51A1E"/>
        <path d="M76.531 53.3115C75.8687 53.3115 75.3325 53.8364 75.3325 54.4834V73.1663H50.6282V50.9879C50.6282 49.4797 49.3735 48.2529 47.8317 48.2529H33.9864C32.4446 48.2529 31.1899 49.4803 31.1899 50.9879V73.1663H6.48567V54.4834C6.48567 53.8364 5.94946 53.3115 5.28716 53.3115C4.62486 53.3115 4.08865 53.8364 4.08865 54.4834V73.7132C4.08865 74.7038 4.91325 75.51 5.92637 75.51H75.8918C76.9049 75.51 77.7295 74.7038 77.7295 73.7132V54.4834C77.7295 53.8364 77.1933 53.3115 76.531 53.3115ZM33.5869 73.1663V50.9879C33.5869 50.7725 33.7661 50.5967 33.9864 50.5967H47.8317C48.0521 50.5967 48.2312 50.7725 48.2312 50.9879V73.1663H33.5869Z" fill="#333333"/>
        <path d="M70.8375 68.5365C72.2445 68.5365 73.3893 67.4171 73.3893 66.0414V53.2533C73.3893 51.8776 72.2445 50.7588 70.8375 50.7588H56.0053C54.5983 50.7588 53.4535 51.8776 53.4535 53.2533V66.0414C53.4535 67.4171 54.5983 68.5365 56.0053 68.5365H70.8375ZM55.8505 66.0414V53.2533C55.8505 53.1703 55.9198 53.1025 56.0053 53.1025H70.8375C70.923 53.1025 70.9923 53.1703 70.9923 53.2533V66.0414C70.9923 66.125 70.923 66.1928 70.8375 66.1928H56.0053C55.9198 66.1928 55.8505 66.125 55.8505 66.0414Z" fill="#333333"/>
        <path d="M25.8128 68.5365C27.2198 68.5365 28.3647 67.4171 28.3647 66.0414V53.2533C28.3647 51.8776 27.2198 50.7588 25.8128 50.7588H10.9807C9.57366 50.7588 8.42883 51.8776 8.42883 53.2533V66.0414C8.42883 67.4171 9.57366 68.5365 10.9807 68.5365H25.8128ZM10.8259 66.0414V53.2533C10.8259 53.1703 10.8951 53.1025 10.9807 53.1025H25.8128C25.8983 53.1025 25.9676 53.1703 25.9676 53.2533V66.0414C25.9676 66.125 25.8983 66.1928 25.8128 66.1928H10.9807C10.8951 66.1928 10.8259 66.125 10.8259 66.0414Z" fill="#333333"/>
        <path d="M78.2963 21.8081C78.2963 20.5563 79.3381 19.5382 80.6197 19.5382C81.282 19.5382 81.8182 19.0133 81.8182 18.3663V15.4989C81.8182 14.8519 81.282 14.327 80.6197 14.327H60.8349C60.1726 14.327 59.6364 14.8519 59.6364 15.4989C59.6364 16.1465 60.1726 16.6708 60.8349 16.6708H79.4212V17.3452C77.7801 17.7664 76.4848 19.0322 76.0535 20.6362H57.1988V10.2334C57.1988 7.08948 54.5827 4.53149 51.3673 4.53149H30.4515C27.2355 4.53149 24.62 7.08948 24.62 10.2334V14.327H1.19851C0.536208 14.327 0 14.8519 0 15.4989V18.3663C0 19.0133 0.536208 19.5382 1.19851 19.5382C2.48004 19.5382 3.52187 20.5563 3.52187 21.8081C3.52187 22.2311 3.75096 22.6016 4.09428 22.8079V30.812H1.93759C0.92385 30.812 0.0992515 31.6183 0.0992515 32.6089V38.9901C0.0992515 39.9807 0.92385 40.787 1.93759 40.787H4.09428V49.8049C4.09428 50.4519 4.63049 50.9768 5.29279 50.9768C5.95509 50.9768 6.4913 50.4519 6.4913 49.8049V40.787H75.4261V49.8068C75.4261 50.4537 75.9623 50.9786 76.6246 50.9786C77.2863 50.9786 77.8232 50.4537 77.8232 49.8068V40.787H79.9798C80.9936 40.787 81.8182 39.9807 81.8182 38.9901V32.6089C81.8182 31.6183 80.9936 30.812 79.9798 30.812H77.8232V22.7413C78.1103 22.5271 78.2963 22.189 78.2963 21.8081ZM27.0164 10.2334C27.0164 8.38159 28.5576 6.87524 30.4509 6.87524H51.3667C53.2606 6.87524 54.8012 8.38159 54.8012 10.2334V23.0197C54.8012 24.8715 53.2606 26.3778 51.3667 26.3778H30.4515C28.5576 26.3778 27.017 24.8715 27.017 23.0197V10.2334H27.0164ZM79.4212 38.4432H2.49627V33.1558H79.4212V38.4432ZM6.4913 30.812V22.98H21.0251C21.6874 22.98 22.2236 22.4557 22.2236 21.8081C22.2236 21.1611 21.6874 20.6362 21.0251 20.6362H5.7647C5.33336 19.0322 4.0381 17.7664 2.39702 17.3452V16.6708H24.6194V23.0203C24.6194 26.1642 27.2355 28.7222 30.4509 28.7222H51.3667C54.5827 28.7222 57.1982 26.1642 57.1982 23.0203V22.9806H75.4255V30.812H6.4913Z" fill="#333333"/>
        <path d="M36.2749 60.7095H35.3161C34.6538 60.7095 34.1176 61.2344 34.1176 61.8813C34.1176 62.5283 34.6538 63.0532 35.3161 63.0532H36.2749C36.9372 63.0532 37.4734 62.5283 37.4734 61.8813C37.4734 61.2344 36.9372 60.7095 36.2749 60.7095Z" fill="#333333"/>
        <path d="M32.3241 11.552H33.7929L35.2997 18.5955C35.5919 19.9602 36.8391 20.9514 38.2654 20.9514H45.3822C46.635 20.9514 47.7742 20.1812 48.2168 19.0355L50.567 12.9521C50.7905 12.3729 50.7093 11.7235 50.3498 11.2151C49.9902 10.7061 49.3972 10.4021 48.7649 10.4021H38.6993C38.0376 10.4021 37.5008 10.9264 37.5008 11.574C37.5008 12.2209 38.0376 12.7459 38.6993 12.7459H48.0845L45.9746 18.2073C45.8822 18.4465 45.6444 18.6077 45.3828 18.6077H38.2654C37.9677 18.6077 37.7074 18.4002 37.6462 18.1157L36.1331 11.0448C35.9052 9.98035 34.9333 9.20825 33.821 9.20825H32.3247C31.6624 9.20825 31.1262 9.73254 31.1262 10.3801C31.1262 11.0271 31.6624 11.552 32.3241 11.552Z" fill="#333333"/>
        <path d="M38.4721 21.9351H38.1525C37.4902 21.9351 36.954 22.4594 36.954 23.1069C36.954 23.7539 37.4902 24.2788 38.1525 24.2788H38.4721C39.1344 24.2788 39.6706 23.7539 39.6706 23.1069C39.6706 22.4594 39.1344 21.9351 38.4721 21.9351Z" fill="#333333"/>
        <path d="M43.6656 21.9351H43.346C42.6837 21.9351 42.1475 22.4594 42.1475 23.1069C42.1475 23.7539 42.6837 24.2788 43.346 24.2788H43.6656C44.3279 24.2788 44.8641 23.7539 44.8641 23.1069C44.8641 22.4594 44.3279 21.9351 43.6656 21.9351Z" fill="#333333"/>
    </g>
    <defs>
        <clipPath id="clip0_1818:22393">
            <rect width="81.8182" height="80" fill="white"/>
        </clipPath>
    </defs>
</svg>