<svg viewBox="0 0 200 249" fill="none" xmlns="http://www.w3.org/2000/svg">
    <path d="M149 11.1H70.8999V139.3H199.6V64.7C199.6 35.1 176.9 11.1 149 11.1Z" fill="white"/>
    <path d="M121.5 139.3V64.7C121.5 35.1 98.9 11.1 71 11.1C43.1 11.1 20.5 35.1 20.5 64.7V139.3H121.5Z" fill="#E1E1E1"/>
    <path d="M121.5 139.3H101.9V248.4H121.5V139.3Z" fill="#E1E1E1"/>
    <path d="M136.3 138.3H121.5V248.4H136.3V138.3Z" fill="white"/>
    <path d="M20.9212 25.5018L0.144653 95.3765L111.139 128.379L131.915 58.5048L20.9212 25.5018Z" fill="#F2F3F4"/>
    <path d="M0.199951 95.3L111.2 128.3L74.6 59.8L0.199951 95.3Z" fill="#E7E6E7"/>
    <path d="M20.8999 25.5L132 58.5L65.8999 89L20.8999 25.5Z" fill="white"/>
    <path d="M158.4 81.9C165.027 81.9 170.4 76.5274 170.4 69.9C170.4 63.2726 165.027 57.9 158.4 57.9C151.772 57.9 146.4 63.2726 146.4 69.9C146.4 76.5274 151.772 81.9 158.4 81.9Z" fill="#E51A1E"/>
    <path d="M156.2 0.900024H146.4V69.9H156.2V0.900024Z" fill="#E51A1E"/>
    <path d="M184 0.900024H146.4V26.1H184V0.900024Z" fill="#E51A1E"/>
</svg>