<svg viewBox="0 0 80 80" fill="none" xmlns="http://www.w3.org/2000/svg">
    <g clip-path="url(#clip0_1793:23108)">
        <path d="M79.9705 35.5572C79.9613 32.9105 77.8438 30.6352 74.9974 30.6352L74.9511 30.6348C74.7522 30.6316 74.5738 30.4886 74.5172 30.2872C73.7339 27.4945 72.6132 24.8097 71.1808 22.2911C71.0602 22.0789 71.0867 21.8089 71.2603 21.6372C71.2613 21.6363 71.2624 21.6352 71.2633 21.6342C72.1788 20.7309 72.6841 19.5108 72.6863 18.1989C72.6883 16.8714 72.1539 15.5784 71.2202 14.6511L65.1305 8.60375C65.1305 8.6036 65.1305 8.6036 65.1305 8.6036C63.2103 6.69703 60.0591 6.64297 58.1467 8.60969C58.1189 8.63844 58.0907 8.6661 58.0635 8.69156C57.9353 8.81188 57.7224 8.82641 57.5458 8.72735C55.0035 7.29875 52.2874 6.185 49.473 5.41641C49.2702 5.36109 49.1253 5.18313 49.1208 4.98359L49.1202 4.92984C49.1022 2.20797 46.878 0 44.1578 0C44.1521 0 44.146 0 44.1402 0L35.5328 0.0301563C34.2108 0.0346875 32.9722 0.556406 32.0453 1.49922C31.1185 2.44219 30.6178 3.68969 30.6358 4.99922L30.6357 5.04859C30.6325 5.24781 30.4891 5.42672 30.2871 5.48344C27.4777 6.27156 24.7693 7.40469 22.2369 8.8511C22.0613 8.9511 21.8486 8.93813 21.7193 8.81844C21.6902 8.79172 21.6618 8.76391 21.6347 8.73688C20.7269 7.81641 19.5072 7.30828 18.2 7.3061C18.1972 7.3061 18.1946 7.3061 18.1918 7.3061C16.8724 7.3061 15.5824 7.84328 14.6518 8.78031L8.60442 14.8702C6.71207 16.7758 6.65098 19.9477 8.61035 21.8536C8.61817 21.8692 8.91957 22.1136 8.71629 22.4761C7.29348 25.0123 6.18364 27.7213 5.41754 30.5273C5.36473 30.7206 5.18614 30.8803 4.93082 30.8803C2.20286 30.8984 -0.0087071 33.1325 0.00082415 35.8605L0.0308241 44.4308C0.0403554 47.1544 2.24426 49.3645 4.98614 49.3645H5.0041C5.01973 49.37 5.37801 49.3339 5.48457 49.7138C6.27176 52.5195 7.40301 55.225 8.84723 57.7555C9.04973 58.1105 8.74551 58.3502 8.73754 58.3658C6.77129 60.3045 6.8977 63.4786 8.78113 65.3488L14.8708 71.396C16.788 73.2995 19.9389 73.3591 21.8549 71.3895C22.0196 71.2195 22.2077 71.1331 22.4549 71.2717C24.9975 72.7006 27.7141 73.8147 30.5291 74.5831C30.7314 74.6385 30.876 74.8161 30.8805 75.015C30.8936 75.0811 30.7489 76.9805 32.3335 78.5597C33.266 79.4888 34.5028 79.9999 35.8185 79.9999H35.8363L44.3938 79.9699C47.1175 79.9603 49.3477 77.7367 49.3652 75.0002L49.3655 74.9522C49.3686 74.7522 49.5127 74.5725 49.7163 74.5153C52.5241 73.7275 55.2313 72.595 57.7627 71.1495C57.9396 71.0486 58.1535 71.0619 58.283 71.1817C60.5486 73.2797 63.4793 73.1027 65.3496 71.2192L71.3968 65.1294C73.2927 63.2203 73.3466 60.0484 71.3911 58.1463L71.3882 58.1433C71.2153 57.975 71.1793 57.7125 71.2971 57.5022C72.715 54.97 73.8192 52.2731 74.5843 49.4709C74.6394 49.2689 74.8169 49.1245 75.0191 49.12C75.0716 49.1092 77.0271 49.2534 78.6185 47.6C79.5285 46.6545 80.0049 45.373 80.0003 44.0606L79.9705 35.5572ZM74.9625 46.777C73.7349 46.805 72.6494 47.6591 72.3232 48.8538C71.5214 51.7908 70.4727 54.3483 68.9066 56.9592C68.3938 57.8144 68.7246 58.75 69.7569 59.8266C70.7389 60.8506 70.7136 62.4914 69.7338 63.4784L63.6866 69.5681C62.8432 70.4177 61.7907 70.3528 61.8064 70.3497C60.8314 70.3481 60.3405 69.8931 59.8753 69.462C58.9893 68.6419 57.6733 68.502 56.6007 69.1145C54.2358 70.465 51.7066 71.5228 49.0833 72.2591C47.8885 72.5944 47.0408 73.6875 47.0224 74.9155C46.9936 76.5758 45.7397 77.6214 44.3858 77.6263L35.828 77.6563C34.4818 77.6489 33.2605 76.6678 33.2236 74.9624C33.1957 73.7342 32.3414 72.6486 31.1463 72.3224C28.5164 71.6044 25.9786 70.5636 23.603 69.2286C22.5697 68.648 21.1988 68.6997 20.1739 69.7564C19.1713 70.787 17.5149 70.7186 16.5222 69.733L10.4325 63.6858C9.50145 62.7613 9.29254 61.1641 10.4622 59.955C11.3286 59.0605 11.5016 57.6783 10.8827 56.5938C9.53348 54.2299 8.47645 51.702 7.74114 49.0809C7.42239 47.9449 6.3816 47.0208 4.99082 47.0208C3.55739 47.0311 2.37942 45.8672 2.37442 44.4225L2.34442 35.8522C2.33942 34.4125 3.50645 33.2336 4.94004 33.2241C4.94207 33.2241 4.95848 33.2239 4.96051 33.2239C6.22817 33.2172 7.34582 32.3622 7.67832 31.1447C8.3941 28.5231 9.43098 25.9922 10.7604 23.6225C11.3586 22.5558 11.2371 21.1377 10.2443 20.1731C9.22723 19.1839 9.28738 17.5083 10.2674 16.5214L16.3147 10.4316C16.8083 9.93453 17.4922 9.64969 18.1916 9.64969H18.196C18.8724 9.65094 19.501 9.9111 19.9669 10.3836C20.0197 10.4372 20.0739 10.4894 20.1283 10.5397C21.0138 11.3586 22.328 11.4977 23.3989 10.8863C25.7649 9.535 28.2954 8.47641 30.9199 7.74C32.1129 7.40531 32.9597 6.31391 32.9791 5.08188L32.9794 4.97938C32.9699 4.28766 33.2319 3.635 33.7169 3.14156C34.2118 2.63828 34.9022 2.37578 35.608 2.37328L44.1485 2.34375H44.1908C45.6244 2.34375 46.7702 3.51656 46.7763 4.95016C46.7764 4.97906 46.7769 5.00781 46.7775 5.03672C46.8052 6.26516 47.6597 7.3511 48.8555 7.67766C51.485 8.39563 54.0225 9.43625 56.3977 10.7709C57.4561 11.3656 58.8224 11.2797 59.8278 10.243C60.8252 9.2175 62.48 9.27469 63.4791 10.2669V10.2667L69.5688 16.3142C70.0618 16.8036 70.3436 17.4894 70.3427 18.1952C70.3416 18.8766 70.0839 19.5056 69.6174 19.9658C69.4032 20.1772 69.21 20.4063 69.0388 20.6516C68.5266 21.3858 68.5017 22.3569 68.9603 23.1258C70.4549 25.6317 71.4668 28.09 72.2607 30.9202C72.5952 32.1125 73.6863 32.9589 74.9103 32.9783C76.6346 33.0094 77.6224 34.2395 77.6269 35.5655L77.6567 44.1594C77.6614 45.4866 76.6771 46.7345 74.9625 46.777Z" fill="#333333"/>
        <path d="M40.0002 15.8711C26.6955 15.8711 15.8713 26.6952 15.8713 40C15.8713 53.3048 26.6955 64.1289 40.0002 64.1289C53.3049 64.1289 64.1291 53.3048 64.1291 40C64.1291 26.6952 53.3049 15.8711 40.0002 15.8711ZM40.0002 61.7851C27.9878 61.7851 18.215 52.0123 18.215 40C18.215 27.9877 27.9878 18.2148 40.0002 18.2148C52.0125 18.2148 61.7853 27.9877 61.7853 40C61.7853 52.0123 52.0125 61.7851 40.0002 61.7851Z" fill="#333333"/>
        <path d="M57.056 60.7704C52.2678 64.707 46.2106 66.8749 40.0002 66.8749C25.1813 66.8749 13.1252 54.819 13.1252 40.0001C13.1252 33.7901 15.2928 27.7332 19.2289 22.9454C19.6399 22.4456 19.5678 21.707 19.0678 21.2959C18.5678 20.8849 17.8296 20.9571 17.4185 21.457C13.1385 26.6634 10.7814 33.2487 10.7814 40.0001C10.7814 56.1112 23.8889 69.2187 40.0002 69.2187C46.7522 69.2187 53.3381 66.8612 58.5446 62.5807C59.0446 62.1698 59.1166 61.4313 58.7055 60.9313C58.2946 60.4315 57.5558 60.3592 57.056 60.7704Z" fill="#333333"/>
        <path d="M40.0003 10.7812C33.247 10.7812 26.6603 13.1395 21.4531 17.4216C20.9532 17.8327 20.8812 18.5711 21.2923 19.0711C21.7032 19.5709 22.4417 19.6428 22.9418 19.2319C27.7306 15.2937 33.7887 13.125 40.0003 13.125C54.8192 13.125 66.8753 25.1811 66.8753 40C66.8753 46.2105 64.7071 52.2678 60.7704 57.0561C60.3595 57.5559 60.4315 58.2945 60.9313 58.7055C61.1495 58.8848 61.4131 58.9722 61.6749 58.9722C62.0134 58.9722 62.3492 58.8262 62.5809 58.5445C66.8615 53.3378 69.2188 46.752 69.2188 40C69.2188 23.8887 56.1115 10.7812 40.0003 10.7812Z" fill="#333333"/>
        <circle cx="40" cy="39.9998" r="5.33333" fill="#E51A1E"/>
    </g>
    <defs>
        <clipPath id="clip0_1793:23108">
            <rect width="80" height="80" fill="white"/>
        </clipPath>
    </defs>
</svg>