<svg viewBox="0 0 44 44" fill="none" xmlns="http://www.w3.org/2000/svg">
    <path d="M41.5556 30.5556C38.6222 30.5556 35.6889 30.0667 32.7556 29.0889C32.0222 28.8444 31.0443 29.0889 30.3111 29.5778L24.9333 34.9556C18.089 31.5333 12.4667 25.6667 8.8 18.8222L14.1778 13.4444C14.9111 12.7111 15.1556 11.7333 14.6667 11C13.9333 8.31111 13.4444 5.37778 13.4444 2.44444C13.4444 0.977778 12.4667 0 11 0H2.44444C0.977778 0 0 0.977778 0 2.44444C0 25.4222 18.5778 44 41.5556 44C43.0222 44 44 43.0222 44 41.5556V33C44 31.5333 43.0222 30.5556 41.5556 30.5556ZM39.1111 22H44C44 9.77778 34.2222 0 22 0V4.88889C31.5333 4.88889 39.1111 12.4667 39.1111 22ZM29.3333 22H34.2222C34.2222 15.1556 28.8444 9.77778 22 9.77778V14.6667C26.1556 14.6667 29.3333 17.8444 29.3333 22Z" fill="#333333"/>
</svg>