<svg viewBox="0 0 46 46" fill="none" xmlns="http://www.w3.org/2000/svg">
    <path d="M36.1451 28.572C35.2339 27.6232 34.1347 27.1159 32.9698 27.1159C31.8144 27.1159 30.7058 27.6138 29.757 28.5626L26.7884 31.5218C26.5442 31.3903 26.2999 31.2682 26.065 31.146C25.7269 30.9769 25.4074 30.8172 25.135 30.6481C22.3543 28.882 19.8272 26.5804 17.4035 23.6024C16.2292 22.1181 15.4401 20.8687 14.8671 19.6004C15.6374 18.8959 16.3513 18.1631 17.0465 17.4585C17.3096 17.1955 17.5726 16.9231 17.8356 16.66C19.8084 14.6872 19.8084 12.132 17.8356 10.1592L15.271 7.59455C14.9798 7.30332 14.6792 7.00271 14.3973 6.70209C13.8337 6.11964 13.2418 5.51841 12.6312 4.95475C11.72 4.0529 10.6302 3.57379 9.48412 3.57379C8.33802 3.57379 7.22949 4.0529 6.29006 4.95475C6.28067 4.96415 6.28067 4.96415 6.27128 4.97354L3.07722 8.19578C1.87475 9.39825 1.18896 10.8638 1.03866 12.5641C0.813193 15.3073 1.6211 17.8625 2.24113 19.5347C3.763 23.64 6.03642 27.4447 9.42776 31.5218C13.5425 36.435 18.4932 40.3149 24.1486 43.0486C26.3093 44.0726 29.1933 45.2844 32.4156 45.4911C32.6129 45.5005 32.8195 45.5099 33.0074 45.5099C35.1775 45.5099 37 44.7302 38.4279 43.1801C38.4373 43.1613 38.4561 43.1519 38.4655 43.1331C38.954 42.5413 39.5177 42.0058 40.1095 41.4328C40.5135 41.0476 40.9268 40.6437 41.3308 40.2209C42.2608 39.2533 42.7493 38.126 42.7493 36.9705C42.7493 35.8056 42.2514 34.6877 41.3026 33.7482L36.1451 28.572ZM39.5083 38.4642C39.4989 38.4642 39.4989 38.4736 39.5083 38.4642C39.1419 38.8587 38.7661 39.2157 38.3622 39.6103C37.7515 40.1927 37.1315 40.8034 36.5491 41.4891C35.6003 42.5037 34.4823 42.9828 33.0168 42.9828C32.8759 42.9828 32.7256 42.9828 32.5847 42.9734C29.7946 42.7949 27.2018 41.7052 25.2571 40.7752C19.94 38.2011 15.271 34.5468 11.3912 29.9154C8.18771 26.0543 6.04581 22.4845 4.62728 18.6516C3.75361 16.3124 3.4342 14.49 3.57511 12.7708C3.66906 11.6717 4.0918 10.7604 4.87153 9.9807L8.07498 6.77724C8.5353 6.34511 9.0238 6.11025 9.50291 6.11025C10.0948 6.11025 10.5739 6.46723 10.8745 6.76785C10.8839 6.77724 10.8933 6.78664 10.9027 6.79603C11.4757 7.33151 12.0206 7.88577 12.5936 8.47761C12.8849 8.77823 13.1855 9.07885 13.4861 9.38886L16.0507 11.9535C17.0465 12.9493 17.0465 13.8699 16.0507 14.8657C15.7783 15.1382 15.5153 15.4106 15.2428 15.6736C14.4537 16.4815 13.7022 17.2331 12.8849 17.9658C12.8661 17.9846 12.8473 17.994 12.8379 18.0128C12.03 18.8207 12.1803 19.6098 12.3494 20.1453C12.3588 20.1735 12.3682 20.2017 12.3776 20.2299C13.0446 21.8457 13.984 23.3676 15.4119 25.1807L15.4213 25.1901C18.0141 28.3841 20.7479 30.8736 23.7634 32.7806C24.1486 33.0249 24.5432 33.2222 24.9189 33.4101C25.2571 33.5792 25.5765 33.7389 25.849 33.9079C25.8866 33.9267 25.9241 33.9549 25.9617 33.9737C26.2811 34.1334 26.5817 34.2086 26.8917 34.2086C27.6715 34.2086 28.16 33.7201 28.3197 33.5604L31.5325 30.3475C31.8519 30.0281 32.3592 29.6429 32.9511 29.6429C33.5335 29.6429 34.0126 30.0093 34.3038 30.3287C34.3132 30.3381 34.3132 30.3381 34.3226 30.3475L39.4989 35.5238C40.4665 36.482 40.4665 37.4684 39.5083 38.4642Z" fill="#333333" stroke="#3E3E41" stroke-width="0.25"/>
    <path d="M25.0215 11.5888C27.4828 12.0021 29.7186 13.167 31.5035 14.952C33.2884 16.7369 34.4439 18.9727 34.8667 21.434C34.97 22.054 35.5055 22.4862 36.1161 22.4862C36.1912 22.4862 36.257 22.4768 36.3322 22.4674C37.0273 22.3547 37.4877 21.6971 37.3749 21.0019C36.8676 18.0239 35.4585 15.3089 33.3072 13.1576C31.1559 11.0064 28.441 9.59721 25.463 9.08992C24.7678 8.97718 24.1196 9.4375 23.9975 10.1233C23.8754 10.8091 24.3263 11.4761 25.0215 11.5888Z" fill="#333333" stroke="#3E3E41" stroke-width="0.25"/>
    <path d="M45.4292 20.6346C44.5931 15.7308 42.2821 11.2685 38.7311 7.71746C35.18 4.16642 30.7177 1.85543 25.8139 1.01933C25.1281 0.897209 24.4799 1.36692 24.3578 2.05271C24.2451 2.74788 24.7054 3.39609 25.4006 3.51822C29.7783 4.26037 33.7709 6.3365 36.9461 9.50238C40.1214 12.6776 42.1882 16.6702 42.9303 21.048C43.0336 21.668 43.5691 22.1001 44.1797 22.1001C44.2549 22.1001 44.3207 22.0907 44.3958 22.0813C45.0816 21.978 45.5513 21.3204 45.4292 20.6346Z" fill="#333333" stroke="#3E3E41" stroke-width="0.25"/>
</svg>