<svg viewBox="0 0 40 28" fill="none" xmlns="http://www.w3.org/2000/svg">
    <path d="M37.6563 4.45459H37.3646V20.3414C37.3646 22.9261 35.2617 25.0289 32.6771 25.0289H4.97925V25.3206C4.97925 26.6151 6.02855 27.6644 7.323 27.6644H37.6563C38.9507 27.6644 40 26.6151 40 25.3206V6.79834C40 5.50389 38.9507 4.45459 37.6563 4.45459Z" fill="#333333"/>
    <path d="M35.0208 20.3415V2.34375C35.0208 1.04937 33.9715 0 32.677 0H2.34375C1.0493 0 0 1.04937 0 2.34375V20.3415C0 21.6359 1.0493 22.6852 2.34375 22.6852H32.677C33.9714 22.6852 35.0208 21.6359 35.0208 20.3415ZM3.73445 4.05047H9.80391V6.39422H3.73445V4.05047ZM12.4 11.3734H3.73445V9.02969H12.4V11.3734ZM31.2134 18.8779H28.8696V16.5341H31.2134V18.8779Z" fill="#333333"/>
</svg>