<svg viewBox="0 0 58 58" fill="none" xmlns="http://www.w3.org/2000/svg">
    <g clip-path="url(#clip0_1854:24364)">
        <rect x="36" y="14" width="20" height="4" fill="#E51A1E"/>
        <circle cx="12" cy="40" r="3" fill="#E51A1E"/>
        <circle cx="46" cy="40" r="3" fill="#E51A1E"/>
        <path d="M8.92531 20.6033C9.32135 20.6033 9.53464 20.1918 9.53464 19.7197C9.53464 19.3086 9.35188 18.8669 8.92531 18.8669H3.61038C3.16876 18.8669 2.74219 19.0802 2.74219 19.4913V29.3756C2.74219 29.7866 3.22939 29.9999 3.73207 29.9999C4.21927 29.9999 4.72195 29.7866 4.72195 29.3756V25.2023H7.05218C7.47876 25.2023 7.66151 24.7912 7.66151 24.4412C7.66151 24.0297 7.44823 23.6491 7.05218 23.6491H4.72195V20.6029H8.92531V20.6033Z" fill="#333333"/>
        <path d="M17.7431 22.0499C17.7431 19.6285 16.1289 18.8669 14.1336 18.8669H11.1179C10.7374 18.8669 10.4785 19.1563 10.4785 19.4763V29.3756C10.4785 29.7866 10.9812 29.9999 11.4684 29.9999C11.9711 29.9999 12.4583 29.7871 12.4583 29.3756V25.4005H13.7376L15.9005 29.6039C16.0527 29.9088 16.3116 30.076 16.5855 30.076C17.1643 30.076 17.8192 29.5428 17.8192 29.0406C17.8192 28.9795 17.8042 28.8729 17.7431 28.7968L15.7479 25.0961C16.89 24.7456 17.7431 23.8013 17.7431 22.0499ZM14.1336 23.8469H12.4583V20.6029H14.1336C15.1235 20.6029 15.7634 21.0295 15.7634 22.2326C15.7634 23.4358 15.1235 23.8469 14.1336 23.8469Z" fill="#333333"/>
        <path d="M25.4494 20.6033C25.845 20.6033 26.0738 20.1918 26.0738 19.7197C26.0738 19.3086 25.8755 18.8669 25.4494 18.8669H20.0274C19.5858 18.8669 19.1592 19.0802 19.1592 19.4913V29.3756C19.1592 29.7866 19.5858 29.9999 20.0274 29.9999H25.4494C25.8755 29.9999 26.0738 29.5583 26.0738 29.1472C26.0738 28.6751 25.845 28.264 25.4494 28.264H21.1389V25.2023H23.4541C23.8803 25.2023 24.0785 24.7912 24.0785 24.4412C24.0785 24.0297 23.8502 23.6491 23.4541 23.6491H21.1389V20.6029H25.4494V20.6033Z" fill="#333333"/>
        <path d="M33.5222 20.6033C33.9182 20.6033 34.1466 20.1918 34.1466 19.7197C34.1466 19.3086 33.9488 18.8669 33.5222 18.8669H28.1006C27.6586 18.8669 27.2324 19.0802 27.2324 19.4913V29.3756C27.2324 29.7866 27.6586 29.9999 28.1006 29.9999H33.5222C33.9488 29.9999 34.1466 29.5583 34.1466 29.1472C34.1466 28.6751 33.9182 28.264 33.5222 28.264H29.2122V25.2023H31.5269C31.9535 25.2023 32.1518 24.7912 32.1518 24.4412C32.1518 24.0297 31.923 23.6491 31.5269 23.6491H29.2122V20.6029H33.5222V20.6033Z" fill="#333333"/>
        <path d="M46.1407 44.0473C48.5834 44.0473 50.3441 41.7463 49.7879 39.4373C49.398 37.7845 47.9108 36.5513 46.1407 36.5513C44.3707 36.5513 42.8835 37.7845 42.4941 39.4373C41.9352 41.7609 43.7109 44.0473 46.1407 44.0473ZM44.3101 39.4373C45.0407 37.889 47.2417 37.8912 47.9718 39.4373C48.6073 40.7785 47.6178 42.3233 46.1407 42.3233C44.6557 42.3233 43.6791 40.7692 44.3101 39.4373Z" fill="#333333"/>
        <path d="M39.2399 30.124C38.7638 30.124 38.3779 30.5099 38.3779 30.986C38.3779 31.4622 38.7638 31.848 39.2399 31.848H41.7914C42.2675 31.848 42.6534 31.4622 42.6534 30.986C42.6534 30.5099 42.2675 30.124 41.7914 30.124H39.2399Z" fill="#333333"/>
        <path d="M57.138 36.1234C57.615 36.1234 58 35.7376 58 35.2614V30.239C58 28.4208 56.5207 26.9415 54.7025 26.9415H51.2819V19.7543H53.8024C55.6083 19.7543 57.0783 18.2856 57.0783 16.4798V15.9488C57.0783 14.1433 55.6083 12.6733 53.8024 12.6733H36.7819C36.4805 11.6985 35.569 10.9883 34.4968 10.9883H15.5656C15.0899 10.9883 14.7036 11.3746 14.7036 11.8503C14.7036 12.326 15.0899 12.7123 15.5656 12.7123H34.4968C34.8645 12.7123 35.1645 13.011 35.1645 13.3791V39.4374H18.6414C18.2091 36.0261 15.3208 33.51 11.9521 33.4675C11.4777 33.4582 11.0856 33.8432 11.0786 34.3189C11.0728 34.795 11.4547 35.1858 11.9304 35.1915C15.7691 35.2398 18.1551 39.3489 16.3705 42.7026C15.0403 45.1952 11.9476 46.1298 9.46164 44.8058C5.98222 42.9517 5.85832 38.0523 9.13065 35.9845C9.53288 35.7305 9.65236 35.1982 9.39836 34.7959C9.14304 34.3937 8.61115 34.2729 8.20891 34.5273C6.50659 35.6039 5.34679 37.4027 5.08704 39.4374H2.39085C2.02269 39.4374 1.724 39.1382 1.724 38.7705V13.3791C1.724 13.011 2.02269 12.7123 2.39085 12.7123H12.1176C12.5937 12.7123 12.9796 12.326 12.9796 11.8503C12.9796 11.3746 12.5937 10.9883 12.1176 10.9883H2.39085C1.07219 10.9883 0 12.0605 0 13.3791V38.7705C0 40.0887 1.07219 41.1614 2.39085 41.1614H5.08704C5.36272 43.3451 6.67563 45.2749 8.65009 46.3263C12.8534 48.5676 18.0334 45.9174 18.6414 41.1614H39.3643C39.7896 44.5217 42.6663 47.1299 46.1409 47.1299C49.6154 47.1299 52.4921 44.5217 52.9174 41.1614H54.7025C56.0875 41.1614 57.3336 40.2865 57.8044 38.9856C57.9668 38.5382 57.7345 38.0444 57.2876 37.882C56.8393 37.72 56.345 37.951 56.1831 38.3992C55.9587 39.0201 55.3636 39.4374 54.7025 39.4374H52.9174C52.4921 36.0765 49.6154 33.4684 46.1409 33.4684C42.6663 33.4684 39.7896 36.0765 39.3643 39.4374H36.8885V28.6655H54.7025C55.5702 28.6655 56.276 29.3721 56.276 30.239V35.2614C56.276 35.7376 56.6623 36.1234 57.138 36.1234ZM41.1069 39.4374C41.518 37.0306 43.6181 35.1924 46.1409 35.1924C48.6636 35.1924 50.7637 37.0306 51.1752 39.4374C51.704 42.5862 49.2765 45.4059 46.1409 45.4059C43.011 45.4059 40.5768 42.592 41.1069 39.4374ZM36.8885 14.3973H53.8024C54.6578 14.3973 55.3543 15.0938 55.3543 15.9488V16.4798C55.3543 17.3351 54.6578 18.0303 53.8024 18.0303H36.8885V14.3973ZM49.5579 26.9415H36.8885V19.7543H49.5579V26.9415Z" fill="#333333"/>
        <path d="M8.21787 41.1613C8.60772 42.814 10.0936 44.0473 11.8637 44.0473C13.9372 44.0473 15.6117 42.3578 15.6117 40.2993C15.6117 38.243 13.9395 36.5513 11.8637 36.5513C9.43653 36.5513 7.6581 38.8359 8.21787 41.1613ZM10.0339 39.4373C10.7649 37.8898 12.9651 37.8912 13.6947 39.4373C14.3302 40.7785 13.3407 42.3233 11.8637 42.3233C10.3879 42.3233 9.39847 40.7772 10.0339 39.4373Z" fill="#333333"/>
    </g>
    <defs>
        <clipPath id="clip0_1854:24364">
            <rect width="58" height="58" fill="white"/>
        </clipPath>
    </defs>
</svg>