<svg viewBox="0 0 72 72" fill="none" xmlns="http://www.w3.org/2000/svg">
    <g clip-path="url(#clip0_1856:24120)">
        <path d="M45.2141 21.0001V16.0715L59.1427 17.7858L59.5712 21.0001H45.2141Z" fill="#E51A1E"/>
        <rect x="3.42871" y="34.7144" width="41.5714" height="4.71429" fill="#E51A1E"/>
        <path d="M18.5145 48.5039C16.2759 48.5039 14.4548 50.3246 14.4548 52.5625C14.4548 54.8025 16.2759 56.625 18.5145 56.625C20.7553 56.625 22.5782 54.8025 22.5782 52.5625C22.5782 50.3244 20.7553 48.5039 18.5145 48.5039ZM18.5145 54.4995C17.448 54.4995 16.5801 53.6305 16.5801 52.5623C16.5801 51.4965 17.4479 50.6293 18.5145 50.6293C19.5833 50.6293 20.4528 51.4965 20.4528 52.5623C20.4528 53.6305 19.5833 54.4995 18.5145 54.4995Z" fill="#333333"/>
        <path d="M55.9924 48.6674C53.7516 48.6674 51.9287 50.4897 51.9287 52.7299C51.9287 54.9678 53.7516 56.7885 55.9924 56.7885C58.2308 56.7885 60.0519 54.9678 60.0519 52.7299C60.0519 50.4899 58.2308 48.6674 55.9924 48.6674ZM55.9924 54.6629C54.9236 54.6629 54.0541 53.7957 54.0541 52.7299C54.0541 51.6618 54.9236 50.7929 55.9924 50.7929C57.0589 50.7929 57.9267 51.6618 57.9267 52.7299C57.9265 53.7958 57.0589 54.6629 55.9924 54.6629Z" fill="#333333"/>
        <path d="M68.5302 46.2093H68.453V33.9845C68.4548 33.9598 68.457 33.9352 68.457 33.9101C68.4571 33.8817 68.4551 33.8537 68.453 33.8257V25.9351C68.453 23.8831 67.4882 22.236 65.6629 21.1722C64.2559 20.3522 62.6127 20.0601 61.544 20.0601H60.8531V19.4297C60.8531 17.6984 59.488 16.2862 57.609 16.0714L45.8498 14.711C45.3191 12.9373 43.8057 10.8257 40.4335 10.8257C39.8465 10.8257 39.3708 11.3014 39.3708 11.8884C39.3708 12.4754 39.8465 12.9511 40.4335 12.9511C43.623 12.9511 43.9304 15.7049 43.958 16.099V17.594H25.4528C24.8659 17.594 24.3901 18.0698 24.3901 18.6567C24.3901 19.2435 24.8659 19.7194 25.4528 19.7194H43.9581V33.1664H24.2412H4.52855V19.9912C4.52855 19.8438 4.65328 19.7194 4.80094 19.7194H20.5031C21.0901 19.7194 21.5658 19.2435 21.5658 18.6567C21.5658 18.0698 21.0901 17.594 20.5031 17.594H4.80094C3.47878 17.594 2.40314 18.6695 2.40314 19.9913V46.3765C1.01039 46.8262 0 48.1343 0 49.6743C0 51.5871 1.55475 53.1433 3.46584 53.1433H9.92138C10.2215 57.6219 13.9597 61.1745 18.5144 61.1745C23.0691 61.1745 26.8075 57.6219 27.1074 53.1433H34.595C35.182 53.1433 35.6577 52.6674 35.6577 52.0806C35.6577 51.4936 35.182 51.0179 34.595 51.0179H26.9876C26.8131 50.0591 26.48 49.1556 26.0152 48.3349H48.4912C48.0265 49.1554 47.6933 50.0591 47.5187 51.0179H39.3892C38.8022 51.0179 38.3265 51.4937 38.3265 52.0806C38.3265 52.6675 38.8022 53.1433 39.3892 53.1433H47.3989C47.699 57.6219 51.4373 61.1745 55.992 61.1745C60.5467 61.1745 64.285 57.6219 64.585 53.1433H68.5298C70.443 53.1433 71.9996 51.5871 71.9996 49.6743C72 47.7638 70.4434 46.2093 68.5302 46.2093ZM66.3278 32.8404L56.2961 32.8079C56.1476 32.8073 56.0073 32.7483 55.9008 32.642C55.8404 32.5815 55.7391 32.4513 55.74 32.2551L55.748 27.656C55.748 27.3553 56.0024 27.1013 56.3033 27.1013H66.3278V32.8404ZM66.3278 41.4248H63.1939C62.9706 41.4248 62.782 41.2365 62.782 41.0137V39.9061C62.782 39.6832 62.9706 39.4949 63.1939 39.4949H66.3278V41.4248ZM66.203 24.9759H56.3032C54.825 24.9759 53.6224 26.1783 53.6224 27.6541L53.6144 32.2485C53.6112 32.9633 53.8895 33.6369 54.3981 34.1452C54.9034 34.6502 55.5739 34.9302 56.2877 34.9334L66.3276 34.9659V37.3694H63.1938C61.7947 37.3694 60.6565 38.5073 60.6565 39.9061V41.0137C60.6565 42.4123 61.7947 43.5504 63.1938 43.5504H66.3276V46.2093H61.8015C60.2685 44.8074 58.2287 43.9506 55.9922 43.9506C53.7557 43.9506 51.716 44.8074 50.183 46.2093H46.0832V39.46V34.2293V22.1857H61.5438C61.5871 22.1855 65.4566 22.2696 66.203 24.9759ZM18.5144 43.9506C16.2779 43.9506 14.2381 44.8074 12.7052 46.2093H4.52855V40.5227H24.2414H43.9581V46.2093H24.3236C22.7907 44.8074 20.7509 43.9506 18.5144 43.9506ZM58.7277 19.4297V20.0601H46.0834V16.8778L57.3663 18.183C58.0219 18.2579 58.7277 18.6799 58.7277 19.4297ZM43.9581 38.3972H25.3039V35.292H43.958V38.3972H43.9581ZM23.1787 35.292V38.3972H4.52855V35.292H23.1787ZM2.12541 49.6743C2.12541 48.9358 2.72672 48.3349 3.46584 48.3349H11.0135C10.5488 49.1554 10.2156 50.0591 10.041 51.0179H3.46584C2.72672 51.0177 2.12541 50.4151 2.12541 49.6743ZM18.5144 59.0489C14.9362 59.0489 12.0248 56.1391 12.0248 52.5625C12.0248 48.9858 14.9361 46.076 18.5144 46.076C20.3117 46.076 21.9405 46.8105 23.1169 47.9946C23.1287 48.0074 23.1405 48.0201 23.1529 48.0324C24.2969 49.2024 25.004 50.8012 25.004 52.5625C25.004 56.1391 22.0928 59.0489 18.5144 59.0489ZM55.9924 59.0489C52.4142 59.0489 49.5028 56.1391 49.5028 52.5625C49.5028 48.9858 52.414 46.076 55.9924 46.076C59.5707 46.076 62.4819 48.9858 62.4819 52.5625C62.4818 56.1391 59.5706 59.0489 55.9924 59.0489ZM68.5302 51.0177H64.4657C64.2912 50.0589 63.9581 49.1554 63.4933 48.3347H68.5302C69.2715 48.3347 69.8746 48.9356 69.8746 49.6742C69.8746 50.4151 69.2715 51.0177 68.5302 51.0177Z" fill="#333333"/>
    </g>
    <defs>
        <clipPath id="clip0_1856:24120">
            <rect width="72" height="72" fill="white"/>
        </clipPath>
    </defs>
</svg>