<svg viewBox="0 0 80 80" fill="none" xmlns="http://www.w3.org/2000/svg">
    <g clip-path="url(#clip0_1793:23199)">
        <path d="M50.2382 23.3331V17.8569L65.7143 19.7617L66.1905 23.3331H50.2382Z" fill="#E51A1E"/>
        <rect x="3.80957" y="38.5713" width="46.1905" height="5.23809" fill="#E51A1E"/>
        <path d="M20.5716 53.8936C18.0842 53.8936 16.0608 55.9165 16.0608 58.4031C16.0608 60.892 18.0842 62.917 20.5716 62.917C23.0613 62.917 25.0867 60.892 25.0867 58.4031C25.0867 55.9164 23.0613 53.8936 20.5716 53.8936ZM20.5716 60.5553C19.3866 60.5553 18.4222 59.5898 18.4222 58.4029C18.4222 57.2187 19.3864 56.2551 20.5716 56.2551C21.7591 56.2551 22.7252 57.2187 22.7252 58.4029C22.7252 59.5898 21.7591 60.5553 20.5716 60.5553Z" fill="#333333"/>
        <path d="M62.2138 54.0747C59.7241 54.0747 57.6986 56.0996 57.6986 58.5886C57.6986 61.0752 59.7241 63.0981 62.2138 63.0981C64.701 63.0981 66.7244 61.0752 66.7244 58.5886C66.7244 56.0997 64.701 54.0747 62.2138 54.0747ZM62.2138 60.7364C61.0263 60.7364 60.0602 59.7728 60.0602 58.5886C60.0602 57.4019 61.0263 56.4364 62.2138 56.4364C63.3988 56.4364 64.363 57.4019 64.363 58.5886C64.3628 59.773 63.3988 60.7364 62.2138 60.7364Z" fill="#333333"/>
        <path d="M76.1447 51.3435H76.0589V37.7603C76.0609 37.7328 76.0633 37.7055 76.0633 37.6777C76.0634 37.6461 76.0612 37.615 76.0589 37.5839V28.8166C76.0589 26.5366 74.9869 24.7064 72.9587 23.5244C71.3955 22.6133 69.5697 22.2888 68.3822 22.2888H67.6145V21.5883C67.6145 19.6647 66.0978 18.0955 64.01 17.8569L50.9442 16.3454C50.3545 14.3746 48.673 12.0283 44.9261 12.0283C44.2739 12.0283 43.7453 12.5569 43.7453 13.2091C43.7453 13.8613 44.2739 14.3899 44.9261 14.3899C48.47 14.3899 48.8116 17.4497 48.8422 17.8875V19.5486H28.2809C27.6287 19.5486 27.1002 20.0774 27.1002 20.7294C27.1002 21.3814 27.6287 21.9102 28.2809 21.9102H48.8423V36.8513H26.9347H5.03172V22.2122C5.03172 22.0485 5.17031 21.9102 5.33437 21.9102H22.7812C23.4334 21.9102 23.962 21.3814 23.962 20.7294C23.962 20.0774 23.4334 19.5486 22.7812 19.5486H5.33437C3.86531 19.5486 2.67016 20.7436 2.67016 22.2124V51.5293C1.12266 52.0289 0 53.4824 0 55.1935C0 57.3188 1.7275 59.0479 3.85094 59.0479H11.0238C11.3572 64.0241 15.5108 67.9714 20.5716 67.9714C25.6323 67.9714 29.7861 64.0241 30.1194 59.0479H38.4389C39.0911 59.0479 39.6197 58.5191 39.6197 57.8671C39.6197 57.2149 39.0911 56.6863 38.4389 56.6863H29.9862C29.7923 55.621 29.4222 54.6171 28.9058 53.7052H53.8791C53.3628 54.6169 52.9925 55.621 52.7986 56.6863H43.7658C43.1136 56.6863 42.585 57.215 42.585 57.8671C42.585 58.5193 43.1136 59.0479 43.7658 59.0479H52.6655C52.9989 64.0241 57.1525 67.9714 62.2133 67.9714C67.2741 67.9714 71.4278 64.0241 71.7611 59.0479H76.1442C78.27 59.0479 79.9995 57.3188 79.9995 55.1935C80 53.0707 78.2705 51.3435 76.1447 51.3435ZM73.6975 36.4891L62.5513 36.453C62.3862 36.4524 62.2303 36.3868 62.112 36.2686C62.0448 36.2014 61.9323 36.0568 61.9333 35.8388L61.9422 30.7286C61.9422 30.3946 62.2248 30.1124 62.5592 30.1124H73.6975V36.4891ZM73.6975 46.0274H70.2155C69.9673 46.0274 69.7578 45.8182 69.7578 45.5705V44.3399C69.7578 44.0922 69.9673 43.883 70.2155 43.883H73.6975V46.0274ZM73.5589 27.7508H62.5591C60.9167 27.7508 59.5805 29.0868 59.5805 30.7266L59.5716 35.8314C59.568 36.6257 59.8772 37.3741 60.4423 37.9389C61.0037 38.5 61.7488 38.8111 62.5419 38.8147L73.6973 38.8508V41.5213H70.2153C68.6608 41.5213 67.3961 42.7857 67.3961 44.3399V45.5705C67.3961 47.1246 68.6608 48.3891 70.2153 48.3891H73.6973V51.3435H68.6683C66.965 49.7858 64.6986 48.8338 62.2136 48.8338C59.7286 48.8338 57.4622 49.7858 55.7589 51.3435H51.2036V43.8443V38.0324V24.6505H68.382C68.4302 24.6504 72.7295 24.7438 73.5589 27.7508ZM20.5716 48.8338C18.0866 48.8338 15.8202 49.7858 14.1169 51.3435H5.03172V45.025H26.9348H48.8423V51.3435H27.0263C25.323 49.7858 23.0566 48.8338 20.5716 48.8338ZM65.253 21.5883V22.2888H51.2038V18.7529L63.7403 20.2032C64.4688 20.2863 65.253 20.7552 65.253 21.5883ZM48.8423 42.6633H28.1155V39.2132H48.8422V42.6633H48.8423ZM25.7541 39.2132V42.6633H5.03172V39.2132H25.7541ZM2.36156 55.1935C2.36156 54.3729 3.02969 53.7052 3.85094 53.7052H12.2372C11.7209 54.6169 11.3506 55.621 11.1567 56.6863H3.85094C3.02969 56.6861 2.36156 56.0166 2.36156 55.1935ZM20.5716 65.6097C16.5958 65.6097 13.3609 62.3766 13.3609 58.4025C13.3609 54.4285 16.5956 51.1954 20.5716 51.1954C22.5686 51.1954 24.3783 52.0114 25.6855 53.3271C25.6986 53.3413 25.7117 53.3555 25.7255 53.3691C26.9966 54.6691 27.7822 56.4455 27.7822 58.4025C27.7822 62.3766 24.5475 65.6097 20.5716 65.6097ZM62.2137 65.6097C58.238 65.6097 55.0031 62.3766 55.0031 58.4025C55.0031 54.4285 58.2378 51.1954 62.2137 51.1954C66.1897 51.1954 69.4244 54.4285 69.4244 58.4025C69.4242 62.3766 66.1895 65.6097 62.2137 65.6097ZM76.1447 56.6861H71.6286C71.4347 55.6208 71.0645 54.6169 70.5481 53.705H76.1447C76.9683 53.705 77.6384 54.3727 77.6384 55.1933C77.6384 56.0166 76.9683 56.6861 76.1447 56.6861Z" fill="#333333"/>
    </g>
    <defs>
        <clipPath id="clip0_1793:23199">
            <rect width="80" height="80" fill="white"/>
        </clipPath>
    </defs>
</svg>