<svg viewBox="0 0 44 15" fill="none" xmlns="http://www.w3.org/2000/svg">
    <path d="M39.5866 9.49122C39.2069 7.78259 38.8747 6.07396 38.495 4.36533C38.495 4.3416 38.4475 4.3416 38.4475 4.3416C37.8305 6.0265 37.2135 7.73513 36.5965 9.46749H39.5866V9.49122ZM31.1858 14.2849C31.4663 13.6204 31.7316 13.0034 32.0022 12.3389C33.4972 8.77929 34.9875 5.17218 36.5111 1.61254C36.7484 0.98604 37.2704 0.639568 37.9349 0.630076C38.8841 0.611471 39.8334 0.629127 40.7826 0.621058C40.925 0.619634 40.9725 0.678012 41.0199 0.822771C41.542 3.30503 42.0641 5.80627 42.5862 8.27429C42.9659 10.2202 43.3456 12.1662 43.7727 14.1121C43.8202 14.2545 43.7727 14.3494 43.5829 14.3494H40.7826C40.6402 14.3494 40.5928 14.302 40.5453 14.1121C40.4504 13.59 40.308 13.0205 40.2131 12.4984C40.1656 12.356 40.1182 12.2611 39.9758 12.2611C38.5994 12.3086 37.1755 12.3086 35.7896 12.2611C35.6378 12.2611 35.5713 12.356 35.5191 12.4509C35.3245 13.0205 35.1109 13.59 34.9116 14.1596C34.8736 14.302 34.8214 14.3494 34.6933 14.3494H31.3282C31.2917 14.3494 31.2561 14.3494 31.1849 14.302L31.1858 14.2849Z" fill="#898989"/>
    <path d="M0.00332233 0.986014C0.0316571 0.854544 0.0564797 0.740636 0.0830584 0.61676C0.155675 0.612821 0.220223 0.606651 0.284772 0.606651C2.20223 0.606651 4.11495 0.605512 6.02766 0.608597C6.92944 0.610163 7.54645 1.14492 7.73629 2.06093C8.21091 4.62862 8.68553 7.23428 9.20761 9.79722C9.20761 9.79722 9.20761 9.84469 9.25508 9.89215C9.30254 9.79722 9.35 9.74976 9.35 9.65484C10.5365 6.7122 11.6756 3.76956 12.8622 0.826922C12.9096 0.686434 12.9571 0.626158 13.147 0.627107C14.286 0.635175 15.4251 0.631331 16.6117 0.631331C16.5642 0.717237 16.5642 0.782735 16.5167 0.845384C14.6657 5.28307 12.8147 9.72076 10.9637 14.1822C10.9162 14.3246 10.8688 14.372 10.6789 14.372H7.3566C7.21421 14.372 7.11929 14.3246 7.11929 14.1822C6.17005 10.5751 5.22081 6.96797 4.31904 3.36087C4.1814 2.79607 3.91086 2.39739 3.40302 2.14109C2.45378 1.67122 1.44759 1.39594 0.431904 1.1349C0.297112 1.09693 0.16232 1.06608 0 1.02574" fill="#898989"/>
    <path d="M21.2091 13.8296C21.4241 12.8329 21.6315 11.8362 21.8451 10.8395C22.1773 10.9819 22.4858 11.1243 22.7991 11.2667C23.8955 11.6464 25.025 11.8362 26.2021 11.5989C26.5343 11.5515 26.8666 11.4091 27.1513 11.1718C27.7209 10.8395 27.7683 10.1276 27.3412 9.65298C27.0564 9.36821 26.7716 9.17836 26.4394 8.98851C25.9648 8.70374 25.4664 8.46643 25.0013 8.18166C24.6548 7.99181 24.3131 7.7545 24.0046 7.51719C22.6519 6.37811 22.3007 4.85458 23.0316 3.25037C23.5869 2.03059 24.5884 1.30443 25.7987 0.844045C26.8191 0.456281 27.9107 0.340949 29.0024 0.380342C29.9041 0.412142 30.8059 0.596769 31.7077 0.883439C31.7551 0.902424 31.8026 0.921408 31.8501 0.945139C31.8975 0.954632 31.8975 0.973616 31.945 0.997347C31.7077 1.9276 31.5178 2.86735 31.328 3.82608C31.0907 3.74065 30.9008 3.65522 30.6635 3.58402C29.6668 3.23755 28.5752 3.08567 27.531 3.29925C27.1513 3.37994 26.7716 3.54605 26.5343 3.86879C26.2496 4.2295 26.2496 4.64242 26.5343 4.97466C26.7242 5.19298 26.9615 5.38283 27.2463 5.52522C27.7209 5.80999 28.1955 6.0473 28.6701 6.33207C29.0498 6.56938 29.4295 6.75922 29.7617 7.044C31.2331 8.08816 31.6128 9.55948 31.0907 11.2206C30.6161 12.597 29.6194 13.4514 28.2904 13.9734C27.3412 14.4006 26.3445 14.543 25.2908 14.543C24.0473 14.543 22.8371 14.4006 21.6552 14.0209C21.5086 13.9734 21.3681 13.8785 21.2091 13.8311" fill="#898989"/>
    <path d="M21.6932 0.613496C21.5033 1.55324 21.3135 2.45977 21.1236 3.36154C20.3642 6.83575 19.6048 10.3384 18.8929 13.8032C18.7505 14.3252 18.7505 14.3252 18.2284 14.3252H15.5231H15.2383C15.3333 14.0405 15.3807 13.7557 15.4282 13.4709C16.2825 9.3892 17.1843 5.26002 18.0386 1.17829C18.181 0.604004 18.181 0.604004 18.7505 0.604004C19.6048 0.604004 20.5066 0.604479 21.4084 0.604953H21.6932V0.613496Z" fill="#898989"/>
</svg>