<svg viewBox="0 0 116 24" fill="none" xmlns="http://www.w3.org/2000/svg">
    <path fill-rule="evenodd" clip-rule="evenodd" d="M99.1014 12.001C99.1014 18.6289 93.4962 23.9999 86.5776 23.9999C79.659 23.9999 74.0538 18.6289 74.0538 12.001C74.0538 5.37325 79.659 0 86.5776 0C93.4962 0 99.1014 5.37107 99.1014 12.001Z" fill="#E64D3C"/>
    <path class="painted" fill-rule="evenodd" clip-rule="evenodd" d="M103.32 3.90168e-05C101.534 -0.00448961 99.7697 0.385259 98.152 1.14146C96.5344 1.89766 95.1037 3.00166 93.962 4.37465H96.409C96.7466 4.78086 97.0515 5.2034 97.3336 5.64772H93.0396C92.7806 6.05639 92.5468 6.48044 92.3393 6.91752H98.0327C98.2255 7.327 98.3943 7.75498 98.5468 8.1895H91.8286C91.6892 8.60224 91.5705 9.02479 91.4768 9.45822H98.8952C99.0749 10.2783 99.1686 11.1288 99.1686 12C99.1686 13.333 98.9508 14.6137 98.5478 15.8116H91.8286C91.9745 16.2461 92.1444 16.6719 92.3404 17.0836H98.0327C97.8226 17.5214 97.5895 17.9439 97.3336 18.3523H93.0396C93.3216 18.7966 93.6298 19.2202 93.962 19.6253H96.4057C96.0333 20.0762 95.6238 20.4987 95.186 20.8952C97.42 22.9012 100.319 24.0074 103.321 24C110.012 24 115.435 18.6289 115.435 12.0011C115.435 5.37546 110.012 3.90168e-05 103.32 3.90168e-05Z" fill="#FCB614"/>
    <path fill-rule="evenodd" clip-rule="evenodd" d="M13.3976 15.9554L18.5356 3.26831H23.9579L15.8163 21.8144H10.393L5.44446 4.29744L9.8158 4.21903L12.1398 10.3633L13.3976 15.9554ZM26.1719 3.2694H31.581L28.1833 21.8155H22.8689L26.1719 3.2694ZM44.9869 7.913L45.7384 4.05568C45.7384 4.05568 38.0858 1.41697 33.9987 5.80247C29.8952 10.1803 35.2293 13.2078 35.8903 13.5062C36.5503 13.8101 40.1288 14.812 39.5908 16.7199C39.0387 18.6312 34.4256 18.1466 32.4795 17.3581C30.5323 16.5827 31.1476 16.8114 31.1476 16.8114L30.492 20.843C30.492 20.843 35.5603 22.7553 40.1495 21.2133C44.7517 19.6821 44.8432 16.7483 44.8911 15.8073C44.9347 14.8664 44.6025 12.4139 40.7256 10.8457C36.8345 9.29171 37.0447 7.34017 40.4381 6.98951C43.8293 6.65409 44.9858 7.91191 44.9858 7.91191L44.9869 7.913ZM52.5535 15.2563L55.3577 8.37039L56.9913 15.2563H52.5535ZM59.0201 3.2694H55.1595C52.4566 3.2694 52.0819 5.35379 52.0819 5.35379L44.6493 21.8144H50.0509L51.1149 19.0309H57.8657L58.4353 21.8144H63.1628L59.0212 3.26831L59.0201 3.2694Z" fill="#0058B6"/>
    <path fill-rule="evenodd" clip-rule="evenodd" d="M0.0958342 2.17813L0 2.55493C0 2.55493 3.7604 3.30745 6.03755 4.98128C8.31361 6.67471 9.05088 7.29437 10.312 9.00631C11.5633 10.7183 11.9793 11.9968 11.9793 11.9968L10.3131 3.86394C10.3131 3.86394 9.92101 2.15961 7.99126 2.17813C6.06478 2.19555 0.0958342 2.17813 0.0958342 2.17813Z" fill="#FEAD33"/>
</svg>