<svg viewBox="0 0 58 58" fill="none" xmlns="http://www.w3.org/2000/svg">
    <circle cx="47" cy="36" r="2" fill="#E51A1E"/>
    <path d="M10 4L8 13H39.5L10 4Z" fill="#E51A1E"/>
    <path d="M55.4513 24.7509H54.6021V22.2017V13.1392C54.6021 10.1721 52.1882 7.75822 49.2213 7.75822H25.8878L10.1459 3.26051C10.1414 3.25927 10.1367 3.25859 10.1322 3.25734C10.1276 3.2561 10.1231 3.25428 10.1185 3.25315C10.109 3.25077 10.0996 3.24964 10.0902 3.2476C10.0756 3.24454 10.0609 3.24137 10.0463 3.23899C10.0331 3.23684 10.02 3.23548 10.0068 3.23389C9.99139 3.23208 9.97609 3.23049 9.9608 3.22959C9.94834 3.22891 9.93599 3.2288 9.92353 3.22857C9.90767 3.22834 9.89193 3.22823 9.87618 3.22891C9.86451 3.22936 9.85284 3.23049 9.84129 3.2314C9.82509 3.23276 9.80889 3.23423 9.79292 3.23661C9.78204 3.2382 9.77128 3.24024 9.76052 3.24216C9.74398 3.24511 9.72767 3.24828 9.71147 3.25224C9.70139 3.25474 9.69153 3.25757 9.68156 3.2604C9.66502 3.26516 9.64871 3.27003 9.6324 3.27569C9.62322 3.27898 9.61416 3.28249 9.60499 3.28612C9.58856 3.29246 9.57225 3.29914 9.55627 3.30651C9.54778 3.31047 9.53951 3.31478 9.53113 3.31897C9.51515 3.32701 9.49941 3.33517 9.484 3.34434C9.47596 3.34899 9.46826 3.35397 9.46033 3.35896C9.44515 3.36847 9.43019 3.37821 9.41569 3.38875C9.4081 3.39419 9.40074 3.40008 9.39326 3.40585C9.37933 3.41662 9.36551 3.4276 9.35226 3.43927C9.34478 3.44584 9.33764 3.45275 9.33039 3.45955C9.31793 3.47133 9.30558 3.48311 9.2938 3.49557C9.28644 3.50339 9.27953 3.51154 9.27239 3.5197C9.26163 3.53205 9.25098 3.54451 9.2409 3.55754C9.23365 3.56694 9.22685 3.57657 9.21994 3.5862C9.21099 3.59877 9.20216 3.61146 9.194 3.62449C9.18698 3.63559 9.18052 3.64714 9.17406 3.65858C9.16693 3.67116 9.15979 3.68385 9.15333 3.69687C9.14699 3.70956 9.14133 3.72259 9.13555 3.73562C9.12988 3.74842 9.12433 3.76122 9.11935 3.77436C9.11414 3.78818 9.10961 3.80234 9.10496 3.81661C9.10202 3.82579 9.09839 3.8344 9.09567 3.84369C9.09431 3.84833 9.09375 3.85286 9.0925 3.85739C9.09126 3.86204 9.08944 3.86645 9.08831 3.8711L8.11681 7.758H5.38142C2.42036 7.758 0.0106484 10.1622 0.000906248 13.1211C0.000792967 13.1272 0 13.133 0 13.139V42.592C0 43.061 0.381757 43.4416 0.849608 43.4416C1.31859 43.4416 1.69922 43.061 1.69922 42.592V17.0577C2.66256 17.9635 3.95781 18.5202 5.38142 18.5202H49.2213C49.2223 18.5202 49.2232 18.52 49.2242 18.52C51.2529 18.5216 52.9029 20.1726 52.9029 22.2018V28.1495H43.5559C43.5553 28.1495 43.5549 28.1496 43.5543 28.1496C43.5297 28.1496 43.5052 28.1511 43.4809 28.1532C43.4538 28.1556 43.4271 28.1595 43.4008 28.1643C43.3968 28.165 43.393 28.1654 43.389 28.1661C43.3668 28.1706 43.3451 28.1765 43.3234 28.1826C43.3187 28.1839 43.3138 28.1848 43.3092 28.1863C43.2899 28.1922 43.2712 28.1992 43.2525 28.2064C43.2454 28.2091 43.2381 28.2113 43.231 28.2143C43.2154 28.2207 43.2003 28.2283 43.1852 28.2357C43.1753 28.2405 43.1652 28.2449 43.1554 28.25C43.1437 28.2562 43.1325 28.2633 43.1212 28.2701C43.1086 28.2776 43.0958 28.2849 43.0836 28.293C43.0753 28.2985 43.0677 28.3047 43.0598 28.3105C43.0453 28.3209 43.0307 28.3312 43.0169 28.3426C43.0109 28.3476 43.0053 28.3532 42.9996 28.3583C42.9847 28.3712 42.9699 28.384 42.9558 28.398C42.9476 28.4063 42.9401 28.4154 42.9323 28.424C42.9213 28.4359 42.91 28.4475 42.8995 28.4602C42.882 28.4816 42.8655 28.5038 42.8501 28.5268C42.8498 28.5272 42.8495 28.5276 42.8492 28.5281L38.3182 35.3251C38.2866 35.3724 38.2599 35.4226 38.2387 35.4748C38.2306 35.4943 38.2242 35.5141 38.2177 35.5338C38.2158 35.5398 38.2133 35.5456 38.2115 35.5516C38.2052 35.5726 38.2003 35.5938 38.1956 35.6148C38.1944 35.6204 38.1928 35.6258 38.1917 35.6314C38.1879 35.6504 38.1855 35.6695 38.1831 35.6887C38.1821 35.6968 38.1805 35.705 38.1797 35.7133C38.1781 35.729 38.1777 35.7446 38.1772 35.7604C38.1766 35.7724 38.1756 35.7844 38.1756 35.7965C38.1756 35.8082 38.1766 35.8199 38.1771 35.8315C38.1776 35.8476 38.1781 35.8638 38.1797 35.8799C38.1805 35.8877 38.1819 35.8955 38.183 35.9034C38.1855 35.9228 38.1879 35.9423 38.1918 35.9617C38.1928 35.967 38.1944 35.9722 38.1956 35.9776C38.2003 35.9988 38.2053 36.0201 38.2116 36.0413C38.2134 36.0473 38.2159 36.0531 38.2178 36.0592C38.2243 36.0789 38.2308 36.0988 38.2388 36.1182C38.2601 36.1704 38.2868 36.2207 38.3186 36.2681L42.8495 43.0641C42.8497 43.0644 42.8499 43.0646 42.8501 43.065C42.8684 43.0921 42.8883 43.1179 42.9094 43.1427C42.9163 43.1508 42.9237 43.1584 42.9308 43.1661C42.9452 43.1819 42.9601 43.1971 42.9757 43.2117C42.9848 43.2203 42.9939 43.2287 43.0032 43.2367C43.0197 43.2509 43.0368 43.2641 43.0544 43.277C43.0623 43.2828 43.0699 43.2892 43.0779 43.2946C43.1034 43.3119 43.1298 43.3279 43.1571 43.3424C43.164 43.346 43.1712 43.3491 43.1781 43.3525C43.1998 43.3634 43.222 43.3734 43.2448 43.3824C43.2536 43.3859 43.2625 43.3891 43.2714 43.3922C43.2931 43.4 43.315 43.4067 43.3375 43.4128C43.3466 43.4151 43.3557 43.4176 43.365 43.4199C43.388 43.4252 43.4113 43.4293 43.435 43.4327C43.4436 43.4339 43.4521 43.4356 43.4607 43.4367C43.4899 43.4399 43.5196 43.4418 43.5498 43.442C43.5521 43.442 43.5545 43.4424 43.557 43.4424C43.5575 43.4424 43.558 43.4423 43.5586 43.4423H52.9033V49.3905C52.9033 51.4207 51.2516 53.0723 49.2216 53.0723H5.38187C3.35187 53.0723 1.70024 51.4207 1.70024 49.3905C1.70024 49.3861 1.69967 49.3818 1.69956 49.3773V45.9909C1.69956 45.5231 1.31893 45.1413 0.849948 45.1413C0.382097 45.1413 0.000339843 45.5231 0.000339843 45.9909V49.3905C0.000339843 49.3993 0.00135937 49.4079 0.00169922 49.4166C0.0158593 52.3717 2.42365 54.7716 5.38187 54.7716H49.2216C52.1883 54.7716 54.602 52.3581 54.6025 49.3914C54.6025 49.3913 54.6025 49.3912 54.6025 49.3909V43.4423H55.4516C56.8568 43.4423 58 42.2991 58 40.8939V27.2993C57.9997 25.8942 56.8564 24.7509 55.4513 24.7509ZM10.5238 5.13566L25.5153 9.41915C25.516 9.41938 25.5168 9.41949 25.5175 9.41972L35.565 12.2905H8.73555L10.5238 5.13566ZM52.9028 18.2828C51.9396 17.3773 50.6446 16.8207 49.2213 16.8207C49.2198 16.8207 49.2185 16.8209 49.2169 16.8209H5.38142C3.35131 16.8209 1.69967 15.1693 1.69967 13.1392C1.69967 11.1091 3.35131 9.45744 5.38142 9.45744H7.69212L6.98412 12.2905H5.38164C4.91243 12.2905 4.53203 12.6709 4.53203 13.1401C4.53203 13.6093 4.91243 13.9897 5.38164 13.9897H7.64454C7.64568 13.9897 7.64692 13.9899 7.64817 13.9899C7.64908 13.9899 7.64998 13.9897 7.65077 13.9897H41.6284C41.6295 13.9897 41.6306 13.9899 41.6316 13.9899C41.6325 13.9899 41.6334 13.9897 41.6343 13.9897H48.0875C48.5567 13.9897 48.9371 13.6093 48.9371 13.1401C48.9371 12.6709 48.5567 12.2905 48.0875 12.2905H41.7502L31.8348 9.45744H49.2212C51.2512 9.45744 52.9028 11.1091 52.9028 13.1392V18.2828ZM56.3004 40.8935C56.3004 41.3617 55.9195 41.7427 55.4513 41.7427H44.0106L40.0459 35.7961L44.0106 29.8486H55.4513C55.4632 29.8486 55.4747 29.8472 55.4865 29.8468C55.7715 29.8428 56.0452 29.7921 56.3004 29.7017V40.8935ZM55.4513 28.1485C55.4454 28.1485 55.4396 28.1493 55.4337 28.1494H54.6021V26.4502H55.4513C55.9195 26.4502 56.3004 26.8311 56.3004 27.2993C56.3004 27.7675 55.9195 28.1485 55.4513 28.1485Z" fill="#333333"/>
    <path d="M46.956 32.6808C45.2383 32.6808 43.8408 34.0783 43.8408 35.7961C43.8408 37.5139 45.2383 38.9114 46.956 38.9114C48.6738 38.9114 50.0713 37.5139 50.0713 35.7961C50.0713 34.0783 48.6738 32.6808 46.956 32.6808ZM46.956 37.2121C46.1752 37.2121 45.54 36.577 45.54 35.7961C45.54 35.0153 46.1752 34.38 46.956 34.38C47.7369 34.38 48.3721 35.0153 48.3721 35.7961C48.3721 36.577 47.7369 37.2121 46.956 37.2121Z" fill="#333333"/>
</svg>