<svg viewBox="0 0 40 40" fill="none" xmlns="http://www.w3.org/2000/svg">
    <path d="M25.2338 22.1121C22.9569 22.1121 21.1044 23.9176 21.1044 26.1368C21.1044 28.356 22.9569 30.1616 25.2338 30.1616H39.4574V22.1121H25.2338ZM25.2338 27.9257C24.2201 27.9257 23.3985 27.1248 23.3985 26.1369C23.3985 25.1489 24.2202 24.3481 25.2338 24.3481C26.2474 24.3481 27.0691 25.1489 27.0691 26.1369C27.0691 27.1248 26.2474 27.9257 25.2338 27.9257Z" fill="#333333"/>
    <path d="M25.2353 19.4291H39.4589V12.2739H0V40.0002H39.459V32.845H25.2353C21.4404 32.845 18.3529 29.8358 18.3529 26.137C18.3529 22.4383 21.4404 19.4291 25.2353 19.4291Z" fill="#333333"/>
    <path d="M24.0112 0L14.1713 9.59062H33.8512L24.0112 0Z" fill="#333333"/>
    <path d="M9.79748 0.297119L7.48914 9.59063H10.2782L12.2249 7.69329L17.8611 2.19977L9.79748 0.297119Z" fill="#333333"/>
</svg>