<svg viewBox="0 0 80 80" fill="none" xmlns="http://www.w3.org/2000/svg">
    <g clip-path="url(#clip0_1793:23121)">
        <rect x="10.6952" y="48.3423" width="8.55615" height="9.41177" fill="#E51A1E"/>
        <rect x="23.5294" y="33.3689" width="32.9412" height="4.27807" fill="#E51A1E"/>
        <rect x="35.9359" y="56.4707" width="5.98931" height="6.41711" fill="#E51A1E"/>
        <path d="M77.6001 17.036L41.4752 2.16843C40.5243 1.77719 39.4769 1.77719 38.5254 2.16843L29.1516 6.02646C28.5535 6.27243 28.2678 6.95725 28.5138 7.556C28.7604 8.15476 29.4452 8.43979 30.044 8.19382L39.4177 4.33579C39.7937 4.18137 40.2075 4.18137 40.5829 4.33579L76.7078 19.2033C77.4884 19.5244 77.8626 20.4216 77.5409 21.2022C77.3035 21.779 76.7474 22.1513 76.1243 22.1513C75.9247 22.1513 75.7294 22.1123 75.542 22.0354L40.4462 7.5914C40.1605 7.4736 39.8401 7.4736 39.5544 7.5914L4.45862 22.0354C3.67859 22.357 2.78259 21.9865 2.45972 21.2022C2.13806 20.4216 2.51221 19.5244 3.29285 19.2033L25.6207 10.0139C26.2189 9.76792 26.5045 9.0831 26.2579 8.48435C26.012 7.8862 25.3272 7.59995 24.7284 7.84653L2.40112 17.036C0.424805 17.8496 -0.52063 20.1183 0.292358 22.094C1.1023 24.0624 3.35877 25.023 5.35034 24.2027L8.84705 22.7641V44.1533C8.84705 44.8003 9.37134 45.3252 10.0189 45.3252C10.6659 45.3252 11.1908 44.8003 11.1908 44.1533V21.7992L40.0006 9.94248L68.8098 21.7992V68.9562C68.8098 69.3779 68.4668 69.7203 68.0444 69.7203H58.5352V35.1952C58.5352 33.2359 56.9409 31.6417 54.9817 31.6417H25.0189C23.0597 31.6417 21.4661 33.2359 21.4661 35.1952V47.7635H18.902C18.9001 47.7635 18.8983 47.7635 18.8959 47.7635H10.4761C10.4742 47.7635 10.4724 47.7635 10.47 47.7635H2.55554C1.14624 47.7635 0 48.9098 0 50.3191V77.0915C0 77.7391 0.524292 78.2634 1.17188 78.2634H48.6816C49.3292 78.2634 49.8535 77.7391 49.8535 77.0915V72.0641H68.0444C69.7589 72.0641 71.1536 70.67 71.1536 68.9562V22.7641L74.6503 24.2027C75.1215 24.3968 75.6171 24.4951 76.1243 24.4951C77.7014 24.4951 79.1083 23.5527 79.7083 22.094C80.5219 20.1183 79.5758 17.8496 77.6001 17.036ZM23.8098 39.0819H56.1914V42.2508H23.8098V39.0819ZM25.0189 33.9855H54.9817C55.6488 33.9855 56.1914 34.5281 56.1914 35.1952V36.7381H23.8098V35.1952C23.8098 34.5281 24.3524 33.9855 25.0189 33.9855ZM12.5818 56.1882C12.2968 56.1882 12.0117 56.2779 11.7743 56.4568L11.648 56.5514V50.1073H17.724V56.5514L17.5995 56.4574C17.1234 56.0991 16.4587 56.0991 15.9833 56.4574L14.6869 57.4327L13.3899 56.4574C13.1519 56.2779 12.8668 56.1882 12.5818 56.1882ZM2.34375 50.3191C2.34375 50.2025 2.43835 50.1073 2.55554 50.1073H9.3042V58.5545C9.3042 59.0672 9.58923 59.5281 10.0482 59.7569C10.5066 59.9858 11.0461 59.937 11.4563 59.6288L12.5818 58.7822L13.88 59.7582C14.118 59.937 14.4031 60.0261 14.6875 60.0261C14.9725 60.0261 15.2576 59.937 15.4956 59.7576L16.792 58.7822L17.9163 59.6288C18.3264 59.937 18.8654 59.9858 19.3243 59.7569C19.7833 59.5281 20.0684 59.0672 20.0684 58.5545V50.1079H22.6074H22.6379H22.6685H26.8176C26.9342 50.1079 27.0294 50.2025 27.0294 50.3191V75.9197H2.34375V50.3191ZM47.5098 75.9197H29.3726V56.9286H34.079V63.0455C34.079 63.5417 34.3555 63.9885 34.7992 64.2101C35.2429 64.4322 35.766 64.3846 36.1639 64.0862L36.8463 63.5729L37.6593 64.1844C37.89 64.3578 38.1659 64.4444 38.4418 64.4444C38.7183 64.4444 38.9941 64.3572 39.2249 64.1838L40.036 63.5735L40.7178 64.0862C41.1145 64.3846 41.6376 64.4322 42.0819 64.2107C42.5262 63.9885 42.8027 63.5423 42.8027 63.0455V56.9286H47.5092V75.9197H47.5098ZM40.4596 56.9286V61.0387C40.0586 60.9026 39.6033 60.966 39.2535 61.2291L38.4418 61.8401L37.6288 61.2291C37.3987 61.0558 37.1228 60.9691 36.8463 60.9691C36.7035 60.9691 36.5601 60.9923 36.4227 61.0393V56.9286H40.4596ZM47.6331 54.5848H41.637C41.6351 54.5848 41.6333 54.5848 41.6309 54.5848H35.2509C35.249 54.5848 35.2472 54.5848 35.2448 54.5848H29.3726V50.3191C29.3726 48.9098 28.2263 47.7635 26.817 47.7635H23.8098V44.5946H56.1914V69.7203H49.8535V56.8047C49.8535 55.5809 48.8574 54.5848 47.6331 54.5848Z" fill="#333333"/>
        <path d="M20.1563 64.6021H9.21631C8.56873 64.6021 8.04443 65.1263 8.04443 65.7739C8.04443 66.4209 8.56873 66.9458 9.21631 66.9458H20.1563C20.8038 66.9458 21.3281 66.4209 21.3281 65.7739C21.3281 65.1263 20.8038 64.6021 20.1563 64.6021Z" fill="#333333"/>
        <path d="M20.1563 69.5239H9.21631C8.56873 69.5239 8.04443 70.0482 8.04443 70.6958C8.04443 71.3428 8.56873 71.8677 9.21631 71.8677H20.1563C20.8038 71.8677 21.3281 71.3428 21.3281 70.6958C21.3281 70.0482 20.8038 69.5239 20.1563 69.5239Z" fill="#333333"/>
        <path d="M42.11 67.1479H34.7723C34.1248 67.1479 33.6005 67.6729 33.6005 68.3198C33.6005 68.9674 34.1248 69.4917 34.7723 69.4917H42.11C42.757 69.4917 43.2819 68.9674 43.2819 68.3198C43.2819 67.6729 42.757 67.1479 42.11 67.1479Z" fill="#333333"/>
        <path d="M42.11 70.4492H34.7723C34.1248 70.4492 33.6005 70.9735 33.6005 71.6211C33.6005 72.2681 34.1248 72.793 34.7723 72.793H42.11C42.757 72.793 43.2819 72.2681 43.2819 71.6211C43.2819 70.9735 42.757 70.4492 42.11 70.4492Z" fill="#333333"/>
        <path d="M37.0172 26.9934C37.6642 26.9934 38.1891 26.4685 38.1891 25.8215C38.1891 25.174 37.6642 24.6497 37.0172 24.6497H30.9509C30.304 24.6497 29.7791 25.174 29.7791 25.8215C29.7791 26.4685 30.304 26.9934 30.9509 26.9934H37.0172Z" fill="#333333"/>
        <path d="M49.0497 26.9934C49.6973 26.9934 50.2216 26.4685 50.2216 25.8215C50.2216 25.174 49.6973 24.6497 49.0497 24.6497H42.9834C42.3364 24.6497 41.8115 25.174 41.8115 25.8215C41.8115 26.4685 42.3364 26.9934 42.9834 26.9934H49.0497Z" fill="#333333"/>
    </g>
    <defs>
        <clipPath id="clip0_1793:23121">
            <rect width="80" height="80" fill="white"/>
        </clipPath>
    </defs>
</svg>