<svg width="120" height="120" viewBox="0 0 120 120" fill="none" xmlns="http://www.w3.org/2000/svg">
<path d="M34.9924 108.649C30.229 108.649 25.8321 107.55 22.5344 105.534L0 91.7939V77.687L20.7023 90.3282C24.5496 92.7099 29.6794 93.9924 34.9924 93.9924C40.3053 93.9924 45.4351 92.7099 49.2824 90.3282L72.7328 76.0382C76.0305 74.0229 80.4275 72.9236 85.0076 72.9236C89.5878 72.9236 93.9847 74.0229 97.2824 76.0382L120 89.7786V103.885L99.2977 91.2443C95.4504 88.8626 90.3206 87.5801 85.1908 87.5801C79.8779 87.5801 74.9313 88.8626 71.084 91.2443L47.6336 105.534C44.1527 107.55 39.7557 108.649 34.9924 108.649Z" fill="#E51A1E"/>
<path d="M34.9924 77.8701C30.229 77.8701 25.8321 76.7708 22.5344 74.7556L0 60.8319V46.725L20.7023 59.3662C24.5496 61.7479 29.6794 63.0304 34.9924 63.0304C40.3054 63.0304 45.4351 61.7479 49.2825 59.3662L72.7328 45.0762C76.0305 43.0609 80.4275 41.9617 85.0077 41.9617C89.5878 41.9617 93.9847 43.0609 97.2825 45.0762L119.817 58.8166V72.9235L99.1145 60.2823C95.2672 57.9006 90.1374 56.6182 85.0077 56.6182C79.6947 56.6182 74.7481 57.9006 70.9008 60.2823L47.4504 74.5723C44.1527 76.7708 39.7557 77.8701 34.9924 77.8701Z" fill="#E51A1E"/>
<path d="M34.9924 46.9084C30.229 46.9084 25.8321 45.8092 22.5344 43.7939L0 29.8702V15.7634L20.7023 28.4046C24.5496 30.7863 29.6794 32.0687 34.9924 32.0687C40.3053 32.0687 45.4351 30.7863 49.2824 28.4046L72.7328 14.1145C76.2137 12.0992 80.6107 11 85.1908 11C89.771 11 94.1679 12.0992 97.4656 14.1145L120 27.855V41.9618L99.2977 29.3206C95.4504 26.9389 90.5038 25.6565 85.1908 25.6565C79.8779 25.6565 74.9313 26.9389 71.084 29.3206L47.6336 43.6107C44.1527 45.8092 39.7557 46.9084 34.9924 46.9084Z" fill="#E51A1E"/>
</svg>
