<svg width="23" height="28" viewBox="0 0 23 28" fill="none" xmlns="http://www.w3.org/2000/svg">
<path d="M20.7691 3.46153H15.5769V1.73077C15.5769 0.774519 14.8023 0 13.8461 0H8.65379C7.69754 0 6.92303 0.774519 6.92303 1.73077V3.46153H1.73077C0.774519 3.46153 0 4.23605 0 5.1923V6.92306C0 7.87843 0.774519 8.65295 1.72904 8.65383H20.77C21.7254 8.65295 22.5 7.87843 22.5 6.92306V5.19226C22.4999 4.23605 21.7254 3.46153 20.7691 3.46153ZM13.8461 3.46153H8.65379V2.59613C8.65379 2.11845 9.04147 1.73073 9.51915 1.73073H12.9807C13.4584 1.73073 13.8461 2.11841 13.8461 2.59613V3.46153ZM1.73073 24.2307C1.73073 26.1423 3.28061 27.6922 5.19226 27.6922H17.3076C19.2192 27.6922 20.7691 26.1423 20.7691 24.2307V10.3846H1.73073V24.2307ZM14.7115 12.9807C14.7115 12.503 15.0992 12.1153 15.5769 12.1153C16.0545 12.1153 16.4422 12.503 16.4422 12.9807V23.3653C16.4422 23.843 16.0545 24.2307 15.5769 24.2307C15.0992 24.2307 14.7115 23.843 14.7115 23.3653V12.9807ZM10.3846 12.9807C10.3846 12.503 10.7722 12.1153 11.25 12.1153C11.7277 12.1153 12.1153 12.503 12.1153 12.9807V23.3653C12.1153 23.843 11.7276 24.2307 11.25 24.2307C10.7723 24.2307 10.3846 23.843 10.3846 23.3653V12.9807ZM6.05762 12.9807C6.05762 12.503 6.44531 12.1153 6.92303 12.1153C7.40074 12.1153 7.78843 12.503 7.78843 12.9807V23.3653C7.78843 23.843 7.40074 24.2307 6.92303 24.2307C6.44531 24.2307 6.05762 23.843 6.05762 23.3653V12.9807Z" fill="#333333"/>
</svg>
