<svg width="31" height="22" viewBox="0 0 31 22" fill="none" xmlns="http://www.w3.org/2000/svg">
<path fill-rule="evenodd" clip-rule="evenodd" d="M7.47192 1.91986C7.47192 1.14614 8.09915 0.518921 8.87287 0.518921H29.3163C30.09 0.518921 30.7172 1.14614 30.7172 1.91986C30.7172 2.69358 30.09 3.32081 29.3163 3.32081H8.87287C8.09915 3.32081 7.47192 2.69358 7.47192 1.91986Z" fill="white"/>
<path fill-rule="evenodd" clip-rule="evenodd" d="M7.47192 11.0519C7.47192 10.2782 8.09915 9.651 8.87287 9.651H29.3163C30.09 9.651 30.7172 10.2782 30.7172 11.0519C30.7172 11.8257 30.09 12.4529 29.3163 12.4529H8.87287C8.09915 12.4529 7.47192 11.8257 7.47192 11.0519Z" fill="white"/>
<path fill-rule="evenodd" clip-rule="evenodd" d="M7.47192 20.184C7.47192 19.4103 8.09915 18.7831 8.87287 18.7831H19.354C20.1277 18.7831 20.7549 19.4103 20.7549 20.184C20.7549 20.9577 20.1277 21.585 19.354 21.585H8.87287C8.09915 21.585 7.47192 20.9577 7.47192 20.184Z" fill="white"/>
<path d="M3.73585 1.86793C3.73585 2.89955 2.89955 3.73585 1.86793 3.73585C0.836299 3.73585 0 2.89955 0 1.86793C0 0.836299 0.836299 0 1.86793 0C2.89955 0 3.73585 0.836299 3.73585 1.86793Z" fill="white"/>
<path d="M3.73585 11C3.73585 12.0316 2.89955 12.8679 1.86793 12.8679C0.836299 12.8679 0 12.0316 0 11C0 9.96838 0.836299 9.13208 1.86793 9.13208C2.89955 9.13208 3.73585 9.96838 3.73585 11Z" fill="white"/>
<path d="M3.73585 20.1321C3.73585 21.1637 2.89955 22 1.86793 22C0.836299 22 0 21.1637 0 20.1321C0 19.1005 0.836299 18.2642 1.86793 18.2642C2.89955 18.2642 3.73585 19.1005 3.73585 20.1321Z" fill="white"/>
</svg>
