<svg width="58" height="58" viewBox="0 0 58 58" fill="none" xmlns="http://www.w3.org/2000/svg">
<g clip-path="url(#clip0)">
<ellipse cx="29.0001" cy="36.7333" rx="3.22222" ry="3.22222" fill="#E51A1E"/>
<circle cx="7.73322" cy="37.3778" r="1.28889" fill="#E51A1E"/>
<path d="M52.2694 0.865175L50.7383 0.468692C49.9467 0.263371 49.1219 0.378864 48.4165 0.793932C47.7112 1.209 47.2098 1.87364 47.0054 2.66528L46.9877 2.7321C46.7124 2.55996 46.4098 2.42721 46.0867 2.34358C44.3685 1.89798 42.6082 2.93388 42.1626 4.65212L40.3169 11.7729C39.8718 13.4911 40.9072 15.2514 42.6255 15.697C42.8936 15.7665 43.1658 15.801 43.4361 15.801C43.4919 15.801 43.5476 15.797 43.603 15.7944L40.9802 25.9157C40.8068 25.8949 40.6324 25.8786 40.4559 25.8715L25.2161 25.2498C24.7492 25.2338 24.3518 25.5954 24.3328 26.064C24.3133 26.5326 24.678 26.9282 25.147 26.9472L40.3864 27.5694C41.9343 27.6322 43.3481 28.3849 44.2658 29.6336C45.1849 30.8837 45.4805 32.4604 45.0778 33.9591L43.726 38.9908C43.7242 38.9975 43.7224 39.0037 43.7207 39.0103L42.1577 44.8274C41.4577 47.4316 39.0872 49.2503 36.3924 49.2503H21.2689C18.8082 49.2503 16.6802 47.7688 15.7699 45.6067C15.769 45.6045 15.7682 45.6018 15.7668 45.5996C15.5438 45.0673 15.3934 44.4947 15.331 43.8924L14.7243 38.0359H16.4324L17.0209 43.7172C17.2475 45.9032 19.0732 47.5515 21.2689 47.5515H36.3928C38.3204 47.5515 40.016 46.2501 40.5169 44.3867L43.4375 33.5184C43.8039 32.1528 43.256 31.1289 42.8967 30.6399C42.5383 30.1518 41.7263 29.3248 40.3174 29.2673L19.3126 28.4101C18.2918 28.3703 17.3523 28.7677 16.6718 29.5221C16.2965 29.9385 15.6867 30.8315 15.8213 32.132L16.2567 36.3367H14.5486L14.1313 32.3073C13.9791 30.8399 14.4712 29.3819 15.481 28.307C16.4894 27.2335 17.9112 26.6521 19.383 26.7122L21.5225 26.7999C21.9906 26.8176 22.3867 26.4543 22.4057 25.9856C22.4247 25.5166 22.0606 25.121 21.5915 25.102L19.4524 25.0144C17.4895 24.9338 15.589 25.7104 14.2424 27.1437C12.895 28.5783 12.2383 30.524 12.441 32.482L12.8401 36.3367H10.0223C9.67135 35.3477 8.72705 34.6375 7.61947 34.6375C6.21407 34.6375 5.07065 35.7809 5.07065 37.1863C5.07065 38.5917 6.21407 39.7351 7.61947 39.7351C8.72705 39.7351 9.67135 39.0249 10.0223 38.0359H12.0038L1.40451 47.8024C0.511976 48.6246 0 49.7919 0 51.0052C0 52.1009 0.409316 53.1483 1.15272 53.9554C1.94082 54.8108 3.01478 55.3081 4.17679 55.3559C4.23785 55.3581 4.29848 55.3595 4.3591 55.3595C5.45474 55.3595 6.49506 54.9541 7.30573 54.2072L10.7073 51.0734C11.0524 50.7552 11.0745 50.218 10.7568 49.8729C10.4387 49.5277 9.90145 49.5056 9.5563 49.8237L6.15434 52.9576C5.63263 53.4381 4.9556 53.685 4.24626 53.658C3.53781 53.6288 2.88291 53.3257 2.40235 52.804C1.94878 52.3115 1.69921 51.673 1.69921 51.0052C1.69921 50.2654 2.01118 49.5534 2.5559 49.0516L13.1463 39.2935L13.6406 44.0672C13.7003 44.6442 13.8238 45.1996 14.0008 45.7288L12.2215 47.3683C11.8763 47.686 11.8542 48.2237 12.1724 48.5688C12.3396 48.7502 12.568 48.8427 12.7972 48.8427C13.003 48.8427 13.2096 48.7684 13.3729 48.6179L14.7588 47.3413C16.1177 49.5242 18.5329 50.9499 21.2689 50.9499H26.4475V53.2722H24.0133C22.6093 53.2722 21.4663 54.4147 21.4663 55.8228C21.4663 57.2268 22.6093 58.3694 24.0133 58.3694H33.9856C35.3901 58.3694 36.5326 57.2268 36.5326 55.8192C36.5326 54.4147 35.3901 53.2722 33.9856 53.2722H31.5452V50.9499H36.3928C39.8545 50.9499 42.8998 48.6135 43.799 45.2686L45.2185 39.9856C48.2369 39.5395 50.7175 37.3345 51.4946 34.3383L52.861 29.0646C52.9787 28.6106 52.7061 28.1468 52.2517 28.0291C51.7977 27.911 51.3339 28.184 51.2162 28.6385L49.8498 33.9122C49.3108 35.9911 47.7169 37.5792 45.7133 38.1448L46.7191 34.3999C47.2567 32.4002 46.8615 30.2961 45.6354 28.6274C44.8592 27.5707 43.8158 26.7817 42.6303 26.3228L48.6501 3.09141C48.7413 2.73918 48.9643 2.44314 49.2785 2.25862C49.5922 2.07365 49.9591 2.02188 50.3117 2.11392L51.8433 2.5104C55.0178 3.33302 56.9307 6.58453 56.1085 9.75861L52.1251 25.1312C52.0074 25.5852 52.28 26.0489 52.7345 26.1666C53.1885 26.2843 53.6522 26.0113 53.7699 25.5573L57.7533 10.1852C58.8109 6.10353 56.351 1.92276 52.2694 0.865175ZM17.5112 31.9568C17.4444 31.3103 17.7475 30.8665 17.9338 30.6598C18.2559 30.3027 18.6949 30.1062 19.1701 30.1062C19.1954 30.1062 19.2201 30.1067 19.2445 30.1076L40.2479 30.9647C40.9116 30.9917 41.3103 31.3501 41.5276 31.6462C41.7458 31.9426 41.9697 32.432 41.7962 33.0772L38.8757 43.9455C38.5743 45.0682 37.553 45.8518 36.3928 45.8518H21.2689C19.9472 45.8518 18.8475 44.8589 18.7113 43.542L18.1409 38.0355H24.9793C25.4563 39.8599 27.1179 41.2104 29.0897 41.2104C31.4323 41.2104 33.3378 39.3046 33.3378 36.9624C33.3378 34.6198 31.4323 32.7144 29.0897 32.7144C26.96 32.7144 25.1917 34.2897 24.8882 36.3367H17.9648L17.5112 31.9568ZM26.5409 36.9624C26.5409 35.557 27.6843 34.4136 29.0897 34.4136C30.4951 34.4136 31.6385 35.557 31.6385 36.9624C31.6385 38.3678 30.4951 39.5112 29.0897 39.5112C27.6843 39.5112 26.5409 38.3678 26.5409 36.9624ZM7.61947 38.0355C7.1513 38.0355 6.76986 37.6545 6.76986 37.1859C6.76986 36.7177 7.1513 36.3367 7.61947 36.3367C8.08808 36.3367 8.46907 36.7177 8.46907 37.1859C8.46907 37.6545 8.08808 38.0355 7.61947 38.0355ZM34.8334 55.8223C34.8334 56.2901 34.4529 56.6702 33.9856 56.6702H24.0133C23.546 56.6702 23.1655 56.2901 23.1655 55.8188C23.1655 55.3511 23.546 54.9709 24.0133 54.9709H33.9856C34.4529 54.9709 34.8334 55.3515 34.8334 55.8223ZM29.846 53.2717H28.1468V50.9495H29.846V53.2717ZM43.052 14.0522C42.2409 13.842 41.752 13.0106 41.9622 12.199L43.8074 5.07869C44.018 4.26758 44.849 3.77817 45.6602 3.98836C46.008 4.07863 46.3058 4.28705 46.5106 4.57335L44.08 13.954C43.7618 14.1049 43.4003 14.1425 43.052 14.0522Z" fill="#333333"/>
</g>
<defs>
<clipPath id="clip0">
<rect width="58" height="58" fill="white"/>
</clipPath>
</defs>
</svg>
