<svg width="14" height="31" viewBox="0 0 14 31" fill="none" xmlns="http://www.w3.org/2000/svg">
<path d="M13.1076 27.2815L12.6803 29.0282C11.3984 29.5342 10.3745 29.9193 9.61195 30.1841C8.84862 30.4497 7.96167 30.5818 6.95111 30.5818C5.39923 30.5818 4.19216 30.2016 3.33125 29.4465C2.47034 28.6884 2.03975 27.7277 2.03975 26.5623C2.03975 26.1111 2.071 25.6471 2.13596 25.1743C2.20146 24.701 2.30562 24.1679 2.44814 23.572L4.05018 17.9017C4.1927 17.3587 4.31385 16.8443 4.41088 16.3578C4.50927 15.8743 4.55669 15.4294 4.55669 15.029C4.55669 14.3049 4.40677 13.7983 4.10829 13.5136C3.8098 13.2296 3.24025 13.0854 2.3947 13.0854C1.98055 13.0854 1.55489 13.1518 1.12101 13.28C0.685217 13.4089 0.312733 13.5333 0 13.649L0.428397 11.9008C1.47788 11.4735 2.48103 11.1076 3.44061 10.804C4.40019 10.4994 5.30687 10.347 6.16448 10.347C7.70567 10.347 8.89494 10.7195 9.73008 11.4645C10.5652 12.21 10.9827 13.1764 10.9827 14.3674C10.9827 14.6138 10.9552 15.0479 10.8963 15.6684C10.8388 16.2903 10.7316 16.8602 10.5754 17.3785L8.98018 23.026C8.84944 23.4796 8.73185 23.9982 8.62962 24.5817C8.5241 25.1614 8.47367 25.6044 8.47367 25.9015C8.47367 26.6514 8.64086 27.1634 8.97607 27.4355C9.31374 27.7077 9.89535 27.8431 10.7214 27.8431C11.1093 27.8431 11.5506 27.7743 12.0409 27.6392C12.5299 27.5041 12.8865 27.3854 13.1076 27.2815ZM13.5122 3.57135C13.5122 4.55532 13.1414 5.39567 12.3961 6.08664C11.6528 6.78008 10.7571 7.12708 9.70925 7.12708C8.65813 7.12708 7.76022 6.78008 7.0084 6.08664C6.25795 5.3954 5.8819 4.55532 5.8819 3.57135C5.8819 2.5893 6.25795 1.74758 7.0084 1.04783C7.75885 0.349186 8.6584 0 9.70925 0C10.7568 0 11.6528 0.350009 12.3961 1.04783C13.1419 1.74758 13.5122 2.58957 13.5122 3.57135Z" fill="#E51A1E"/>
</svg>
