<svg width="40" height="40" viewBox="0 0 40 40" fill="none" xmlns="http://www.w3.org/2000/svg">
<path fill-rule="evenodd" clip-rule="evenodd" d="M19.1245 27.9285H21.2168C21.2168 27.9285 21.8483 27.8696 22.1708 27.5739C22.4687 27.3014 22.4588 26.7911 22.4588 26.7911C22.4588 26.7911 22.418 24.4016 23.7206 24.0491C25.0046 23.7018 26.6544 26.3586 28.4018 27.3803C29.7242 28.1537 30.7289 27.9843 30.7289 27.9843L35.4028 27.9285C35.4028 27.9285 37.8472 27.8001 36.688 26.164C36.5929 26.0304 36.012 24.9529 33.2129 22.7401C30.2815 20.4243 30.6745 20.7988 34.2053 16.7921C36.3544 14.3531 37.2145 12.8632 36.9451 12.2256C36.6893 11.6174 35.1087 11.7784 35.1087 11.7784L29.8453 11.8057C29.8453 11.8057 29.4548 11.7605 29.1656 11.9078C28.8838 12.052 28.7021 12.3887 28.7021 12.3887C28.7021 12.3887 27.868 14.2763 26.7582 15.8819C24.4151 19.27 23.4771 19.4489 23.094 19.2384C22.203 18.7481 22.4254 17.2698 22.4254 16.2186C22.4254 12.9348 23.0112 11.5658 21.2872 11.2113C20.715 11.0945 20.2936 11.0166 18.8304 11.004C16.9532 10.9871 15.3639 11.0082 14.4642 11.3838C13.8649 11.6332 13.4027 12.1898 13.6844 12.2214C14.0317 12.2613 14.8202 12.4023 15.2379 12.8863C15.7767 13.5114 15.7581 14.9139 15.7581 14.9139C15.7581 14.9139 16.0683 18.7786 15.034 19.2595C14.3246 19.5878 13.352 18.9165 11.2622 15.842C10.192 14.2679 9.38378 12.5276 9.38378 12.5276C9.38378 12.5276 9.22807 12.2024 8.95001 12.0278C8.61263 11.8173 8.14178 11.75 8.14178 11.75L3.14041 11.7784C3.14041 11.7784 2.39026 11.7963 2.11467 12.0741C1.86875 12.3213 2.0949 12.8327 2.0949 12.8327C2.0949 12.8327 6.00998 20.6315 10.4429 24.5615C14.5087 28.1653 19.1245 27.9285 19.1245 27.9285Z" fill="white"/>
</svg>
