<svg width="15" height="16" viewBox="0 0 15 16" fill="none" xmlns="http://www.w3.org/2000/svg">
<path fill-rule="evenodd" clip-rule="evenodd" d="M5.50239 4.48182C5.36375 4.14979 5.25862 4.13716 5.04859 4.12867C4.97709 4.12454 4.89744 4.12041 4.80907 4.12041C4.5358 4.12041 4.25014 4.20029 4.07776 4.3768C3.86773 4.59119 3.34656 5.09135 3.34656 6.11693C3.34656 7.14262 4.09451 8.13457 4.1954 8.27344C4.30052 8.41197 5.65366 10.5474 7.75476 11.4177C9.3978 12.0986 9.88534 12.0355 10.2593 11.9557C10.8056 11.838 11.4905 11.4343 11.6629 10.9469C11.8352 10.4592 11.8352 10.0431 11.7847 9.95481C11.7343 9.86655 11.5955 9.81628 11.3855 9.71104C11.1755 9.60591 10.1543 9.1015 9.96098 9.03424C9.77184 8.96286 9.59119 8.9881 9.44841 9.18987C9.24665 9.47151 9.04924 9.7574 8.88948 9.92967C8.76346 10.0642 8.55745 10.081 8.38518 10.0095C8.15404 9.91302 7.50696 9.68579 6.70851 8.97548C6.0907 8.42493 5.67053 7.73987 5.54876 7.53386C5.42687 7.32372 5.53613 7.20172 5.63277 7.08833C5.7379 6.95795 5.83867 6.86556 5.94368 6.74356C6.04881 6.62168 6.10757 6.55867 6.17483 6.41567C6.24633 6.27703 6.19583 6.13403 6.14545 6.0289C6.09495 5.92355 5.67478 4.89786 5.50239 4.48182ZM7.49773 0.849976C3.55607 0.849976 0.349854 4.05709 0.349854 7.99986C0.349854 9.56348 0.854152 11.0137 1.71137 12.1907L0.820413 14.8472L3.56869 13.9689C4.69906 14.7171 6.04796 15.15 7.50198 15.15C11.4436 15.15 14.6499 11.9426 14.6499 8.00009C14.6499 4.05731 11.4436 0.850199 7.50198 0.850199H7.49784V0.849976H7.49773Z" fill="white"/>
</svg>
