<svg width="14" height="15" viewBox="0 0 14 15" fill="none" xmlns="http://www.w3.org/2000/svg">
<path fill-rule="evenodd" clip-rule="evenodd" d="M11.4594 9.59358L11.4594 9.59354L11.4593 9.59351C11.3856 9.54058 11.3118 9.48766 11.2383 9.43454C10.39 8.82122 9.61408 8.77354 8.98107 9.7603C8.6256 10.3143 8.12798 10.3385 7.60766 10.0955C6.17324 9.42598 5.06559 8.39438 4.41677 6.89356C4.12976 6.22956 4.13354 5.63425 4.80506 5.16462C5.1606 4.91626 5.51879 4.62238 5.49015 4.07969C5.45275 3.37207 3.78374 1.00731 3.12464 0.75772C2.85191 0.654423 2.58031 0.661146 2.30284 0.75714C0.757377 1.29215 0.117245 2.60054 0.730293 4.14974C2.5592 8.7717 5.77776 11.9893 10.2083 13.9532C10.3925 14.0348 10.5915 14.0806 10.7409 14.115L10.7409 14.115L10.741 14.115C10.7965 14.1278 10.8451 14.139 10.8836 14.1499C11.8923 14.1603 13.0739 13.1599 13.4152 12.1671C13.704 11.3276 13.2025 10.933 12.7039 10.5408L12.7038 10.5407C12.6352 10.4867 12.5666 10.4328 12.5001 10.3777C12.1657 10.1005 11.8123 9.84686 11.4594 9.59358ZM7.53356 1.2316C10.7726 1.74433 12.2664 3.32977 12.6788 6.68801C12.6872 6.75557 12.6883 6.83056 12.6896 6.90662C12.6939 7.1798 12.6985 7.46684 13.0348 7.47357C13.4103 7.48096 13.3963 7.16093 13.3838 6.87434C13.3814 6.81804 13.379 6.76302 13.3796 6.71204C13.4176 3.5492 10.7385 0.617109 7.62721 0.509001C7.57203 0.517175 7.50298 0.512298 7.42923 0.50709C7.18928 0.490142 6.89963 0.469684 6.87645 0.883966C6.86026 1.17675 7.11998 1.19619 7.3619 1.21431C7.42168 1.21878 7.48038 1.22318 7.53356 1.2316ZM8.16584 2.15239C8.11891 2.14658 8.06971 2.1382 8.01975 2.1297C7.73806 2.08177 7.43203 2.02969 7.3702 2.40765C7.30863 2.78595 7.59764 2.82673 7.86622 2.86463C7.92924 2.87352 7.99114 2.88226 8.04713 2.89516C10.0476 3.3554 10.7442 4.10492 11.0735 6.14765C11.0831 6.2068 11.087 6.27249 11.0909 6.33919C11.1069 6.60828 11.1237 6.89372 11.5177 6.83216C11.7931 6.78898 11.7852 6.55146 11.778 6.33783C11.7757 6.26882 11.7735 6.2023 11.7809 6.14563C11.7971 4.18447 10.1646 2.39946 8.16584 2.15239ZM7.86097 4.01333C7.93741 3.78456 8.14152 3.76139 8.34947 3.7561C9.23624 3.73344 10.2754 4.82735 10.2607 5.77377C10.2698 6.03247 10.2429 6.30489 9.94562 6.34141C9.73107 6.36748 9.59012 6.18221 9.56798 5.95358C9.48599 5.11117 9.05411 4.61305 8.23348 4.47743C7.98767 4.43679 7.74617 4.35527 7.86097 4.01333Z" fill="white"/>
</svg>
