<svg width="32" height="32" viewBox="0 0 32 32" fill="none" xmlns="http://www.w3.org/2000/svg">
<path d="M14.8674 8.74495L15.7447 10.3481L16.6219 8.74498C17.0372 7.98607 17.7266 6.97557 18.7346 6.196L18.1228 5.40496L18.7346 6.196C19.7689 5.39604 20.9224 5 22.1875 5C25.723 5 28.4894 7.87909 28.4894 11.9201C28.4894 14.0514 27.6475 15.8868 26.0202 17.8504C24.3676 19.8445 21.9834 21.8806 18.9963 24.4262L18.9963 24.4262L18.9953 24.4271C18.0148 25.2626 16.9027 26.2104 15.7447 27.2218C14.5875 26.2111 13.4759 25.2638 12.4964 24.429L12.4937 24.4268L12.4937 24.4267C9.50626 21.8809 7.12189 19.8446 5.46922 17.8504C3.84189 15.8868 3 14.0514 3 11.9201C3 7.87909 5.7664 5 9.30187 5C10.567 5 11.7204 5.39604 12.7548 6.196L13.3666 5.40496L12.7548 6.196C13.7628 6.97558 14.4522 7.98604 14.8674 8.74495Z" stroke="#333333" stroke-width="2"/>
</svg>
