<svg width="22" height="15" viewBox="0 0 22 15" fill="none" xmlns="http://www.w3.org/2000/svg">
<path d="M20.4961 4.22266H16.8438V7.23047H22V5.72656C22 4.89731 21.3253 4.22266 20.4961 4.22266Z" fill="#333333"/>
<path d="M16.8438 9.16406C16.8438 10.7041 15.5908 11.957 14.0508 11.957H6.44531V13.0312C6.44531 13.8605 7.11996 14.5352 7.94922 14.5352H20.4961C21.3253 14.5352 22 13.8605 22 13.0312V8.51953H16.8438V9.16406Z" fill="#333333"/>
<path d="M15.5547 9.16406V1.85938C15.5547 1.03012 14.88 0.355469 14.0508 0.355469H1.50391C0.674652 0.355469 0 1.03012 0 1.85938V9.16406C0 9.99332 0.674652 10.668 1.50391 10.668H14.0508C14.88 10.668 15.5547 9.99332 15.5547 9.16406ZM4.21094 8.08984H2.57812V6.80078H4.21094V8.08984ZM7.13281 8.08984H5.5V6.80078H7.13281V8.08984ZM10.0547 8.08984H8.42188V6.80078H10.0547V8.08984ZM12.9766 8.08984H11.3438V6.80078H12.9766V8.08984ZM12.9766 4.22266H9.02344V2.93359H12.9766V4.22266Z" fill="#333333"/>
</svg>
