<svg width="58" height="58" viewBox="0 0 58 58" fill="none" xmlns="http://www.w3.org/2000/svg">
<g clip-path="url(#clip0)">
<rect x="1.28882" y="1.28889" width="5.15556" height="5.15556" fill="#E51A1E"/>
<rect x="51.5557" y="1.28889" width="5.15556" height="5.15556" fill="#E51A1E"/>
<rect x="51.5557" y="51.5556" width="5.15556" height="5.15556" fill="#E51A1E"/>
<rect x="1.28882" y="51.5556" width="5.15556" height="5.15556" fill="#E51A1E"/>
<path d="M56.584 7.15246C57.3648 7.15246 58 6.5173 58 5.73645V1.41602C58 0.635168 57.3648 0 56.584 0H52.2635C51.4828 0 50.8475 0.635168 50.8475 1.41602V2.72657H7.15246V1.41602C7.15246 0.635168 6.5173 0 5.73645 0H1.41602C0.635168 0 0 0.635168 0 1.41602V5.73645C0 6.5173 0.635168 7.15246 1.41602 7.15246H2.72657V21.082C2.72657 21.5513 3.10696 21.9316 3.57618 21.9316C4.0455 21.9316 4.42579 21.5513 4.42579 21.082V7.15246H5.73634C6.51718 7.15246 7.15235 6.5173 7.15235 5.73645V4.42579H50.8475V5.73634C50.8475 6.51718 51.4828 7.15235 52.2635 7.15235H53.5741V50.8475H52.2635C51.4828 50.8475 50.8475 51.4828 50.8475 52.2635V53.5741H36.918C36.4487 53.5741 36.0684 53.9544 36.0684 54.4237C36.0684 54.893 36.4487 55.2733 36.918 55.2733H50.8475V56.584C50.8475 57.3648 51.4828 58 52.2635 58H56.584C57.3648 58 58 57.3648 58 56.584V52.2635C58 51.4828 57.3648 50.8475 56.584 50.8475H55.2734V7.15246H56.584ZM5.45325 5.45325H1.69922V1.69922H5.45325V5.45325ZM56.3008 56.3008H52.5468V52.5468H56.3008V56.3008ZM52.5468 1.69922H56.3008V5.45325H52.5468V1.69922Z" fill="#333333"/>
<path d="M33.2153 53.5742H7.15246V52.2637C7.15246 51.4829 6.5173 50.8477 5.73645 50.8477H4.42579V24.7846C4.42579 24.3153 4.0455 23.935 3.57618 23.935C3.10696 23.935 2.72657 24.3153 2.72657 24.7846V50.8475H1.41602C0.635168 50.8475 0 51.4828 0 52.2636V56.584C0 57.3648 0.635168 58 1.41602 58H5.73645C6.5173 58 7.15246 57.3648 7.15246 56.584V55.2734H33.2153C33.6846 55.2734 34.0649 54.8932 34.0649 54.4238C34.0649 53.9545 33.6845 53.5742 33.2153 53.5742ZM5.45325 56.3008H1.69922V52.5468H5.45325V56.3008Z" fill="#333333"/>
<path d="M26.1831 10.4186C25.9433 9.79792 25.3816 9.39238 24.7172 9.36043L10.4038 8.66851C9.93671 8.64574 9.48166 8.82212 9.1519 9.152C8.82213 9.48176 8.64598 9.93794 8.66841 10.4039L9.36022 24.7172C9.39217 25.3817 9.7976 25.9433 10.4183 26.183C11.039 26.4231 11.7167 26.2796 12.1873 25.809L15.1776 22.8186L35.1812 42.8222L32.1909 45.8124C31.7205 46.283 31.5772 46.9609 31.8169 47.5814C32.0566 48.202 32.6182 48.6075 33.2826 48.6395L47.596 49.3313C47.6225 49.3326 47.6492 49.3332 47.6756 49.3332C48.1134 49.3332 48.537 49.1589 48.8479 48.8479C49.1777 48.5181 49.3538 48.062 49.3314 47.596L48.6397 33.2826C48.6076 32.6181 48.2021 32.0564 47.5814 31.8167C46.9606 31.577 46.283 31.7205 45.8125 32.1909L42.8224 35.1812L31.8249 24.1836C31.493 23.8519 30.9551 23.8519 30.6233 24.1836C30.2915 24.5155 30.2915 25.0534 30.6233 25.3852L42.2216 36.9835C42.5536 37.3152 43.0914 37.3152 43.4232 36.9835L46.9471 33.4596L47.6321 47.6318L33.4599 46.9467L36.9837 43.423C37.3155 43.0911 37.3155 42.5532 36.9837 42.2214L15.7786 21.0163C15.4468 20.6847 14.909 20.6845 14.577 21.0163L11.0533 24.5401L10.3679 10.368L24.5401 11.0531L21.0163 14.5768C20.857 14.7362 20.7675 14.9522 20.7675 15.1777C20.7675 15.403 20.857 15.619 21.0163 15.7785L27.9547 22.7167C28.2866 23.0484 28.8244 23.0484 29.1562 22.7167C29.488 22.3848 29.488 21.847 29.1562 21.5152L22.8186 15.1778L25.8088 12.1875C26.2792 11.7171 26.4226 11.0393 26.1831 10.4186Z" fill="#333333"/>
<path d="M42.7011 31.6872C42.9185 31.6872 43.136 31.6042 43.302 31.4384C43.6338 31.1065 43.6338 30.5686 43.302 30.2368L27.7634 14.6981C27.4315 14.3664 26.8936 14.3664 26.5618 14.6981C26.23 15.0301 26.23 15.5679 26.5618 15.8997L42.1004 31.4383C42.2662 31.6041 42.4837 31.6872 42.7011 31.6872Z" fill="#333333"/>
<path d="M14.6981 26.5617C14.3663 26.8936 14.3663 27.4315 14.6981 27.7633L30.2366 43.3019C30.4026 43.4677 30.6201 43.5506 30.8375 43.5506C31.0549 43.5506 31.2724 43.4677 31.4383 43.3019C31.7701 42.9699 31.7701 42.4321 31.4383 42.1003L15.8996 26.5617C15.5678 26.23 15.03 26.23 14.6981 26.5617Z" fill="#333333"/>
</g>
<defs>
<clipPath id="clip0">
<rect width="58" height="58" fill="white"/>
</clipPath>
</defs>
</svg>
