<svg width="14" height="12" viewBox="0 0 14 12" fill="none" xmlns="http://www.w3.org/2000/svg">
<path fill-rule="evenodd" clip-rule="evenodd" d="M7.02474 9.45983C6.52545 9.95212 6.03156 10.4357 5.54191 10.9237C5.37072 11.0943 5.17814 11.1885 4.93259 11.1751C4.76535 11.166 4.67147 11.0908 4.62022 10.9295C4.24551 9.75024 3.86468 8.57295 3.49166 7.39314C3.45531 7.27826 3.40057 7.22307 3.28658 7.18775C2.40303 6.91403 1.52125 6.63437 0.640595 6.35128C0.510203 6.30936 0.378181 6.25548 0.265049 6.17942C0.0681473 6.0471 0.0400471 5.83669 0.219856 5.68434C0.385996 5.54355 0.582964 5.42568 0.784754 5.34481C1.90118 4.89747 3.0233 4.46463 4.14338 4.02663C6.83778 2.97302 9.53225 1.9195 12.2265 0.865377C12.743 0.663294 13.1443 0.943555 13.0959 1.50785C13.064 1.87984 12.9684 2.24697 12.8917 2.61421C12.2947 5.47259 11.6953 8.33046 11.0967 11.1885C11.0955 11.194 11.0952 11.1997 11.0939 11.2051C10.9475 11.859 10.4787 12.0377 9.94408 11.6391C9.01604 10.9472 8.09032 10.2522 7.16348 9.55863C7.11965 9.52585 7.07432 9.49508 7.02474 9.45983ZM4.97545 10.36C4.98988 10.2929 4.99989 10.2619 5.00282 10.2303C5.06171 9.58755 5.12327 8.94501 5.17541 8.30166C5.18702 8.15888 5.22905 8.05344 5.33806 7.95431C6.74447 6.67525 8.14652 5.39128 9.54967 4.10859C9.94883 3.74371 10.3496 3.38066 10.7449 3.01154C10.7864 2.97279 10.7954 2.89831 10.8195 2.84042C10.7585 2.8229 10.69 2.77849 10.6379 2.79321C10.5174 2.82725 10.396 2.8758 10.2903 2.94313C8.20405 4.27263 6.12051 5.60641 4.03421 6.93577C3.92806 7.0034 3.89776 7.05907 3.94033 7.18863C4.27068 8.19406 4.59146 9.20273 4.91569 10.2102C4.92839 10.2497 4.94632 10.2874 4.97545 10.36Z" fill="white"/>
</svg>
