<svg width="25" height="24" viewBox="0 0 25 24" fill="none" xmlns="http://www.w3.org/2000/svg">
<g clip-path="url(#clip0_1795:22328)">
<path d="M20.6094 2.71875C20.6094 1.81403 19.8735 1.07812 18.9688 1.07812H6.03125C5.12653 1.07812 4.39062 1.81403 4.39062 2.71875V8.10938H20.6094V2.71875ZM17.1875 6.70312H7.8125C7.42413 6.70312 7.10938 6.38837 7.10938 6C7.10938 5.61163 7.42413 5.29688 7.8125 5.29688H17.1875C17.5759 5.29688 17.8906 5.61163 17.8906 6C17.8906 6.38837 17.5759 6.70312 17.1875 6.70312ZM17.1875 3.89062H7.8125C7.42413 3.89062 7.10938 3.57587 7.10938 3.1875C7.10938 2.79913 7.42413 2.48438 7.8125 2.48438H17.1875C17.5759 2.48438 17.8906 2.79913 17.8906 3.1875C17.8906 3.57587 17.5759 3.89062 17.1875 3.89062Z" fill="#232628"/>
<path d="M22.8594 9.51562H2.14062C1.2359 9.51562 0.5 10.2515 0.5 11.1562V21.2812C0.5 22.186 1.2359 22.9219 2.14062 22.9219H4.39062V16.5938C4.39062 16.2054 4.70538 15.8906 5.09375 15.8906H19.9062C20.2946 15.8906 20.6094 16.2054 20.6094 16.5938V22.9219H22.8594C23.7641 22.9219 24.5 22.186 24.5 21.2812V11.1562C24.5 10.2515 23.7641 9.51562 22.8594 9.51562ZM20.75 13.9688C20.3616 13.9688 20.0469 13.654 20.0469 13.2656C20.0469 12.8773 20.3616 12.5625 20.75 12.5625C21.1384 12.5625 21.4531 12.8773 21.4531 13.2656C21.4531 13.654 21.1384 13.9688 20.75 13.9688Z" fill="#232628"/>
<path d="M5.79688 17.2969H19.2031V22.9219H5.79688V17.2969Z" fill="#232628"/>
</g>
<defs>
<clipPath id="clip0_1795:22328">
<rect width="24" height="24" fill="white" transform="translate(0.5)"/>
</clipPath>
</defs>
</svg>
