<svg width="73" height="24" viewBox="0 0 73 24" fill="none" xmlns="http://www.w3.org/2000/svg">
<path d="M65.9929 15.4436C65.3599 12.5496 64.8061 9.65569 64.1731 6.76174C64.1731 6.72154 64.094 6.72154 64.094 6.72154C63.0654 9.5753 62.0368 12.4693 61.0083 15.4034H65.9929V15.4436ZM51.9884 23.5627C52.456 22.4373 52.8983 21.3923 53.3493 20.2668C55.8416 14.2378 58.326 8.12833 60.8658 2.09926C61.2614 1.03815 62.1318 0.451316 63.2395 0.435238C64.8219 0.403727 66.4043 0.433631 67.9868 0.419965C68.2241 0.417553 68.3033 0.51643 68.3824 0.761612C69.2527 4.96588 70.1231 9.2023 70.9934 13.3825C71.6264 16.6783 72.2593 19.9742 72.9714 23.2701C73.0505 23.5113 72.9714 23.6721 72.6549 23.6721H67.9868C67.7494 23.6721 67.6703 23.5917 67.5912 23.2701C67.4329 22.3859 67.1956 21.4212 67.0373 20.5369C66.9582 20.2958 66.8791 20.135 66.6417 20.135C64.3472 20.2154 61.9735 20.2154 59.6632 20.135C59.41 20.135 59.2992 20.2958 59.2122 20.4566C58.8878 21.4212 58.5317 22.3859 58.1994 23.3505C58.1361 23.5917 58.0491 23.6721 57.8355 23.6721H52.2258C52.1648 23.6721 52.1055 23.6721 51.9868 23.5917L51.9884 23.5627Z" fill="white"/>
<path d="M0.00553851 1.03839C0.0527741 0.81572 0.0941546 0.62279 0.138463 0.412978C0.259519 0.406306 0.367124 0.395856 0.474729 0.395856C3.67124 0.395856 6.85984 0.393927 10.0484 0.399152C11.5517 0.401805 12.5803 1.30753 12.8968 2.85901C13.688 7.20798 14.4792 11.6213 15.3496 15.9622C15.3496 15.9622 15.3496 16.0426 15.4287 16.123C15.5078 15.9622 15.5869 15.8818 15.5869 15.721C17.565 10.737 19.4639 5.75296 21.4419 0.768935C21.5211 0.530987 21.6002 0.428895 21.9167 0.430503C23.8156 0.444169 25.7145 0.437657 27.6925 0.437657C27.6134 0.583159 27.6134 0.694094 27.5343 0.800205C24.4485 8.31644 21.3628 15.8327 18.2771 23.3891C18.1979 23.6303 18.1188 23.7107 17.8023 23.7107H12.2638C12.0265 23.7107 11.8682 23.6303 11.8682 23.3891C10.2858 17.2797 8.70337 11.1702 7.20006 5.06075C6.97061 4.10413 6.51961 3.42888 5.67301 2.99479C4.09058 2.19895 2.41321 1.7327 0.720006 1.29057C0.495301 1.22626 0.270596 1.17401 0 1.10568" fill="white"/>
<path d="M35.3567 22.7918C35.7151 21.1036 36.0609 19.4155 36.4169 17.7274C36.9708 17.9685 37.4851 18.2097 38.0073 18.4508C39.835 19.0939 41.7181 19.4155 43.6803 19.0136C44.2341 18.9332 44.788 18.692 45.2627 18.2901C46.2122 17.7274 46.2913 16.5215 45.5792 15.7177C45.1045 15.2353 44.6297 14.9138 44.0759 14.5922C43.2847 14.1099 42.4539 13.708 41.6785 13.2257C41.1009 12.9041 40.5312 12.5022 40.0169 12.1002C37.762 10.1709 37.1765 7.59049 38.395 4.87339C39.3207 2.80743 40.9901 1.5775 43.0077 0.797743C44.7089 0.140977 46.5286 -0.0543651 48.3484 0.0123566C49.8518 0.0662162 51.3551 0.378924 52.8584 0.864465C52.9375 0.89662 53.0166 0.928775 53.0957 0.968968C53.1749 0.985046 53.1749 1.0172 53.254 1.05739C52.8584 2.63299 52.5419 4.22466 52.2254 5.84849C51.8298 5.70379 51.5133 5.5591 51.1177 5.43852C49.4561 4.85169 47.6364 4.59445 45.8957 4.95619C45.2627 5.09285 44.6297 5.37421 44.2341 5.92084C43.7594 6.53179 43.7594 7.23116 44.2341 7.79387C44.5506 8.16365 44.9462 8.4852 45.4209 8.72637C46.2122 9.20869 47.0034 9.61063 47.7946 10.093C48.4276 10.4949 49.0605 10.8164 49.6144 11.2988C52.0672 13.0673 52.7001 15.5593 51.8298 18.3729C51.0386 20.7041 49.377 22.1511 47.1616 23.0353C45.5792 23.7588 43.9176 24 42.1611 24C40.0882 24 38.0706 23.7588 36.1004 23.1157C35.8559 23.0353 35.6217 22.8746 35.3567 22.7942" fill="white"/>
<path d="M36.1636 0.407191C35.8471 1.99886 35.5306 3.53427 35.2141 5.06163C33.9482 10.946 32.6823 16.8786 31.4954 22.7469C31.2581 23.6312 31.2581 23.6312 30.3877 23.6312H25.8778H25.4031C25.5613 23.1488 25.6404 22.6665 25.7196 22.1842C27.1438 15.2708 28.6471 8.27713 30.0712 1.3638C30.3086 0.391113 30.3086 0.391113 31.2581 0.391113C32.6823 0.391113 34.1856 0.391917 35.6889 0.392721H36.1636V0.407191Z" fill="white"/>
</svg>
