<svg width="86" height="32" viewBox="0 0 86 32" fill="none" xmlns="http://www.w3.org/2000/svg">
<path fill-rule="evenodd" clip-rule="evenodd" d="M21.0407 27.2288C23.7186 27.2288 26.6249 28.1368 29.8425 30.9526C30.1643 31.235 30.5928 30.8845 30.3126 30.5341C27.1513 26.5899 24.2272 25.8387 21.3106 25.2042C17.743 24.4278 15.9088 22.4447 14.6291 20.2678C14.3756 19.8345 14.2614 19.9099 14.2377 20.4674C14.2095 21.1477 14.257 22.0498 14.4127 22.9371C14.2673 22.9431 14.1235 22.9401 13.9782 22.9401C8.87446 22.9401 4.7375 18.8525 4.7375 13.8111C4.7375 8.76817 8.87446 4.6806 13.9782 4.6806C19.0805 4.6806 23.2174 8.76817 23.2174 13.8111C23.2174 14.169 23.1996 14.5239 23.1596 14.8729C22.4849 14.7516 21.1578 14.7398 20.2237 14.8182C19.8738 14.8478 19.9242 15.0104 20.1881 15.0563C23.2426 15.602 25.3423 17.4727 25.8227 20.8667C25.8331 20.9451 25.9354 20.9673 25.9769 20.9007C27.2746 18.7627 27.9588 16.3104 27.9549 13.8111C27.9549 6.18164 21.6976 0 13.9782 0C6.25883 0 0 6.18312 0 13.8111C0 21.4391 6.25735 27.6237 13.9782 27.6237C16.0244 27.6237 18.0573 27.2288 21.0392 27.2288H21.0407ZM22.0787 22.2155C22.7014 22.7331 22.8912 23.3512 22.562 23.7875C22.3797 24.0271 22.0831 24.1572 21.7272 24.1572C21.3788 24.1572 21.0229 24.03 20.7768 23.8171C20.2103 23.329 20.0443 22.5378 20.4135 22.0868C20.5573 21.9123 20.7931 21.8147 21.0733 21.8147C21.4144 21.8147 21.7717 21.9567 22.0801 22.214L22.0787 22.2155ZM24.9493 20.8948C25.0413 21.5012 24.847 21.7526 24.6528 21.7526C24.4407 21.7526 24.1738 21.5056 23.861 21.022C23.5496 20.5443 23.4369 19.9957 23.5911 19.7191C23.6919 19.5358 23.904 19.4559 24.1723 19.5565C24.6913 19.7487 24.8945 20.5325 24.9493 20.8948V20.8948ZM44.3249 17.733L42.7131 15.8179C42.675 15.7728 42.6507 15.7177 42.6431 15.6592C42.6355 15.6008 42.6449 15.5413 42.6702 15.488C42.6955 15.4347 42.7357 15.3898 42.7859 15.3586C42.836 15.3274 42.8942 15.3113 42.9533 15.3121H46.3251C46.4853 14.8389 46.5772 14.3361 46.5772 13.8111C46.5772 11.4124 44.7682 9.34493 42.289 9.34493C39.8083 9.34493 38.0008 11.4124 38.0008 13.8111C38.0008 16.2113 39.8098 18.2492 42.289 18.2492C43.0408 18.2492 43.7288 18.0599 44.3249 17.7315V17.733ZM51.6172 20.9688C51.7922 21.161 51.6469 21.4686 51.3844 21.4686H47.7056C47.6316 21.4688 47.5584 21.4527 47.4913 21.4215C47.4241 21.3903 47.3647 21.3448 47.3171 21.2882L46.6944 20.5488C45.3804 21.391 43.8509 21.8377 42.289 21.8354C37.811 21.8354 34.1678 18.2373 34.1678 13.8111C34.1678 9.38633 37.811 5.78679 42.289 5.78679C46.767 5.78679 50.4102 9.38633 50.4102 13.8111C50.4102 15.4083 49.9357 16.893 49.1202 18.1442L51.6172 20.9688V20.9688ZM85.6011 6.1565H82.5985C82.3776 6.1565 82.1981 6.33396 82.1981 6.55136V21.0738C82.1981 21.2897 82.3776 21.4672 82.5985 21.4672H85.6011C85.8206 21.4672 86 21.2897 86 21.0723V6.55136C85.9996 6.49931 85.9889 6.44785 85.9686 6.39991C85.9483 6.35197 85.9187 6.3085 85.8815 6.27197C85.8443 6.23544 85.8003 6.20657 85.7519 6.18701C85.7036 6.16746 85.6518 6.15759 85.5996 6.15798L85.6011 6.1565ZM80.5478 6.1565H77.1893C77.1043 6.15593 77.0214 6.18246 76.9525 6.2322C76.8837 6.28195 76.8326 6.35232 76.8067 6.43305L74.1481 15.0149L71.227 6.4227C71.1996 6.34462 71.1484 6.27702 71.0806 6.22931C71.0129 6.1816 70.9319 6.15615 70.8489 6.1565H68.5046C68.4215 6.15606 68.3402 6.18145 68.2722 6.22915C68.2042 6.27686 68.1528 6.3445 68.125 6.4227L65.2039 15.0149L62.5453 6.43305C62.5195 6.35256 62.4686 6.28236 62.4001 6.23264C62.3316 6.18292 62.249 6.15625 62.1642 6.1565H58.8043C58.7411 6.15627 58.6788 6.17087 58.6224 6.19914C58.566 6.2274 58.517 6.26852 58.4795 6.31917C58.4428 6.36921 58.4188 6.42734 58.4095 6.48863C58.4002 6.54991 58.4059 6.61253 58.4261 6.67114L63.3594 21.201C63.3871 21.2792 63.4385 21.3468 63.5066 21.3945C63.5746 21.4422 63.6558 21.4676 63.739 21.4672H66.405C66.4879 21.4673 66.5688 21.4418 66.6365 21.3941C66.7043 21.3464 66.7555 21.2789 66.7831 21.201L69.676 12.7123L72.5689 21.201C72.5967 21.2792 72.6481 21.3468 72.7161 21.3945C72.7841 21.4422 72.8654 21.4676 72.9485 21.4672H75.6146C75.6975 21.4673 75.7784 21.4418 75.8461 21.3941C75.9138 21.3464 75.9651 21.2789 75.9927 21.201L80.9274 6.67114C80.9474 6.61241 80.9528 6.54973 80.9433 6.48844C80.9337 6.42715 80.9095 6.36908 80.8725 6.31917C80.835 6.26852 80.7861 6.2274 80.7297 6.19914C80.6732 6.17087 80.6109 6.15627 80.5478 6.1565V6.1565ZM57.1539 6.55136V21.0738C57.1539 21.2897 56.976 21.4672 56.7536 21.4672H53.7524C53.7001 21.4675 53.6482 21.4576 53.5998 21.438C53.5513 21.4183 53.5072 21.3893 53.47 21.3526C53.4328 21.316 53.4033 21.2723 53.383 21.2242C53.3628 21.1761 53.3522 21.1245 53.3521 21.0723V6.55136C53.3521 6.33396 53.5315 6.15798 53.7524 6.15798H56.755C56.9745 6.15798 57.1539 6.33544 57.1539 6.55284V6.55136Z" fill="white"/>
</svg>
