<svg width="16" height="16" viewBox="0 0 16 16" fill="none" xmlns="http://www.w3.org/2000/svg">
<g opacity="0.32" clip-path="url(#clip0_1612:82459)">
<path d="M8.00112 0C5.71539 0 3.84692 1.86847 3.84692 4.1542C3.84692 6.43993 5.71539 8.3084 8.00112 8.3084C10.2868 8.3084 12.1553 6.43993 12.1553 4.1542C12.1553 1.86847 10.2868 0 8.00112 0Z" fill="#333333"/>
<path d="M15.1304 11.6281C15.0216 11.356 14.8765 11.1021 14.7132 10.8662C13.8787 9.63266 12.5908 8.81634 11.1395 8.61679C10.9581 8.59866 10.7586 8.63491 10.6135 8.74377C9.85155 9.30613 8.94454 9.59637 8.0012 9.59637C7.05787 9.59637 6.15086 9.30613 5.38895 8.74377C5.24381 8.63491 5.04426 8.5805 4.86287 8.61679C3.41162 8.81634 2.10551 9.63266 1.28919 10.8662C1.12593 11.1021 0.980788 11.3742 0.871968 11.6281C0.817558 11.737 0.835683 11.864 0.890093 11.9728C1.03523 12.2268 1.21662 12.4808 1.37988 12.6985C1.63384 13.0431 1.90596 13.3515 2.21436 13.6418C2.46832 13.8957 2.75857 14.1316 3.04884 14.3674C4.48193 15.4377 6.2053 16 7.98308 16C9.76086 16 11.4842 15.4377 12.9173 14.3674C13.2076 14.1497 13.4978 13.8957 13.7518 13.6418C14.042 13.3515 14.3323 13.0431 14.5863 12.6985C14.7677 12.4626 14.931 12.2268 15.0761 11.9728C15.1667 11.864 15.1848 11.737 15.1304 11.6281Z" fill="#333333"/>
</g>
<defs>
<clipPath id="clip0_1612:82459">
<rect width="16" height="16" fill="white"/>
</clipPath>
</defs>
</svg>
