<svg width="40" height="40" viewBox="0 0 40 40" fill="none" xmlns="http://www.w3.org/2000/svg">
<path fill-rule="evenodd" clip-rule="evenodd" d="M16.6485 24.8403L16.6475 15.2209L25.9419 20.0472L16.6485 24.8403ZM37.056 13.5542C37.056 13.5542 36.7195 11.1951 35.6886 10.1562C34.3803 8.7921 32.914 8.78568 32.2421 8.70651C27.4283 8.35986 20.2075 8.35986 20.2075 8.35986H20.1925C20.1925 8.35986 12.9717 8.35986 8.15785 8.70651C7.4849 8.78568 6.01968 8.7921 4.71033 10.1562C3.6794 11.1951 3.344 13.5542 3.344 13.5542C3.344 13.5542 3 16.3252 3 19.0951V21.6928C3 24.4638 3.344 27.2338 3.344 27.2338C3.344 27.2338 3.6794 29.5929 4.71033 30.6318C6.01968 31.9959 7.7386 31.9531 8.504 32.0954C11.256 32.3586 20.2 32.4399 20.2 32.4399C20.2 32.4399 27.4283 32.4292 32.2421 32.0825C32.914 32.0023 34.3803 31.9959 35.6886 30.6318C36.7195 29.5929 37.056 27.2338 37.056 27.2338C37.056 27.2338 37.4 24.4638 37.4 21.6928V19.0951C37.4 16.3252 37.056 13.5542 37.056 13.5542Z" fill="white"/>
</svg>
