<svg width="40" height="40" viewBox="0 0 40 40" fill="none" xmlns="http://www.w3.org/2000/svg">
<path fill-rule="evenodd" clip-rule="evenodd" d="M27.1753 11.5979C27.1753 12.6836 28.0574 13.5639 29.1457 13.5639C30.2339 13.5639 31.116 12.6836 31.116 11.5979C31.116 10.5121 30.2339 9.63184 29.1457 9.63184C28.0574 9.63184 27.1753 10.5121 27.1753 11.5979ZM14.9052 20.3435C14.9052 17.3274 17.3557 14.8823 20.3785 14.8823C23.4013 14.8823 25.8518 17.3274 25.8518 20.3435C25.8518 23.3596 23.4013 25.8047 20.3785 25.8047C17.3557 25.8047 14.9052 23.3596 14.9052 20.3435ZM20.3791 28.7565C15.7223 28.7565 11.9473 24.9897 11.9473 20.3433C11.9473 15.6968 15.7223 11.9302 20.3791 11.9302C25.0359 11.9302 28.8109 15.6968 28.8109 20.3433C28.8109 24.9897 25.0359 28.7565 20.3791 28.7565ZM33.7047 7.09262C33.044 6.43188 32.415 6.02267 31.5337 5.68017C30.8682 5.42154 29.8685 5.11398 28.0274 5.02998C26.0364 4.93915 25.4392 4.91992 20.3974 4.91992C15.3557 4.91992 14.7585 4.93915 12.7674 5.02998C10.9264 5.11398 9.92664 5.42154 9.26128 5.68017C8.37988 6.02267 7.75091 6.43188 7.09017 7.09262C6.42944 7.75336 6.02023 8.3824 5.67766 9.26373C5.4191 9.92908 5.11154 10.9289 5.02753 12.7699C4.93671 14.7609 4.91748 15.3581 4.91748 20.3999C4.91748 25.4417 4.93671 26.0388 5.02753 28.03C5.11154 29.8709 5.4191 30.8708 5.67766 31.5361C6.02023 32.4174 6.42944 33.0465 7.09017 33.7072C7.75091 34.368 8.37988 34.7772 9.26128 35.1197C9.92664 35.3782 10.9264 35.6859 12.7674 35.7699C14.7582 35.8607 15.3553 35.8799 20.3974 35.8799C25.4395 35.8799 26.0367 35.8607 28.0274 35.7699C29.8685 35.6859 30.8682 35.3782 31.5337 35.1197C32.415 34.7772 33.044 34.368 33.7048 33.7072C34.3655 33.0465 34.7747 32.4174 35.1172 31.5361C35.3758 30.8708 35.6834 29.8709 35.7674 28.03C35.8583 26.0388 35.8775 25.4417 35.8775 20.3999C35.8775 15.3581 35.8583 14.7609 35.7674 12.7699C35.6834 10.9289 35.3758 9.92908 35.1172 9.26373C34.7747 8.3824 34.3655 7.75336 33.7047 7.09262Z" fill="white"/>
</svg>
