<svg width="16" height="16" viewBox="0 0 16 16" fill="none" xmlns="http://www.w3.org/2000/svg">
<g opacity="0.32">
<path d="M9.8572 6.76896V3.4658C9.8572 3.18569 9.63013 2.95858 9.34998 2.95858H4.91024V1.32324C4.91024 0.875709 4.37012 0.647332 4.04914 0.959876L0.153272 4.75399C-0.0513283 4.95323 -0.0508528 5.28194 0.153272 5.48074L4.04914 9.27492C4.3697 9.58708 4.91024 9.35953 4.91024 8.91155V7.27621H9.34998C9.63013 7.27618 9.8572 7.04907 9.8572 6.76896Z" fill="#333333"/>
<path d="M15.8467 10.5198L11.9509 6.72564C11.6303 6.41347 11.0898 6.64103 11.0898 7.089V8.72435H6.65004C6.3699 8.72435 6.14282 8.95145 6.14282 9.23157V12.5347C6.14282 12.8148 6.3699 13.0419 6.65004 13.0419H11.0898V14.6773C11.0898 15.1262 11.6318 15.3514 11.9509 15.0407L15.8468 11.2465C16.0514 11.0473 16.0509 10.7186 15.8467 10.5198Z" fill="#333333"/>
</g>
</svg>
