<svg width="58" height="57" viewBox="0 0 58 57" fill="none" xmlns="http://www.w3.org/2000/svg">
<rect x="1.28894" y="23.3067" width="55.4222" height="5.17926" fill="#E51A1E"/>
<path d="M54.252 37.9846C53.7825 37.9846 53.4024 38.3586 53.4024 38.8196V52.1311H35.8898V36.329C35.8898 35.2545 35.0004 34.3804 33.9074 34.3804H24.0926C22.9997 34.3804 22.1102 35.2549 22.1102 36.329V52.1311H4.59766V38.8196C4.59766 38.3586 4.21754 37.9846 3.74805 37.9846C3.27855 37.9846 2.89844 38.3586 2.89844 38.8196V52.5208C2.89844 53.2266 3.48299 53.8011 4.20117 53.8011H53.7989C54.5171 53.8011 55.1016 53.2266 55.1016 52.5208V38.8196C55.1016 38.3586 54.7215 37.9846 54.252 37.9846ZM23.8094 52.1311V36.329C23.8094 36.1755 23.9364 36.0503 24.0926 36.0503H33.9074C34.0636 36.0503 34.1906 36.1755 34.1906 36.329V52.1311H23.8094Z" fill="#333333"/>
<path d="M50.2159 48.8322C51.2133 48.8322 52.0249 48.0346 52.0249 47.0544V37.9429C52.0249 36.9627 51.2133 36.1656 50.2159 36.1656H39.7015C38.7041 36.1656 37.8926 36.9627 37.8926 37.9429V47.0544C37.8926 48.0346 38.7041 48.8322 39.7015 48.8322H50.2159ZM39.5918 47.0544V37.9429C39.5918 37.8838 39.6409 37.8355 39.7015 37.8355H50.2159C50.2765 37.8355 50.3256 37.8838 50.3256 37.9429V47.0544C50.3256 47.114 50.2765 47.1623 50.2159 47.1623H39.7015C39.6409 47.1623 39.5918 47.114 39.5918 47.0544Z" fill="#333333"/>
<path d="M18.2984 48.8322C19.2958 48.8322 20.1074 48.0346 20.1074 47.0544V37.9429C20.1074 36.9627 19.2958 36.1656 18.2984 36.1656H7.78406C6.78665 36.1656 5.9751 36.9627 5.9751 37.9429V47.0544C5.9751 48.0346 6.78665 48.8322 7.78406 48.8322H18.2984ZM7.67432 47.0544V37.9429C7.67432 37.8838 7.72343 37.8355 7.78406 37.8355H18.2984C18.359 37.8355 18.4082 37.8838 18.4082 37.9429V47.0544C18.4082 47.114 18.359 47.1623 18.2984 47.1623H7.78406C7.72343 47.1623 7.67432 47.114 7.67432 47.0544Z" fill="#333333"/>
<path d="M55.5034 15.5381C55.5034 14.6462 56.2419 13.9208 57.1504 13.9208C57.6199 13.9208 58 13.5468 58 13.0858V11.0428C58 10.5818 57.6199 10.2078 57.1504 10.2078H43.1252C42.6557 10.2078 42.2756 10.5818 42.2756 11.0428C42.2756 11.5042 42.6557 11.8778 43.1252 11.8778H56.3008V12.3583C55.1374 12.6584 54.2192 13.5603 53.9135 14.7031H40.5476V7.29112C40.5476 5.05108 38.6931 3.22852 36.4137 3.22852H21.5867C19.3069 3.22852 17.4528 5.05108 17.4528 7.29112V10.2078H0.849609C0.380112 10.2078 0 10.5818 0 11.0428V13.0858C0 13.5468 0.380112 13.9208 0.849609 13.9208C1.75807 13.9208 2.49661 14.6462 2.49661 15.5381C2.49661 15.8395 2.65901 16.1034 2.90239 16.2504V21.9534H1.37354C0.654907 21.9534 0.0703583 22.5279 0.0703583 23.2337V27.7803C0.0703583 28.4861 0.654907 29.0606 1.37354 29.0606H2.90239V35.4858C2.90239 35.9468 3.2825 36.3208 3.752 36.3208C4.2215 36.3208 4.60161 35.9468 4.60161 35.4858V29.0606H53.4688V35.4871C53.4688 35.9481 53.8489 36.3221 54.3184 36.3221C54.7874 36.3221 55.168 35.9481 55.168 35.4871V29.0606H56.6968C57.4155 29.0606 58 28.4861 58 27.7803V23.2337C58 22.5279 57.4155 21.9534 56.6968 21.9534H55.168V16.203C55.3715 16.0504 55.5034 15.8095 55.5034 15.5381ZM19.1516 7.29112C19.1516 5.97171 20.2442 4.89844 21.5863 4.89844H36.4133C37.7558 4.89844 38.8479 5.97171 38.8479 7.29112V16.4013C38.8479 17.7207 37.7558 18.794 36.4133 18.794H21.5867C20.2442 18.794 19.1521 17.7207 19.1521 16.4013V7.29112H19.1516ZM56.3008 27.3906H1.76958V23.6233H56.3008V27.3906ZM4.60161 21.9534V16.3731H14.9044C15.3739 16.3731 15.7541 15.9995 15.7541 15.5381C15.7541 15.0771 15.3739 14.7031 14.9044 14.7031H4.08653C3.78076 13.5603 2.86256 12.6584 1.69922 12.3583V11.8778H17.4524V16.4018C17.4524 18.6418 19.3069 20.4644 21.5863 20.4644H36.4133C38.6931 20.4644 40.5472 18.6418 40.5472 16.4018V16.3735H53.4683V21.9534H4.60161Z" fill="#333333"/>
<path d="M25.7148 43.2558H25.0352C24.5657 43.2558 24.1855 43.6298 24.1855 44.0907C24.1855 44.5517 24.5657 44.9257 25.0352 44.9257H25.7148C26.1843 44.9257 26.5645 44.5517 26.5645 44.0907C26.5645 43.6298 26.1843 43.2558 25.7148 43.2558Z" fill="#333333"/>
<path d="M22.9142 8.23088H23.9554L25.0237 13.2493C25.2307 14.2217 26.1149 14.928 27.126 14.928H32.171C33.0591 14.928 33.8667 14.3792 34.1804 13.5629L35.8464 9.22849C36.0049 8.81579 35.9473 8.35308 35.6924 7.99083C35.4376 7.62814 35.0172 7.41158 34.5689 7.41158H27.4335C26.9645 7.41158 26.5839 7.78513 26.5839 8.24654C26.5839 8.70751 26.9645 9.0815 27.4335 9.0815H34.0866L32.5909 12.9728C32.5254 13.1432 32.3568 13.258 32.1714 13.258H27.126C26.9149 13.258 26.7304 13.1102 26.687 12.9075L25.6144 7.8695C25.4529 7.11108 24.7639 6.56096 23.9754 6.56096H22.9147C22.4452 6.56096 22.0651 6.93452 22.0651 7.39592C22.0651 7.85689 22.4452 8.23088 22.9142 8.23088Z" fill="#333333"/>
<path d="M27.2725 15.6285H27.0459C26.5764 15.6285 26.1963 16.0021 26.1963 16.4635C26.1963 16.9245 26.5764 17.2985 27.0459 17.2985H27.2725C27.742 17.2985 28.1221 16.9245 28.1221 16.4635C28.1221 16.0021 27.742 15.6285 27.2725 15.6285Z" fill="#333333"/>
<path d="M30.9541 15.6285H30.7275C30.258 15.6285 29.8779 16.0021 29.8779 16.4635C29.8779 16.9245 30.258 17.2985 30.7275 17.2985H30.9541C31.4236 17.2985 31.8037 16.9245 31.8037 16.4635C31.8037 16.0021 31.4236 15.6285 30.9541 15.6285Z" fill="#333333"/>
</svg>
