<svg width="42" height="42" viewBox="0 0 42 42" fill="none" xmlns="http://www.w3.org/2000/svg">
<path d="M36.26 3.885L34.867 5.278C31.0817 1.90575 26.2045 0 21 0C9.42025 0 0 9.42025 0 21C0 23.0527 0.30275 25.0933 0.89775 27.0655C1.106 27.7568 1.83225 28.1523 2.534 27.944C3.227 27.734 3.62075 27.0025 3.41075 26.3078C2.88925 24.5805 2.625 22.7955 2.625 21C2.625 10.8675 10.8675 2.625 21 2.625C25.4993 2.625 29.7185 4.2525 33.0103 7.133L31.885 8.26C31.059 9.0825 31.6418 10.5 32.8125 10.5H37.1875C37.912 10.5 38.5 9.912 38.5 9.1875V4.8125C38.5 3.65225 37.0912 3.0555 36.26 3.885Z" fill="#E51A1E"/>
<path d="M41.1012 14.9345C40.8912 14.2415 40.165 13.8442 39.465 14.056C38.772 14.266 38.3782 14.9975 38.5882 15.6922C39.1097 17.4195 39.374 19.2045 39.374 21C39.374 31.1325 31.1315 39.375 20.999 39.375C16.4998 39.375 12.2805 37.7475 8.98877 34.867L10.114 33.74C10.94 32.9175 10.3573 31.5 9.18652 31.5H4.81152C4.08702 31.5 3.49902 32.088 3.49902 32.8125V37.1875C3.49902 38.3582 4.91827 38.9357 5.73902 38.115L7.13202 36.722C10.9173 40.0942 15.7945 42 20.999 42C32.5787 42 41.999 32.5797 41.999 21C41.999 18.9472 41.6962 16.9067 41.1012 14.9345Z" fill="#E51A1E"/>
<path d="M20.999 8.74998L33.249 14L20.999 19.25L8.74902 14L20.999 8.74998Z" fill="#E51A1E"/>
<path d="M19.249 22.3072L8.74902 17.808V28C8.74902 28.3622 8.97127 28.6877 9.30902 28.8172L19.249 32.6392V22.3072Z" fill="#E51A1E"/>
<path d="M22.751 22.3072V32.6392L32.691 28.8155C33.0287 28.6877 33.251 28.3622 33.251 28V17.808L22.751 22.3072Z" fill="#E51A1E"/>
</svg>
