<svg width="132" height="24" viewBox="0 0 132 24" fill="none" xmlns="http://www.w3.org/2000/svg">
<path d="M12.4555 0.000488281C12.8522 0.0511727 13.2488 0.107829 13.6454 0.151412C15.0733 0.298299 17.3737 1.20868 18.405 2.02383C15.3906 4.63876 13.7248 7.95584 13.7248 12.0316C13.7248 15.9863 15.3113 19.376 18.405 22.0393C17.929 22.2814 17.5324 22.5236 17.0564 22.7657C15.9459 23.3306 14.6767 23.7342 13.3281 23.8956C9.99645 24.2991 6.93447 23.4114 4.285 21.2322C2.07181 19.376 0.683609 16.9547 0.191789 14.13C-0.392048 10.6595 0.353613 7.48774 2.47637 4.68718C4.22947 2.37087 6.53785 0.918134 9.36184 0.288615C9.8378 0.170781 10.3931 0.137691 10.9484 0.0642473C11.0277 0.051899 11.107 0.0313186 11.1863 0.0146928H12.4555V0.000488281Z" fill="white"/>
<path d="M27.0516 0C27.4483 0.0500387 27.7656 0.095235 28.1622 0.150116C29.9074 0.396275 31.5732 1.02983 33.0011 2.03868C35.6982 3.91109 37.4433 6.4776 38.0779 9.74626C38.7125 13.4588 37.8399 16.8485 35.3809 19.754C33.6357 21.9331 31.3352 23.2244 28.6382 23.7894C25.5445 24.3543 22.6094 23.7894 19.9917 22.0138C19.9917 22.0138 19.9123 22.0138 19.9123 21.9331C22.9267 19.3505 24.5132 16.0415 24.5132 12.0061C24.5132 7.95455 22.9267 4.6536 19.833 1.99832C20.4676 1.64321 21.1022 1.29616 21.7368 1.00562C22.9267 0.439857 24.2752 0.117833 25.6238 0.0451963C25.7031 0.0411609 25.7824 0.0153345 25.8618 0H27.0516V0Z" fill="white"/>
<path d="M19.1194 2.57959C25.3068 7.40591 25.0688 16.8648 19.1194 21.3845C13.408 16.9456 12.7734 7.74488 19.1194 2.57959" fill="white"/>
<path d="M47.8346 8.05137V9.01987C48.4692 8.13208 49.3418 7.79311 50.2937 7.85768C51.325 7.91417 52.1182 8.3742 52.6735 9.26199C52.7528 9.10057 52.8322 9.01987 52.9115 8.93916C53.4668 8.2935 54.1807 7.94645 55.0533 7.86575C55.6879 7.80925 56.4018 7.88996 57.0364 8.21279C57.909 8.61633 58.385 9.3427 58.5436 10.3112V11.1183V15.7186V16.0414H56.7984V15.7186V11.5218C56.7984 11.199 56.7984 10.8761 56.7191 10.634C56.4018 9.66553 55.7672 9.50411 55.0533 9.50411C54.498 9.50411 53.9427 9.74624 53.5461 10.2305C53.3874 10.5533 53.2288 10.9569 53.2288 11.3604V15.7186V16.0414H51.4836V15.7186C51.4836 14.2659 51.4836 12.8131 51.4043 11.3604C51.4043 11.0376 51.325 10.634 51.2456 10.3919C50.9283 9.74623 50.4524 9.58482 49.8971 9.50411C49.1039 9.50411 48.3106 9.74624 47.9933 10.634C47.914 10.9569 47.8346 11.3604 47.8346 11.7639V15.7186V16.0414H46.0895V8.05137H47.8346V8.05137Z" fill="white"/>
<path d="M125.63 12.0466C125.654 12.2403 125.67 12.4421 125.702 12.6358C126.074 14.5728 128.105 14.9763 129.295 14.1693C130.207 13.6043 130.469 12.6358 130.318 11.5705C130.104 10.0532 128.764 9.20573 127.304 9.60927C126.281 9.88367 125.646 10.836 125.63 12.0466V12.0466ZM130.271 8.94746V4.87173L132 4.86963V16.0073H130.263V15.2002C129.906 15.4423 129.581 15.7652 129.192 15.9266C127.399 16.7337 124.956 15.9266 124.155 13.6668C123.536 11.9154 123.78 10.2609 125.115 8.89694C125.733 8.25935 126.519 7.93652 127.407 7.85581C128.272 7.76703 129.073 7.92845 129.771 8.46919C129.938 8.59832 130.072 8.75167 130.271 8.92922" fill="white"/>
<path d="M110.265 12.0869V12.7326C110.265 14.6695 112.645 14.9924 113.438 14.1046C115.024 13.4589 115.024 12.6519 115.024 11.6027C114.231 10.0692 113.438 9.18143 111.851 9.66567C111.058 9.9885 110.265 10.8763 110.265 12.0869V12.0869ZM115.024 15.1538C114.231 15.7187 113.438 16.1223 112.645 16.203C111.058 16.4451 109.472 15.3959 108.678 13.5396C107.885 12.0062 107.885 10.5535 109.472 9.26213C110.265 8.45506 111.058 7.97081 111.851 7.87396C112.645 7.79325 113.438 7.89817 114.231 8.29364C114.231 8.45506 114.231 8.69718 115.024 8.9393V8.05152H116.611V16.0416H115.024V15.1538Z" fill="white"/>
<path d="M66.5561 12.0058C66.6355 10.7145 65.6836 9.58461 64.4143 9.5039C63.5418 9.5039 62.8278 9.74603 62.3519 10.4724C61.8759 11.1181 61.7966 11.7637 61.8759 12.4901C62.1139 13.9428 63.2245 14.7499 64.7317 14.5078C66.0009 14.2657 66.6355 13.1357 66.5561 12.0058V12.0058ZM66.4768 8.93895V8.21258C66.4768 8.13187 66.5561 8.05117 66.6355 8.05117H68.1427V16.0412H66.4768V15.1534L66.3975 15.2341C65.6836 16.0412 64.7317 16.2833 63.7004 16.2026C61.9553 16.1219 60.5274 14.8306 60.1308 13.055C59.8928 11.7637 60.1308 10.4724 60.924 9.4232C61.5586 8.45471 62.5105 7.97046 63.6211 7.87361C64.573 7.77676 65.4456 7.97046 66.1595 8.61612C66.2388 8.69683 66.3182 8.85824 66.4768 8.93895" fill="white"/>
<path d="M91.2261 11.3607C91.2261 9.98863 90.4329 9.26226 88.8464 9.42368C88.0531 9.58509 87.2599 10.4729 87.2599 11.3607H91.2261ZM92.0194 13.7819C92.0194 14.1854 92.8127 14.589 92.8127 14.9118V15.2346C91.2261 16.0417 90.4329 16.2838 88.8464 16.2031C87.2599 16.1224 85.6733 14.9925 85.6733 13.0555C85.6733 11.6835 85.6733 10.3922 86.4666 9.34297C87.2599 8.45518 88.0531 7.97094 88.8464 7.87409C89.6396 7.77724 90.4329 7.9548 91.2261 8.53589C92.8127 9.18155 92.8127 10.0693 92.8127 11.1185V12.7327H87.2599C87.2599 13.7819 88.0531 14.5083 88.8464 14.589C90.4329 14.7504 91.2261 14.4275 92.0194 13.9433V13.7819Z" fill="white"/>
<path d="M69.8082 15.1535C70.1255 14.75 70.3635 14.2657 70.6808 13.8622C70.6808 13.8622 70.7601 13.9429 70.8395 13.9429C71.8707 14.6693 72.9813 14.8307 74.1711 14.5078C74.4091 14.5078 74.6471 14.3464 74.8851 14.185C75.2024 13.8622 75.123 13.3779 74.7264 13.2165C74.2505 13.0551 73.8538 12.8937 73.3779 12.8937C72.7433 12.7323 72.0293 12.6516 71.3947 12.3287C70.6808 12.0059 70.2049 11.441 70.2049 10.6339C70.0462 9.66538 70.4428 8.93901 71.2361 8.37406C71.7914 8.05123 72.426 7.89789 73.0606 7.8656C74.2505 7.80911 75.2817 7.96245 76.3129 8.45477C76.3923 8.53548 76.5509 8.61618 76.6302 8.69689C76.3923 9.18114 76.1543 9.66538 75.9163 10.0689C75.4404 9.90751 74.9644 9.66538 74.5678 9.58468C73.9332 9.42326 73.2986 9.34255 72.664 9.50397C72.3467 9.66538 72.0293 9.8268 71.95 10.2303C71.95 10.5532 72.0293 10.7146 72.2673 10.876C72.664 10.9567 73.0606 11.0374 73.5365 11.1181C74.1711 11.2795 74.8057 11.2795 75.4404 11.6024C76.2336 11.9252 76.7889 12.4902 76.8682 13.3779C76.9475 14.3464 76.5509 15.0728 75.7577 15.6377C75.1231 16.0413 74.4091 16.2027 73.6159 16.2027C72.426 16.2834 71.2361 16.122 70.2049 15.4763C70.1255 15.3956 69.9669 15.3149 69.8876 15.2342L69.8082 15.1535" fill="white"/>
<path d="M79.3271 9.66573H77.9785V8.05157H79.3271V5.64648H80.9136V8.05157H82.5001H84.0866V8.2937V9.66573H80.9136V9.90785C80.9136 10.957 80.9136 12.087 81.7068 13.1362V13.7818C81.7068 14.3468 81.7068 14.6696 82.5001 14.5082C83.2933 14.4275 83.2933 14.2661 84.0866 14.1854V15.5574V15.7188C83.2933 16.1223 82.5001 16.2838 81.7068 16.203C81.7068 16.203 80.9136 16.0416 80.1203 15.6381C80.1203 15.2346 79.3271 14.6696 79.3271 14.1046V10.7956V9.66573" fill="white"/>
<path d="M106.298 13.8622C107.091 14.3465 107.091 14.75 107.091 15.2343C107.091 15.5571 107.091 15.7992 106.298 15.9606C104.712 16.4449 103.125 16.3642 101.539 15.315C100.745 14.75 100.745 14.0236 100.745 13.1359C99.952 11.8445 100.745 10.7146 100.745 9.58472C101.539 8.61623 102.332 8.13198 103.918 7.93021C104.712 7.7688 105.505 7.80915 106.298 8.21269C107.091 8.3741 107.091 8.53552 107.091 8.77764C107.091 9.26189 107.091 9.74613 106.298 10.2304C106.298 10.069 106.298 9.82684 105.505 9.74613C104.712 9.4233 103.918 9.4233 103.125 9.98826C102.332 10.3918 102.332 10.9567 102.332 11.6024C102.332 12.3288 102.332 13.1359 103.125 13.7815C103.125 14.2658 103.918 14.5079 103.918 14.5886C104.712 14.5886 105.505 14.4272 106.298 13.9429V13.8622" fill="white"/>
<path d="M95.1924 16.0416V15.7188V8.29371V8.05159H96.7789V8.85866C96.7789 8.45512 97.5722 8.05159 98.3654 7.90631C98.3654 7.78525 99.1587 7.87403 99.9519 8.05159C99.9519 8.61654 99.9519 9.18149 99.1587 9.66574C99.1587 9.58503 98.3654 9.58503 98.3654 9.50432C97.5722 9.50432 96.7789 9.98857 96.7789 10.7956V11.6834V15.7188V16.0416H95.1924Z" fill="white"/>
<path d="M118.99 8.05123H120.577V8.21265V8.93902C121.37 7.73647 122.163 7.67998 123.75 8.05123C123.75 8.61619 122.956 9.18114 122.956 9.74609C122.956 9.50397 122.163 9.50397 121.37 9.58468C121.37 9.66539 120.577 10.1496 120.577 10.876V11.6024V15.7185V16.0413H118.99V8.05123Z" fill="white"/>
</svg>
