<svg width="31" height="28" viewBox="0 0 31 28" fill="none" xmlns="http://www.w3.org/2000/svg">
<path d="M1 1H2.14626C4.03127 1 5.66046 2.31605 6.05683 4.15892L9.0754 18.1936C9.47176 20.0365 11.101 21.3525 12.986 21.3525H27.4948" stroke="white" stroke-width="2" stroke-linecap="round"/>
<path d="M24.408 6.46179H27.791C29.1714 6.46179 30.1367 7.82711 29.6765 9.12855L27.7802 14.4915C27.4976 15.2905 26.7421 15.8247 25.8946 15.8247H8.60547" stroke="white" stroke-width="2"/>
<ellipse cx="12.324" cy="25.7686" rx="2.0969" ry="2.09903" fill="white"/>
<ellipse cx="24.9045" cy="25.7686" rx="2.0969" ry="2.09903" fill="white"/>
<line x1="11.51" y1="6.43848" x2="6.73269" y2="6.43848" stroke="white" stroke-width="2"/>
<path d="M18.1985 1.61279V6.39496M18.1985 11.1771V6.39496M18.1985 6.39496H22.9758H13.4211" stroke="white" stroke-width="2"/>
</svg>
