<svg width="81" height="23" viewBox="0 0 81 23" fill="none" xmlns="http://www.w3.org/2000/svg">
<path d="M7.5997 0.0681183H7.75852C9.76764 0.303943 10.8794 1.48625 11.4353 3.34258C12.3088 6.5533 13.2618 9.75605 14.2147 12.903C14.2147 12.9827 14.2147 13.1421 14.2941 13.2217C14.2941 13.3014 14.3735 13.3811 14.5324 13.3811C14.6912 13.3811 14.6912 13.3014 14.7706 13.2217C14.9294 12.7437 15.0088 12.2657 15.1676 11.7877C15.9618 8.83984 16.8353 5.98764 17.6294 3.10357C18.0265 1.73323 18.9 0.777186 20.25 0.219492C20.5677 0.0872392 20.9647 0.125481 21.2824 0.0322666L21.3618 0.0320276C21.4412 0.110344 21.6 0.0713848 21.7588 0.0715441C23.9824 0.0743326 26.1265 0.0735359 28.35 0.0735359C29.0647 0.0735359 29.0647 0.0735359 29.0647 0.824829V6.33803V22.1925C29.0647 22.4315 29.1441 22.6705 28.9853 22.8298C28.9059 22.9095 28.7471 22.9095 28.5883 22.9095H21.8382C21.6 22.8298 21.6 22.5908 21.6 22.4315V20.5991V10.0825C21.6 9.9232 21.7588 9.60452 21.4412 9.52485C21.2824 9.52485 21.2029 9.84353 21.2029 10.0029C20.4088 12.632 19.6147 15.1815 18.8206 17.8106L17.3912 22.3518C17.3118 22.5908 17.3118 22.8298 16.9941 22.9095H11.9912C11.7529 22.9095 11.7529 22.6705 11.6735 22.5111L9.76764 16.2968C9.13235 14.1457 8.41764 11.9946 7.78235 9.84353C7.76647 9.76386 7.75058 9.76386 7.71882 9.68419C7.67117 9.60452 7.62352 9.52485 7.51235 9.52485C7.41705 9.52485 7.40911 9.68419 7.40117 9.76386C7.38529 9.84353 7.39323 10.0029 7.39323 10.1622V22.1128C7.39323 22.2721 7.40117 22.4315 7.37735 22.5908C7.36147 22.7502 7.34558 22.9095 7.13911 22.9095H0.468517C0.32637 22.9095 0.177075 22.9095 0.0349283 22.8298C-0.0184365 22.7502 0.00522824 22.5908 0.00522824 22.5111C0.00398942 15.1018 0.00406883 7.7721 0.00463265 0.44241C0.00463265 0.29741 -0.00854971 0.189855 0.0244856 0.0846898C0.161868 0.00342583 0.312751 0.0437391 0.456486 0.0435798C2.6959 0.0405523 4.93531 0.0423051 7.15885 0.0395166C7.30179 0.0393572 7.45267 0.0783161 7.59561 0" fill="white"/>
<path d="M48.2823 0.0678711H48.4411C48.5205 0.145948 48.6793 0.10691 48.8382 0.107706C50.7441 0.110096 52.6499 0.117267 54.5558 0.102129C54.9529 0.0997393 55.0323 0.214465 55.0323 0.537131V0.895648V22.2474V22.8847C54.9529 22.9644 54.9529 22.9644 54.8735 22.9644C52.4911 23.0441 50.1088 22.9644 47.8058 22.9644C47.5676 22.9644 47.5676 22.7254 47.5676 22.566V21.5303V10.1374C47.5676 9.97809 47.647 9.65941 47.4088 9.65941C47.1705 9.57974 47.1705 9.81875 47.0911 9.97809C45.8999 12.6072 44.7088 15.1567 43.5176 17.7858C43.0411 18.7418 42.644 19.6979 42.1676 20.6539C41.3735 22.1677 40.1823 23.0441 38.3558 22.9644H32.2411C32.1617 22.9644 32.1617 22.9644 32.1617 22.8847C32.0823 22.7254 32.0823 22.566 32.0823 22.327V0.815977V0.589713C32.0823 0.176223 32.1617 0.141965 32.5587 0.141965C34.7029 0.140371 36.7676 0.141168 38.9117 0.141168C39.3882 0.141965 39.4676 0.171443 39.4676 0.671774V6.22481V12.8454C39.4676 13.0048 39.3882 13.2438 39.4676 13.4031C39.7058 13.6421 39.8646 13.4031 39.944 13.2438C40.2617 12.7658 40.4205 12.2081 40.6588 11.73C41.7705 9.33993 42.8823 6.92591 43.994 4.52783C44.3117 3.82673 44.6293 3.11766 44.947 2.41656C45.5029 1.36491 46.297 0.65584 47.4088 0.24952C47.647 0.145151 47.9646 0.189767 48.2823 0.0989426" fill="white"/>
<path d="M81 8.43273V9.0701C81 9.38878 81 9.46845 80.2059 9.46845C77.7441 9.38878 75.1235 9.46845 72.5029 9.38878C70.9147 9.38878 69.2471 9.46845 67.6588 9.38878C62.6559 9.14977 58.2882 5.59646 57.097 0.465679V0.240212C57.097 0.155761 57.097 0.118316 57.1765 0.113536C57.3353 0.106365 57.4147 0.109552 57.5735 0.109552H73.3765H73.9323C75.4412 0.0768873 76.7912 0.741339 77.9824 1.65516C79.4118 2.73071 80.2059 4.18072 81 5.89363V7.31177V7.39144V8.27578V8.43512V8.43273Z" fill="white"/>
<path d="M65.2766 22.9326H58.5266H58.0502V10.9023C58.0502 10.5837 58.1296 10.4243 58.4472 10.4243C65.6737 10.504 72.8208 10.504 80.2061 10.4243V10.9023C78.9355 13.8501 76.5531 15.5232 73.2178 15.6826C70.7561 15.7622 68.2149 15.6826 65.7531 15.6826C65.4355 15.6826 65.3561 15.6826 65.3561 16.0809V22.5342C65.3561 22.6936 65.3561 22.7732 65.2766 22.9326" fill="white"/>
</svg>
