<svg width="470" height="296" fill="none" xmlns="http://www.w3.org/2000/svg"><g clip-path="url(#clip0_2575:24838)" fill="#fff"><path opacity=".5" d="M55.1 135.7c0-10.7-8.7-19.4-19.4-19.4-4.2 0-8.1 1.4-11.3 3.7-3.3-11.5-13.9-20-26.5-20-11.3 0-21 6.8-25.3 16.5-.8-.1-1.5-.2-2.3-.2-8.8 0-16.3 5.9-18.6 14-2.1-1.3-4.5-2.1-7.2-2.1-7.5 0-13.5 6-13.5 13.5H54.3c.5-1.9.8-3.9.8-6z"/><path opacity=".6" d="M341.4 222.6c-1.5 0-2.9.3-4.2.9-2.1-4.9-7-8.3-12.7-8.3-.5 0-1.1 0-1.6.1-3.1-6.7-9.8-11.3-17.6-11.3-8.8 0-16.3 5.9-18.6 14-2.1-1.3-4.5-2.1-7.2-2.1-7.5 0-13.5 6-13.5 13.5h85c-1.5-4-5.2-6.8-9.6-6.8z"/><path opacity=".4" d="M470 74c0-7.4-6.1-13.5-13.5-13.5-2.9 0-5.6.9-7.8 2.5-2.2-8.2-9.7-14.3-18.7-14.3-4.7 0-9.1 1.7-12.4 4.5-3.9-8.4-12.4-14.2-22.2-14.2-12.4 0-22.7 9.3-24.1 21.4-1.8-.8-3.8-1.3-6-1.3-7.9 0-14.3 6.4-14.3 14.3v.7h119V74z"/></g><defs><clipPath id="clip0_2575:24838"><path fill="#fff" d="M0 0h470v296H0z"/></clipPath></defs></svg>