<svg viewBox="0 0 25 24" fill="none" xmlns="http://www.w3.org/2000/svg"><g clip-path="url(#clip0_1795:22328)" fill="#232628"><path d="M20.61 2.719c0-.905-.736-1.64-1.641-1.64H6.03c-.904 0-1.64.735-1.64 1.64v5.39h16.218V2.72zm-3.422 3.984H7.813a.703.703 0 110-1.406h9.375a.703.703 0 110 1.406zm0-2.812H7.813a.703.703 0 110-1.407h9.375a.703.703 0 110 1.407zM22.86 9.516H2.14c-.904 0-1.64.736-1.64 1.64v10.125c0 .905.736 1.64 1.64 1.64h2.25v-6.327c0-.389.315-.703.704-.703h14.812c.389 0 .703.314.703.703v6.328h2.25c.905 0 1.641-.736 1.641-1.64V11.155c0-.905-.736-1.64-1.64-1.64zm-2.11 4.453a.703.703 0 110-1.406.703.703 0 010 1.406z"/><path d="M5.797 17.297h13.406v5.625H5.797v-5.625z"/></g><defs><clipPath id="clip0_1795:22328"><path fill="#fff" transform="translate(.5)" d="M0 0h24v24H0z"/></clipPath></defs></svg>