<svg viewBox="0 0 40 40" fill="none" xmlns="http://www.w3.org/2000/svg"><g clip-path="url(#clip0_1799:23661)" fill="#333"><path d="M29.383 0H5.945A3.52 3.52 0 002.43 3.516v28.281a3.51 3.51 0 002.344 3.3v-23.58c0-1.564.61-3.036 1.716-4.142L9.804 4.06a5.822 5.822 0 014.143-1.716h18.736A3.51 3.51 0 0029.383 0z"/><path d="M34.07 4.703H16.494v8.188c0 .647-.524 1.187-1.172 1.187H7.118v22.406A3.519 3.519 0 0010.633 40h23.438c1.938 0 3.5-1.577 3.5-3.516V8.204c0-1.94-1.562-3.5-3.5-3.5zM31.728 32.97h-18.75a1.171 1.171 0 110-2.344h18.75a1.171 1.171 0 110 2.344zm0-4.688h-18.75a1.171 1.171 0 110-2.343h18.75a1.171 1.171 0 110 2.343zm0-4.687h-18.75a1.171 1.171 0 110-2.344h18.75a1.171 1.171 0 110 2.344zm0-4.688h-18.75a1.171 1.171 0 110-2.343h18.75a1.171 1.171 0 110 2.343z"/><path d="M13.947 4.688c-.938 0-1.822.366-2.486 1.03L8.147 9.032c-.781.781-1.03 1.655-1.03 2.687h7.032V4.688h-.202z"/></g><defs><clipPath id="clip0_1799:23661"><path fill="#fff" d="M0 0h40v40H0z"/></clipPath></defs></svg>