<svg viewBox="0 0 104 92" fill="none" xmlns="http://www.w3.org/2000/svg"><path d="M28.224 88.644H3.047V15.976h10.93a1.523 1.523 0 100-3.047H1.523c-.84 0-1.523.682-1.523 1.524v75.714c0 .842.682 1.524 1.523 1.524h26.701a1.523 1.523 0 100-3.047z" fill="#333"/><path d="M9.255 71.842h3.376v12.155c0 .841.682 1.523 1.524 1.523h6.31c.84 0 1.523-.681 1.523-1.523V71.842h3.376c1.517-.387 1.877-1.254 1.077-2.6l-8.054-8.055a1.524 1.524 0 00-2.154 0l-8.054 8.054c-1.374 1.54-.223 2.725 1.076 2.601zm8.055-7.423l4.376 4.376h-1.222c-.841 0-1.523.682-1.523 1.524v12.154h-3.263V70.32c0-.842-.682-1.524-1.523-1.524h-1.221l4.376-4.376z" fill="#E51A1E"/><path d="M103.992 14.296a1.542 1.542 0 00-.438-.92L90.934.754a1.54 1.54 0 00-1.078-.446H64.618c-.841 0-1.523.682-1.523 1.523V12.93H20.617a1.523 1.523 0 100 3.047h9.404v19.372c.216 1.248.935 1.71 2.16 1.385l7.2-3.304 7.2 3.304c.921.423 2.16-.258 2.16-1.385V15.976h14.353v42.642c0 .841.682 1.523 1.524 1.523h11.097v28.503h-40.85a1.523 1.523 0 100 3.047h42.373c.842 0 1.524-.682 1.524-1.524V60.141h8.175a1.523 1.523 0 100-3.047H66.142V3.356h22.192v11.096c0 .842.681 1.524 1.523 1.524h11.096v41.118h-7.375a1.523 1.523 0 100 3.047h8.899c.841 0 1.523-.682 1.523-1.523V14.452c0-.052-.003-.104-.008-.155zM45.694 32.974l-5.678-2.604a1.523 1.523 0 00-1.27 0l-5.678 2.604V15.976h12.626v16.997zM91.38 5.511l7.418 7.417H91.38V5.511z" fill="#333"/><path d="M50.477 83.997c0 .842.682 1.523 1.523 1.523h18.929c.841 0 1.523-.681 1.523-1.523v-6.45c0-.84-.682-1.523-1.523-1.523H52c-.841 0-1.523.682-1.523 1.524v6.45zm3.046-4.926h15.882v3.403H53.523V79.07zM52 72.758h18.929a1.523 1.523 0 100-3.047H52a1.523 1.523 0 100 3.047zM70.93 9.666h12.618a1.523 1.523 0 100-3.046H70.93a1.523 1.523 0 100 3.046zM70.93 22.285h25.237a1.523 1.523 0 100-3.047H70.93a1.523 1.523 0 100 3.047zM70.93 28.595h25.237a1.523 1.523 0 100-3.047H70.93a1.523 1.523 0 100 3.047zM70.93 34.904h25.237a1.523 1.523 0 100-3.047H70.93a1.523 1.523 0 100 3.047zM97.69 39.69c0-.841-.682-1.523-1.524-1.523H83.547a1.523 1.523 0 100 3.047h12.62c.84 0 1.523-.682 1.523-1.524zM97.691 46c0-.842-.681-1.523-1.523-1.523h-6.31a1.523 1.523 0 100 3.046h6.31c.841 0 1.523-.681 1.523-1.523z" fill="#333"/><path d="M70.93 47.523c.84 0 1.523-.682 1.523-1.523 0-.9.731-1.632 1.63-1.632.9 0 1.632.732 1.632 1.632a4.684 4.684 0 004.678 4.678A4.684 4.684 0 0085.071 46a1.523 1.523 0 10-3.046 0c0 .9-.732 1.631-1.632 1.631-.9 0-1.631-.732-1.631-1.631a4.683 4.683 0 00-4.678-4.678A4.684 4.684 0 0069.406 46c0 .841.682 1.523 1.523 1.523z" fill="#E51A1E"/></svg>