<svg viewBox="0 0 40 40" fill="none" xmlns="http://www.w3.org/2000/svg"><path d="M27.618 17.143a4.762 4.762 0 100-9.524 4.762 4.762 0 000 9.524z" fill="#ED1651"/><path d="M20.001 9.524a4.762 4.762 0 100-9.524 4.762 4.762 0 000 9.524z" fill="#B0CB1F"/><path d="M12.38 17.143a4.762 4.762 0 100-9.524 4.762 4.762 0 000 9.524zM4.762 24.762a4.762 4.762 0 100-9.524 4.762 4.762 0 000 9.524zM20.001 24.762a4.762 4.762 0 100-9.524 4.762 4.762 0 000 9.524zM20.001 40a4.762 4.762 0 100-9.524 4.762 4.762 0 000 9.524zM12.38 32.381a4.762 4.762 0 100-9.524 4.762 4.762 0 000 9.524zM27.618 32.381a4.762 4.762 0 100-9.524 4.762 4.762 0 000 9.524zM35.238 24.762a4.762 4.762 0 100-9.524 4.762 4.762 0 000 9.524z" fill="#ED1651"/></svg>