<svg viewBox="0 0 68 69" fill="none" xmlns="http://www.w3.org/2000/svg"><circle cx="43.31" cy="20.965" fill="#E51A1E" r="6.828"/><path d="M7 4.75h2.25V7H7V4.75zM11.5 4.75h2.25V7H11.5V4.75zM16 4.75h2.25V7H16V4.75zM44.125 18.25h-2.25v2.25h-2.25v2.25h2.25V25h2.25v-2.25h2.25V20.5h-2.25v-2.25z" fill="#333"/><path d="M43 13.75a7.875 7.875 0 107.875 7.875A7.885 7.885 0 0043 13.75zm0 13.5a5.625 5.625 0 115.625-5.625A5.632 5.632 0 0143 27.25zM28.375 39.625a4.5 4.5 0 004.5-4.5v-2.25h-2.25v2.25a2.25 2.25 0 01-4.5 0v-2.25h-2.25v2.25a4.5 4.5 0 004.5 4.5z" fill="#333"/><path d="M63.25 49.75c-.79 0-1.567.21-2.25.608V5.875A5.625 5.625 0 0055.375.25h-49.5A5.625 5.625 0 00.25 5.875v49.5A5.625 5.625 0 005.875 61h25.301l4.23 7.313 1.947-1.126-4.85-8.392a2.25 2.25 0 013.321-2.919c.234.182.429.41.572.669l2.25 3.892a1.15 1.15 0 001.271.53 1.125 1.125 0 00.833-1.092V40.75a2.25 2.25 0 014.5 0V56.5a1.125 1.125 0 102.25 0V52a2.25 2.25 0 014.5 0v4.5a1.125 1.125 0 102.25 0v-3.375a2.25 2.25 0 014.5 0V56.5a1.125 1.125 0 102.25 0v-2.25a2.25 2.25 0 014.5 0v13.5h2.25v-13.5a4.5 4.5 0 00-4.5-4.5zm-4.5-.517a4.488 4.488 0 00-2.25-.608 4.433 4.433 0 00-2.891 1.057 4.491 4.491 0 00-6.109-1.575V40.75a4.5 4.5 0 10-9 0v14.929l-.146-.259a4.487 4.487 0 00-8.246 3.33H5.875A3.385 3.385 0 012.5 55.375V11.5h56.25v37.733zm0-39.983H2.5V5.875A3.385 3.385 0 015.875 2.5h49.5a3.385 3.385 0 013.375 3.375V9.25z" fill="#333"/><path d="M35.125 28.375H27.25V25a1.125 1.125 0 00-1.125-1.125H22.75V22.75a5.625 5.625 0 10-11.25 0v1.125H8.125A1.125 1.125 0 007 25v15.75a3.385 3.385 0 003.375 3.375h22.5a3.385 3.385 0 003.375-3.375V29.5a1.125 1.125 0 00-1.125-1.125zM13.75 22.75a3.375 3.375 0 016.75 0v1.125h-6.75V22.75zm-3.375 19.125A1.125 1.125 0 019.25 40.75V26.125h2.25v4.5h2.25v-4.5h6.75V40.75c.003.384.072.764.203 1.125H10.375zm12.375-15.75H25v2.25h-2.25v-2.25zM34 40.75a1.125 1.125 0 01-1.125 1.125h-9a1.125 1.125 0 01-1.125-1.125V30.625H34V40.75z" fill="#333"/></svg>