<svg viewBox="0 0 46 40" fill="none" xmlns="http://www.w3.org/2000/svg"><path d="M45.671 12.511L43.086 2.163A2.855 2.855 0 0040.314 0H5.403a2.86 2.86 0 00-2.774 2.163L.043 12.51a1.398 1.398 0 00-.043.346C0 16.794 3.043 20 6.786 20c2.174 0 4.114-1.083 5.357-2.763C13.386 18.917 15.326 20 17.5 20c2.174 0 4.114-1.083 5.357-2.763C24.1 18.917 26.037 20 28.214 20s4.115-1.083 5.357-2.763C34.814 18.917 36.751 20 38.93 20c3.742 0 6.785-3.206 6.785-7.143 0-.117-.014-.234-.043-.346zM38.929 22.857a9.347 9.347 0 01-5.358-1.68c-3.125 2.175-7.588 2.175-10.714 0-3.125 2.175-7.588 2.175-10.714 0a9.347 9.347 0 01-5.357 1.68 9.27 9.27 0 01-3.929-.888v15.174A2.858 2.858 0 005.714 40h11.429V28.572H28.57V40H40a2.858 2.858 0 002.857-2.857V21.969a9.27 9.27 0 01-3.928.888z" fill="#000"/></svg>