<svg viewBox="0 0 72 72" fill="none" xmlns="http://www.w3.org/2000/svg"><g clip-path="url(#clip0_1856:24131)"><path fill="#E51A1E" d="M15.923 2.077h3.462v10.385h-3.462zM33.923 2.077h3.462v10.385h-3.462zM52.615 2.077h3.462v10.385h-3.462z"/><path d="M70.943 6.763H57.346V3.311A3.315 3.315 0 0054.036 0a3.315 3.315 0 00-3.312 3.311v3.452H39.311V3.311A3.315 3.315 0 0036 0a3.315 3.315 0 00-3.311 3.311v3.452H21.276V3.311A3.315 3.315 0 0017.965 0a3.315 3.315 0 00-3.311 3.311v3.452H1.057C.473 6.763 0 7.236 0 7.82v63.123C0 71.527.473 72 1.057 72h69.886c.584 0 1.057-.473 1.057-1.057V7.82c0-.584-.473-1.057-1.057-1.057zM52.838 3.311c0-.66.537-1.198 1.197-1.198s1.198.538 1.198 1.198v7.89a1.199 1.199 0 01-2.395 0v-7.89zm-18.036 0a1.199 1.199 0 012.395 0v7.89c0 .661-.537 1.198-1.197 1.198s-1.198-.537-1.198-1.197v-7.89zm-18.035 0a1.199 1.199 0 012.395 0v7.89a1.199 1.199 0 01-2.395 0v-7.89zm53.12 14.724h-6.975a1.057 1.057 0 100 2.114h6.975v49.738H2.113V20.149h55.914a1.057 1.057 0 000-2.114H2.113V8.877h12.54V11.2a3.315 3.315 0 003.312 3.312 3.315 3.315 0 003.31-3.312V8.877H32.69V11.2A3.315 3.315 0 0036 14.513a3.315 3.315 0 003.311-3.312V8.877h11.413V11.2a3.315 3.315 0 003.311 3.312 3.315 3.315 0 003.312-3.312V8.877h12.54v9.158z" fill="#333"/><path d="M63.053 46.074a1.057 1.057 0 100-2.113h-7.961V28.039h7.96a1.057 1.057 0 100-2.114h-7.96v-2.324a1.057 1.057 0 00-2.114 0v2.324H37.057v-2.324a1.057 1.057 0 00-2.114 0v2.324H19.022v-2.324a1.057 1.057 0 00-2.114 0v2.324h-7.96a1.057 1.057 0 100 2.114h7.96v15.922h-7.96a1.057 1.057 0 100 2.113h7.96v15.922h-7.96a1.057 1.057 0 100 2.114h7.96v2.324a1.057 1.057 0 002.114 0V64.11h15.921v2.325a1.057 1.057 0 002.114 0V64.11h15.922v2.325a1.057 1.057 0 002.113 0V64.11h7.961a1.057 1.057 0 000-2.113h-7.96V46.074h7.96zm-10.074-2.113h-1.08a1.057 1.057 0 000 2.114h1.08v15.921H37.057V60.94a1.057 1.057 0 00-2.114 0v1.057H19.022V46.074h1.08a1.057 1.057 0 000-2.113h-1.08V28.039h15.921v1.15a1.057 1.057 0 102.114 0v-1.15h15.922v15.922z" fill="#333"/><path d="M36 31.562c-7.264 0-13.174 5.91-13.174 13.174C22.826 52 28.736 57.91 36 57.91c7.264 0 13.174-5.91 13.174-13.174 0-7.264-5.91-13.174-13.174-13.174zm0 24.235c-6.1 0-11.06-4.962-11.06-11.061 0-6.1 4.96-11.06 11.06-11.06 6.099 0 11.06 4.961 11.06 11.06S42.1 55.796 36 55.796z" fill="#333"/><path d="M38.93 43.594c.584 0 1.058-.473 1.058-1.056v-.733a3.26 3.26 0 00-2.931-3.239V37.41a1.057 1.057 0 10-2.114 0v1.208a3.627 3.627 0 00-2.93 3.554 3.625 3.625 0 003.62 3.621h.733a1.51 1.51 0 011.508 1.508 1.51 1.51 0 01-1.508 1.508h-1.099c-.63 0-1.141-.512-1.141-1.142a1.057 1.057 0 00-2.114 0 3.26 3.26 0 002.931 3.239v1.157a1.057 1.057 0 102.114 0v-1.208a3.627 3.627 0 002.93-3.554 3.625 3.625 0 00-3.62-3.621h-.733a1.51 1.51 0 01-1.508-1.508 1.51 1.51 0 011.508-1.507h1.099c.629 0 1.141.512 1.141 1.141v.733c0 .583.473 1.056 1.057 1.056z" fill="#333"/></g><defs><clipPath id="clip0_1856:24131"><path fill="#fff" d="M0 0h72v72H0z"/></clipPath></defs></svg>