<svg viewBox="0 0 80 80" fill="none" xmlns="http://www.w3.org/2000/svg"><g clip-path="url(#clip0_1793:23072)"><path fill="#E51A1E" d="M17.692 2.308h3.846v11.539h-3.846zM37.692 2.308h3.846v11.539h-3.846zM58.462 2.308h3.846v11.539h-3.846z"/><path d="M78.826 7.515H63.718V3.679C63.718 1.65 62.068 0 60.04 0a3.683 3.683 0 00-3.679 3.68v3.835H43.679V3.679C43.679 1.65 42.029 0 40 0a3.683 3.683 0 00-3.68 3.68v3.835H23.64V3.679C23.64 1.65 21.99 0 19.96 0a3.683 3.683 0 00-3.678 3.68v3.835H1.174C.526 7.515 0 8.04 0 8.689v70.137C0 79.474.526 80 1.174 80h77.652c.649 0 1.174-.526 1.174-1.174V8.689c0-.649-.526-1.174-1.174-1.174zM58.708 3.679c0-.734.597-1.33 1.331-1.33s1.331.596 1.331 1.33v8.767c0 .734-.597 1.331-1.33 1.331-.735 0-1.332-.597-1.332-1.33V3.678zm-20.039 0c0-.734.597-1.33 1.331-1.33s1.33.596 1.33 1.33v8.767c0 .734-.596 1.331-1.33 1.331-.734 0-1.33-.597-1.33-1.33V3.678zm-20.039 0c0-.734.597-1.33 1.33-1.33.735 0 1.332.596 1.332 1.33v8.767a1.332 1.332 0 01-2.662 0V3.68zm59.022 16.36h-7.75a1.174 1.174 0 100 2.348h7.75v55.265H2.348V22.388h62.127a1.174 1.174 0 100-2.349H2.348V9.863h13.934v2.583c0 2.029 1.65 3.68 3.679 3.68a3.683 3.683 0 003.679-3.68V9.863h12.68v2.583c0 2.029 1.651 3.68 3.68 3.68s3.68-1.651 3.68-3.68V9.863h12.68v2.583c0 2.029 1.65 3.68 3.68 3.68 2.028 0 3.678-1.651 3.678-3.68V9.863h13.934v10.176z" fill="#333"/><path d="M70.059 51.194a1.174 1.174 0 100-2.349h-8.846v-17.69h8.846a1.174 1.174 0 100-2.349h-8.846v-2.583a1.174 1.174 0 10-2.348 0v2.583h-17.69v-2.583a1.174 1.174 0 10-2.35 0v2.583h-17.69v-2.583a1.174 1.174 0 00-2.348 0v2.583H9.94a1.174 1.174 0 100 2.349h8.846v17.69H9.94a1.174 1.174 0 100 2.349h8.846v17.69H9.94a1.174 1.174 0 100 2.349h8.846v2.583a1.174 1.174 0 102.348 0v-2.583h17.691v2.583a1.174 1.174 0 102.348 0v-2.583h17.691v2.583a1.174 1.174 0 102.349 0v-2.583h8.845a1.174 1.174 0 100-2.349h-8.845v-17.69h8.845zm-11.194-2.349h-1.2a1.174 1.174 0 000 2.349h1.2v17.69h-17.69V67.71a1.174 1.174 0 10-2.35 0v1.175h-17.69V51.194h1.2a1.174 1.174 0 100-2.349h-1.2v-17.69h17.69v1.278a1.174 1.174 0 002.35 0v-1.278h17.69v17.69z" fill="#333"/><path d="M40 35.068c-8.071 0-14.638 6.567-14.638 14.638 0 8.072 6.567 14.638 14.638 14.638 8.072 0 14.638-6.566 14.638-14.638 0-8.071-6.566-14.638-14.638-14.638zm0 26.928c-6.776 0-12.29-5.513-12.29-12.29 0-6.776 5.514-12.29 12.29-12.29 6.777 0 12.29 5.514 12.29 12.29 0 6.777-5.513 12.29-12.29 12.29z" fill="#333"/><path d="M43.256 48.438c.649 0 1.175-.526 1.175-1.174v-.814a3.622 3.622 0 00-3.257-3.599v-1.286a1.174 1.174 0 00-2.348 0v1.343a4.03 4.03 0 00-3.257 3.949 4.028 4.028 0 004.024 4.023h.814c.923 0 1.675.752 1.675 1.675 0 .924-.752 1.675-1.675 1.675h-1.221a1.27 1.27 0 01-1.269-1.268 1.174 1.174 0 10-2.348 0 3.621 3.621 0 003.256 3.599v1.286a1.174 1.174 0 102.349 0v-1.342a4.03 4.03 0 003.256-3.95 4.028 4.028 0 00-4.023-4.023h-.814a1.677 1.677 0 01-1.675-1.675c0-.924.751-1.675 1.675-1.675h1.221c.7 0 1.268.569 1.268 1.268v.814c0 .648.526 1.174 1.174 1.174z" fill="#333"/></g><defs><clipPath id="clip0_1793:23072"><path fill="#fff" d="M0 0h80v80H0z"/></clipPath></defs></svg>