<svg viewBox="0 0 80 80" fill="none" xmlns="http://www.w3.org/2000/svg"><g clip-path="url(#clip0_1793:23041)"><path d="M61.986 30.469c-6.963 0-12.629 5.665-12.629 12.63 0 6.963 5.665 12.628 12.63 12.628 6.963 0 12.628-5.665 12.628-12.629 0-6.963-5.665-12.629-12.629-12.629zm0 22.908c-5.667 0-10.278-4.611-10.278-10.279 0-5.667 4.61-10.278 10.278-10.278s10.279 4.61 10.279 10.278-4.611 10.279-10.279 10.279z" fill="#333"/><path d="M66.375 40.592l-2.048-.298-.916-1.857c-.584-1.18-2.267-1.18-2.85 0l-.916 1.857-2.048.298c-1.303.189-1.823 1.79-.88 2.71l1.482 1.444-.35 2.04c-.222 1.297 1.14 2.287 2.305 1.675l1.832-.963 1.832.963c1.165.612 2.528-.378 2.305-1.675l-.35-2.04 1.483-1.445c.942-.918.421-2.52-.88-2.71zm-2.83 5.07c-1.648-.867-1.596-.8-3.119 0 .317-1.845.262-1.772-.964-2.967 1.695-.246 1.697-.157 2.524-1.833.755 1.53.67 1.564 2.524 1.833-1.226 1.195-1.28 1.123-.964 2.967zM41.44 12.338H28.387a3.009 3.009 0 00-3.006 3.006v1.16a3.009 3.009 0 003.006 3.006H41.44a3.009 3.009 0 003.005-3.005v-1.161a3.009 3.009 0 00-3.005-3.006zm.655 4.167a.656.656 0 01-.655.655H28.387a.656.656 0 01-.656-.655v-1.161c0-.361.294-.655.656-.655H41.44c.361 0 .655.293.655.655v1.161z" fill="#333"/><path fill="#E51A1E" d="M27.2 14.4h15.2v3.2H27.2z"/><path d="M55.2 76.8V59.6h13.2v17.2L62 74l-6.8 2.8z" fill="#E51A1E" stroke="#333"/><path d="M79.013 44.68a1.176 1.176 0 00-1.348.972c-1.26 7.761-7.951 13.33-15.679 13.33-8.68 0-15.885-7.044-15.885-15.884 0-8.759 7.126-15.884 15.885-15.884 7.675 0 14.403 5.47 15.679 13.33a1.176 1.176 0 002.32-.376A18.279 18.279 0 0069.826 26.64V2.243c0-1.1-.895-1.995-1.995-1.995H37.014a1.175 1.175 0 100 2.35h30.462v23.109a18.36 18.36 0 00-5.49-.844c-2.194 0-4.3.39-6.25 1.103l-.07-.003H12.877a1.175 1.175 0 100 2.35h38.447a18.388 18.388 0 00-4.155 4.167H12.878a1.175 1.175 0 100 2.35h32.858a18.1 18.1 0 00-1.52 4.167H12.878a1.175 1.175 0 100 2.35h30.958a18.137 18.137 0 001.067 8.13H2.35v-35.9h8.924a2.058 2.058 0 002.056-2.055V2.598h18.2a1.175 1.175 0 100-2.35H12.154c-.3 0-.605.118-.831.344L.344 11.572l-.001.001c-.223.223-.343.53-.343.83v37.134a2.295 2.295 0 002.292 2.292h43.689a18.348 18.348 0 003.091 4.131v22.032a1.76 1.76 0 002.37 1.65l10.544-3.904 10.545 3.904a1.76 1.76 0 002.369-1.65V55.956a18.242 18.242 0 005.085-9.928 1.175 1.175 0 00-.972-1.348zM10.979 4.26v6.967H4.013L10.98 4.26zm43.167 71.874l-2.723 1.008V57.956c.785.56 1.74 1.133 2.723 1.603v16.575zm13.33-.87l-4.879-1.806a1.758 1.758 0 00-1.221 0l-4.88 1.806V60.488a18.27 18.27 0 0010.98 0v14.776zm5.074 1.878l-2.723-1.008V59.56a18.595 18.595 0 002.723-1.603v19.186z" fill="#333"/></g><defs><clipPath id="clip0_1793:23041"><path fill="#fff" d="M0 0h80v80H0z"/></clipPath></defs></svg>