<svg viewBox="0 0 72 72" fill="none" xmlns="http://www.w3.org/2000/svg"><g clip-path="url(#clip0_1856:24126)"><circle cx="36" cy="45.6" fill="#E51A1E" r="4"/><circle cx="9.6" cy="46.4" fill="#E51A1E" r="1.6"/><path d="M64.886 1.074l-1.9-.492a3.777 3.777 0 00-2.883.404 3.773 3.773 0 00-1.752 2.323l-.021.083a4.001 4.001 0 00-5.99 2.383l-2.291 8.84a4.002 4.002 0 003.872 5c.069 0 .138-.005.207-.008L50.872 32.17a8.24 8.24 0 00-.65-.055l-18.92-.771a1.054 1.054 0 10-.086 2.107l18.919.772a6.263 6.263 0 014.816 2.563 6.273 6.273 0 011.008 5.37l-1.678 6.245-.007.025-1.94 7.22a7.424 7.424 0 01-7.157 5.491H26.403a7.39 7.39 0 01-6.826-4.523l-.004-.009a7.467 7.467 0 01-.541-2.119l-.754-7.27h2.12l.731 7.053a5.29 5.29 0 005.274 4.76h18.774a5.311 5.311 0 005.12-3.93l3.625-13.491c.455-1.695-.225-2.966-.67-3.573-.446-.606-1.454-1.633-3.203-1.704l-26.075-1.064a4.133 4.133 0 00-3.278 1.38 4.156 4.156 0 00-1.056 3.24l.54 5.22h-2.12l-.518-5.002a6.298 6.298 0 016.52-6.946l2.656.109a1.054 1.054 0 00.086-2.108l-2.656-.109a8.41 8.41 0 00-8.704 9.27l.496 4.786H12.44a3.17 3.17 0 00-2.982-2.11 3.168 3.168 0 00-3.164 3.164 3.168 3.168 0 003.164 3.164 3.17 3.17 0 002.982-2.109h2.46L1.744 59.341A5.42 5.42 0 000 63.317c0 1.36.508 2.66 1.431 3.662a5.37 5.37 0 003.98 1.743c1.36 0 2.652-.503 3.658-1.43l4.223-3.89a1.055 1.055 0 00-1.429-1.552L7.64 65.74a3.285 3.285 0 01-2.369.87 3.275 3.275 0 01-2.289-1.06 3.287 3.287 0 01-.873-2.233c0-.919.388-1.802 1.064-2.425L16.32 48.778l.613 5.926c.074.716.228 1.406.447 2.063l-2.208 2.035a1.054 1.054 0 101.429 1.551l1.72-1.584a9.495 9.495 0 008.082 4.48h6.428v2.882H29.81a3.167 3.167 0 00-3.162 3.166 3.166 3.166 0 003.162 3.162h12.379a3.166 3.166 0 003.162-3.166 3.165 3.165 0 00-3.162-3.162h-3.03v-2.883h6.018c4.298 0 8.078-2.9 9.194-7.052l1.762-6.559a9.478 9.478 0 007.791-7.01l1.697-6.547a1.054 1.054 0 10-2.042-.529l-1.697 6.547a7.374 7.374 0 01-5.134 5.254l1.248-4.649a8.371 8.371 0 00-1.345-7.166 8.37 8.37 0 00-3.73-2.86l7.472-28.84c.113-.437.39-.804.78-1.033.39-.23.845-.294 1.283-.18l1.901.492c3.94 1.022 6.316 5.058 5.295 8.998l-4.945 19.083a1.054 1.054 0 102.042.53l4.945-19.083c1.313-5.067-1.741-10.257-6.808-11.57zM21.738 39.67a2.066 2.066 0 01.525-1.61 2.045 2.045 0 011.627-.685l26.073 1.064a2.015 2.015 0 011.588.846c.271.368.55.976.334 1.776L48.26 54.553a3.197 3.197 0 01-3.083 2.367H26.403a3.186 3.186 0 01-3.175-2.868l-.708-6.836h8.489a5.283 5.283 0 005.102 3.942 5.28 5.28 0 005.274-5.274 5.279 5.279 0 00-5.274-5.273 5.281 5.281 0 00-5.215 4.497H22.3l-.563-5.438zm11.21 6.214a3.168 3.168 0 013.163-3.164 3.168 3.168 0 013.164 3.164 3.168 3.168 0 01-3.164 3.164 3.168 3.168 0 01-3.164-3.164zm-23.49 1.332a1.056 1.056 0 01-1.054-1.054 1.056 1.056 0 111.055 1.055zm33.784 22.08c0 .581-.473 1.053-1.053 1.053h-12.38a1.055 1.055 0 010-2.11h12.38c.58 0 1.053.473 1.053 1.058zM37.05 66.13h-2.11v-2.882h2.11v2.882zm16.394-48.686a1.89 1.89 0 01-1.353-2.3l2.29-8.84a1.89 1.89 0 012.3-1.353c.432.112.802.37 1.056.726L54.72 17.322a1.873 1.873 0 01-1.276.122z" fill="#333"/></g><defs><clipPath id="clip0_1856:24126"><path fill="#fff" d="M0 0h72v72H0z"/></clipPath></defs></svg>