<svg viewBox="0 0 44 58" fill="none" xmlns="http://www.w3.org/2000/svg"><path d="M25.367 43h-6.5v8l3-1.5 3 1.5.5-8z" fill="#E51A1E"/><path d="M32.203 40.327h4.462a.85.85 0 100-1.7h-4.462a.85.85 0 100 1.7z" fill="#333"/><path d="M38.687 33.25c-2.888-1.285-8.44-2.046-10.474-2.29v-3.814c1.574-1.237 3.275-3.244 3.42-6.191h.054a3.02 3.02 0 003.017-3.018V16.91c0-.44-.097-.872-.28-1.266a1.81 1.81 0 00.284-.978 4.045 4.045 0 00-1.05-2.708v-2.93a7.503 7.503 0 00-5.003-7.066.85.85 0 00-.565 1.603 5.801 5.801 0 013.868 5.463v1.813a3.918 3.918 0 00-.385-.108 44.066 44.066 0 00-19.414 0c-.13.03-.259.066-.384.108V9.03a5.801 5.801 0 013.867-5.463l4.433-1.562a5.41 5.41 0 013.582 0l.704.248a.85.85 0 00.564-1.603l-.703-.248a7.117 7.117 0 00-4.712 0l-4.432 1.562a7.503 7.503 0 00-5.003 7.066v2.93a4.045 4.045 0 00-1.051 2.708c0 .354.1.69.284.978a3.02 3.02 0 00-.28 1.266v1.026a3.02 3.02 0 003.017 3.018h.055c.145 2.947 1.846 4.954 3.42 6.19v3.814c-2.035.245-7.587 1.006-10.475 2.291A8.513 8.513 0 000 41.02V54.09a3.913 3.913 0 003.909 3.91h35.915a3.913 3.913 0 003.909-3.91V41.02a8.512 8.512 0 00-5.046-7.769zm-22.606-.645l4.125 3.77-2.308.73a1.924 1.924 0 01-2.258-.901l-1.824-3.3a79.366 79.366 0 012.265-.3zm5.77-2.936h.031c1.158-.022 2.913-.47 4.632-1.409v3.083l-4.648 4.246-4.647-4.246V28.26c1.718.938 3.473 1.387 4.631 1.409zm5.8 2.936c.449.052 1.264.152 2.265.299l-1.823 3.3a1.924 1.924 0 01-2.258.9l-2.309-.73 4.126-3.77zm5.354-14.668a1.32 1.32 0 01-1.318 1.318h-.04l.004-3.034c.25.064.5.13.75.2.177.049.356.068.533.064.046.135.07.278.07.426v1.026zM12.53 12.392a42.38 42.38 0 0118.67 0 2.34 2.34 0 011.808 2.275.12.12 0 01-.153.116c-7.292-2.023-14.687-2.023-21.98 0a.12.12 0 01-.153-.116c0-1.083.76-2.04 1.808-2.274zm-1.803 5.545V16.91c0-.147.024-.29.07-.425.182.004.35-.015.533-.066.25-.069.5-.135.75-.2l.005 3.035h-.04a1.32 1.32 0 01-1.318-1.318zm3.06 2.608l-.008-4.723a38.648 38.648 0 0116.173 0l-.008 4.724c0 2.455-1.223 3.997-3.113 5.514-1.758 1.263-3.827 1.883-4.966 1.91-1.736-.041-3.578-1.015-5.035-1.96-1.67-1.22-3.043-3.028-3.043-5.465zM5.736 34.803c1.567-.698 4.09-1.24 6.295-1.617l2.121 3.84a3.627 3.627 0 004.258 1.699l3.456-1.094 3.456 1.094a3.628 3.628 0 004.258-1.7l2.122-3.84c2.205.377 4.728.92 6.294 1.618a6.812 6.812 0 014.037 6.216v7.368h-3.617c-.317 0-.62.057-.902.162v-3.99a2.553 2.553 0 00-2.55-2.549H15.46a.85.85 0 100 1.7h2.281v7.084a1.312 1.312 0 002.007 1.113l2.119-1.325 2.12 1.325a1.312 1.312 0 002.006-1.113V43.71h8.972c.47 0 .85.381.85.85v6.428a.903.903 0 01-.901.903 4.852 4.852 0 00-4.826 4.41H13.645a4.852 4.852 0 00-4.825-4.41.903.903 0 01-.902-.903V44.56c0-.469.381-.85.85-.85h2.693a.85.85 0 100-1.7H8.768a2.552 2.552 0 00-2.55 2.55v3.989a2.588 2.588 0 00-.901-.162H1.699V41.02a6.812 6.812 0 014.037-6.216zM19.44 43.71h4.854v6.385l-1.732-1.082a1.32 1.32 0 00-1.39 0l-1.732 1.082v-6.386zM1.7 54.09v-4.005h3.618c.497 0 .902.405.902.902a2.604 2.604 0 002.6 2.602 3.15 3.15 0 013.116 2.71H3.91a2.212 2.212 0 01-2.21-2.209zm38.125 2.21h-8.027a3.15 3.15 0 013.116-2.711 2.604 2.604 0 002.6-2.602c0-.497.405-.902.903-.902h3.617v4.005c0 1.219-.99 2.21-2.21 2.21z" fill="#333"/></svg>