<svg viewBox="0 0 48 38" fill="none" xmlns="http://www.w3.org/2000/svg"><path d="M46.883 36.794h-4.857c-.617 0-1.118-.5-1.118-1.118V20.182c0-.618.5-1.118 1.118-1.118h4.857c.617 0 1.117.5 1.117 1.118v15.494c0 .618-.5 1.118-1.117 1.118zM38.44 22.325c-.868-.441-3.047-1.391-5.72-1.391-3.481 0-7.156 2.579-7.156 2.579h-9.542c-1.225 0-3.838.644-3.838 3.74 0 2.578 2.42 3.739 3.838 3.739h11.025c1.023.098 1.87 1.21 1.87 1.21H15.937c-2.277 0-4.516-1.597-4.902-3.269-2.644-1.805-6.11-5.491-7.708-7.17-1.884-1.975-4.5.167-2.751 2.665.861 1.23 4.211 4.83 8.102 8.807 3.488 3.567 9.72 4.545 14.527 4.545 5.127 0 10.284-2.79 15.142-3.583.312-.05.497-.386.497-.703V22.988a.742.742 0 00-.405-.663zm-27.89 4.098c.65-.158 1.27-.917.991-1.387-.606-1.02-5.096-4.829-6.633-5.445-1.257-.504-1.542.59-1.542.59l7.184 6.242zm1.28-2.675c.65-.158 1.271-.917.991-1.387-.606-1.02-3.701-3.434-5.238-4.05-1.257-.504-1.542.589-1.542.589s5.248 4.378 5.79 4.848zM32.948 3.68v11.536a3.46 3.46 0 01-3.46 3.46H16.492a3.46 3.46 0 01-3.46-3.46V3.68a3.46 3.46 0 013.46-3.46h5.287v2.604h2.454V.22h5.255a3.46 3.46 0 013.46 3.46zm-6.68 6.587l-3.706-4.418-3.72 4.402h2.172v5.084h3.07V10.25c2.163 0 2.185.016 2.185.016z" fill="#000"/></svg>