<svg viewBox="0 0 58 58" fill="none" xmlns="http://www.w3.org/2000/svg"><g clip-path="url(#clip0_1854:24117)"><path fill="#E51A1E" d="M29 49h12v4H29zM25.461 11.946L31.207 6.2l3.368 3.368-5.746 5.746zM45 50h5v3h-5z"/><path d="M4.377 31.569a2.19 2.19 0 010-3.094l20.82-20.82a.85.85 0 10-1.202-1.201l-20.82 20.82a3.892 3.892 0 000 5.496l5.245 5.244a.847.847 0 001.201 0 .85.85 0 000-1.202L4.377 31.57z" fill="#333"/><path d="M21.08 16.807L8.224 29.663a.85.85 0 001.2 1.202L22.283 18.01a.85.85 0 00-1.202-1.202zM28.853 15.448c.88 0 1.76-.335 2.431-1.005l2.572-2.572a3.443 3.443 0 000-4.863 3.443 3.443 0 00-4.863 0L26.421 9.58a3.416 3.416 0 00-1.007 2.431c0 .919.358 1.782 1.007 2.432a3.428 3.428 0 002.432 1.005zm-1.23-4.667l2.571-2.572a1.741 1.741 0 012.46 0 1.741 1.741 0 010 2.46l-2.572 2.572a1.741 1.741 0 01-2.969-1.23c0-.464.181-.901.51-1.23z" fill="#333"/><path d="M52.243 28.27h-8.178l6.3-6.302a3.892 3.892 0 000-5.497L34.92 1.025A3.862 3.862 0 0032.17-.113a3.864 3.864 0 00-2.749 1.138l-3.026 3.027a.85.85 0 001.201 1.201l3.027-3.026c.413-.414.963-.641 1.547-.641s1.134.227 1.547.64l15.446 15.446a2.19 2.19 0 010 3.094L41.66 28.27h-21.47l6.175-6.176a.85.85 0 10-1.201-1.201l-7.377 7.378h-2.665a3.891 3.891 0 00-3.887 3.886V54a3.891 3.891 0 003.887 3.887h37.12A3.891 3.891 0 0056.13 54v-3.14a.85.85 0 10-1.7 0V54a2.19 2.19 0 01-2.187 2.188h-37.12A2.19 2.19 0 0112.936 54V42.078H54.43v5.383a.85.85 0 101.699 0V32.157a3.891 3.891 0 00-3.887-3.887zm-37.12 1.699h37.12a2.19 2.19 0 012.188 2.188v2.975H12.936v-2.975a2.19 2.19 0 012.187-2.188zm-2.187 10.41v-3.548H54.43v3.548H12.936z" fill="#333"/><path d="M45.12 48.311c-.719 0-1.304.585-1.304 1.303v3.236c0 .719.585 1.303 1.303 1.303h5.148c.718 0 1.303-.584 1.303-1.303v-3.236c0-.718-.585-1.303-1.303-1.303H45.12zm4.75 4.143h-4.354V50.01h4.355v2.444zM29.596 48.311c-.718 0-1.303.585-1.303 1.303v3.236c0 .719.585 1.303 1.303 1.303h10.888c.719 0 1.303-.584 1.303-1.303v-3.236c0-.718-.584-1.303-1.303-1.303H29.596zm10.492 4.143H29.992V50.01h10.096v2.444zM19.28 52.454a.85.85 0 000 1.699h5.424a.85.85 0 100-1.7H19.28z" fill="#333"/></g><defs><clipPath id="clip0_1854:24117"><path fill="#fff" d="M0 0h58v58H0z"/></clipPath></defs></svg>