<svg viewBox="0 0 58 44" fill="none" xmlns="http://www.w3.org/2000/svg"><path fill="#E51A1E" d="M7 13h12v10H7zM39 20h9v3h-9z"/><path d="M18.249 12.22H8.497a2.135 2.135 0 00-2.133 2.133v7.699c0 1.175.957 2.132 2.133 2.132h9.752a2.135 2.135 0 002.133-2.133v-7.698a2.135 2.135 0 00-2.133-2.133zm.433 2.133v3h-4.46v-3.434h4.027c.239 0 .433.195.433.434zM8.063 22.052v-7.7c0-.238.195-.433.434-.433h4.026v8.566H8.497a.434.434 0 01-.434-.433zm10.186.433h-4.026v-3.433h4.46v3c0 .239-.195.433-.434.433zM6.364 34c0 .47.38.85.85.85h25.001a.85.85 0 100-1.7H7.214a.85.85 0 00-.85.85zM7.214 36.386a.85.85 0 100 1.7h12.5a.85.85 0 100-1.7h-12.5zM22.303 29.947v-2.054a.85.85 0 10-1.7 0v2.054a.85.85 0 101.7 0zM26.186 29.947v-2.054a.85.85 0 10-1.699 0v2.054a.85.85 0 101.7 0zM30.07 29.947v-2.054a.85.85 0 10-1.7 0v2.054a.85.85 0 101.7 0zM33.953 29.947v-2.054a.85.85 0 10-1.7 0v2.054a.85.85 0 101.7 0zM38.726 27.893v2.054a.85.85 0 101.699 0v-2.054a.85.85 0 10-1.7 0zM42.608 27.893v2.054a.85.85 0 101.7 0v-2.054a.85.85 0 10-1.7 0zM46.492 27.893v2.054a.85.85 0 101.7 0v-2.054a.85.85 0 10-1.7 0zM7.214 30.796c.47 0 .85-.38.85-.85v-2.053a.85.85 0 10-1.7 0v2.054c0 .469.38.85.85.85zM11.947 29.947v-2.054a.85.85 0 10-1.699 0v2.054a.85.85 0 101.7 0zM15.831 29.947v-2.054a.85.85 0 10-1.7 0v2.054a.85.85 0 101.7 0z" fill="#333"/><path d="M58 8.631C58 3.871 54.13 0 49.37 0c-4.264 0-7.812 3.107-8.507 7.175H18.88a.85.85 0 100 1.7H40.74c.13 4.677 3.99 8.386 8.625 8.388h.003c.001 0 0 0 0 0h.003a8.693 8.693 0 003.485-.734v14.288a.85.85 0 101.7 0V15.525A8.623 8.623 0 0058 8.631zM49.37 1.7A6.94 6.94 0 0156.3 8.631c0 3.83-3.118 6.932-6.932 6.932-3.897 0-7.084-3.243-6.925-7.212a6.938 6.938 0 016.925-6.652z" fill="#333"/><path d="M47.018 11.901a.85.85 0 001.324.155l5.495-5.496a.85.85 0 00-1.201-1.201L47.9 10.095l-1.832-2.97a.85.85 0 00-1.446.893l2.396 3.883zM53.706 33.932a.85.85 0 00-.85.85v3.503a3.15 3.15 0 01-3.145 3.146H4.845A3.15 3.15 0 011.7 38.285V12.02a3.15 3.15 0 013.146-3.146h10.069a.85.85 0 100-1.699H4.845A4.85 4.85 0 000 12.02v26.265a4.85 4.85 0 004.845 4.845h44.866a4.85 4.85 0 004.845-4.845v-3.504a.85.85 0 00-.85-.85z" fill="#333"/><path d="M49.22 22.878v-2.511c0-.72-.587-1.307-1.307-1.307h-8.676c-.72 0-1.306.586-1.306 1.307v2.511c0 .72.586 1.306 1.306 1.306h8.676c.72 0 1.306-.586 1.306-1.306zm-1.7-.393h-7.89V20.76h7.89v1.725z" fill="#333"/></svg>