<svg viewBox="0 0 109 112" fill="none" xmlns="http://www.w3.org/2000/svg"><path d="M79.656 106.207C70.002 110.553 61.633 112 50.207 112 23.496 112 0 92.85 0 61.311 0 28.483 23.816 0 60.186 0c28.322 0 48.598 19.472 48.598 46.506 0 23.494-13.196 38.299-30.575 38.299-7.563 0-13.034-3.862-13.839-12.392h-.322C59.061 80.621 51.82 84.805 43.29 84.805c-10.46 0-18.023-7.725-18.023-20.921 0-19.632 14.482-37.494 37.654-37.494 7.08 0 15.125 1.771 19.15 4.023l-4.826 29.771c-1.608 9.492-.483 13.84 4.023 13.999 6.92.16 15.608-8.691 15.608-27.196 0-20.919-13.517-37.173-38.461-37.173-24.619 0-46.184 19.311-46.184 50.047 0 26.873 17.218 42.16 41.197 42.16 8.207 0 16.898-1.769 23.332-5.15l2.896 9.336zm-14.322-66.46c-1.288-.321-2.898-.643-4.989-.643-10.619 0-18.989 10.46-18.989 22.85 0 6.114 2.737 9.976 8.047 9.976 5.953 0 12.23-7.563 13.678-16.896l2.254-15.286z" fill="#000"/></svg>