<svg viewBox="0 0 47 36" fill="none" xmlns="http://www.w3.org/2000/svg"><path d="M40.97 0H5.707A5.712 5.712 0 000 5.707v24.1a5.712 5.712 0 005.707 5.707H40.96a5.712 5.712 0 005.707-5.706V5.716A5.705 5.705 0 0040.97 0zm3.1 29.808c0 1.709-1.391 3.1-3.1 3.1H5.707c-1.71 0-3.1-1.391-3.1-3.1V5.716c0-1.709 1.39-3.1 3.1-3.1H40.96c1.71 0 3.1 1.391 3.1 3.1v24.092h.01z" fill="#333"/><path d="M29.434 17.458L40.847 7.223a1.31 1.31 0 00.097-1.845 1.31 1.31 0 00-1.844-.096L23.36 19.408l-3.07-2.742c-.01-.01-.019-.02-.019-.029a1.922 1.922 0 00-.213-.183L7.564 5.272a1.302 1.302 0 00-1.844.106 1.302 1.302 0 00.106 1.845l11.548 10.322-11.5 10.766a1.309 1.309 0 00-.058 1.844 1.306 1.306 0 001.844.068l11.674-10.921 3.168 2.83a1.302 1.302 0 001.738-.01l3.254-2.916L39.1 30.232c.25.242.58.358.898.358a1.302 1.302 0 00.898-2.25L29.434 17.458z" fill="#333"/></svg>