<svg viewBox="0 0 32 32" fill="none" xmlns="http://www.w3.org/2000/svg"><path d="M14.867 8.745l.878 1.603.877-1.603c.415-.759 1.105-1.77 2.113-2.549l-.612-.791.612.791C19.769 5.396 20.922 5 22.188 5c3.535 0 6.301 2.88 6.301 6.92 0 2.131-.841 3.967-2.469 5.93-1.652 1.994-4.037 4.03-7.024 6.576h0v.001c-.981.836-2.093 1.783-3.251 2.795-1.157-1.01-2.27-1.958-3.249-2.793l-.002-.002h0c-2.988-2.546-5.372-4.582-7.025-6.577C3.842 15.887 3 14.051 3 11.92 3 7.88 5.766 5 9.302 5c1.265 0 2.418.396 3.453 1.196l.612-.791-.612.791c1.008.78 1.697 1.79 2.112 2.549z" stroke="#333" stroke-width="2"/></svg>