<svg viewBox="0 0 72 72" fill="none" xmlns="http://www.w3.org/2000/svg"><path d="M21.104 24.207l.62-2.483h1.242l3.724 3.724 3.103-2.791 3.104-4.036 2.482-1.242 1.242 1.242v2.482l-6.828 6.207-3.103 2.483-1.862-1.862-3.724-3.724z" fill="#E51A1E"/><path d="M42.91 42.387H16.572a1.055 1.055 0 100 2.111H42.91a1.056 1.056 0 000-2.11zM34.731 47.356H16.572a1.055 1.055 0 100 2.11h18.159a1.055 1.055 0 100-2.11z" fill="#333"/><path d="M65.365 21.626c.583 0 1.055-.472 1.055-1.055v-9.549c0-.583-.472-1.055-1.055-1.055h-11.97V1.056C53.394.473 52.921 0 52.338 0H6.635C6.052 0 5.58.473 5.58 1.056v36.253a1.055 1.055 0 102.11 0V2.11h43.593v48.786h-7.969c-.583 0-1.055.473-1.055 1.056v7.969H7.69v-18.39a1.055 1.055 0 10-2.111 0v19.446c0 .583.472 1.055 1.056 1.055h11.97v8.911c0 .583.472 1.056 1.055 1.056h36.68l.025-.001.077-.004c.02-.002.04-.006.06-.01l.042-.005.063-.016c.012-.003.025-.005.037-.01.02-.005.04-.013.06-.02l.037-.014.055-.026c.013-.006.026-.011.038-.018.02-.01.038-.022.057-.034l.032-.018c.025-.017.05-.036.074-.055l.01-.007c.027-.022.053-.046.078-.071l9.025-9.025a1.05 1.05 0 00.112-.134c.026-.037.052-.076.073-.116l.003-.006a1.045 1.045 0 00.1-.284v-.001a1.07 1.07 0 00.019-.17l.002-.035V24.793a1.055 1.055 0 10-2.112 0v36.071H56.34c-.583 0-1.056.473-1.056 1.056v7.969H20.717v-7.856h22.597l.025-.001a.953.953 0 00.078-.004l.06-.009.042-.006c.02-.004.042-.01.062-.016.013-.003.025-.005.037-.01.02-.005.04-.013.06-.02l.037-.014c.02-.008.038-.017.056-.026.013-.006.025-.01.038-.017.02-.01.038-.023.057-.034l.032-.02a.97.97 0 00.073-.054l.01-.007c.027-.022.054-.046.079-.07l9.024-9.026a1.05 1.05 0 00.186-.25l.002-.005c.02-.04.038-.08.053-.121l.012-.032a1.071 1.071 0 00.055-.302l.002-.036V12.078h10.914v8.493c.001.583.474 1.055 1.057 1.055zm-7.97 41.35h5.421l-5.42 5.42v-5.42zM44.37 58.428v-5.42h5.421l-5.42 5.42z" fill="#333"/><path d="M36.99 17.425a2.852 2.852 0 00-2.031-.841c-.767 0-1.488.298-2.03.84L26.7 23.654l-2.099-2.1a2.852 2.852 0 00-2.03-.84c-.767 0-1.488.299-2.03.84a2.874 2.874 0 000 4.061l4.13 4.13c.542.542 1.263.84 2.03.84.766 0 1.487-.298 2.03-.84l8.258-8.259a2.853 2.853 0 00.841-2.03c0-.767-.298-1.488-.84-2.03zm-1.494 2.567l-8.258 8.258a.754.754 0 01-.538.223.766.766 0 01-.537-.222l-4.129-4.13a.76.76 0 011.074-1.074l2.846 2.845a1.056 1.056 0 001.493 0l6.975-6.975a.755.755 0 01.537-.222.755.755 0 01.76.76.754.754 0 01-.223.537z" fill="#333"/><path d="M28.765 7.868c-3.24 0-6.343.989-8.974 2.86a1.056 1.056 0 101.223 1.72 13.306 13.306 0 017.75-2.469c7.388 0 13.398 6.01 13.398 13.398 0 7.387-6.01 13.397-13.397 13.397-7.387 0-13.397-6.01-13.397-13.397 0-3.003.97-5.841 2.807-8.207a1.055 1.055 0 10-1.668-1.294 15.359 15.359 0 00-3.25 9.5c0 8.552 6.957 15.509 15.508 15.509 8.551 0 15.508-6.957 15.508-15.508 0-8.552-6.957-15.509-15.508-15.509z" fill="#333"/></svg>