<svg viewBox="0 0 66 72" fill="none" xmlns="http://www.w3.org/2000/svg"><ellipse cx="40.345" cy="67.034" rx="5.586" ry="3.724" fill="#E51A1E"/><path d="M10.307 54.598a1.055 1.055 0 00.105-2.106 3.832 3.832 0 01-3.65-3.824 1.054 1.054 0 10-2.108 0 5.939 5.939 0 005.653 5.93z" fill="#333"/><path d="M61.994 31.376C63.526 7.668 37.37-8.162 17.162 4.452a1.054 1.054 0 101.114 1.79c18-11.413 42.199 2.28 41.61 23.58a10.515 10.515 0 00-2.552-1.024c-1.77-31.975-47.601-31.95-49.36 0-.902.23-1.757.578-2.55 1.024-.08-7.501 2.83-14.71 8.22-19.954a1.054 1.054 0 10-1.47-1.512c-6.289 6.033-9.28 14.405-8.859 23.02A10.56 10.56 0 000 39.062v9.59c0 5.84 4.751 10.591 10.592 10.591h1.484a3.998 3.998 0 003.944-3.375c3.09-.485 5.46-3.164 5.46-6.388V38.234c0-3.224-2.37-5.903-5.46-6.388a3.998 3.998 0 00-3.944-3.376c-.659-.006-1.325-.018-1.983.013 1.92-28.738 43.214-28.717 45.123 0-.66-.03-1.323-.016-1.983-.013a3.998 3.998 0 00-3.944 3.376c-3.09.485-5.46 3.164-5.46 6.387V49.48c0 3.224 2.37 5.903 5.46 6.388a3.998 3.998 0 003.944 3.375h1.484c.965 0 1.9-.132 2.789-.375.174 3.891-2.958 7.193-6.877 7.183h-3.707a4.902 4.902 0 00-4.78-3.84h-4.35c-6.484.245-6.485 9.543 0 9.789h4.35a4.902 4.902 0 004.78-3.84h3.707c5.52-.025 9.45-4.723 8.985-10.12 3.381-1.772 5.695-5.314 5.695-9.388v-9.59a10.56 10.56 0 00-3.315-7.686zm-42.622 6.857V49.48a4.366 4.366 0 01-3.304 4.23V34.004a4.366 4.366 0 013.304 4.23zm-7.296-7.654c1.039 0 1.883.845 1.883 1.883v22.79a1.885 1.885 0 01-1.883 1.883h-1.484c-4.678 0-8.484-3.806-8.484-8.483v-9.59c0-4.678 3.806-8.484 8.484-8.484h1.484zM42.143 69.89H37.79c-3.692-.14-3.69-5.433 0-5.572h4.352c3.692.14 3.69 5.433 0 5.572zM63.2 48.651c0 4.678-3.806 8.484-8.484 8.484h-1.484a1.885 1.885 0 01-1.883-1.883V50.61c0-1.363-2.109-1.363-2.109 0v3.098a4.365 4.365 0 01-3.304-4.229V38.234a4.365 4.365 0 013.304-4.229v11.033c0 1.363 2.108 1.363 2.108 0V32.462c0-1.038.845-1.883 1.884-1.883h1.484c4.678 0 8.484 3.805 8.484 8.483v9.59z" fill="#333"/></svg>