<svg viewBox="0 0 64 64" fill="none" xmlns="http://www.w3.org/2000/svg"><path d="M53.335 23.512h-12.28l2.774-12.498a8.229 8.229 0 00-3.092-8.356l-1.91-1.433a6.089 6.089 0 00-8.942 1.829A151.95 151.95 0 0117.012 22.71a2.287 2.287 0 00-2.057-1.31H2.285A2.285 2.285 0 000 23.686v35.916a2.286 2.286 0 002.286 2.286h12.676a2.258 2.258 0 002.224-1.975A12.672 12.672 0 0026.466 64h12.547a12.587 12.587 0 0010.496-5.618l12.475-18.713a10.395 10.395 0 00-8.649-16.157zM12.676 57.317H4.571V25.969h8.105v31.348zm45.505-20.18l-12.475 18.71a8.029 8.029 0 01-6.693 3.582H26.465a8.08 8.08 0 01-6.436-3.218l-2.782-3.708V29.03C22.022 25 28.82 14.095 33.848 5.33a1.489 1.489 0 011.008-.727 1.525 1.525 0 011.23.274l1.908 1.434a3.656 3.656 0 011.371 3.711l-3.387 15.28a2.285 2.285 0 002.231 2.782h15.133a5.825 5.825 0 014.846 9.053h-.007z" fill="#E51A1E"/></svg>