<svg viewBox="0 0 62 64" fill="none" xmlns="http://www.w3.org/2000/svg"><path d="M41.375 34.393l5.48 5.684h8.166l-.244 1.421-1.614 3.087-2.299 2.01-3.179 1.273-3.375-.294-2.2-.98L40.3 43.9l-1.027-2.4v-3.333l2.102-3.773z" fill="#E51A1E"/><path d="M60.135 33.332c.517 0 .936-.42.936-.937V1.562c0-.861-.7-1.562-1.56-1.562H15.113c-.86 0-1.56.7-1.56 1.563v28.33h-3.37a2.16 2.16 0 00-1.891 1.094 2.169 2.169 0 000 2.187l1.862 3.232a2.188 2.188 0 00-1.888 2.165v1.814c0 .435.129.84.348 1.18a15.13 15.13 0 00-3.977 2.806C2.164 46.815.802 49.963.802 53.235c0 3.95 1.979 7.677 5.428 10.225.471.348 1.06.54 1.655.54h51.627c.86 0 1.56-.7 1.56-1.563V36.77a.937.937 0 10-1.872 0v25.355H23.504c1.946-1.91 3.227-4.269 3.679-6.837a.936.936 0 10-1.843-.326c-.495 2.815-2.18 5.35-4.757 7.163H7.885a.919.919 0 01-.544-.174c-2.966-2.191-4.668-5.368-4.668-8.716 0-2.766 1.164-5.44 3.278-7.53 1.405-1.388 3.16-2.455 5.11-3.132h6.053c4.108 1.428 7.216 4.55 8.115 8.391a.935.935 0 101.822-.428c-.906-3.872-3.708-7.11-7.5-8.971.219-.341.348-.745.348-1.18v-1.814c0-1.105-.824-2.02-1.888-2.165l1.862-3.231a2.169 2.169 0 000-2.188 2.16 2.16 0 00-1.89-1.094h-2.558V1.875H59.2v30.52c0 .518.419.937.935.937zm-42.108 5.239v1.814c0 .172-.14.313-.312.313H10.45a.313.313 0 01-.312-.313v-1.814c0-.172.14-.313.312-.313h7.265c.172 0 .312.14.312.313zm-.045-6.803c.157 0 .236.098.27.156a.303.303 0 010 .313l-2.39 4.146h-3.56l-2.39-4.146a.303.303 0 010-.313.302.302 0 01.27-.156h7.8z" fill="#333"/><path d="M14.082 58.766c.517 0 .936-.42.936-.937V56.77h.137a2.883 2.883 0 000-5.765h-2.146a1.008 1.008 0 010-2.015h3.781a.937.937 0 000-1.875h-1.772v-1.06a.937.937 0 10-1.872 0v1.06h-.137a2.883 2.883 0 000 5.765h2.146a1.008 1.008 0 010 2.015h-3.78a.937.937 0 000 1.875h1.771v1.059c0 .518.42.937.936.937zM56.392 26.949v-9.1c0-.723-.588-1.312-1.31-1.312H52.71c-.722 0-1.31.589-1.31 1.312v8.537h-1.643V14.074c0-.724-.588-1.313-1.31-1.313h-2.37c-.723 0-1.31.59-1.31 1.313v12.312h-1.644V10.804c0-.724-.587-1.313-1.31-1.313h-2.37c-.723 0-1.31.59-1.31 1.313v15.582H36.49V21.25a.936.936 0 10-1.872 0v5.136h-1.247V14.091h1.247v2.784a.937.937 0 101.872 0V13.53c0-.724-.588-1.313-1.31-1.313h-2.37c-.723 0-1.31.59-1.31 1.313v12.857h-1.644v-9.769c0-.724-.587-1.312-1.31-1.312h-2.37c-.723 0-1.31.588-1.31 1.312v9.769h-1.643v-6.613c0-.723-.588-1.312-1.31-1.312h-2.371c-.722 0-1.31.589-1.31 1.312v7.175c0 .724.588 1.313 1.31 1.313h35.539c.722 0 1.31-.589 1.31-1.312zm-35.04-.563h-1.248v-6.05h1.248v6.05zm6.634 0h-1.248V17.18h1.248v9.206zm13.267 0h-1.248v-15.02h1.248v15.02zm6.633 0H46.64v-11.75h1.247v11.75zm6.634 0h-1.248v-7.974h1.248v7.974zM54.812 39.241h-.46c-.462-3.69-3.61-6.553-7.416-6.553a7.43 7.43 0 00-4.584 1.579l-.328-.328a.935.935 0 00-.661-.274h-.001c-.248 0-.486.099-.662.275a8.899 8.899 0 00-2.577 6.238c0 4.868 3.954 8.829 8.813 8.829s8.812-3.96 8.812-8.829a.936.936 0 00-.936-.937zm-7.876-4.678c2.772 0 5.079 2.026 5.526 4.678h-5.14l-3.633-3.636a5.565 5.565 0 013.247-1.042zm0 12.569c-3.827 0-6.94-3.12-6.94-6.953a7.02 7.02 0 011.413-4.205l4.865 4.868a.935.935 0 00.662.274h6.877c-.458 3.392-3.367 6.016-6.877 6.016zM25.279 35.723h10.478a.937.937 0 000-1.875H25.28a.937.937 0 000 1.875zM25.279 39.319h10.478a.937.937 0 000-1.876H25.28a.937.937 0 000 1.876zM26.713 42.913h9.044a.936.936 0 000-1.874h-9.044a.937.937 0 000 1.874zM29.585 46.509h6.172a.937.937 0 000-1.875h-6.172a.937.937 0 000 1.875zM29.73 6.477a.937.937 0 000-1.875H19.22a.937.937 0 000 1.875H29.73zM49.634 6.477h5.77a.937.937 0 000-1.875h-5.77a.937.937 0 000 1.875zM49.634 9.784h5.77a.937.937 0 000-1.875h-5.77a.937.937 0 000 1.875zM32.547 57.994h20.31a2.896 2.896 0 000-5.792h-20.31a2.896 2.896 0 000 5.792zm15.486-3.917h4.823a1.021 1.021 0 010 2.042h-4.824v-2.042zm-15.486 0h13.614v2.042H32.547a1.02 1.02 0 010-2.042z" fill="#333"/></svg>