<svg viewBox="0 0 31 40" fill="none" xmlns="http://www.w3.org/2000/svg"><path d="M30.125 9.718L20.751.343A1.173 1.173 0 0019.92 0H3.517A3.52 3.52 0 000 3.516v32.968A3.52 3.52 0 003.516 40h23.437a3.52 3.52 0 003.516-3.516V10.547c0-.32-.134-.62-.344-.829zm-9.031-5.717l5.374 5.374h-4.202a1.173 1.173 0 01-1.172-1.172V4.001zm5.86 33.655H3.515a1.173 1.173 0 01-1.172-1.172V3.516c0-.647.525-1.172 1.172-1.172H18.75v5.86a3.52 3.52 0 003.516 3.515h5.859v24.765c0 .646-.526 1.172-1.172 1.172z" fill="#333"/><path d="M22.266 16.563H8.203a1.172 1.172 0 000 2.343h14.063a1.172 1.172 0 100-2.343zM22.266 21.25H8.203a1.172 1.172 0 000 2.344h14.063a1.172 1.172 0 000-2.344zM22.266 25.938H8.203a1.172 1.172 0 100 2.343h14.063a1.172 1.172 0 000-2.343zM17.578 30.625H8.203a1.172 1.172 0 100 2.344h9.375a1.172 1.172 0 000-2.344z" fill="#333"/></svg>