<svg viewBox="0 0 57 64" fill="none" xmlns="http://www.w3.org/2000/svg"><path class="painted" fill="#E51A1E" d="M13.438 6.516h20.787v8.014H13.438z"/><path d="M56.843 18.468a2.17 2.17 0 00-1.017-1.327l-1.836-1.062a2.165 2.165 0 00-1.657-.219 2.167 2.167 0 00-1.325 1.019l-1.096 1.9a2.163 2.163 0 00-1.489-.131 2.17 2.17 0 00-1.325 1.018l-.07.12v-8.099A4.688 4.688 0 0042.35 7h-6.825a2.187 2.187 0 00-2.159-1.875h-3.181V2.812c0-1.55-1.26-2.812-2.807-2.812h-6.863a2.813 2.813 0 00-2.807 2.813v2.312h-3.182A2.187 2.187 0 0012.368 7H5.543a4.688 4.688 0 00-4.679 4.688v47.624A4.688 4.688 0 005.543 64h29.202a.936.936 0 000-1.875H5.543a2.813 2.813 0 01-2.807-2.813V11.688c0-1.551 1.26-2.813 2.807-2.813h6.8v4.563c0 1.206.98 2.187 2.183 2.187h18.84a2.188 2.188 0 002.184-2.188v-.874h5.926V29.42l-9.521 16.523a3.425 3.425 0 00-.451 1.963l.417 5.856a1.562 1.562 0 001.556 1.45c.223 0 .447-.047.655-.144l5.38-2.5a3.415 3.415 0 001.527-1.399l.437-.758v8.026H6.416V12.562h2.496a.937.937 0 000-1.874H6.104c-.86 0-1.56.7-1.56 1.562v46.5c0 .862.7 1.563 1.56 1.563h35.684c.86 0 1.56-.701 1.56-1.563V47.164l1.81-3.14v15.288c0 1.551-1.26 2.813-2.808 2.813H39.11a.937.937 0 000 1.875h3.239a4.689 4.689 0 004.679-4.688V40.778l7.894-13.699 1.247-2.164a2.175 2.175 0 00.218-1.66 2.169 2.169 0 00-.859-1.225l1.096-1.901a2.176 2.176 0 00.218-1.66zm-4.214-.652a.312.312 0 01.425-.114l1.836 1.062a.313.313 0 01.114.426l-1.091 1.893-2.375-1.373 1.09-1.894zm-3.91 2.788a.31.31 0 01.188-.145.305.305 0 01.236.03l5.292 3.062a.31.31 0 01.114.426l-.779 1.352-5.83-3.373.778-1.352zM19.578 2.813c0-.518.42-.938.936-.938h6.863c.516 0 .935.42.935.938v2.312H19.58V2.812zm14.1 10.624c0 .173-.14.313-.313.313h-18.84a.312.312 0 01-.312-.313V7.314c0-.173.14-.313.312-.313h18.84c.172 0 .312.14.312.313v6.125zm8.11-2.75h-6.24V8.876h6.8a2.813 2.813 0 012.808 2.813v11.346l-1.809 3.14V12.25c0-.862-.7-1.563-1.56-1.563zm5.215 12.893l5.83 3.373L41.362 46.86l-5.83-3.373L47.003 23.58zm-7.585 26.653c-.162.28-.402.5-.694.635l-4.97 2.31-.385-5.405c-.022-.312.05-.62.206-.891l1.02-1.771 5.83 3.372-1.007 1.75z" fill="#333"/><path d="M10.53 52.305a.932.932 0 001.32-.079l1.856-2.093 1.436 1.717a1.559 1.559 0 002.342.055l1.727-1.88 1.915 2.172a.934.934 0 001.32.082.938.938 0 00.083-1.323l-2.144-2.431a1.56 1.56 0 00-1.152-.528h-.017a1.56 1.56 0 00-1.147.504l-1.72 1.872-1.441-1.722a1.559 1.559 0 00-2.361-.033L10.45 50.98a.938.938 0 00.078 1.324z" fill="#E51A1E"/><path d="M38.139 20.688a.936.936 0 00-.936-.938H10.627a.937.937 0 000 1.875h26.576c.517 0 .936-.42.936-.938zM10.752 26.625h11.104a.937.937 0 000-1.875H10.753a.937.937 0 000 1.875zM31.526 25.688a.937.937 0 00-.936-.938h-4.366a.937.937 0 000 1.875h4.366c.517 0 .936-.42.936-.938zM10.752 31.625h8.983a.937.937 0 000-1.875h-8.983a.937.937 0 000 1.875zM27.97 29.75h-4.242a.937.937 0 000 1.875h4.242a.937.937 0 000-1.875zM10.752 36.625h6.488a.937.937 0 000-1.875h-6.488a.937.937 0 000 1.875zM28.906 35.688a.936.936 0 00-.936-.938h-6.737a.936.936 0 000 1.875h6.737c.517 0 .936-.42.936-.938zM10.752 41.625h6.488a.937.937 0 000-1.875h-6.488a.937.937 0 000 1.875z" fill="#333"/></svg>