<svg viewBox="0 0 52 64" fill="none" xmlns="http://www.w3.org/2000/svg"><path d="M50.246 28.983c-.165-.059-1.752-.618-4.386-1.294v-7.574C45.86 9.024 36.838 0 25.746 0 14.653 0 5.629 9.024 5.629 20.116v7.573c-2.633.676-4.22 1.235-4.385 1.295L0 29.428v30.265l1.244.445C1.684 60.295 12.2 64 25.745 64s24.06-3.705 24.501-3.862l1.244-.445V29.428l-1.244-.445zM9.38 20.116c0-9.024 7.342-16.366 16.366-16.366 9.024 0 16.366 7.341 16.366 16.366v6.709a84.53 84.53 0 00-5-.873v-5.837c0-6.266-5.099-11.365-11.366-11.365-6.267 0-11.366 5.098-11.366 11.366v5.836a84.53 84.53 0 00-5 .873v-6.71zm23.982 5.383a78.378 78.378 0 00-7.616-.378 78.38 78.38 0 00-7.616.378v-5.383c0-4.2 3.417-7.616 7.616-7.616 4.2 0 7.616 3.416 7.616 7.616v5.383zM47.74 57.006c-3.114.947-11.73 3.244-21.995 3.244-10.266 0-18.882-2.297-21.995-3.244V32.114c3.108-.947 11.704-3.243 21.995-3.243 10.266 0 18.882 2.298 21.995 3.244v24.891z" fill="#E51A1E"/><path d="M20.12 41.123a5.634 5.634 0 003.75 5.302v5.324h3.75v-5.324a5.634 5.634 0 003.75-5.302 5.631 5.631 0 00-5.625-5.625 5.631 5.631 0 00-5.625 5.625zm7.5 0a1.877 1.877 0 01-1.875 1.875 1.877 1.877 0 01-1.875-1.875c0-1.034.841-1.875 1.875-1.875s1.875.84 1.875 1.875z" fill="#E51A1E"/></svg>