<svg viewBox="0 0 284 29" fill="none" xmlns="http://www.w3.org/2000/svg"><path d="M9.702 27.074c-1.32 0-2.54-.305-3.454-.863L0 22.4V18.49l5.74 3.505c1.067.66 2.489 1.015 3.962 1.015 1.473 0 2.895-.355 3.962-1.015l6.502-3.963c.914-.558 2.133-.863 3.403-.863s2.49.305 3.404.863l6.298 3.81v3.912l-5.74-3.505c-1.066-.66-2.489-1.016-3.91-1.016-1.474 0-2.845.355-3.912 1.016l-6.502 3.962c-.965.558-2.184.863-3.505.863z" fill="#E51A1E"/><path d="M9.702 18.54c-1.32 0-2.54-.304-3.454-.863L0 13.817V9.904l5.74 3.505c1.067.66 2.489 1.016 3.962 1.016 1.473 0 2.895-.356 3.962-1.016l6.502-3.962c.914-.559 2.133-.864 3.403-.864s2.49.305 3.404.864l6.248 3.81v3.911l-5.74-3.505c-1.067-.66-2.49-1.016-3.912-1.016-1.473 0-2.844.356-3.911 1.016l-6.502 3.962c-.914.61-2.133.915-3.454.915z" fill="#E51A1E"/><path d="M9.702 9.956c-1.32 0-2.54-.305-3.454-.864L0 5.232V1.321l5.74 3.505c1.067.66 2.489 1.016 3.962 1.016 1.473 0 2.895-.356 3.962-1.016L20.166.864C21.131.304 22.35 0 23.62 0s2.49.305 3.403.864l6.248 3.81v3.91l-5.74-3.504c-1.066-.66-2.438-1.016-3.91-1.016-1.474 0-2.845.355-3.912 1.016l-6.502 3.962c-.965.61-2.184.914-3.505.914zM61.768 22.96L59.736 10.92 59.38 8.84l-4.774 14.12h-2.54L47.342 8.789l-.356 2.133-2.082 12.039h-2.591l3.25-18.642h2.795l4.978 14.984 5.029-14.984h2.793l3.15 18.642h-2.54zM143.143 22.96l-4.622-5.436-.966 1.067v4.369h-2.539V18.59l-.966-1.067-4.622 5.436h-3.352l6.095-6.96-5.994-6.552h2.997l5.842 6.35v-6.35h2.539v6.35l5.842-6.35h2.997l-5.994 6.553 6.146 6.959h-3.403zM182.662 23.366c-.457 0-.813-.152-1.117-.457a1.493 1.493 0 01-.457-1.117c0-.458.152-.813.457-1.118.304-.305.66-.457 1.117-.457.457 0 .813.152 1.118.457.304.305.457.66.457 1.117 0 .458-.153.813-.457 1.118-.356.305-.711.457-1.118.457zM77.82 22.96v-1.524l-.813.508c-1.067.66-2.286.965-3.556.965-3.81 0-6.96-3.099-6.96-6.96 0-3.809 3.1-6.958 6.96-6.958 3.81 0 6.959 3.098 6.959 6.959v6.959h-2.59v.05zm-4.37-11.328a4.368 4.368 0 100 8.737 4.368 4.368 0 004.37-4.368c0-2.388-1.982-4.369-4.37-4.369zM90.366 22.96c-3.81 0-6.96-3.099-6.96-6.96 0-3.809 3.1-6.958 6.96-6.958 1.676 0 3.25.61 4.52 1.676l-1.828 1.829c-.762-.61-1.676-.915-2.692-.915a4.368 4.368 0 100 8.737c.965 0 1.93-.305 2.692-.914l1.829 1.829c-1.32 1.066-2.896 1.676-4.521 1.676zM103.878 22.96c-3.81 0-6.96-3.099-6.96-6.96 0-3.809 3.099-6.958 6.96-6.958 1.676 0 3.251.61 4.521 1.676l-1.829 1.829c-.762-.61-1.676-.915-2.692-.915a4.368 4.368 0 100 8.737c.965 0 1.93-.305 2.692-.914l1.829 1.829c-1.27 1.066-2.845 1.676-4.521 1.676zM151.423 5.69c.406 0 .711-.153.965-.407s.406-.61.406-.965a1.3 1.3 0 00-.406-.965 1.389 1.389 0 00-.965-.407 1.39 1.39 0 00-1.372 1.372c0 .406.152.71.406.965.254.254.559.406.966.406zM157.366 5.69c.406 0 .711-.153.965-.407s.406-.61.406-.965a1.3 1.3 0 00-.406-.965 1.389 1.389 0 00-.965-.407 1.387 1.387 0 00-1.372 1.372c0 .406.153.71.407.965.254.254.609.406.965.406zM161.277 16c0-3.809-3.099-6.958-6.959-6.958-3.81 0-6.959 3.098-6.959 6.959 0 3.81 3.098 6.959 6.959 6.959 1.676 0 3.251-.61 4.521-1.677l-1.829-1.828c-.762.61-1.727.914-2.692.914a4.316 4.316 0 01-4.114-2.946l-.254-.711h11.276c0-.254.051-.457.051-.711zM150 14.935l.356-.762c.711-1.524 2.286-2.54 3.962-2.54 1.676 0 3.251.965 3.962 2.54l.356.762H150zM163.766 28.344V16.051c0-3.81 3.099-6.959 6.959-6.959 3.81 0 6.959 3.099 6.959 6.96 0 3.81-3.098 6.959-6.959 6.959-1.219 0-2.438-.356-3.556-.966l-.812-.508v6.807h-2.591zm6.908-16.712a4.368 4.368 0 100 8.737 4.369 4.369 0 004.369-4.368c.051-2.388-1.931-4.369-4.369-4.369zM121.453 22.96v-1.524l-.813.508c-1.066.66-2.286.965-3.555.965-3.81 0-6.959-3.099-6.959-6.96 0-3.809 3.098-6.958 6.959-6.958 3.809 0 6.959 3.098 6.959 6.959v6.959h-2.591v.05zm-4.368-11.328a4.368 4.368 0 100 8.737 4.368 4.368 0 004.368-4.368c0-2.388-1.981-4.369-4.368-4.369zM206.13 4.216l-7.518 15.34-7.619-15.34h-.305l-2.692 18.693h1.828l1.829-13.461 6.705 13.461h.457l6.654-13.36 1.829 13.36h1.829l-2.692-18.693h-.305zM256.215 9.092h-2.489l-6.451 5.842V9.092h-1.778V22.91h1.778v-5.892l.609-.508 6.35 6.4h2.539l-7.619-7.518 7.061-6.299zM270.895 11.43c-1.423-1.779-3.302-2.693-5.639-2.693-2.286 0-4.114.863-5.486 2.641-1.066 1.372-1.625 2.946-1.625 4.674 0 1.879.66 3.555 1.93 5.028 1.27 1.473 3.048 2.235 5.283 2.235 1.016 0 1.93-.152 2.743-.457.813-.305 1.524-.762 2.184-1.371.66-.61 1.219-1.372 1.727-2.337l-1.524-.813c-.558.915-1.066 1.575-1.524 1.981-.457.407-1.016.711-1.727.965-.66.254-1.371.356-2.082.356-1.473 0-2.692-.508-3.708-1.524s-1.524-2.336-1.524-3.962h12.445c.051-1.88-.457-3.505-1.473-4.724zm-10.718 3.148c.355-1.27.914-2.235 1.625-2.844.965-.864 2.134-1.32 3.505-1.32.813 0 1.626.152 2.337.507.762.356 1.371.813 1.778 1.372.457.558.812 1.32 1.015 2.285h-10.26zM274.908 9.092v1.524h3.657V22.91h1.778V10.616H284V9.092h-9.092zM218.321 8.737c-3.911 0-7.112 3.2-7.112 7.111 0 3.912 3.201 7.112 7.112 7.112 2.286 0 4.267-1.067 5.587-2.743v2.743h1.524v-7.112a7.1 7.1 0 00-7.111-7.111zm0 12.445a5.387 5.387 0 01-5.384-5.384c0-2.947 2.387-5.385 5.384-5.385a5.387 5.387 0 015.384 5.384 5.387 5.387 0 01-5.384 5.385zM235.287 8.737c-3.912 0-7.112 3.2-7.112 7.111V28.04h1.524v-7.873c1.321 1.676 3.302 2.743 5.588 2.743 3.911 0 7.111-3.2 7.111-7.111 0-3.912-3.2-7.061-7.111-7.061zm0 12.445c-2.946 0-5.385-2.387-5.385-5.384a5.388 5.388 0 015.385-5.385 5.387 5.387 0 015.384 5.384 5.387 5.387 0 01-5.384 5.385z" fill="#E51A1E"/></svg>