<svg viewBox="0 0 58 58" fill="none" xmlns="http://www.w3.org/2000/svg"><path fill-rule="evenodd" clip-rule="evenodd" d="M38 28.5c0-.4-4-4.833-6-7L28 13l1-6.5L32.5 3l3-2H40l3.5 1L47 5.5l2 5-1 5-3 6-3.5 4-3.5 3zm.5-11.5a5.5 5.5 0 100-11 5.5 5.5 0 000 11z" fill="#D54545"/><path d="M58 38.344V19.643c0-.41-.27-.77-.662-.887l-8.652-2.567c.67-1.639 1.087-3.264 1.087-4.774C49.773 5.12 44.653 0 38.358 0c-6.294 0-11.415 5.12-11.415 11.415 0 1.51.417 3.136 1.087 4.774l-8.389 2.489L1.19 13.202A.927.927 0 000 14.09V51.52c0 .41.27.771.662.888l18.702 5.549.014.004a.899.899 0 00.262.038.935.935 0 00.121-.009.924.924 0 00.135-.028l.009-.001.008-.003 18.07-5.361a.922.922 0 00.75 0l18.078 5.364a.925.925 0 001.19-.888V38.351L58 38.344zm-1.851-18.01v16.785l-16.866-5.004v-2.633c1.207-1.242 5.947-6.293 8.623-11.594l8.243 2.446zM38.358 1.85c5.273 0 9.564 4.29 9.564 9.564 0 1.503-.503 3.177-1.285 4.873a.927.927 0 00-.095.201c-2.23 4.708-6.544 9.533-8.184 11.279-1.64-1.744-5.95-6.563-8.181-11.269a.924.924 0 00-.103-.22c-.78-1.692-1.28-3.363-1.28-4.864 0-5.274 4.29-9.564 9.564-9.564zm-.926 27.631v2.633l-16.865 5.004V20.334l8.242-2.446c2.677 5.301 7.416 10.351 8.623 11.594zm-35.58 4.563l6.394 1.898a.924.924 0 10.526-1.775l-6.92-2.053V15.33l16.864 5.004v16.785L12.32 35.22a.925.925 0 10-.526 1.775l6.92 2.053v16.785L1.852 50.83V34.046zM39.282 50.83v-6.7a.926.926 0 10-1.85 0v6.7l-16.866 5.004V39.05l16.865-5.004v6.383a.926.926 0 001.851 0v-6.383L56.15 39.05v16.785L39.283 50.83z" fill="#333"/><path d="M38.358 17.893a6.486 6.486 0 006.478-6.478 6.486 6.486 0 00-6.478-6.479 6.486 6.486 0 00-6.48 6.479 6.486 6.486 0 006.48 6.479zm0-11.106a4.633 4.633 0 014.627 4.628 4.633 4.633 0 01-4.627 4.627 4.633 4.633 0 01-4.628-4.627 4.633 4.633 0 014.628-4.628z" fill="#000"/></svg>