<svg viewBox="0 0 43 40" fill="none" xmlns="http://www.w3.org/2000/svg"><path d="M41.226 8.34C26.901 5.493 27.828 5.642 27.504 5.696c-.104.018-1.376.273-4.339.866C21.923 2.979 18.514.4 14.514.4 10.51.4 7.099 2.984 5.859 6.572l-4.38-.87A1.237 1.237 0 000 6.914v29.028c0 .59.417 1.098.996 1.213 14.204 2.823 13.274 2.64 13.368 2.652.3.037-.624.19 13.345-2.604l13.035 2.59a1.237 1.237 0 001.478-1.213V9.554c0-.59-.417-1.099-.996-1.214zM14.514 2.874a6.687 6.687 0 016.68 6.68c0 3.107-4.973 10.995-6.68 13.605-1.705-2.607-6.68-10.497-6.68-13.605a6.687 6.687 0 016.68-6.68zM2.474 8.422l2.904.577a9.233 9.233 0 00-.018.554c0 2.063 1.35 5.392 4.126 10.177a107.937 107.937 0 003.79 6.039v11.305L2.475 34.927V8.422zm13.277 17.347c.572-.845 2.17-3.244 3.791-6.038 2.776-4.786 4.125-8.115 4.125-10.177 0-.19-.006-.379-.017-.566l2.821-.565v26.505l-10.72 2.145V25.768zm23.997 11.305l-10.803-2.147V8.422l10.803 2.147v26.505z" fill="#333"/><path d="M14.514 13.43a3.88 3.88 0 003.875-3.876 3.88 3.88 0 00-3.875-3.876 3.88 3.88 0 00-3.876 3.876 3.88 3.88 0 003.876 3.876zm0-5.278c.773 0 1.402.629 1.402 1.402 0 .773-.63 1.402-1.402 1.402a1.403 1.403 0 01-1.402-1.402c0-.773.629-1.402 1.402-1.402z" fill="#333"/></svg>