<svg viewBox="0 0 80 15" fill="none" xmlns="http://www.w3.org/2000/svg"><path d="M8.43.373c.237.03.475.063.712.089.854.086 2.23.622 2.848 1.101-1.804 1.538-2.8 3.489-2.8 5.885 0 2.326.949 4.32 2.8 5.886-.285.142-.523.284-.807.427a6.784 6.784 0 01-2.231.664c-1.993.238-3.825-.284-5.41-1.566-1.325-1.091-2.155-2.515-2.45-4.177-.349-2.04.097-3.906 1.367-5.553C3.51 1.767 4.89.913 6.58.543c.285-.07.617-.089.95-.132.047-.007.094-.02.142-.03h.759V.374zM17.163.373c.237.03.427.056.664.088a6.676 6.676 0 012.896 1.11c1.613 1.102 2.658 2.611 3.037 4.534.38 2.183-.142 4.176-1.614 5.885-1.044 1.281-2.42 2.04-4.034 2.373-1.85.332-3.607 0-5.173-1.044 0 0-.048 0-.048-.048 1.804-1.519 2.753-3.464 2.753-5.838 0-2.382-.95-4.323-2.8-5.885.38-.209.76-.413 1.139-.584A6.333 6.333 0 0116.309.4c.047-.003.095-.018.142-.027h.712z" fill="#898989"/><path d="M12.417 1.89c3.702 2.838 3.56 8.4 0 11.059-3.417-2.61-3.797-8.021 0-11.059zM29.598 5.108v.57c.38-.523.902-.722 1.471-.684.617.033 1.092.304 1.424.826a.655.655 0 01.142-.19c.333-.38.76-.584 1.282-.631.38-.034.807.014 1.186.204.523.237.807.664.902 1.234V9.807h-1.044V7.149c0-.19 0-.38-.047-.522-.19-.57-.57-.665-.997-.665-.332 0-.665.143-.902.427-.095.19-.19.427-.19.665v2.753h-1.044v-.19c0-.855 0-1.709-.047-2.563 0-.19-.048-.427-.095-.57-.19-.38-.475-.474-.807-.522-.475 0-.95.143-1.14.665-.047.19-.094.427-.094.664v2.516h-1.044v-4.7h1.044zM76.144 7.457c.014.114.024.233.043.347.223 1.139 1.438 1.376 2.15.901.546-.332.702-.901.612-1.528-.128-.892-.93-1.39-1.803-1.153-.613.161-.992.721-1.002 1.433zm2.777-1.822V3.238l1.034-.001v6.55h-1.04v-.475c-.213.142-.407.332-.64.427a2.266 2.266 0 01-3.014-1.329c-.37-1.03-.224-2.003.575-2.805.37-.375.84-.565 1.371-.612.518-.052.997.042 1.415.36.1.076.18.167.299.271M66.95 7.48v.38c0 1.14 1.425 1.33 1.9.807.949-.38.949-.854.949-1.47-.475-.903-.95-1.425-1.899-1.14-.475.19-.95.712-.95 1.424zM69.8 9.285c-.475.333-.95.57-1.424.617-.95.143-1.899-.474-2.373-1.566-.475-.902-.475-1.756.474-2.515.475-.475.95-.76 1.424-.817.475-.047.95.015 1.424.247 0 .095 0 .238.475.38v-.522h.949v4.699h-.95v-.523zM40.8 7.433a1.381 1.381 0 00-1.282-1.47c-.522 0-.95.142-1.234.569-.285.38-.332.76-.285 1.186.142.855.807 1.33 1.709 1.187.759-.143 1.139-.807 1.091-1.472zm-.048-1.803v-.427c0-.048.047-.095.095-.095h.901v4.699h-.996v-.523l-.048.048c-.427.475-.996.617-1.613.57-1.044-.048-1.899-.807-2.136-1.852-.142-.759 0-1.518.474-2.135.38-.57.95-.855 1.614-.912.57-.057 1.092.057 1.519.437.047.047.095.142.19.19zM55.56 7.054c0-.807-.475-1.234-1.424-1.14-.475.096-.95.618-.95 1.14h2.374zm.474 1.424c0 .237.475.474.475.664v.19c-.95.475-1.424.617-2.373.57-.95-.048-1.899-.712-1.899-1.851 0-.807 0-1.567.475-2.184.475-.522.95-.807 1.424-.864.474-.056.95.048 1.424.39.949.38.949.901.949 1.518v.95h-3.322c0 .617.474 1.044.949 1.091.95.095 1.424-.095 1.898-.38v-.094zM42.745 9.284c.19-.237.332-.522.522-.759 0 0 .047.048.095.048.617.427 1.281.522 1.993.332.143 0 .285-.095.428-.19.19-.19.142-.475-.095-.57-.285-.095-.523-.19-.807-.19-.38-.094-.807-.142-1.187-.332-.427-.19-.712-.522-.712-.996-.095-.57.143-.997.617-1.33.333-.19.712-.28 1.092-.298.712-.034 1.329.057 1.946.346.047.048.142.095.19.143a12.5 12.5 0 01-.427.806c-.285-.095-.57-.237-.807-.284-.38-.095-.76-.143-1.14-.048-.19.095-.38.19-.427.427 0 .19.048.285.19.38.238.047.475.095.76.142.38.095.759.095 1.139.285.474.19.807.522.854 1.044.047.57-.19.997-.664 1.33-.38.237-.807.331-1.282.331-.712.048-1.424-.047-2.04-.427-.048-.047-.143-.095-.19-.142l-.048-.048zM48.44 6.057h-.807v-.95h.807V3.695h.95v1.414h1.898V6.057H49.39V6.2c0 .617 0 1.281.474 1.898v.38c0 .332 0 .522.475.427.474-.048.474-.143.949-.19v.902c-.475.237-.95.332-1.424.285 0 0-.474-.095-.95-.333 0-.237-.474-.57-.474-.901V6.057zM64.578 8.525c.474.285.474.522.474.807 0 .19 0 .332-.475.427-.949.285-1.898.237-2.847-.38-.475-.332-.475-.759-.475-1.281-.474-.76 0-1.424 0-2.088.475-.57.95-.855 1.899-.973.474-.095.949-.072 1.423.166.475.095.475.19.475.332 0 .285 0 .57-.475.854 0-.095 0-.237-.474-.284-.475-.19-.95-.19-1.424.142-.475.237-.475.57-.475.95 0 .426 0 .9.475 1.28 0 .285.475.428.475.475.474 0 .949-.095 1.423-.38v-.047zM57.933 9.807V5.108h.949v.475c0-.238.475-.475.95-.56 0-.072.474-.02.949.085 0 .332 0 .664-.475.95 0-.048-.475-.048-.475-.096-.474 0-.949.285-.949.76V9.807h-.95zM72.171 5.108h.95v.522c.474-.707.949-.74 1.898-.522 0 .332-.475.664-.475.997 0-.143-.474-.143-.949-.095 0 .047-.474.332-.474.759v3.037h-.95V5.109z" fill="#898989"/></svg>