<svg viewBox="0 0 49 15" fill="none" xmlns="http://www.w3.org/2000/svg"><path d="M4.685.414h.095c1.2.14 1.865.844 2.198 1.95.522 1.913 1.091 3.821 1.66 5.696 0 .047 0 .142.048.19 0 .047.048.095.143.095.095 0 .095-.048.142-.095.095-.285.142-.57.237-.855.475-1.756.997-3.455 1.472-5.173.237-.816.759-1.386 1.566-1.718.19-.079.427-.056.617-.112h.047c.048.047.143.024.238.024h3.939c.427 0 .427 0 .427.448v12.73c0 .142.048.285-.047.38-.048.047-.143.047-.238.047h-4.034c-.142-.048-.142-.19-.142-.285V6.38c0-.095.095-.285-.095-.333-.095 0-.143.19-.143.285-.474 1.566-.949 3.085-1.423 4.651l-.855 2.706c-.047.142-.047.284-.237.332H7.31c-.143 0-.143-.143-.19-.237L5.98 10.08c-.379-1.28-.806-2.562-1.186-3.844-.01-.047-.019-.047-.038-.095-.028-.047-.057-.095-.123-.095-.057 0-.062.095-.066.143-.01.047-.005.142-.005.237v7.12c0 .094.005.19-.01.284-.01.095-.019.19-.142.19H.423c-.085 0-.174 0-.26-.048-.031-.047-.017-.142-.017-.19V.638C.146.55.138.487.158.423.24.375.33.4.416.4c1.338-.002 2.677 0 4.006-.002.085 0 .175.023.26-.024M29 .414h.095c.047.046.142.023.237.023 1.14.002 2.278.006 3.417-.003.238-.001.285.067.285.26v13.313c-.047.047-.047.047-.095.047-1.424.047-2.848 0-4.224 0-.142 0-.142-.143-.142-.238V6.412c0-.095.047-.284-.095-.284-.143-.048-.143.094-.19.19-.712 1.566-1.424 3.084-2.136 4.65-.285.57-.522 1.14-.807 1.71-.474.901-1.186 1.423-2.278 1.376h-3.654c-.048 0-.048 0-.048-.048-.047-.095-.047-.19-.047-.332V.724c0-.246.047-.266.284-.266H23.4c.285 0 .333.017.333.315v7.253c0 .094-.048.237 0 .332.142.142.237 0 .284-.095.19-.285.285-.617.428-.902.664-1.424 1.328-2.862 1.993-4.29l.57-1.258c.332-.627.806-1.05 1.47-1.291.143-.062.333-.036.523-.09M48.554 5.397v.38c0 .19 0 .237-.474.237-1.472-.048-3.038 0-4.604-.048-.95 0-1.946.048-2.895 0-2.99-.142-5.6-2.26-6.313-5.316V.516c0-.05 0-.073.048-.075.094-.005.142-.003.237-.003H44.33c.902-.02 1.709.377 2.42.921.855.64 1.33 1.505 1.804 2.525v1.514-.001zM39.157 14.035h-4.319V6.868c0-.19.047-.285.237-.285 4.32.048 8.59.048 13.005 0v.285c-.76 1.756-2.184 2.753-4.177 2.848-1.471.047-2.99 0-4.461 0-.19 0-.238 0-.238.237v3.844c0 .095 0 .143-.047.238z" fill="#898989"/></svg>