<svg viewBox="0 0 52 19" fill="none" xmlns="http://www.w3.org/2000/svg"><path fill-rule="evenodd" clip-rule="evenodd" d="M13.283 16.229c1.596 0 3.328.541 5.246 2.22.192.168.447-.041.28-.25-1.884-2.35-3.627-2.799-5.366-3.177-2.126-.462-3.219-1.644-3.982-2.942-.15-.258-.219-.213-.233.12-.017.405.011.942.104 1.471-.086.004-.172.002-.259.002-3.042 0-5.507-2.437-5.507-5.441 0-3.006 2.465-5.442 5.507-5.442 3.041 0 5.507 2.436 5.507 5.442 0 .213-.01.425-.034.633-.402-.073-1.194-.08-1.75-.033-.209.018-.179.115-.021.142 1.82.325 3.072 1.44 3.358 3.463a.05.05 0 00.092.02 8.12 8.12 0 001.179-4.225c0-4.548-3.73-8.232-8.33-8.232C4.471 0 .741 3.685.741 8.232c0 4.546 3.73 8.232 8.331 8.232 1.22 0 2.431-.235 4.209-.235zm.618-2.988c.372.308.485.677.288.937-.108.143-.285.22-.497.22a.888.888 0 01-.567-.203c-.337-.29-.436-.762-.216-1.03a.496.496 0 01.393-.163c.203 0 .416.085.6.238zm1.711-.787c.055.361-.06.511-.176.511-.127 0-.286-.147-.472-.435-.186-.285-.253-.612-.161-.777.06-.11.186-.157.346-.097.31.115.43.582.463.798zm11.549-1.885L26.2 9.428a.183.183 0 01.143-.302h2.01c.095-.282.15-.581.15-.894 0-1.43-1.078-2.662-2.556-2.662s-2.556 1.232-2.556 2.662 1.079 2.645 2.556 2.645c.448 0 .858-.113 1.214-.309v.001zm4.346 1.929c.104.115.018.298-.139.298h-2.192a.302.302 0 01-.232-.108l-.371-.44a4.853 4.853 0 01-2.626.766c-2.669 0-4.84-2.144-4.84-4.782s2.171-4.783 4.84-4.783c2.67 0 4.84 2.145 4.84 4.783a4.71 4.71 0 01-.768 2.582l1.488 1.684zm20.255-8.829h-1.79a.237.237 0 00-.238.236v8.655c0 .13.107.235.239.235h1.79c.13 0 .237-.106.237-.235V3.905a.235.235 0 00-.239-.235h.001zm-3.012 0H46.75a.239.239 0 00-.229.165L44.936 8.95l-1.741-5.12a.237.237 0 00-.226-.16h-1.397a.239.239 0 00-.226.16l-1.741 5.12-1.585-5.115a.237.237 0 00-.227-.165h-2.002a.24.24 0 00-.194.097.228.228 0 00-.032.21l2.94 8.66a.238.238 0 00.227.159h1.589a.24.24 0 00.225-.159l1.724-5.06 1.725 5.06a.238.238 0 00.226.159h1.589a.24.24 0 00.225-.159l2.942-8.66a.228.228 0 00-.033-.21.239.239 0 00-.194-.097zm-13.943.236v8.655a.237.237 0 01-.239.235H32.78a.236.236 0 01-.239-.235V3.905c0-.13.107-.235.239-.235h1.79c.13 0 .237.106.237.236v-.001z" fill="#898989"/></svg>