<svg viewBox="0 0 68 80" fill="none" xmlns="http://www.w3.org/2000/svg"><path d="M20.222 34.666l2.222-1.777h1.334l5.777 6.222 8.89-9.334 6.666-5.333 1.778 1.333v3.111L32.667 42.666 30 44.89l-1.778-.89-7.555-7.11-.445-2.223z" fill="#E51A1E"/><path d="M64.362 64.218c-.706-1.345-2.787-.253-2.081 1.092l1.975 3.767-8.364.65a3.489 3.489 0 00-2.467 1.32l-5.18 6.598-6.672-12.72c1.286-.516 2.688-.503 4.051-.511 4.428-.025 6.809-1.411 9.04-5.243.727-1.25 1.45-2.486 2.63-3.365l2.065 3.934c.685 1.308 2.785.25 2.08-1.092l-2.15-4.1c3.755-2.504 5.22-4.368 5.246-9.035.014-2.437.454-4.168 1.674-6.292 2.24-3.9 2.243-6.745 0-10.65-1.214-2.115-1.66-3.84-1.674-6.293-.025-4.428-1.413-6.806-5.246-9.035-2.118-1.23-3.386-2.494-4.626-4.623-2.228-3.827-4.605-5.217-9.039-5.243-2.438-.014-4.171-.454-6.297-1.673-8.176-4.688-9.616 1.795-16.952 1.673-4.427.025-6.808 1.411-9.039 5.243-1.232 2.118-2.496 3.385-4.626 4.623-8.012 4.612-3.218 9.126-6.92 15.328-2.24 3.9-2.242 6.744 0 10.65 3.833 6.726-1.302 9.817 6.92 15.327L1.656 68c-.778 1.452.26 3.293 1.87 3.418l8.4.654c.315.025.606.18.801.428l5.201 6.625c1.023 1.302 3.115 1.094 3.887-.347l6.704-12.779c4.079 2.338 6.885 2.336 10.964 0l6.708 12.788c.772 1.441 2.848 1.655 3.882.338l5.201-6.624c.195-.248.487-.404.8-.429l8.401-.654c1.598-.124 2.65-1.965 1.876-3.409l-1.988-3.79zM19.754 77.645l-5.18-6.597a3.488 3.488 0 00-2.466-1.32l-8.364-.651 6.961-13.27c1.181.878 1.903 2.113 2.631 3.364 2.228 3.827 4.606 5.217 9.04 5.243 1.362.007 2.764-.005 4.051.51l-6.673 12.72zM34 65.652c-3.77-.294-5.133-3.642-11.611-3.589-3.611-.02-5.204-.953-7.021-4.075-1.433-2.46-3.004-4.035-5.476-5.472C6.77 50.7 5.835 49.11 5.814 45.5c-.016-2.834-.568-4.982-1.985-7.45-1.832-3.189-1.832-5.12 0-8.309 1.411-2.459 1.97-4.602 1.985-7.45.021-3.61.956-5.2 4.078-7.016 2.462-1.431 4.037-3 5.476-5.472 1.817-3.122 3.41-4.055 7.02-4.076 7.737.275 8.971-6.025 15.77-1.984 2.46 1.411 4.605 1.968 7.453 1.984 3.61.021 5.204.954 7.021 4.076 3.615 6.808 9.65 4.75 9.553 12.488.017 2.834.57 4.982 1.986 7.45 1.832 3.19 1.832 5.12 0 8.31-1.412 2.458-1.97 4.601-1.986 7.448-.02 3.61-.955 5.202-4.077 7.017-2.37 1.378-4.095 3.1-5.476 5.472-1.817 3.122-3.41 4.055-7.02 4.075-2.835.017-4.985.569-7.454 1.985-1.438.825-2.796 1.604-4.158 1.604z" fill="#333"/><path d="M57.02 33.896C57.178 15.268 35.302 4.18 20.4 15.344c-1.225.9.165 2.794 1.39 1.895 13.38-10.024 33.024-.063 32.88 16.657-1.039 27.365-40.305 27.36-41.34 0 0-4.592 1.483-8.942 4.289-12.582.927-1.203-.934-2.638-1.862-1.435C4.089 34.714 15.131 57.062 34 56.903c12.693 0 23.02-10.321 23.02-23.007z" fill="#333"/><path d="M27.055 44.988c1.407 1.406 3.794 1.41 5.204 0L47.286 29.97c1.407-1.407 1.41-3.794 0-5.203a3.685 3.685 0 00-5.203 0L29.657 37.185l-4.35-4.346a3.686 3.686 0 00-5.203 0c-1.407 1.406-1.41 3.794 0 5.203l6.95 6.946zm-5.29-10.486c.628-.51 1.255-.51 1.882 0l5.179 5.176a1.175 1.175 0 001.662 0l13.256-13.249c.51-.51 1.371-.509 1.881 0 .52.627.519 1.252 0 1.878L30.597 43.326c-.627.519-1.254.519-1.88 0l-6.951-6.947c-.52-.625-.52-1.251 0-1.877zM34 8.417c1.512 0 1.515-2.35 0-2.35-1.512 0-1.515 2.35 0 2.35zM20.665 11.988c1.513 0 1.515-2.35 0-2.35-1.512 0-1.514 2.35 0 2.35zM10.904 21.744c1.512 0 1.514-2.35 0-2.35-1.513 0-1.515 2.35 0 2.35zM7.33 32.72c-1.512 0-1.514 2.35 0 2.35 1.513 0 1.516-2.35 0-2.35zM10.904 46.047c-1.513 0-1.515 2.35 0 2.35 1.512 0 1.514-2.35 0-2.35zM20.665 55.803c-1.512 0-1.514 2.35 0 2.35 1.513 0 1.515-2.35 0-2.35zM34 59.373c-1.513 0-1.515 2.35 0 2.35 1.512 0 1.515-2.35 0-2.35zM47.334 55.803c-1.512 0-1.514 2.35 0 2.35 1.513 0 1.515-2.35 0-2.35zM57.096 46.047c-1.512 0-1.515 2.35 0 2.35 1.512 0 1.515-2.35 0-2.35zM60.669 35.07c1.512 0 1.515-2.35 0-2.35-1.512 0-1.515 2.35 0 2.35zM57.096 21.744c1.512 0 1.515-2.35 0-2.35-1.512 0-1.515 2.35 0 2.35zM47.334 11.988c1.513 0 1.515-2.35 0-2.35-1.512 0-1.514 2.35 0 2.35z" fill="#333"/></svg>