<svg width="51" height="50" fill="none" xmlns="http://www.w3.org/2000/svg"><path d="M25.93 25.286l-10.002-6.668a1.667 1.667 0 00-2.592 1.387v10.002a1.667 1.667 0 00.743 1.387l9.994 6.663.05.032c.338.212.742.295 1.137.234h.002c.074-.012.148-.029.22-.05h.001c.171-.051.333-.13.48-.232l9.97-6.647a1.667 1.667 0 00.742-1.387V20.005a1.667 1.667 0 00-.742-1.387L25.93 11.95a1.666 1.666 0 00-1.849 0l-5 3.334a1.667 1.667 0 000 2.774l10.003 6.668a1.667 1.667 0 101.849-2.774L23.01 16.67l1.995-1.33 8.335 5.556v8.218l-6.668 4.445v-6.887a1.667 1.667 0 00-.742-1.387zM23.34 33.56l-6.668-4.445v-5.996l6.668 4.446v5.995zm26.673-8.554A24.964 24.964 0 0125.05 50 24.961 24.961 0 01.088 25.006a1.667 1.667 0 113.334 0 21.65 21.65 0 102.248-9.63h3.486a1.667 1.667 0 010 3.335H1.667A1.667 1.667 0 010 17.044V9.082a1.667 1.667 0 113.334 0v3.593a24.954 24.954 0 0146.678 12.33z" fill="#fff"/></svg>