<svg viewBox="0 0 83 40" fill="none" xmlns="http://www.w3.org/2000/svg"><g clip-path="url(#clip0_1799:23674)"><path d="M0 39.993h40V0H0v39.994zM81.368.006H42.57V40h39.994V.006h-1.196z" fill="#0055A5"/><path class="not-painted" d="M44.967 37.603h35.194v-35.2H44.967v35.2zM3.662 21.918v8.338h1.375v-2.42c.269.233.565.373.882.373.454 0 .828-.24 1.12-.718.33-.532.494-1.318.494-2.346 0-.717-.132-1.363-.389-1.912l-.044-.09-.045-.075-.03-.075-.045-.06-.045-.074-.06-.075-.045-.06-.045-.059-.06-.06-.045-.06-.06-.06-.06-.044-.06-.06-.059-.045-.06-.045-.06-.045-.074-.03-.06-.044-.06-.03-.074-.03-.075-.03-.074-.03-.075-.03-.075-.014-.074-.015-.075-.015-.09-.03h-.074l-.09-.015h-.074l-.09-.014H3.662v-.001zm1.3 1.18h.135c.347 0 .616.2.807.583.19.383.284.974.284 1.793 0 .443-.054.792-.18 1.031-.12.24-.275.359-.448.359-.167 0-.305-.113-.418-.329-.113-.209-.18-.51-.18-.912v-2.525zM36.007 21.512l-.113.113s-2.875 3.001-3.09 3.228v-2.94h-1.345v8.356h1.345v-3.431c.036-.042 1.763-1.871 1.96-2.08.012.304.198 5.51.198 5.51h1.374l-.329-8.756zM29.45 21.626l-.006.012-.012.006-.012.018-.018.018-.024.023-.024.024-.03.03-.03.03-.036.037-.036.042-.042.041-.041.042-.042.048-.048.047-.054.054-.107.114-.114.12-.12.125-.125.132-.131.137-.138.137-.137.143-.138.15-.28.293-.138.143-.137.138-.131.137-.126.138-.125.126-.114.12-.107.113-.054.053-.048.054-.048.048-.042.048-.041.042-.036.042-.036.036-.036.036-.03.03-.023.024-.024.024-.018.024-.019.012-.012.018v-2.941H25.01v8.356h1.35v-3.43c.037-.042 1.764-1.872 1.961-2.08.012.304.198 5.51.198 5.51h1.369l-.33-8.758-.107.114zM21.632 28.195l-.084-.102-.072-.1-.072-.115-.06-.113-.06-.12-.053-.12-.054-.124-.042-.126-.036-.137-.035-.132-.03-.143-.024-.144-.019-.15-.012-.15-.006-.155-.006-.155c0-.878.215-1.578.634-2.092.46-.562 1.13-.843 2.002-.843h.066v-1.458h-.066c-1.363 0-2.409.418-3.12 1.26-.646.76-.974 1.818-.974 3.145 0 1.28.358 2.337 1.058 3.132.74.837 1.763 1.267 3.054 1.267h.066v-1.464h-.066c-.848 0-1.517-.287-1.99-.861zM10.82 21.709c-.723 0-1.3.409-1.718 1.21-.407.789-.613 1.838-.613 3.123 0 1.327.194 2.4.583 3.183.395.8.983 1.21 1.748 1.21.784 0 1.402-.433 1.838-1.27.407-.783.613-1.841.613-3.138 0-1.28-.21-2.326-.628-3.109l-.045-.074-.045-.075-.03-.074-.06-.06-.03-.06-.06-.06-.044-.06-.046-.06-.044-.059-.06-.06-.045-.045-.06-.045-.045-.045-.06-.045-.045-.044-.06-.046-.06-.03-.059-.03-.06-.029-.06-.03-.06-.03-.059-.03-.06-.015-.074-.03-.06-.015-.075-.014-.06-.015h-.06l-.074-.015-.074-.015h-.149zm0 1.344c.383 0 .664.272.837.822.168.496.24 1.22.24 2.152 0 .902-.085 1.653-.27 2.227l-.03.06-.014.044-.015.045-.015.045-.015.045-.03.045-.014.045-.03.03-.015.045-.03.03-.015.045-.015.03-.03.03-.03.03-.015.03-.03.014-.014.03-.03.03-.03.014-.03.03-.03.015-.03.014-.015.015-.03.015h-.03l-.03.015-.03.015h-.03l-.03.015h-.106c-.328 0-.576-.281-.762-.837-.191-.58-.284-1.324-.284-2.197 0-.89.093-1.626.284-2.181.175-.532.429-.807.763-.807zM16.45 28.195l-.036-.048-.043-.053-.077-.102-.066-.114-.066-.113-.06-.12-.053-.12-.048-.124-.048-.126-.036-.137-.036-.132-.024-.143-.023-.144-.018-.15-.012-.15-.012-.155v-.155c0-.878.209-1.578.634-2.092.454-.562 1.123-.843 1.996-.843h.072v-1.458h-.072c-1.357 0-2.41.418-3.114 1.26-.652.76-.974 1.818-.974 3.145 0 1.28.352 2.337 1.058 3.132.735.837 1.763 1.267 3.054 1.267h.066v-1.464h-.066c-.855 0-1.525-.287-1.997-.861zM3.676 9.66v8.397h1.548v-7.005h1.913v7.005h1.542V9.66H3.676zM13.42 9.44c-.819 0-1.476.412-1.942 1.225-.46.796-.688 1.848-.688 3.138 0 1.333.215 2.424.658 3.213.448.807 1.111 1.21 1.972 1.21.879 0 1.572-.42 2.062-1.27.46-.789.703-1.855.703-3.153 0-1.29-.251-2.35-.718-3.138l-.045-.074-.045-.075-.045-.074-.06-.06-.044-.075-.06-.06-.045-.06-.06-.06-.06-.059-.044-.045-.06-.06-.06-.045-.06-.044-.06-.045-.074-.045-.06-.03-.06-.045-.06-.03-.074-.03-.06-.03-.074-.03-.075-.03-.06-.015-.074-.03-.075-.015-.075-.015-.074-.015-.075-.015H13.585l-.075-.015h-.09zm.015 1.42c.419 0 .715.269.912.807.18.49.269 1.204.269 2.137 0 .89-.105 1.635-.314 2.196-.203.55-.484.807-.867.807H13.3l-.03-.015-.03-.014h-.03l-.03-.015-.03-.015-.03-.015-.03-.015-.03-.015-.03-.03-.03-.014-.03-.03-.03-.015-.015-.03-.03-.03-.03-.03-.015-.03-.03-.03-.03-.045-.015-.03-.03-.03-.015-.045-.03-.045-.014-.03-.015-.06-.03-.045-.015-.045-.015-.045-.03-.045c-.209-.58-.314-1.315-.314-2.182 0-.89.105-1.617.314-2.167.2-.53.478-.79.854-.79zM24.602 9.66v1.392h1.285v7.005h1.549v-7.005h1.303V9.659h-4.137zM21.213 12.582h-.842c-.347 0-.61-.078-.772-.233-.12-.107-.173-.257-.173-.448V9.659h-1.548v2.397c0 .55.22 1.022.651 1.393.424.364.95.55 1.554.55h1.13v4.058h1.548V9.659h-1.548v2.923zM30.754 9.664l-.284 8.398h1.54l.149-4.11h1.927l.448 4.11h1.555l-.718-6.141V11.697l-.015-.075v-.074l-.014-.06v-.075l-.015-.06-.015-.074-.015-.06-.015-.06-.014-.06-.015-.06-.03-.059-.015-.06-.015-.06-.03-.06-.03-.044-.03-.06-.015-.045-.03-.06-.03-.045-.045-.045-.03-.06-.03-.03-.046-.06-.03-.03-.045-.044-.045-.045-.045-.03-.03-.045-.06-.045c-.388-.305-.914-.449-1.583-.449h-2.285v.001zm1.48 1.39h.553c.4 0 .67.128.837.373.137.203.23.592.283 1.136H32.19v-.239l.015-.045v-.598l.015-.06V11.189l.014-.03v-.104z" fill="#fff"/><path d="M54.686 12.929l.054.125.066.12.065.125.078.131.042.06.048.066.042.066.047.066.054.065.054.066.053.065.06.066.066.072.066.066.065.072.072.072.078.071.078.072.083.072.09.077.09.072.095.078.096.077.101.084.114.078.108.083.12.078.119.083c.292.204.628.628.377 1.22-.252.598-.718 1.434-.437 1.763.281.329 1.273.496 2.086.173 0 0 .174.515.473.843 0 0-.144.28-.61.137 0 0 .174.425-.066.88 0 0-.544-.096-.783-.599 0 0-.215.395-.651.532 0 0-.36-.185-.281-.902 0 0-.263.64-1.076.747 0 0-.466-.591.143-1.387 0 0-.442.389-1.231.204 0 0-.132-.407.592-.969 0 0-.813-.035-1.124-.717 0 0 .34-.424 1.184-.329 0 0-.783-.174-.957-1.106 0 0 .562-.359 1.459.215 0 0-.155-.299-.532-.598-.377-.285-.831-1.116-.67-2.335zM57.95 22.343l-.024-.03-.018-.029-.024-.03-.017-.03-.019-.03-.018-.03-.017-.023-.018-.03-.018-.03-.018-.03-.012-.03-.018-.03-.012-.023-.018-.03-.012-.03-.012-.03c.143 1.135.191 1.9.8 2.636 0 0 .378-.49.132-1.686a1.243 1.243 0 01-.329-.155s.144.484.054.974c0 0-.221-.162-.382-1.304zM56.886 22.223l-.006-.005-.006-.012-.005-.012-.012-.006-.006-.012-.012-.012-.006-.012-.012-.012-.006-.012-.012-.018-.018-.023-.018-.03-.024-.03-.018-.03-.018-.03-.024-.03-.018-.03-.017-.024-.018-.03-.006-.017-.006-.012-.012-.012-.006-.012c-.054.658-.227 2.391.358 2.935 0 0 .395-.293.538-2.821-.083.143-.233.293-.305.376 0 0 .096.801-.19 1.369-.002-.001-.289-.223-.115-1.436zM55.505 23.55l.042-.053.042-.066.042-.072.042-.077.035-.078.036-.084.03-.089.036-.09.03-.096.03-.095.024-.096.024-.101.048-.198.017-.095.024-.096.019-.096.011-.09.019-.088.012-.09.012-.084.012-.078.011-.071.006-.066.006-.066.007-.054.005-.024v-.024l.006-.023v-.036l.006-.012v-.048c.066-.042.138-.095.204-.15.03-.023.054-.041.083-.071 0 .065 0 .131.006.197-.072 1.052-.155 2.14-.484 2.684-.323.532-.915.807-.915.807-.555-.992.114-2.319.675-3.245.072-.024.144-.054.216-.09-.204.71-.575 1.553-.42 2.205zM54.124 20.508v.083l.007.018v.036l.005.006V20.68l.006.012V20.71l.006.006V20.734l.006.006V20.758l.006.006c.006.012.012.042.024.072-.466.448-.813.89-1.5 1.846-.693.963-1.787.998-1.787.998.107-.777.317-1.392.902-2.05.58-.663 1.333-1.267 1.883-1.668.143.067.329.108.562.079.012 0 .036-.007.054-.007a.834.834 0 00-.144.281c-.418.24-1.625.855-2.116 1.841 0 .002.765-.238 2.086-1.648zM53.257 19.546l.048-.09a.481.481 0 01.048-.072c-.454.174-2.056.777-2.577 1.046-.514.27-1.267.88-1.673 2.122 0 0 1.082.096 1.979-.645.89-.735 1.93-1.77 2.373-2.098a.569.569 0 01-.102-.113s-1.207 1.07-2.487 1.53c0 0 .275-.49.778-.855.615-.437 1.075-.58 1.613-.825zM52.343 18.81l.006-.011.006-.018.006-.018.006-.012.006-.018.006-.018.006-.006v-.006l.006-.006.006-.012c-.532.113-1.853.268-2.445.448-.592.18-1.656.616-2.29 1.824 0 0 .933.287 2.685-.538 1.757-.825 2.307-.999 2.642-1.088a1.22 1.22 0 01-.556-.168c-.7.311-1.632.682-2.565.706 0 0 .46-.323.939-.526.526-.222 1.1-.419 1.536-.532zM52.385 17.937l.03.018.03.012.03.012.035.018.03.006.03.012.029.012.03.006.03.012.036.006.03.007.036.006.018.006h.017l.019.006h.035l.024.006h.018l.018.006c-.12.078-.233.18-.34.311-.622.18-1.674.37-3.414.497-1.74.131-2.666-.192-2.666-.192.604-.37 1.572-.747 2.224-.872.658-.126 2.373-.108 3.12-.215.012.011.108.083.258.173-.64.06-1.985.12-2.685.466 0-.002 1.286.172 2.978-.319zM52.253 16.94l.018-.012.018-.006.018-.012.017-.006.019-.012.018-.006.017-.012.024-.012.018-.006.018-.013.024-.006.024-.012.018-.012.024-.005.023-.012.024-.006c-.879-.264-2.086-.694-3.903-.813-1.333-.09-2.301-.012-2.797.12 0 0 1.213.854 2.606 1.159 1.387.299 2.516.107 3.335.113.06-.084.12-.167.216-.263-.962.006-2.57-.239-3.144-.43 0 0 1.399-.298 3.365.264zM52.253 15.905V15.918l.006.006v.011l.006.012v.018l.006.018.006.018.012.024.006.019.012.03.012.023.012.024.012.03.018.03.017.03.018.03.024.03.018.037.024.03.03.03.03.036.03.03.03.036.035.03.036.03.041.03.043.035.047.024.042.03.054.03.054.024c-1.238-.538-3.677-.849-4.98-1.399-1.769-.729-2.092-1.65-2.092-1.65 1.53-.042 2.767.335 3.718.628 1.124.34 2.821.974 3.413 1.244a1.227 1.227 0 00-.67.21c-.83-.318-1.219-.455-1.978-.67-.592-.168-1.034-.198-1.405-.234 0 0 .526.347 1.387.622.856.272 1.227.32 1.926.451zM52.157 14.555l.007.006.005.012.006.012.006.006.007.012.005.012.006.012.012.012.006.012.006.011.011.018.006.012.018.03.024.024.018.03.018.024.006.018.012.012.006.012.012.012.006.012.012.012.006.012.006.012.006.006.006.012.006.006.006.012c-1.955-.329-4.107-1.805-4.77-2.726-.663-.914-.472-2.283-.472-2.283.645.131 2.044 1.339 2.403 1.703.364.359 1.464 1.43 2.223 2.027l.233.681c-.645-.52-1.416-1.1-1.9-1.464-.371-.28-.927-.67-1.471-.86 0 0 .502.657.915.98.472.376.95.7 1.344.914.354.19.534.304 1.245.645z" fill="#0055A5"/><path d="M57.669 20.03l.012-.013.012-.011.005-.007.012-.012.012-.012.012-.005.006-.012.012-.006.006-.013.012-.011.006-.007.012-.012.006-.006.012-.012.007-.006.011-.012c.09.12.389.496.538.873.114.317.234.753.294.998.06.257.233.77.346.95 0 0-.478.066-.83-.352-.347-.4-.461-.807-.521-1.226a4.7 4.7 0 01.018-1.087zM56.916 20.09l.011.012.006.012.012.006.006.012.006.012.012.006.005.005.006.012.012.006.006.006.006.006.006.012.012.006.005.006h.006l.006.006.007.006.005.006.006.006h.006v.006h.006l.006.006h.006v.005h.006v.006h.006v.006l.072.03.066-.018c.06-.024.113-.047.161-.065.072.185.096.281.12.448.017.215.065.556-.018.837-.101.341-.305.544-.418.682 0 0-.311-.347-.4-.628a1.603 1.603 0 01-.013-.992c.067-.191.169-.365.253-.466zM55.846 20.12l.03-.007h.03l.023-.006.03-.006.053-.012.054-.012.054-.017.054-.012.048-.018.047-.018.042-.024.042-.018.048-.024.036-.018.041-.024.036-.024.036-.023.036-.024a.787.787 0 01.06.472c-.054.215-.198.46-.413.627-.323.258-.747.496-1.225.419.001 0-.107-.353.838-1.232zM55.487 19.528l.006.03v.03l.007.024.005.03.006.024.006.024.006.03.006.024.012.024.006.018.006.024.012.024.006.018.012.018.006.018.006.018.012.018.006.018.006.012.012.012.006.017.006.012.006.007.006.012.006.012.006.005.006.007.006.006.006.006v.006h.006v.006c-.114.132-.514.819-1.351.706 0 0-.227-.473.329-.843.376-.26.56-.307.818-.397zM55.559 18.936l-.042.012-.041.012-.048.006-.048.006-.048.007-.048.006h-.053l-.054.006h-.054l-.06-.006h-.053l-.03-.006h-.03l-.035-.007h-.03l-.03-.006-.03-.006-.03-.006-.035-.006-.03-.007-.036-.012-.095-.017-.03-.096c-.425.353-.939.412-1.112.73 0 0 .215.394.77.322a1.849 1.849 0 001.274-.7.962.962 0 01.058-.232zM54.596 18.446l.012-.024.018-.024.012-.024.012-.03.018-.024.012-.03.018-.03.012-.03.018-.03.017-.036.013-.017.011-.012.007-.019.012-.018.012-.017.012-.012.012-.018.011-.018.019-.018.011-.018.019-.018.012-.012c-.37-.066-.7-.078-1.13.012-.514.096-1.04.215-1.303.992 0 0 .328.287.932.162.502-.101.944-.323 1.201-.687zM54.375 17.597l-.023-.024-.024-.017-.024-.024-.024-.024-.018-.024-.024-.03-.024-.024-.018-.024-.024-.03-.017-.03-.024-.03-.019-.03-.018-.036-.017-.03-.018-.036-.018-.036-.042-.096c-.442-.18-.909-.275-1.363-.107-.454.173-.574.37-.687.538 0 0 .502.424 1.082.442.58.013 1.111-.155 1.344-.328zM54.513 16.682l.012-.006.017-.006.012-.006h.018l.012-.006.018-.006.012-.006.018-.006h.018l.018-.006.018-.007h.012l.017-.006.018-.006h.019l.017-.006a1.603 1.603 0 01-.484-.837c-.203.048-.693.048-.902-.03-.216-.084-.634-.09-.963.131 0 0 .108.568.849.765.7.188.957.14 1.244.044zM54.244 15.565l.096-.066c.011-.006.179-.108.466-.126-.24-.185-.813-.663-1.214-.885-.436-.244-1.165-.58-1.542-.627 0 0 .353.914.753 1.285.425.383.717.526 1.44.419zM54.99 15.14l-.029-.042-.03-.048-.035-.048-.03-.047-.024-.054-.03-.054-.03-.054-.024-.06-.024-.06-.03-.06-.023-.06-.018-.065-.024-.066-.024-.066-.018-.071-.017-.066c-.09-.311-.282-1.064-.395-1.268-.113-.197-.526-.878-1.327-1.094 0 0-.21.89.191 1.608.346.611 1.057 1.257 1.942 1.675zM59.444 19.312l.024.018.018.018.018.018.018.012.018.018.017.012.019.018.017.012.018.012.024.018.012.007.012.006.012.006.012.012.012.006.012.007.018.005.012.012.012.006.018.007.018.012.012.006s.257.49-.054 1.076c-.31.591-.568 1.195-.693 1.53 0 0-.168-.024-.353-.95-.125-.622-.28-.783-.448-.992.18.089.323.113.341.113l.12.03.06-.12c.107-.209.137-.412.137-.58 0-.06 0-.113-.007-.161a.598.598 0 00.503-.21c.005-.011.011-.011.011-.017l.03.033z" fill="#0055A5"/><path d="M52.63 12.235V12.517l.018.221c-.479-.604-1.046-1.332-1.584-2.008-.37-.46-.681-.735-1.034-.963.298.855.825 1.537 1.195 1.872.37.34.909.914 1.435 1.267l.048.167c.041.162.1.323.184.478.132.215.287.425.479.634a6.665 6.665 0 00-.502-.233l-.168-.072c-1.44-.759-2.875-2.349-3.448-3.448-.58-1.106-.341-2.385-.192-3.073.658.556 1.608 1.65 2.015 2.242.508.73 1.154 1.77 1.554 2.612v.022zM72.875 16.94l-.018-.012-.012-.006-.017-.012-.019-.006-.017-.012-.024-.006-.018-.012-.018-.012-.018-.006-.024-.013-.018-.006-.024-.012-.024-.012-.024-.005-.023-.012-.024-.006c.884-.264 2.092-.694 3.915-.813 1.333-.09 2.289-.012 2.791.12 0 0-1.22.854-2.606 1.159-1.387.299-2.517.107-3.342.113a1.468 1.468 0 00-.209-.263c.963.006 2.564-.239 3.145-.43 0 0-1.4-.298-3.372.264zM72.881 15.905V15.918l-.006.006v.011l-.006.012-.006.018v.018l-.012.018-.006.024-.006.019-.012.03-.012.023-.012.024-.018.03-.012.03-.018.03-.018.03-.024.03-.024.037-.024.03-.024.03-.03.036-.03.03-.035.036-.036.03-.036.03-.036.03-.047.035-.042.024-.048.03-.048.03-.053.024c1.237-.538 3.67-.849 4.985-1.399 1.763-.729 2.086-1.65 2.086-1.65-1.53-.042-2.773.335-3.724.628-1.118.34-2.815.974-3.412 1.244.227.006.472.066.675.21.83-.318 1.22-.455 1.972-.67.598-.168 1.034-.198 1.405-.234 0 0-.52.347-1.38.622-.862.272-1.233.32-1.926.451zM72.977 14.555v.006l-.007.012-.006.012-.005.006-.012.012-.006.012-.006.012-.006.012-.012.012-.006.011-.018.03-.018.03-.024.025-.018.03-.018.023-.006.018-.012.012-.005.012-.012.012-.007.012-.011.012-.006.012-.006.012-.006.006-.006.012-.012.007-.006.011c1.954-.329 4.106-1.805 4.77-2.725.67-.914.478-2.284.478-2.284-.645.132-2.044 1.34-2.409 1.704-.358.358-1.458 1.429-2.217 2.026l-.233.682c.645-.52 1.417-1.1 1.894-1.464.377-.281.92-.67 1.477-.861 0 0-.508.657-.915.98-.472.377-.956.7-1.35.915-.348.19-.533.303-1.238.644zM72.504 12.235V12.517l-.018.22c.473-.603 1.04-1.332 1.578-2.008.377-.46.687-.734 1.034-.962-.293.854-.82 1.536-1.19 1.871-.37.34-.908.914-1.434 1.267l-.048.168a2.494 2.494 0 01-.191.478 4.014 4.014 0 01-.473.633 5.79 5.79 0 01.502-.232l.162-.072c1.44-.76 2.875-2.349 3.449-3.449.592-1.106.346-2.385.19-3.072-.657.556-1.601 1.65-2.007 2.242-.508.729-1.154 1.769-1.555 2.612v.022h.001zM54.477 20.95l-.06.06-.06.06-.066.066-.065.072-.072.071-.072.078-.072.084-.071.083-.078.09-.077.09-.072.095-.077.096-.072.101-.078.108-.071.107-.072.108-.066.114-.065.113-.066.114-.06.12-.06.119-.047.126-.048.12-.048.13-.036.126-.036.126-.024.131-.024.132-.011.131-.006.138-.006.131.012.138s1.16-.365 1.644-1.22c.478-.848.77-1.393.974-1.584a1.346 1.346 0 01-.383 0l-.107-.018c-.299.538-.885 1.423-1.41 1.728 0 0-.132-.717 1.416-2.164a1.47 1.47 0 01.096-.197 1.24 1.24 0 01-.485.072M70.448 12.929l-.06.125-.066.12-.065.125-.078.131-.041.06-.042.066-.048.066-.048.066-.048.065-.054.066-.06.065-.06.066-.06.072-.065.066-.066.072-.071.072-.078.071-.078.072-.084.072-.089.077-.09.072-.095.078-.096.077-.1.084-.108.078-.114.083-.12.078-.119.083c-.299.204-.628.628-.377 1.22.251.598.718 1.434.436 1.763-.28.329-1.279.496-2.092.173 0 0-.173.515-.466.843 0 0 .144.28.61.137 0 0-.174.425.065.88 0 0 .544-.096.777-.599 0 0 .215.395.652.532 0 0 .364-.185.28-.902 0 0 .264.64 1.082.747 0 0 .467-.591-.143-1.387 0 0 .436.389 1.231.204 0 0 .126-.407-.592-.969 0 0 .813-.035 1.124-.717 0 0-.347-.424-1.19-.329 0 0 .784-.174.957-1.106 0 0-.562-.359-1.453.215 0 0 .156-.299.533-.598.37-.285.825-1.116.67-2.335zM67.184 22.343l.024-.03.019-.029.017-.03.024-.03.018-.03.018-.03.018-.023.018-.03.018-.03.012-.03.018-.03.012-.03.017-.023.012-.03.012-.03.012-.03c-.137 1.135-.185 1.9-.8 2.636 0 0-.371-.49-.132-1.686.107-.03.215-.077.329-.155 0 0-.137.484-.054.974 0 0 .221-.162.388-1.304zM68.243 22.223l.012-.005.006-.012.006-.012.006-.006.012-.012.005-.012.012-.012.007-.012.012-.012.005-.018.024-.023.018-.03.018-.03.024-.03.018-.03.018-.03.018-.03.018-.024.017-.03.012-.017.006-.012.006-.012.007-.012c.053.658.227 2.391-.353 2.935 0 0-.4-.293-.538-2.821.084.143.233.293.299.376 0 0-.096.801.19 1.369 0-.001.294-.223.115-1.436zM69.63 23.55l-.048-.053-.042-.066-.042-.072-.036-.077-.041-.078-.03-.084-.036-.089-.03-.09-.03-.096-.03-.095-.024-.096-.03-.101-.041-.198-.024-.095-.019-.096-.017-.096-.012-.09-.018-.088-.012-.09-.012-.084-.012-.078-.012-.071-.006-.066-.006-.066-.006-.054-.006-.024v-.024l-.006-.023v-.036l-.006-.012v-.048a1.632 1.632 0 01-.203-.15c-.03-.023-.06-.041-.084-.071 0 .065 0 .131-.011.197.077 1.052.161 2.14.49 2.684.322.532.914.807.914.807.556-.992-.113-2.319-.681-3.245a1.6 1.6 0 01-.21-.09c.197.71.568 1.553.418 2.205zM71.01 20.508v.083l-.006.018V20.645l-.006.006v.023l-.006.006v.024l-.006.006V20.728l-.006.006v.024l-.006.006c-.006.012-.012.042-.024.072.466.448.813.89 1.5 1.846.688.963 1.788.998 1.788.998-.108-.777-.323-1.392-.909-2.05-.58-.663-1.332-1.267-1.877-1.668a1.012 1.012 0 01-.561.079c-.024 0-.036-.007-.054-.007.072.096.12.192.143.281.413.24 1.626.855 2.116 1.841 0 .002-.765-.238-2.086-1.648zM71.877 19.546l-.048-.09a.473.473 0 00-.048-.072c.449.174 2.05.777 2.57 1.046.52.27 1.268.88 1.674 2.122 0 0-1.082.096-1.972-.645-.891-.735-1.93-1.77-2.38-2.098a.468.468 0 00.108-.113s1.208 1.07 2.487 1.53c0 0-.275-.49-.783-.855-.61-.437-1.07-.58-1.608-.825zM72.791 18.81l-.006-.012-.006-.017-.006-.018-.012-.012-.006-.018-.006-.018-.006-.012-.006-.018c.526.114 1.853.27 2.445.449.585.18 1.656.615 2.29 1.823 0 0-.933.287-2.69-.538-1.752-.825-2.302-.998-2.636-1.088.268-.018.46-.107.555-.167.7.31 1.632.681 2.565.705 0 0-.46-.322-.945-.526a11.64 11.64 0 00-1.53-.533zM72.75 17.937l-.03.018-.03.012-.036.012-.03.018-.03.006-.03.012-.03.012-.03.006-.03.012-.035.006-.03.007-.036.006-.036.006-.017.006H72.278l-.018.006h-.018l-.024.006c.12.078.239.18.347.311.615.18 1.668.37 3.407.497 1.739.131 2.666-.192 2.666-.192-.604-.37-1.572-.747-2.224-.872-.651-.126-2.367-.108-3.12-.215a1.501 1.501 0 01-.251.173c.633.06 1.984.12 2.678.466 0-.002-1.28.172-2.971-.319z" fill="#0055A5"/><path d="M67.46 20.03l-.019-.024-.012-.007-.012-.012-.012-.012-.005-.005-.012-.012-.007-.006-.011-.013-.006-.011-.012-.007-.006-.012-.012-.006-.007-.012-.011-.006-.006-.012c-.096.12-.395.496-.544.873a11.19 11.19 0 00-.287.998c-.066.257-.24.77-.347.95 0 0 .472.066.825-.352.347-.4.472-.807.52-1.226.042-.327.03-.782-.017-1.087zM68.213 20.09l-.006.012-.012.012-.006.006-.006.012-.012.012-.006.006-.006.005-.012.012-.006.006-.006.006-.006.006-.012.012-.006.006-.006.006h-.006l-.006.006-.006.006-.005.006-.007.006h-.006l-.006.006h-.005l-.007.006-.005.005h-.007v.006h-.012v.006l-.06.03-.071-.018c-.054-.024-.108-.047-.162-.065a1.71 1.71 0 00-.113.448c-.024.215-.066.556.018.837.101.341.299.544.412.682 0 0 .317-.347.4-.628.096-.292.132-.64.012-.992a1.346 1.346 0 00-.25-.466zM69.288 20.12l-.03-.007h-.029l-.03-.006-.03-.006-.054-.012-.053-.012-.054-.017-.048-.012-.047-.018-.048-.018-.048-.024-.042-.018-.041-.024-.042-.018-.036-.024-.042-.024-.036-.023-.03-.024c-.041.107-.107.263-.06.472.048.215.198.46.413.627.317.258.747.496 1.219.419 0 0 .113-.353-.832-1.232zM69.647 19.528l-.006.03-.006.03-.006.024v.03l-.006.024-.005.024-.012.03-.007.024-.005.024-.007.018-.011.024-.006.024-.006.018-.012.018-.007.018-.012.018-.005.018-.007.018-.011.012-.006.012-.007.017-.005.012-.012.007-.006.012-.006.012-.006.005v.007l-.006.006-.006.006v.006h-.006v.006c.108.132.514.819 1.35.706 0 0 .222-.473-.334-.843-.376-.26-.555-.307-.813-.397zM69.57 18.936l.041.012.048.012.048.006.048.006.048.007.047.006h.054l.053.006h.054l.06-.006h.054l.06-.006.03-.007h.036l.03-.006.029-.006.03-.006.036-.006.03-.007.03-.012.095-.017.036-.096c.424.353.938.412 1.112.73 0 0-.215.394-.771.322a1.849 1.849 0 01-1.273-.7 1.743 1.743 0 00-.065-.232zM70.538 18.446l-.006-.012-.006-.012-.018-.024-.012-.024-.012-.03-.018-.024-.012-.03-.017-.03-.019-.03-.012-.03-.017-.036-.012-.017-.012-.012-.006-.019-.012-.018-.012-.017-.012-.012-.012-.018-.012-.018-.018-.018-.012-.018-.018-.018-.012-.012c.364-.066.7-.078 1.13.012.514.096 1.04.215 1.303.992 0 0-.335.287-.933.162-.502-.101-.95-.323-1.201-.687zM70.753 17.597l.024-.024.024-.017.024-.024.024-.024.024-.024.024-.03.018-.024.024-.024.017-.03.024-.03.019-.03.017-.03.018-.036.018-.03.018-.036.018-.036.041-.096c.449-.18.909-.275 1.363-.107.455.173.574.37.688.538 0 0-.503.424-1.076.442-.58.013-1.118-.155-1.35-.328zM70.621 16.682l-.03-.012-.017-.006h-.012l-.018-.006-.012-.006-.018-.006-.018-.006h-.018l-.012-.006-.017-.007h-.019l-.017-.006-.019-.006h-.017l-.018-.006c.203-.173.388-.436.484-.837.215.048.693.048.909-.03.215-.084.633-.09.962.131 0 0-.108.568-.855.765-.694.188-.957.14-1.238.044zM70.885 15.565l-.096-.066c-.012-.006-.18-.108-.46-.126.239-.185.807-.663 1.207-.885.442-.244 1.172-.58 1.542-.627 0 0-.347.914-.753 1.285-.418.383-.711.526-1.44.419zM70.137 15.14l.036-.042.03-.048.03-.048.03-.047.03-.054.03-.054.03-.054.023-.06.024-.06.03-.06.024-.06.024-.065.018-.066.023-.066.019-.071.023-.066c.078-.311.275-1.064.389-1.268.113-.197.526-.878 1.327-1.094 0 0 .21.89-.192 1.608-.351.611-1.063 1.257-1.948 1.675zM65.69 19.312l-.024.018-.018.018-.017.018-.019.012-.017.018-.019.012-.017.018-.018.012-.024.012-.024.018-.006.007-.012.006-.012.006-.012.012-.017.006-.013.007-.011.005-.012.012-.018.006-.012.007-.018.012-.018.006s-.25.49.054 1.076c.31.591.574 1.195.699 1.53 0 0 .167-.024.353-.95.125-.622.287-.783.448-.992-.185.089-.329.113-.34.113l-.12.03-.06-.12a1.202 1.202 0 01-.132-.741.589.589 0 01-.502-.21c-.006-.011-.006-.011-.018-.017l-.024.033z" fill="#0055A5"/><path d="M70.658 20.95l.06.06.06.06.065.066.065.072.072.071.065.078.078.084.072.083.078.09.072.09.078.095.077.096.072.101.072.108.078.107.065.108.072.114.065.113.066.114.06.12.053.119.054.126.048.12.041.13.042.126.03.126.03.131.024.132.012.131.005.138v.131l-.005.138s-1.166-.365-1.644-1.22c-.478-.848-.771-1.393-.974-1.584.125.018.257.018.383 0l.107-.018c.3.538.88 1.423 1.405 1.728 0 0 .138-.717-1.41-2.164a1.08 1.08 0 00-.102-.197c.144.053.305.077.49.072M61.656 9.403V9.39l.005-.012.007-.007.005-.012.012-.006.012-.012.012-.006.018-.012.018-.006.018-.012.024-.006.024-.007.024-.011.03-.007.03-.005.029-.007.03-.006.03-.006.036-.006.035-.006.036-.006.042-.006.036-.006h.042l.041-.006.042-.007h.09l.041-.006h.138c.502 0 .908.09.908.198 0 .101-.406.19-.908.19-.5.003-.907-.086-.907-.187zM58.565 10.448v-.006l.006-.006v-.006l.006-.006.006-.006.012-.006h.006l.011-.006.012-.007.012-.006h.012l.019-.006.017-.006.012-.006h.024l.018-.007h.018l.024-.005.024-.007h.017l.024-.006h.054l.024-.006h.054l.03-.006h.149c.316 0 .586.048.586.107 0 .06-.27.102-.586.102-.328.003-.59-.039-.59-.099zM62.744 9.821V9.863l-.006.006v.012l-.006.006V9.9l-.007.007v.006l-.005.006-.006.012-.006.006-.006.006-.006.007-.006.006-.006.006-.006.006-.006.007-.006.006-.006.005h-.006l-.012.006-.006.006h-.006l-.012.007H62.6l-.006.005h-.03a.181.181 0 01-.179-.185c0-.09.084-.173.18-.173.1-.004.179.08.179.17zM61.59 9.211l-.03-.072-.024-.065-.03-.06-.023-.065-.024-.06-.024-.066-.03-.06-.018-.053-.024-.06-.024-.054-.017-.054-.024-.054-.019-.054-.017-.048-.018-.047-.018-.048-.018-.048-.012-.042-.012-.042-.018-.042-.012-.036-.012-.036-.006-.035-.012-.036-.006-.03-.006-.03-.006-.03-.005-.024-.006-.024v-.06c.006-.107.131-.185.25-.221.126-.036.228-.048.312.012.155.125.304 1.093.352 1.5-.15.03-.24.054-.42.144zM62.146 9.055l.012-.006h.041l.03-.006h.09l.06-.006a11.559 11.559 0 00-.263-1.285c-.078-.257-.18-.436-.347-.485 0 0 .132.353.203.718.072.366.12.724.174 1.07zM61.183 10.346l.036-.006.03-.012.03-.012.03-.012.03-.012.035-.018.03-.012.03-.018.03-.018.023-.018.03-.018.03-.018.024-.018.03-.018.024-.018.023-.024.024-.018.019-.018.023-.018.019-.012.017-.017.019-.018.017-.012.018-.018.012-.012.012-.006.006-.012.012-.012.006-.005h.006v-.007c-.537.079-.675.437-.675.437z" fill="#0055A5"/><path d="M61.685 10.317l-.047.024-.042.018-.042.024-.048.018-.042.018-.042.018-.047.012-.042.018-.042.011-.042.007-.041.012-.042.012-.036.006-.042.005-.036.007-.036.006h-.035l-.03.006h-.03l-.03.006H60.7a1.42 1.42 0 01.484-.562c.293-.209.765-.263.95-.239-.042.142-.233.441-.449.573zM61.583 10.56c-.347.162-1.423.18-2.003.21h-.374l-.045-.015h-.06l-.044-.014h-.045l-.045-.015-.045-.015h-.045l-.045-.015h-.045l-.045-.015h-.03l-.044-.015-.03-.014h-.03l-.03-.015-.029-.015h-.045l-.015-.015h-.015l-.03-.015h-.015c.066 1.267.927 1.345.927 1.345-.012-.101 0-.269 0-.269.269.251.822.433.822.433-.006-.155-.06-.284-.06-.284.234.138.374.135.374.135-.024-.18-.134-.389-.134-.389a.55.55 0 00.358.225c.036-.102-.03-.359-.03-.359.084.101.24.37.717.478.49.102.703-.18.703-.18-.467.031-.912-.418-.912-.418.251-.095.344-.268.344-.268-.15-.126-.299-.135-.299-.135.275-.127.344-.345.344-.345zm-1.644.479v.045s-.747.003-.778.373c-.119-.078-.179-.22-.209-.388 0 0 .533.03.987-.03zM58.297 10.675l.005.054.007.048.005.054.006.048.006.054.012.047.012.048.012.048.012.048.012.048.012.041.018.043.012.041.018.043.018.036.018.035s-.34-.25-.424-.472c-.084-.222-.108-.365.239-.264zM57.294 10.92a.497.497 0 00-.374.208c-.173.257-.11.748.254.957 0 0 .547-.476 1.21-.015 0 0 .147-.087.493-.165v-.015h-.014v-.014l-.015-.015-.015-.015h-.015v-.015l-.015-.015-.014-.014-.015-.015-.015-.015-.015-.015h-.016l-.015-.03H58.7l-.015-.03h-.015l-.015-.015-.03-.015-.014-.015-.015-.015-.03-.014-.015-.015-.014-.015-.03-.015h-.017l-.03-.015-.014-.014c-.203-.09-.622-.216-.747-.598a1.199 1.199 0 00-.404-.032zm.314.507c.078 0 .15.072.15.15V11.606h-.015v.03h-.015v.03h-.015v.014h-.015v.015H57.67v.015h-.031l-.015.015h-.015c-.078 0-.134-.072-.134-.15-.001-.076.056-.148.134-.148zM58.954 11.99l.006.007.006.005v.006h.006l.006.013.006.006.011.012.007.018.012.012.012.012.012.017.012.019.018.012.012.018.017.017.012.024.018.018.036.036.03.036.036.042.018.018.018.018.017.018.019.018.017.011.018.019.018.012.018.017s-.897-.012-1.118.765c0 0-.305-.478-.083-.783.239-.33.466-.377.783-.443z" fill="#0055A5"/><path d="M59.934 12.175l.006.007h.012l.006.006H59.976l.012.006.012.006h.012l.018.006.012.006h.018l.012.007.018.006.03.005.03.012.036.006.012.006.017.007.012.006h.018l.012.006.012.006h.012l.012.007h.012l.012.006s0-.168-.006-.245c.09.018.191.048.287.06 0 0 .287.633.514.89 0 0 .012.15-.113.359 0 0-.168-.37-.455-.682-.162-.17-.27-.26-.61-.498zM59.175 12.044h.006l.012.006h.018l.012.006.018.006.018.006.023.007.019.005.024.012.023.006.024.006.03.012.024.007.03.011.024.012.03.012.06.024.06.024.059.024.053.024.03.018.03.012.024.012.03.018.024.012.024.012.024.017.017.012c.282.203.473.43.443.83 0 0-.222-.316-.473-.46a2.67 2.67 0 01-.74-.693zM59.181 9.139H59.2l.007.006h.029l.012.006H59.265l.012.007h.012l.006.006h.012l.012.006.012.006.005.006.013.006.006.007.012.006.005.006.012.006.007.006.005.007.007.012.005.006.006.012.006.005V9.274l.006.006V9.298l.006.006V9.323c0 .137-.215.466-.275.61-.06-.144-.269-.472-.269-.61s.162-.18.245-.18h.048V9.14zM58.995 10.21l-.005-.025-.006-.017v-.024l-.006-.024-.006-.024-.006-.024-.006-.03v-.024l-.006-.03-.006-.03-.012-.06-.018-.06-.012-.065-.012-.06-.012-.03-.006-.03-.006-.024-.012-.03-.005-.024-.012-.024-.007-.024-.012-.024-.012-.024-.005-.017-.012-.018-.012-.019-.012-.011-.006-.012a.532.532 0 00-.365-.108c-.083.006-.173.09-.137.203.036.114.406.67.454.735.083-.01.065-.01.28-.023zM59.318 10.21l.006-.025.006-.017v-.024l.006-.024.006-.024.006-.024.006-.03.006-.024.006-.03.006-.03.012-.06.012-.06.012-.065.018-.06.006-.03.006-.03.012-.024.006-.03.012-.024.005-.024.012-.024.007-.024.011-.024.006-.017.012-.018.012-.019.012-.011.006-.012a.524.524 0 01.365-.108c.083.006.167.09.137.203-.036.114-.407.67-.454.735-.083-.01-.071-.01-.28-.023zM59.557 8.47h-.287v-.317h-.232v.317h-.287v.203h.287v.37h.233v-.37h.286V8.47zM56.073 10.52v-.089l.006-.024V10.365l.005-.012v-.012c.019-.156.024-.293.007-.4-.21.077-.353.13-.634.59 0 0 .454-.28.616-.011z" fill="#0055A5"/><path d="M56.468 11.255v-.012l.006-.018V11.183l.005-.018v-.018l.006-.024.006-.017v-.024l.007-.018.005-.024v-.024l.006-.024.006-.03.007-.024.011-.048.012-.054.018-.054.012-.054.018-.054.018-.054.018-.053.006-.024.012-.024c.12-.31.041-.765-.096-1.034-.131-.269-.21-.52-.185-.795 0 0-.27.09-.425.185-.024.323.162.64.252.82.101.215.083.49.06.663-.037.293.023.604.215.897zM56.497 8.81v-.018h-.006V8.695l.006-.006v-.031l.006-.006V8.64l.005-.006s.425-.412.778-.484a.501.501 0 01.436.107s-.132-.012-.317.144c-.192.15-.425.34-.61.388-.172.045-.214.033-.298.021zM57.752 8.297l.03.03.03.03.03.03.024.03.03.03.024.03.005.012.012.017.012.012.012.018.007.018.011.012.007.018.012.012.005.012.007.018.005.012.007.018.005.012.006.018.006.012v.018l.006.012V8.77c-.006.15-.179.532-.275.675-.09.144-.22.335-.209.562.006.12.09.24.186.335 0 0-.52-.126-.58-.443-.06-.287.06-.49.143-.65.078-.15.323-.497.377-.64.06-.133.084-.24.065-.312zM60.789 11.907l.018.065.024.072.024.066.024.066.024.065.03.066.03.066.029.06.03.06.03.065.03.06.03.054.035.06.03.054.03.053.036.048c.155.245.251.652.24.789 0 0 .232-.52.113-.885-.09-.287-.347-.705-.807-.884zM61.369 12.026h.048l.011.007h.067l.017.006h.036l.024.006h.018l.024.006h.018l.024.006.024.006.017.006.024.007h.018l.024.012.018.006.024.006.018.006.018.012.017.006.018.012.018.006c.215.144.419.449.497.82 0 0-.365-.06-.538-.24-.18-.176-.395-.445-.484-.696zM59.528 12.672H59.492l-.012.006H59.462l-.012.006h-.024l-.012.006-.023.006-.024.006h-.024l-.024.006-.024.006-.024.007-.012.006h-.012l-.012.006h-.012l-.006.006h-.023l-.006.006s.304.09.454.21c.125.107.24.275.293.55.078.388.305.807.37.932l.03-.005c-.047-.27.12-.82.168-.897 0 0-.246-.155-.353-.31-.084-.117-.222-.308-.622-.553zM61.106 13.502l.012.019.006.018.012.024.012.024.012.018.006.024.012.03.018.024.012.024.012.03.023.054.024.054.007.03.012.03.012.036.005.03.012.03.007.03.005.035.006.03.006.036.006.036v.101l-.006.036v.03l-.006.036-.006.036-.012.036c-.107.376-.346.538-.502.854 0 0-.12-.573-.096-1.016.03-.45.191-.617.389-.779zM61.793 13.514v.007l.006.006v.006l.006.006v.006l.006.006.006.006v.012l.006.012.012.018.011.024.013.03.017.03.012.03.018.035.018.03.018.036.012.042.018.036.018.036.024.042.036.083.03.078.018.042.018.036.017.036.012.042.012.035.012.03.012.037.012.03.006.03.012.024c.06.269 0 .442-.12.603-.12.162-.322.341-.514.676 0 0-.215-.287-.244-.436-.024-.156.017-.514.065-.664.048-.15.234-.641.395-1.138zM61.972 15.709l-.005.006h-.007v.005l-.005.007-.007.006-.005.012-.018.012-.012.018-.018.018-.018.024-.018.018-.018.024-.018.024-.024.03-.024.024-.017.03-.024.023-.048.06-.042.053-.024.03-.018.03-.024.03-.017.025-.018.03-.018.023-.018.024-.018.024-.018.024-.012.024-.012.018-.006.017-.006.012-.006.006v.007l-.006.006c-.053.15-.15.418-.024.61.138.19.425.496.682.628 0 0-.275-.437-.251-.796.017-.233.197-.436.233-.573.029-.14.005-.378-.09-.593zM61.16 15.433l.005.007.006.011.006.007.006.012.012.012.006.012.006.012.006.011.006.019.012.012.006.018.006.012.006.018.006.012.018.036.012.036.012.036.012.035.012.036.012.036v.024l.005.018.006.018V15.925l.006.018c.012.203-.017.37-.131.675-.138.377-.359.801-.46.992 0 0-.198-.28-.306-.526 0 0 .305-.418.43-.71.157-.35.217-.672.276-.94zM61.022 15.266v.006l-.006.006v.036l-.006.024-.006.024-.006.036-.006.036-.012.042-.006.041-.012.048-.012.054-.017.054-.012.054-.018.06-.018.065-.024.06-.018.066-.024.071-.03.066-.024.072-.03.071-.03.072-.035.072-.036.071-.042.072-.036.072-.048.077-.042.072-.048.066-.048.071-.053.072c-.388.49-.706.664-.914.664-.317 0-.634-.27-.742-.568-.107-.3-.071-.771.132-.933 0 0 .191.586.591.61.46.024 1.046-.49 1.638-1.482z" fill="#0055A5"/><path d="M60.55 14.86l.005.018v.018l.007.018v.017l.012.036.005.042v.042l.007.042.005.042v.138l-.005.048-.007.047v.048l-.012.048-.005.048-.012.048c-.048.191-.168.442-.389.585-.197.12-.651.15-.83-.287 0 0 .836.066 1.219-.998zM61.919 18.805l.012.023.012.03.017.03.012.03.018.03.018.03.024.03.018.03.042.06.041.06.048.06.042.06.042.06.024.024.017.03.018.03.018.03.018.023.018.03.012.024.012.03.012.024.012.024.006.024.006.024v.024l.006.018c-.012.61-.28.98-.34 1.183 0 0-.485-.388-.568-.83-.048-.23 0-.91.383-1.245zM61.374 19.235l.007-.018.005-.018.007-.018.012-.018.006-.024.012-.017.006-.024.011-.024.013-.024.011-.03.012-.024.012-.023.024-.054.03-.054.03-.06.03-.054.018-.024.012-.024.018-.024.018-.023.017-.024.018-.024.018-.024.018-.018.018-.019.018-.017.018-.018.018-.019s.269-.777-.58-1.255c0 0-.353.46-.442.903-.096.437.37.7.585 1.094zM60.31 17.262l-.03.036-.03.03-.023.036-.03.036-.03.03-.03.035-.035.036-.03.03-.03.03-.03.036-.018.012-.018.012-.012.019-.018.011-.012.012-.017.012-.012.012-.018.006-.012.012-.018.013-.012.005-.018.006s-.054.347-.018.58c.042.34.263.693.359.956 0 0 .37-.49.412-.777.042-.287.036-.52.048-.657 0-.001-.204-.336-.317-.569zM59.325 18.936l-.013-.018-.011-.018-.012-.024-.012-.018-.019-.03-.012-.024-.017-.03-.018-.03-.018-.036-.018-.03-.018-.036-.018-.042-.018-.036-.017-.042-.024-.035-.018-.042-.036-.084-.036-.09-.03-.09-.012-.04-.018-.043-.012-.048-.012-.042-.006-.041-.012-.048-.006-.042-.006-.042v-.042l-.006-.042s.424.227.777.06c0 0 .042.562-.024.747-.054.157-.125.247-.298.378zM59.42 19.055l.012-.006.006-.005.006-.012.012-.007.006-.006.012-.006.006-.012.012-.006.012-.012.006-.006.024-.024.018-.018.024-.024.024-.019.018-.023.024-.019.011-.012.006-.005.012-.012.012-.012.006-.007.006-.011.012-.007.006-.012.006-.006.006-.012s.28.514.329.664c0 0-.138.03-.293-.078a1.955 1.955 0 01-.34-.285zM60.717 18.75l-.006.007v.006l-.006.012v.006l-.006.012-.006.006-.006.012-.006.012-.012.024-.012.024-.018.03-.018.024-.018.03-.017.036-.024.03-.018.036-.024.03-.024.036-.048.066-.048.071-.024.03-.024.036-.017.03-.024.03-.024.03-.018.03-.018.024-.024.024-.012.024-.018.018-.006.006-.006.012-.006.006-.006.006-.006.007-.006.006-.006.006-.006.006s.036.227.204.55c.167.329.4.556.526.67 0 0 .275-.485.358-.694.096-.245.084-.49.042-.58-.096-.212-.419-.517-.562-.786zM61.393 20.389l.005.024.012.017.012.024.012.018.018.024.012.024.018.018.012.024.018.024.018.03.036.048.03.053.036.048.036.054.036.053.03.054.012.03.017.024.012.03.012.024.012.024.012.03.006.024.006.03.012.023v.024a.949.949 0 01-.048.514c-.06.137-.239.412-.358.622 0 0-.413-.389-.503-.663a.993.993 0 01.06-.694c.096-.185.311-.382.407-.58zM60.227 20.335l.012.023.012.024.012.018.012.024.012.024.012.018.03.042.03.047.029.043.036.042.03.041.03.042.03.042.029.042.012.017.012.024.012.018.012.024.012.018.012.018.006.024.012.018.006.018.006.024c.065.233.09.388-.024.67-.108.244-.227.387-.27.537 0 0-.334-.43-.394-.61-.053-.185-.072-.478-.005-.663.072-.191.191-.436.275-.61zM61.87 21.985v.005h-.005v.006l-.006.006-.006.006-.006.006-.006.006-.006.012-.006.006-.012.012-.006.012-.012.012-.017.024-.019.03-.024.03-.023.03-.024.036-.024.035-.03.036-.024.042-.03.042-.024.042-.03.042-.023.041-.024.048-.024.042-.024.042-.024.048-.018.041-.018.042-.018.048-.012.042-.018.041-.005.036-.007.042-.005.018v.053c.017.461.322.76.364 1.047 0 0 .305-.34.418-.568.126-.263.227-.478.192-.77-.037-.293-.114-.479-.413-.771zM60.813 21.913l.005.012.012.018.012.018.012.018.012.018.012.023.012.024.012.024.018.024.012.024.012.03.018.024.012.03.012.03.024.06.012.035.012.03.012.03.012.03.005.036.012.03.006.03.006.03.006.035.006.03V22.72l-.006.03-.006.024c-.072.27-.358.646-.454.813 0 0-.227-.466-.275-.681-.047-.215-.005-.562.455-.992zM66.563 10.448v-.006l-.006-.006v-.006l-.006-.006-.006-.006-.006-.006h-.012l-.012-.006-.012-.007-.012-.006h-.012l-.018-.006-.012-.006-.018-.006h-.017l-.024-.007h-.018l-.024-.005-.018-.007h-.024l-.024-.006h-.048l-.03-.006h-.053l-.024-.006h-.15c-.322 0-.585.048-.585.107 0 .06.263.102.586.102.322.003.585-.039.585-.099zM62.57 8.65l.006-.025.006-.03.006-.03.006-.03.012-.03.012-.03.012-.036.012-.035.012-.036.012-.036.03-.072.029-.077.03-.078.03-.072.03-.078.012-.036.018-.036.011-.036.007-.035.012-.03.012-.036.005-.03.006-.03.006-.03.006-.03v-.048a.347.347 0 00-.693 0c0 .245.304.806.34 1.07h.013v.001zM63.538 9.211l.03-.072.03-.065.024-.06.03-.065.024-.06.024-.066.024-.06.024-.053.024-.06.018-.054.024-.054.017-.054.024-.054.019-.048.017-.047.018-.048.012-.048.019-.042.012-.042.011-.042.012-.036.012-.036L64 8.01l.006-.036.012-.03.006-.03.006-.03V7.86l.006-.024v-.06c0-.107-.131-.185-.245-.221-.132-.036-.233-.048-.317.012-.156.125-.3 1.093-.359 1.5.156.03.251.054.424.144zM62.988 9.055l-.018-.006h-.041l-.03-.006h-.09l-.03-.006h-.024c.048-.389.18-1.028.258-1.285.083-.257.18-.436.346-.485 0 0-.125.353-.197.718a18.66 18.66 0 00-.174 1.07zM63.27 9.91h.006v.006h.006v.006h.006l.006.012.012.012.012.006.011.012.018.018.012.012.018.018.018.017.024.012.018.018.024.018.024.018.024.024.024.018.03.018.024.018.03.018.023.018.03.018.03.018.03.018.03.012.03.018.03.012.035.012.03.012.03.012.03.006s-.137-.36-.675-.437z" fill="#0055A5"/><path d="M62.995 9.743h.036l.023-.006H63.126l.024.006h.06l.03.006h.03l.03.006.029.007h.036l.03.006.035.006.03.011.036.007.036.006.03.012.036.012.036.006.03.012.036.012.036.012.03.018.03.012.035.018.03.017.03.012.024.024.03.018c.292.203.388.376.49.562 0 0-.527.041-.987-.227a1.227 1.227 0 01-.453-.575zM63.555 10.56s.06.219.329.345c0 0-.147.009-.285.134 0 0 .09.173.329.269 0 0-.44.448-.911.418 0 0 .218.281.702.18.485-.108.628-.378.717-.479 0 0-.06.257-.03.359 0 0 .206-.015.374-.224 0 0-.126.209-.15.388 0 0 .134.003.374-.135 0 0-.054.129-.06.284 0 0 .562-.182.837-.433V11.86l-.015.015v.059s.86-.077.926-1.345c0 0-.565.21-1.15.18-.573-.028-1.647-.046-1.987-.207zm1.629.479c.454.06 1.001.03 1.001.03v.03h-.015v.03l-.015.03v.03l-.014.015V11.233l-.015.015v.03h-.015v.015l-.015.015v.014l-.015.015-.014.015v.015h-.015l-.015.015v.014h-.016l-.015.015v.015h-.015l-.015.015-.015.015c-.03-.37-.777-.374-.777-.374v-.043zM66.838 10.675l-.006.054-.006.048-.006.054-.006.048-.012.054-.006.047-.012.048-.012.048-.012.048-.012.048-.018.041-.012.043-.017.041-.012.043-.019.036-.017.035s.34-.25.424-.472c.084-.222.102-.365-.24-.264zM67.56 10.92l-.03.014h-.03l-.03.015h-.03c-.125.383-.552.508-.762.598-.221.107-.433.358-.433.358.347.078.508.165.508.165.663-.46 1.21.015 1.21.015.36-.21.434-.7.254-.957l-.03-.03-.014-.03-.015-.014-.03-.015-.015-.015-.03-.015-.014-.015-.03-.014-.03-.015-.014-.015h-.03l-.03-.015h-.03l-.015-.015H67.56zm-.045.507h.044v.015h.03v.015h.015l.015.015v.014h.014v.015h.015v.06l.015.014c0 .078-.072.15-.15.15-.077 0-.134-.072-.134-.15.002-.076.058-.148.136-.148zM66.18 11.99h-.006v.007h-.006v.005l-.006.006-.006.013-.012.006-.005.012-.012.018-.012.012-.006.012-.018.017-.012.019-.012.012-.018.018-.012.017-.018.024-.012.018-.036.036-.036.036-.03.042-.017.018-.018.018-.018.018-.018.018-.018.011-.018.019-.017.012-.019.017s.891-.012 1.118.765c0 0 .305-.478.084-.783-.24-.33-.467-.377-.784-.443z" fill="#0055A5"/><path d="M65.2 12.175h-.006v.007H65.176v.006h-.024l-.006.006-.011.006h-.019l-.012.006-.012.006h-.018l-.012.007-.017.006-.03.005-.036.012-.03.006-.018.006-.012.007-.018.006h-.012l-.018.006-.011.006h-.013l-.011.007h-.012l-.007.006s-.005-.168.007-.245c-.09.018-.198.048-.293.06 0 0-.281.633-.508.89 0 0-.012.15.113.359 0 0 .162-.37.454-.682.162-.17.27-.26.61-.498zM65.96 12.044h-.012l-.012.006h-.012l-.018.006-.018.006-.018.006-.018.007-.024.005-.024.012-.024.006-.024.006-.024.012-.03.007-.024.011-.03.012-.03.012-.06.024-.059.024-.054.024-.06.024-.029.018-.024.012-.03.012-.024.018-.024.012-.024.012-.024.017-.018.012c-.28.203-.472.43-.448.83 0 0 .227-.316.478-.46a2.66 2.66 0 00.742-.693zM65.953 9.139H65.935l-.006.006H65.9l-.012.006h-.017l-.012.007h-.012l-.006.006h-.012l-.012.006-.012.006-.006.006-.012.006-.006.007-.012.006-.006.006-.012.006-.006.006-.006.007-.006.012-.006.006-.006.012-.006.005V9.274l-.006.006V9.298l-.006.006V9.323c0 .137.215.466.275.61.06-.144.269-.472.269-.61s-.162-.18-.251-.18h-.042V9.14zM66.139 10.21l.005-.025v-.017l.006-.024.006-.024v-.024l.006-.024.006-.03.006-.024.006-.03.006-.03.012-.06.012-.06.012-.065.018-.06.006-.03.012-.03.006-.024.006-.03.012-.024.006-.024.012-.024.012-.024.006-.024.012-.017.012-.018.006-.019.012-.011.011-.012a.518.518 0 01.365-.108c.084.006.168.09.138.203-.036.114-.407.67-.455.735-.083-.01-.071-.01-.28-.023zM65.81 10.21v-.025l-.006-.017-.006-.024-.006-.024v-.024l-.006-.024-.006-.03-.006-.024-.006-.03-.006-.03-.012-.06-.012-.06-.018-.065-.012-.06-.012-.03-.005-.03-.007-.024-.011-.03-.006-.024-.012-.024-.006-.024-.012-.024-.012-.024-.006-.017-.012-.018-.012-.019-.006-.011-.012-.012a.51.51 0 00-.364-.108.155.155 0 00-.132.203c.03.114.4.67.454.735.084-.01.066-.01.275-.023zM65.577 8.47h.28v-.317h.24v.317h.287v.203h-.287v.37h-.24v-.37h-.28V8.47zM62.116 6.587h.293V6.27h.227v.317h.293v.203h-.293v.37h-.227v-.37h-.293v-.203zM69.061 10.52V10.478l-.005-.024v-.071l-.007-.006V10.34a1.328 1.328 0 01-.012-.4c.21.077.353.13.634.59 0 0-.454-.28-.61-.011z" fill="#0055A5"/><path d="M68.667 11.255l-.006-.012V11.201l-.006-.018v-.018l-.006-.018v-.024l-.005-.017v-.024l-.007-.018-.005-.024-.007-.024-.005-.024-.007-.03-.005-.024-.012-.048-.012-.054-.012-.054-.018-.054-.012-.054-.018-.054-.018-.053-.006-.024-.012-.024c-.113-.31-.048-.765.09-1.034.137-.269.215-.52.185-.795 0 0 .275.09.424.185.024.323-.161.64-.245.82-.107.215-.09.49-.06.663.036.293-.024.604-.215.897zM68.637 8.81V8.69l-.005-.007v-.03l-.007-.006v-.012s-.43-.412-.783-.484a.468.468 0 00-.424.107s.12-.012.31.144c.192.15.425.34.605.388.178.045.214.033.304.021zM67.376 8.297l-.03.03-.03.03-.024.03-.03.03-.023.03-.024.03-.012.012-.012.017-.012.012-.006.018-.012.018-.012.012-.007.018-.005.012-.012.012-.007.018-.005.012-.006.018-.006.012v.018l-.006.012-.006.018V8.77c0 .15.18.532.269.675.09.144.233.335.215.562a.588.588 0 01-.186.335s.52-.126.58-.443c.06-.287-.066-.49-.15-.65-.077-.15-.316-.497-.376-.64-.053-.133-.083-.24-.065-.312zM64.346 11.907l-.024.065-.024.072-.019.066-.03.066-.023.065-.024.066-.03.066-.03.06-.03.06-.03.065-.03.06-.035.054-.03.06-.03.054-.036.053-.03.048c-.161.245-.262.652-.238.789 0 0-.24-.52-.12-.885.095-.287.346-.705.813-.884zM63.76 12.026H63.718l-.012.007h-.066l-.018.006H63.58l-.017.006h-.024l-.018.006h-.024l-.018.006-.024.006-.024.006-.017.007h-.024l-.024.012-.019.006-.017.006-.024.006-.018.012-.018.006-.018.012-.018.006c-.21.144-.418.449-.49.82 0 0 .359-.06.538-.24.173-.176.394-.445.478-.696zM65.606 12.672H65.648l.006.006H65.672l.012.006h.024l.012.006h.012l.012.006.024.006h.024l.023.006.024.006.024.007.012.006h.012l.012.006h.012l.006.006H65.935l.012.006s-.305.09-.46.21c-.126.107-.24.275-.287.55-.078.388-.305.807-.377.932l-.024-.005c.042-.27-.125-.82-.167-.897 0 0 .24-.155.352-.31.079-.117.222-.308.623-.553zM64.028 13.502l-.012.019-.005.018-.012.024-.012.024-.012.018-.012.024-.012.03-.012.024-.012.024-.012.03-.024.054-.024.054-.012.03-.012.03-.012.036-.005.03-.012.03-.007.03-.005.035-.007.03-.005.036-.006.036v.167l.006.036.012.036.005.036c.114.376.36.538.514.854 0 0 .12-.573.09-1.016-.024-.45-.185-.617-.383-.779zM62.57 14.549v-.019l.006-.023.012-.024.005-.03.018-.024.012-.03.018-.03.018-.03.018-.037.018-.03.024-.035.024-.036.024-.036.017-.036.048-.071.048-.072.024-.036.024-.042.017-.036.024-.036.018-.036.018-.036.018-.035.012-.03.012-.036.012-.03.006-.036.006-.03v-.054c-.03-.287-.407-.49-.502-.532h-.006c-.096.042-.478.245-.502.532-.024.287.484.82.496 1.034h.013v.002zM63.341 13.514l-.005.007v.012l-.007.006-.006.006v.006l-.006.006-.005.012-.006.012-.006.018-.012.024-.018.03-.012.03-.018.03-.012.035-.018.03-.018.036-.018.042-.018.036-.017.036-.019.042-.035.083-.036.078-.018.042-.012.036-.018.036-.012.042-.018.035-.012.03-.012.037-.005.03-.012.03-.007.024c-.06.269-.005.442.114.603.126.162.329.341.514.676 0 0 .221-.287.245-.436a1.925 1.925 0 00-.065-.664c-.043-.151-.229-.641-.39-1.138zM62.57 16.175l.03-.03.03-.03.03-.03.023-.03.03-.03.024-.03.03-.03.024-.037.018-.03.024-.03.006-.017.012-.012.012-.018.005-.012.006-.018.012-.012.006-.012.006-.018.006-.012.006-.012.006-.012.006-.012c.042-.126.054-.305-.054-.442-.125-.162-.287-.347-.299-.496h-.012c-.006.15-.167.335-.299.496-.107.137-.095.316-.047.442.047.12.19.33.352.472h.007v.002zM63.162 15.709l.006.006.005.005.007.007.006.006.006.012.012.012.012.018.017.018.018.024.018.018.018.024.024.024.018.03.024.024.024.03.017.023.048.06.042.053.024.03.024.03.018.03.018.025.024.03.018.023.018.024.012.024.017.024.012.024.012.018.012.017.007.012v.006l.005.007v.006c.06.15.15.418.024.61-.125.19-.424.496-.681.628 0 0 .28-.437.25-.796-.017-.233-.19-.436-.226-.573-.036-.14-.012-.378.09-.593zM63.969 15.433l-.006.007-.006.011-.006.007-.006.012-.006.012-.012.012-.006.012-.006.011-.006.019-.006.012-.012.018-.005.012-.007.018-.005.012-.019.036-.011.036-.013.036-.012.035-.011.036-.012.036-.006.024v.018l-.006.018v.018l-.006.024v.018c-.012.203.024.37.137.675.137.377.353.801.46.992 0 0 .192-.28.3-.526 0 0-.305-.418-.437-.71-.15-.35-.21-.672-.27-.94zM64.112 15.266v.012l.006.018v.018l.006.024.006.024.006.036.006.036.006.042.012.041.012.048.012.054.012.054.018.054.017.06.018.065.018.06.024.066.024.071.024.066.03.072.03.071.03.072.035.072.036.071.036.072.041.072.043.077.047.072.048.066.048.071.054.072c.388.49.705.664.914.664.317 0 .634-.27.742-.568.101-.3.071-.771-.132-.933 0 0-.191.586-.598.61-.453.024-1.045-.49-1.63-1.482z" fill="#0055A5"/><path d="M64.585 14.86l-.007.018-.005.018v.018l-.007.017-.005.019v.018l-.007.042-.005.041-.007.043V15.32l.007.048.005.048.007.047.012.048.012.048c.047.191.161.443.388.586.191.12.651.15.825-.287 0-.001-.837.065-1.213-1zM62.564 17.765l.024-.012.018-.012.024-.006.017-.012.024-.012.019-.012.012-.007.012-.012.011-.006.007-.006.012-.012.012-.006.011-.012.012-.006.012-.012.012-.012.006-.012.012-.012.012-.012.012-.018.012-.012.012-.018.012-.012.012-.018.012-.018.017-.024c.102-.16.204-.46.15-.675-.072-.263-.221-.37-.305-.538-.066.066-.108.114-.197.168h-.006c-.084-.054-.132-.102-.203-.168-.09.168-.228.275-.3.538-.053.215.043.514.15.675.132.217.234.253.353.313zM62.564 19.408l.006-.024.012-.024.012-.03.012-.03.018-.03.018-.03.017-.03.024-.03.024-.036.024-.036.024-.03.024-.036.048-.072.053-.071.048-.072.024-.036.024-.036.024-.035.018-.03.018-.037.017-.035.018-.03.012-.036.012-.03.012-.03.006-.03V18.384c-.077-.412-.34-.329-.544-.496h-.006c-.203.167-.472.084-.544.496-.052.265.486.767.545 1.024zM63.21 18.805l-.006.023-.017.03-.012.03-.018.03-.018.03-.018.03-.018.03-.018.03-.041.06-.048.06-.042.06-.048.06-.041.06-.019.024-.023.03-.018.03-.018.03-.018.023-.012.03-.018.024-.012.03-.012.024-.006.024-.006.024-.006.024-.006.024v.018c.012.61.276.98.335 1.183 0 0 .49-.388.574-.83.046-.23-.008-.91-.39-1.245zM63.76 19.235l-.006-.018-.006-.018-.006-.018-.012-.018-.006-.024-.012-.017-.006-.024-.012-.024-.012-.024-.012-.03-.012-.024-.012-.023-.024-.054-.03-.054-.03-.06-.03-.054-.017-.024-.018-.024-.018-.024-.018-.023-.018-.024-.017-.024-.019-.024-.017-.018-.019-.019-.017-.017-.018-.018-.024-.019s-.263-.777.586-1.255c0 0 .352.46.449.903.094.437-.372.7-.587 1.094zM64.824 17.262l.024.036.03.03.03.036.03.036.029.03.03.035.03.036.03.03.035.03.03.036.012.012.018.012.018.019.012.011.018.012.011.012.019.012.012.006.017.012.012.013.018.005.012.006s.054.347.024.58c-.042.34-.269.693-.359.956 0 0-.376-.49-.412-.777-.048-.287-.042-.52-.053-.657 0-.001.209-.336.323-.569zM65.804 18.936l.012-.018.012-.018.012-.024.017-.018.013-.03.017-.024.018-.03.012-.03.018-.036.018-.03.018-.036.024-.042.017-.036.019-.042.017-.035.019-.042.035-.084.036-.09.03-.09.017-.04.013-.043.011-.048.012-.042.012-.041.007-.048.005-.042.006-.042v-.084s-.418.227-.764.06c0 0-.048.562.018.747.054.157.132.247.299.378zM65.708 19.055l-.006-.006-.006-.005-.012-.012-.005-.007-.012-.006-.007-.006L65.65 19l-.006-.006-.012-.012-.012-.006-.006-.012-.012-.012-.024-.018-.024-.024-.018-.019-.024-.023-.017-.019-.012-.012-.012-.005-.007-.012-.011-.012-.012-.007-.006-.011-.006-.007-.012-.012-.006-.006-.006-.012s-.275.514-.323.664c0 0 .137.03.287-.078.155-.105.19-.135.34-.285zM64.417 18.75l.007.007v.006l.005.012v.006l.006.012.006.006v.012l.006.012.012.024.018.024.012.03.018.024.018.03.024.036.017.03.024.036.024.03.018.036.048.066.048.071.024.03.024.036.024.03.017.03.024.03.019.03.023.024.018.024.018.024.012.018.006.006.012.012.006.006.006.006.006.007v.006l.006.006.006.006s-.036.227-.197.55c-.174.329-.401.556-.526.67 0 0-.275-.485-.359-.694-.096-.245-.09-.49-.042-.58.09-.212.413-.517.562-.786zM62.57 22.462l.006-.018.006-.017.006-.018.006-.018.012-.012.006-.018.012-.018.011-.018.013-.018.011-.018.019-.024.012-.018.03-.036.029-.042.03-.042.036-.041.03-.048.03-.048.017-.024.012-.024.018-.024.012-.024.012-.024.012-.03.012-.023.012-.03c.06-.173.06-.382-.012-.526-.078-.161-.37-.568-.407-.681-.035.114-.322.52-.406.681a.695.695 0 00-.006.526c.107.3.364.502.406.675h.013zM63.736 20.389l-.006.024-.012.017-.012.024-.012.018-.012.024-.018.024-.012.018-.018.024-.018.024-.017.03-.03.048-.036.053-.036.048-.036.054-.03.053-.03.054-.018.03-.012.024-.012.03-.018.024-.005.024-.012.03-.012.024-.006.03-.006.023-.006.024c-.036.203 0 .37.047.514.06.137.24.412.359.622 0 0 .412-.389.502-.663a.993.993 0 00-.053-.694c-.102-.185-.318-.382-.413-.58zM64.907 20.335l-.012.023-.012.024-.012.018-.011.024-.013.024-.011.018-.03.042-.03.047-.036.043-.03.042-.036.041-.03.042-.03.042-.029.042-.012.017-.012.024-.012.018-.012.024-.012.018-.012.018-.005.024-.007.018-.012.018-.005.024c-.066.233-.084.388.03.67.1.244.226.387.269.537 0 0 .334-.43.388-.61.06-.185.077-.478.005-.663-.066-.191-.185-.436-.269-.61zM62.564 25.78l.006-.024.006-.024.006-.024.012-.03.012-.029.012-.03.012-.036.017-.041.019-.036.017-.043.019-.041.017-.048.024-.048.018-.048.024-.047.018-.054.024-.048.024-.053.017-.06.019-.054.023-.06.019-.06.017-.059.019-.06.017-.06.012-.06.012-.065.012-.06.012-.066.006-.066.006-.06v-.065c.018-.346-.299-.896-.472-1.1h-.012c-.174.204-.479.754-.473 1.1.025.686.461 1.344.48 1.559zM63.263 21.985v.005h.006v.006l.006.006.006.006.006.006.006.006.006.012.006.006.012.012.006.012.006.012.024.024.017.03.024.03.024.03.024.036.024.035.03.036.024.042.024.042.03.042.024.042.03.041.023.048.024.042.024.042.018.048.024.041.018.042.017.048.012.042.012.041.012.036.006.042v.071c-.012.461-.316.76-.364 1.047 0 0-.3-.34-.413-.568-.131-.263-.233-.478-.19-.77.03-.293.108-.479.412-.771zM64.322 21.913l-.012.012-.007.018-.012.018-.011.018-.013.018-.011.023-.012.024-.018.024-.012.024-.012.024-.012.03-.018.024-.012.03-.011.03-.03.06-.013.035-.012.03-.011.03-.006.03-.012.036-.006.03-.012.03-.006.03-.006.035v.03l-.006.03v.053l.006.03v.03l.012.024c.066.27.353.646.448.813 0 0 .227-.466.28-.681.049-.215.007-.562-.453-.992z" fill="#0055A5"/><path d="M62.959 26.892l.006-.048.006-.048.006-.048.006-.047.012-.048.006-.042.012-.042.012-.042.018-.042.012-.042.012-.036.017-.041.019-.036.012-.036.035-.072.03-.066.036-.065.03-.06.03-.06.012-.03.012-.03.012-.03.012-.03.012-.023.005-.03.006-.024.006-.024c.06-.31.042-.604-.203-.962a9.128 9.128 0 01-.568 1.482c-.006.012-.012.018-.018.03 0-.012-.006-.018-.012-.03a8.57 8.57 0 01-.574-1.482c-.239.358-.263.651-.203.962.054.275.359.604.395 1.142.036.544-.574.747-.574.747.21.072.442.108.813-.244a.739.739 0 00.155-.21c.042.078.096.143.156.21.376.352.61.316.813.244 0 0-.604-.203-.574-.747zM61.04 23.3l.006.017.012.024.006.018.006.024.012.024.012.024.006.024.012.024.017.047.024.048.024.054.018.048.024.054.012.024.006.024.012.018.012.024.005.023.007.019.012.024.005.018.007.018.005.011.007.018.005.012v.018l.007.006c.047.215-.019.478-.407.753 0 0-.251-.18-.352-.412-.096-.215-.036-.37.06-.478.095-.12.328-.378.418-.55zM61.865 24.1V24.142l-.006.024V24.208l-.006.03v.024l-.006.03-.006.03-.006.036-.006.035-.006.036-.006.036-.006.036-.006.036-.018.077-.017.078-.024.084-.012.035-.007.036-.017.042-.012.036-.012.036-.012.035-.018.036-.012.03-.018.03-.012.03c-.245.424-.603.747-.92.747-.287 0-.347-.173-.496-.245 0 0 .071-.37.4-.466.4-.125 1.016-.603 1.267-1.058z" fill="#0055A5"/><path d="M60.819 24.877l-.012-.012-.012-.005-.024-.019-.012-.012-.012-.006-.018-.012-.012-.005-.012-.012-.012-.012-.006-.006-.006-.006-.006-.006-.006-.006-.012-.006-.006-.006-.006-.006-.006-.006-.006-.012-.012-.006-.006-.006-.006-.012s-.305.113-.568.287c-.25.174-.502.466-.633.616 0 0 .376.095.621-.012 0 0 .09-.364.359-.526.066-.037.252-.096.43-.186zM60.496 24.567l-.006-.006-.006-.012-.006-.006-.006-.012-.006-.012-.006-.012-.006-.012-.006-.012-.006-.012-.012-.012-.006-.018-.006-.012-.006-.012-.006-.018-.006-.017-.006-.012-.012-.018-.005-.018v-.018l-.007-.018-.005-.018-.006-.018-.006-.024v-.017l-.006-.018v-.048l-.006-.018v-.048l.006-.024v-.024s-.538.341-.7.466a4.724 4.724 0 00-.573.592s.406-.09.723-.19c.34-.115.573-.27.7-.342zM59.587 25.146l-.023.012-.03.006-.036.012-.03.012-.036.006-.036.012-.041.006-.036.012-.042.012-.042.006-.084.018-.083.023-.09.019-.083.017-.09.018-.083.018-.036.006-.042.012-.036.006-.041.012-.036.006-.03.006-.036.012-.03.006-.03.006-.023.012c-.275.084-.473.215-.73.502 0 0 .395.108.61.18 0 0 .34-.234.711-.371.244-.095.357-.353.614-.604zM58.984 27.065l.012-.012.011-.012.013-.018.011-.012.007-.006.005-.012.006-.006.006-.006v-.012l.006-.006.006-.012.006-.006v-.012l.006-.006v-.024l.006-.005v-.072l-.006-.012v-.012l-.006-.018v-.012l-.006-.018c-.042-.114-.28-.246-.424-.311-.233-.114-.878-.287-1.088-.353 0 0-.107.126-.16.258-.031.053.005.101.095.113.185.036.616-.048.723.024.113.072.072.173.072.27 0 0 .197-.12.322-.09.173.035.281.119.377.4zM58.41 26.169h.012l.006.006h.006l.012.006h.012l.012.005.011.007h.012l.012.006.018.005.012.006.018.006.018.007.018.005.018.012.017.007.019.005.024.012.017.006.024.012.018.012.024.007.024.012.018.012.024.012.024.012.024.011.017.012.024.018.024.012.024.012s.108-.042.162-.144c.053-.095.275-.424.478-.466 0 0-.174-.012-.275-.047 0 0-.203.053-.359.119-.149.054-.334.15-.55.293zM60.078 25.756h-.007l-.011.006-.007.006h-.012l-.005.006h-.012l-.007.006h-.011l-.006.006H59.982l-.006.006H59.958l-.006.006h-.03l-.012.006H59.874l-.012.006H59.82s-.568.394-.634.783c-.06.34.12.502.204.544.09.048.484.203.74-.323 0 0-.435.144-.561-.065-.113-.215.077-.526.197-.61.162-.12.443-.203.616-.167 0 0-.143-.132-.304-.216z" fill="#0055A5"/><path d="M56.354 30.269l.024-.108.03-.107.03-.113.011-.054.018-.054.018-.054.018-.06.018-.053.018-.053.024-.054.017-.054.024-.054.024-.054c.257-.544.891-1.996 2.206-2.247.12-.03-.144-.335-.264-.317-.119.012-.352.167-.454.233 0 0 0-.31-.006-.364 0-.054-.048-.078-.101-.078-.048.006-.371 0-.467.12-.305.346-.807 1.279-1.094 1.972-.287.694-.484.909-.789.801-.298-.107-.478-.454-1.01-.346-.179.035-.382.161-.544.34.048.084.102.192.347.192s.723.101.98.281c.265.183.54.25.922.285zM61.602 25.774l.006.042.006.041.012.042.012.042.012.042.018.042.012.036.017.041.018.043.018.041.018.042.024.036.018.042.024.042.018.042.023.041s-.394 1.847-1.846 1.985c0 0 .03-.383.454-.67.43-.293 1.076-.747 1.028-1.434 0 0-.12.023-.323.28-.203.258-.657 1.005-1.35 1.01 0 0 .1-.352.412-.55.305-.203.7-.46.879-.77.179-.305.364-.448.49-.508zM60.915 32.505l.884 1.237.67-1.19-.24-.43c-.173.317-.364.652-.466.843-.077-.12-.298-.43-.591-.843l-.257.383z" fill="#0055A5"/><path d="M60.693 31.458l-.161-.227-.167-.233-.168-.233-.167-.233-.167-.233-.162-.227-.078-.108-.078-.108-.077-.107-.072-.102-.071-.101-.066-.096-.066-.096-.066-.09-.06-.083-.06-.078-.053-.077-.048-.066-.048-.066-.042-.06-.036-.054-.03-.047-.03-.036-.023-.036-.018-.024-.012-.018.335-.239-1.052-.4.017 1.141.36-.257 2.115 2.977.251-.383zM53.449 24.71l.024-.024.03-.024.023-.017.03-.018.03-.012.03-.012.03-.006.03-.006.03-.006h.035l.03.006h.036l.036.012.036.005.036.012.036.012.036.018.042.018.036.018.042.018.035.024.043.024.041.03.036.024.042.03.042.03.041.035.042.03.042.035.036.036.041.036.042.036c.442.407.723.825.466 1.112-.239.257-.705.036-1.142-.37-.447-.407-.722-.825-.465-1.106z" fill="#0055A5"/><path d="M54.166 29.731l-.006-.006-.005-.006-.007-.006h-.006v-.005h-.006V29.7h-.005v-.006h-.007a1.165 1.165 0 01-.37-.872c0-.67.544-1.214 1.207-1.214.67 0 1.214.544 1.214 1.214 0 .09-.018.233-.018.233.053-.102.257-.562.293-.646a1.542 1.542 0 00-2.876-.263c.096-.61.4-1.16.616-1.362.257-.245.699-.323.699-.323-.293.042-.663-.132-1.094-.52-.4-.37-.604-.693-.622-.962.024.382.018.591-.09.908-.149.419-.55 1.196-.406 2.075.078.484.425 1.201 1.017 1.787.12.131.167.329.185.43 0 0 .86 0 1.07.018 0 0 .204-.018.192-.15 0-.126-.114-.155-.21-.155-.107 0-.538.005-.765-.162zM58.936 30.024l-.102.036-.107.036-.101.03-.102.03-.108.03-.101.03-.102.023-.101.024-.108.024-.101.018-.101.018-.102.017-.197.036-.203.03c-.335.054-.67.072-.993.06a.296.296 0 01-.024.173s.06.072.06.162c.33.006.67-.006 1.01-.066.574-.09 1.178-.203 1.781-.43l-.198-.281zM59.844 29.982l.138-.078.137-.083.137-.09.137-.095.132-.102.137-.107.132-.114.137-.12.131-.125.126-.137.131-.137.125-.15.132-.161.125-.162.12-.174.065-.089.06-.096.113-.19c-.173.077-.4.023-.4.023-.012.018-.041.066-.06.084-.597.89-1.267 1.458-1.954 1.829l.2.274zM54.99 30.293h-.059l-.018-.006h-.197l-.042.006h-.048l-.042.006h-.048l-.041.006H54.453l-.024.006h-.018l-.018.006h-.018c-.215.03-.454.077-.484.191-.018.114.053.233.162.4.071.102.227.048.31.012.09-.036.592-.299.67-.388.077-.084.107-.21-.042-.239zM55.499 30.628l-.006-.006-.006-.006h-.006l-.006-.006h-.006l-.006-.006-.006-.006h-.012l-.006-.006h-.012l-.006-.006h-.012l-.006-.006h-.024l-.006-.006h-.024l-.012-.006H55.254l-.012.006h-.012l-.012.006h-.012l-.012.006h-.012c-.137.054-.627.347-.663.478-.03.138.036.21.113.24a.95.95 0 00.24.065c.119.006.238-.066.304-.144.06-.077.287-.352.323-.418.03-.054.054-.15 0-.18zM55.559 30.927l-.006.006-.006.012-.012.006-.005.012-.012.012-.012.012-.006.012-.012.012-.012.012-.012.017-.012.012-.012.012-.017.03-.024.03-.012.012-.012.018-.012.012-.012.012-.006.012-.012.012-.012.012-.006.012-.012.012-.007.012-.006.006-.006.012-.005.006v.006h-.007v.006l-.006.006c-.024.036.012.101.072.09.066-.006.4-.042.598-.173.19-.132.322-.383.19-.478-.137-.098-.34-.05-.567.196zM55.666 30.19h-.011l-.012-.005h-.019l-.012-.006H55.6l-.011-.006h-.024l-.018-.006h-.012l-.012-.006h-.048l-.012-.006H55.38l-.012.006h-.012l-.012.006h-.012v.006h-.012l-.006.006-.006.006h-.005v.006h-.007v.006c-.071.107-.023.215.18.31.197.096.567.174.639.072.071-.101-.024-.274-.449-.388zM64.088 23.3l-.006.017-.012.024-.006.018-.005.024-.012.024-.007.024-.012.024-.012.024-.017.047-.024.048-.018.054-.024.048-.024.054-.012.024-.006.024-.012.018-.012.024-.006.023-.012.019-.006.024-.006.018-.006.018-.006.011-.006.018-.006.012-.006.018v.006c-.041.215.018.478.407.753 0 0 .257-.18.352-.412.096-.215.036-.37-.054-.478-.1-.12-.328-.378-.424-.55zM63.263 24.1l.006.012v.072l.006.024v.03l.006.024.006.03v.03l.006.036.006.035.006.036.006.036.012.036.006.036.018.077.018.078.018.084.012.035.012.036.012.042.012.036.018.036.012.035.012.036.018.03.018.03.012.03c.245.424.597.747.92.747.287 0 .353-.173.49-.245 0 0-.071-.37-.4-.466-.4-.125-1.017-.603-1.268-1.058z" fill="#0055A5"/><path d="M64.31 24.877l.017-.012.012-.005.024-.019.012-.012.012-.006.012-.012.012-.005.012-.012.012-.012.006-.006.006-.006.006-.006.012-.006.006-.006.006-.006.006-.006.005-.006.007-.012.012-.006.005-.006.006-.012s.311.113.568.287c.251.174.502.466.64.616 0 0-.383.095-.628-.012 0 0-.09-.364-.358-.526-.06-.037-.251-.096-.43-.186zM64.632 24.567l.006-.006.006-.012.006-.006.006-.012.006-.012.006-.012.006-.012.012-.012.006-.012.006-.012.006-.018.006-.012.012-.012.006-.018.006-.017.006-.012.006-.018.005-.018.007-.018.005-.018.007-.018.005-.018v-.024l.007-.017v-.018l.005-.024V24.137l.007-.024v-.024l-.007-.024v-.024s.538.341.7.466c.155.132.496.478.568.592 0 0-.407-.09-.718-.19-.34-.115-.58-.27-.705-.342zM65.541 25.146l.03.012.03.006.03.012.035.012.036.006.036.012.036.006.042.012.036.012.042.006.084.018.089.023.084.019.09.017.083.018.084.018.042.006.042.012.035.006.036.012.036.006.036.006.03.012.03.006.03.006.03.012c.268.084.466.215.729.502 0 0-.4.108-.61.18 0 0-.34-.234-.717-.371-.245-.095-.36-.353-.616-.604zM66.144 27.065l-.012-.012-.011-.012-.012-.018-.012-.012-.006-.006-.006-.012-.006-.006-.006-.006v-.012l-.006-.006-.006-.012-.006-.006v-.012l-.006-.006v-.024l-.006-.005v-.072l.006-.012v-.012l.006-.018.006-.012v-.018c.048-.114.28-.246.424-.311.239-.114.885-.287 1.094-.353 0 0 .101.126.162.258.018.053-.012.101-.102.113-.18.036-.616-.048-.717.024-.113.072-.078.173-.078.27 0 0-.197-.12-.322-.09-.174.035-.276.119-.378.4zM66.725 26.169h-.012l-.006.006h-.012l-.006.006h-.012l-.012.005-.012.007h-.012l-.018.006-.012.005-.017.006-.012.006-.018.007-.018.005-.018.012-.024.007-.018.005-.018.012-.024.006-.017.012-.024.012-.019.007-.023.012-.024.012-.024.012-.018.012-.024.011-.024.012-.024.018-.023.012-.024.012s-.108-.042-.162-.144c-.054-.095-.275-.424-.472-.466 0 0 .167-.012.269-.047 0 0 .21.053.358.119.15.054.334.15.556.293zM65.057 25.756h.005l.007.006h.005l.007.006h.005l.007.006h.012l.005.006h.012l.006.006H65.146l.006.006H65.17l.012.006h.024l.012.006H65.254l.012.006H65.308s.573.394.639.783c.054.34-.12.502-.21.544-.083.048-.478.203-.74-.323 0 0 .436.144.561-.065.12-.215-.072-.526-.197-.61-.156-.12-.443-.203-.61-.167.001 0 .138-.132.306-.216z" fill="#0055A5"/><path d="M68.78 30.269l-.03-.108-.023-.107-.03-.113-.018-.054-.018-.054-.012-.054-.018-.06-.018-.053-.024-.053-.017-.054-.024-.054-.024-.054-.024-.054c-.251-.544-.885-1.996-2.2-2.247-.125-.03.138-.335.258-.317.12.012.352.167.46.233v-.364c.006-.054.054-.078.101-.078.054.006.371 0 .473.12.299.346.807 1.279 1.088 1.972.292.694.49.909.789.801.299-.107.478-.454 1.01-.346.185.035.388.161.544.34-.042.084-.096.192-.347.192-.245 0-.717.101-.98.281-.264.183-.539.25-.915.285zM63.533 25.774l-.012.042-.006.041-.012.042-.012.042-.012.042-.012.042-.017.036-.019.041-.012.043-.024.041-.017.042-.018.036-.024.042-.018.042-.048.084s.4 1.846 1.853 1.984c0 0-.03-.383-.46-.67-.431-.293-1.071-.747-1.023-1.434 0 0 .108.024.317.281.203.257.657 1.004 1.357 1.01 0 0-.101-.352-.412-.55-.311-.203-.7-.46-.879-.77-.18-.306-.37-.45-.49-.509zM62.57 27.567l.006.024.012.03.012.03.018.029.017.036.024.036.019.042.03.041.023.042.024.042.03.042.03.048.03.047.035.048.066.09.066.096.065.09.036.047.036.042.03.042.036.042.03.042.03.036.029.035.03.036.03.03.03.024.023.03.024.018c.234.221.82.807 1.136 1.1 0 0-.89-.22-1.392-.675 0 0-.353.203-.61.203h-.018c-.257 0-.615-.203-.615-.203-.497.454-1.387.675-1.387.675.31-.293.897-.879 1.136-1.1.239-.215.789-.992.872-1.237h.007z" fill="#0055A5"/><path d="M62.57 29.617h.036l.017-.006H62.678l.035-.006.036-.006.03-.012.036-.006.03-.012.036-.006.03-.012.023-.012.03-.006.013-.006.011-.006.012-.006.012-.006.012-.006h.012l.012-.006.012-.006c-.107.215-.305.568-.49.706h-.006c-.191-.138-.389-.49-.496-.706.108.048.293.126.49.126h.012z" fill="#0055A5"/><path d="M63.33 33.742l3.478-4.878.353.257.024-1.142-1.052.4.329.24c-.168.245-2.768 3.885-3.097 4.345l-1.572-2.857-.197.293-1.399 2.122-.353-.234v1.124l1.064-.418-.358-.245c.197-.287.95-1.435 1.207-1.817l1.572 2.81z" fill="#0055A5"/><path d="M63.969 31.823l-.09-.131-.047-.066-.042-.066-.042-.06-.042-.066-.041-.06-.036-.06-.042-.059-.036-.053-.018-.024-.018-.03-.012-.024-.017-.024-.018-.024-.012-.024-.018-.024-.012-.018-.012-.024-.018-.018-.012-.018-.012-.018a40.24 40.24 0 01-.46.837l-.252-.442.682-1.22.191.293.7 1.052-.264.371zM64.686 32.14l.245.383.353-.234.005 1.124-1.064-.419.353-.244-.162-.246.27-.364zM71.686 24.71l-.024-.024-.03-.024-.024-.017-.03-.018-.03-.012-.03-.012-.03-.006-.03-.006-.03-.006h-.035l-.03.006h-.036l-.035.012-.036.005-.036.012-.036.012-.042.018-.036.018-.036.018-.041.018-.036.024-.042.024-.042.03-.042.024-.035.03-.042.03-.042.035-.042.03-.041.035-.042.036-.042.036-.042.036c-.448.407-.723.825-.46 1.112.239.257.693.036 1.141-.37.442-.407.722-.825.466-1.106z" fill="#0055A5"/><path d="M70.962 29.731l.006-.006h.006v-.006h.006v-.006h.006v-.005h.006l.006-.007h.006v-.006h.006c.233-.209.364-.526.364-.872a1.21 1.21 0 10-2.42 0c0 .09.017.233.017.233-.048-.102-.251-.562-.293-.646a1.544 1.544 0 012.875-.263c-.095-.61-.4-1.16-.615-1.363-.257-.244-.693-.322-.693-.322.287.042.663-.132 1.088-.52.4-.37.61-.693.621-.962-.023.382-.011.591.096.908.15.419.544 1.196.407 2.075-.078.484-.43 1.201-1.017 1.787a.802.802 0 00-.185.43s-.867 0-1.064.018c0 0-.21-.018-.203-.15 0-.126.12-.155.215-.155.107 0 .532.005.76-.162zM65.284 29.982l-.138-.078-.137-.083-.137-.09-.132-.095-.137-.102-.137-.107-.131-.114-.132-.12-.132-.125-.131-.137-.131-.137-.126-.15-.125-.161-.125-.162-.126-.174-.06-.089-.065-.096-.113-.19c.179.077.4.023.4.023.018.018.042.066.053.084.61.89 1.28 1.458 1.961 1.823l-.2.28zM66.192 30.024l.102.036.107.036.102.03.107.03.102.03.101.03.108.023.101.024.102.024.102.018.101.018.101.017.204.036.197.03c.34.054.675.072.992.06 0 .054 0 .12.024.173 0 0-.054.072-.054.162a5.392 5.392 0 01-1.016-.066c-.574-.09-1.178-.203-1.787-.43l.204-.281zM70.137 30.293h.066l.018-.006h.192l.047.006h.043l.047.006h.042l.048.006h.041l.019.006h.023l.018.006h.018c.21.03.448.077.478.191.024.114-.053.233-.162.4-.065.102-.221.048-.31.012-.09-.036-.586-.299-.67-.388-.077-.084-.107-.21.042-.239zM69.635 30.628l.006-.006v-.006h.006l.012-.006h.006l.006-.006.006-.006h.006l.012-.006h.006l.012-.006h.006l.012-.006H69.75l.012-.006H69.779l.012-.006H69.875l.012.006h.012l.012.006h.012l.011.006h.013c.137.054.627.347.663.478.03.138-.036.21-.108.24-.084.029-.173.06-.245.065a.379.379 0 01-.299-.144c-.066-.077-.293-.352-.323-.418-.036-.054-.053-.15 0-.18zM69.57 30.927l.005.006.012.012.007.006.005.012.012.012.012.012.006.012.012.012.012.012.012.017.012.012.012.012.024.03.024.03.024.03.006.012.012.012.012.012.012.012.006.012.012.012.006.012.012.012.006.006.006.012.006.006.005.006v.006l.007.006c.017.036-.018.101-.078.09-.066-.006-.4-.042-.592-.173-.198-.132-.323-.383-.191-.478.131-.098.34-.05.562.196zM69.462 30.19H69.48l.006-.005H69.504l.012-.006h.012l.012-.006h.024l.018-.006h.012l.018-.006H69.654l.012-.006H69.749l.012.006h.012l.012.006h.012l.006.006h.012v.006h.006l.006.006.006.006.006.006c.065.107.018.215-.18.31-.197.096-.573.174-.645.072-.072-.101.03-.274.448-.388z" fill="#0055A5"/></g><defs><clipPath id="clip0_1799:23674"><path fill="#fff" d="M0 0h82.564v40H0z"/></clipPath></defs></svg>