<svg viewBox="0 0 41 42" fill="none" xmlns="http://www.w3.org/2000/svg"><path d="M36.722 8.073a20.892 20.892 0 012.457 4.13L20.505 26.155l-7.804-4.958v-5.964l7.804 4.957L36.722 8.073z" fill="#21A038"/><path d="M4.736 20.775c0-.267.006-.533.02-.798l-4.73-.235a20.962 20.962 0 001.532 8.986 20.739 20.739 0 004.447 6.735l3.354-3.398a15.934 15.934 0 01-3.423-5.177 16.106 16.106 0 01-1.2-6.113z" fill="url(#paint0_linear_1799:23915)"/><path d="M20.5 4.798c.265 0 .527.01.788.023l.236-4.795c-.339-.016-.68-.024-1.023-.024a20.209 20.209 0 00-7.847 1.576 20.429 20.429 0 00-6.65 4.508l3.355 3.4a15.697 15.697 0 015.11-3.471A15.528 15.528 0 0120.5 4.798z" fill="url(#paint1_linear_1799:23915)"/><path d="M20.5 36.752c-.263 0-.526 0-.788-.021l-.237 4.793a20.195 20.195 0 008.869-1.551 20.416 20.416 0 006.645-4.508l-3.348-3.398a15.707 15.707 0 01-5.11 3.469 15.53 15.53 0 01-6.03 1.216z" fill="url(#paint2_linear_1799:23915)"/><path d="M29.387 7.586l3.986-2.977A20.24 20.24 0 0020.494 0v4.798a15.54 15.54 0 018.893 2.788z" fill="url(#paint3_linear_1799:23915)"/><path d="M41 20.775a21.175 21.175 0 00-.322-3.723l-4.412 3.296v.427c0 2.232-.461 4.44-1.355 6.48a15.93 15.93 0 01-3.839 5.361l3.183 3.565a20.712 20.712 0 004.988-6.977A20.955 20.955 0 0041 20.775z" fill="#21A038"/><path d="M20.5 36.752c-2.202 0-4.38-.468-6.393-1.374a15.74 15.74 0 01-5.292-3.89L5.3 34.713a20.458 20.458 0 006.883 5.057 20.215 20.215 0 008.318 1.78v-4.797z" fill="url(#paint4_linear_1799:23915)"/><path d="M9.93 8.934L6.747 5.369a20.711 20.711 0 00-4.99 6.976A20.957 20.957 0 000 20.775h4.736a16.12 16.12 0 011.355-6.48A15.93 15.93 0 019.93 8.934z" fill="url(#paint5_linear_1799:23915)"/><defs><linearGradient id="paint0_linear_1799:23915" x1="6.962" y1="34.864" x2="1.664" y2="19.75" gradientUnits="userSpaceOnUse"><stop offset=".14" stop-color="#F1E813"/><stop offset=".3" stop-color="#E6E418"/><stop offset=".58" stop-color="#C9DA26"/><stop offset=".89" stop-color="#A2CC39"/></linearGradient><linearGradient id="paint1_linear_1799:23915" x1="7.357" y1="6.934" x2="20.729" y2="1.906" gradientUnits="userSpaceOnUse"><stop offset=".06" stop-color="#0FA7DF"/><stop offset=".54" stop-color="#0098F8"/><stop offset=".92" stop-color="#0290EA"/></linearGradient><linearGradient id="paint2_linear_1799:23915" x1="19.163" y1="38.654" x2="34.253" y2="35.291" gradientUnits="userSpaceOnUse"><stop offset=".12" stop-color="#A2CC39"/><stop offset=".28" stop-color="#86C239"/><stop offset=".87" stop-color="#219F38"/></linearGradient><linearGradient id="paint3_linear_1799:23915" x1="19.509" y1="1.607" x2="32.424" y2="5.539" gradientUnits="userSpaceOnUse"><stop offset=".06" stop-color="#0290EA"/><stop offset=".79" stop-color="#0C89CA"/></linearGradient><linearGradient id="paint4_linear_1799:23915" x1="6.488" y1="34.128" x2="20.558" y2="39.317" gradientUnits="userSpaceOnUse"><stop offset=".13" stop-color="#F1E813"/><stop offset=".3" stop-color="#EAE616"/><stop offset=".53" stop-color="#D8DF1F"/><stop offset=".8" stop-color="#BAD52D"/><stop offset=".98" stop-color="#A2CC39"/></linearGradient><linearGradient id="paint5_linear_1799:23915" x1="1.764" y1="21.355" x2="7.526" y2="6.566" gradientUnits="userSpaceOnUse"><stop offset=".07" stop-color="#A2CC39"/><stop offset=".26" stop-color="#81C45E"/><stop offset=".92" stop-color="#0FA7DF"/></linearGradient></defs></svg>