<svg width="48" height="48" fill="none" xmlns="http://www.w3.org/2000/svg"><path d="M48 15.2v-4a1.696 1.696 0 00-.176-.704l-3.904-7.84A4.8 4.8 0 0039.616 0H8.384A4.8 4.8 0 004.08 2.656L.176 10.48c-.111.224-.171.47-.176.72v4a7.216 7.216 0 003.2 5.984V44.8H1.6a1.6 1.6 0 000 3.2h44.8a1.6 1.6 0 000-3.2h-1.6V21.184A7.216 7.216 0 0048 15.2zm-3.2 0a4 4 0 11-8 0v-2.4h8v2.4zm-41.6 0v-2.4h8v2.4a4 4 0 11-8 0zm11.2-2.4h8v2.4a4 4 0 11-8 0v-2.4zm11.2 0h8v2.4a4 4 0 11-8 0v-2.4zM6.944 4.08a1.6 1.6 0 011.44-.88h31.232a1.6 1.6 0 011.44.88l2.752 5.52H4.192l2.752-5.52zM28.8 44.8h-9.6v-9.6a1.6 1.6 0 011.6-1.6h6.4a1.6 1.6 0 011.6 1.6v9.6zm12.8 0H32v-9.6a4.8 4.8 0 00-4.8-4.8h-6.4a4.8 4.8 0 00-4.8 4.8v9.6H6.4V22.4c.265.043.532.07.8.08a7.2 7.2 0 005.6-2.752 7.2 7.2 0 0011.2 0 7.2 7.2 0 0011.2 0 7.2 7.2 0 005.6 2.672c.266.016.534.016.8 0v22.4z" fill="#fff"/></svg>