<svg viewBox="0 0 82 80" fill="none" xmlns="http://www.w3.org/2000/svg"><g clip-path="url(#clip0_1818:22393)"><path fill="#E51A1E" d="M1.818 32.711H80v7.269H1.818z"/><path d="M76.531 53.312c-.662 0-1.199.524-1.199 1.171v18.683H50.628V50.988c0-1.508-1.255-2.735-2.796-2.735H33.986c-1.541 0-2.796 1.227-2.796 2.735v22.178H6.486V54.483c0-.647-.537-1.171-1.199-1.171s-1.198.524-1.198 1.171v19.23c0 .99.824 1.797 1.837 1.797h69.966c1.013 0 1.838-.806 1.838-1.797v-19.23c0-.647-.537-1.171-1.199-1.171zM33.587 73.166V50.988c0-.215.18-.391.4-.391h13.845c.22 0 .4.175.4.39v22.18H33.586z" fill="#333"/><path d="M70.838 68.537c1.407 0 2.551-1.12 2.551-2.496V53.253c0-1.375-1.144-2.494-2.551-2.494H56.005c-1.407 0-2.552 1.119-2.552 2.494v12.788c0 1.376 1.145 2.496 2.552 2.496h14.833zM55.85 66.04V53.253c0-.083.069-.15.154-.15h14.833c.085 0 .154.067.154.15v12.788c0 .084-.069.152-.154.152H56.005a.153.153 0 01-.155-.152zM25.813 68.537c1.407 0 2.552-1.12 2.552-2.496V53.253c0-1.375-1.145-2.494-2.552-2.494H10.98c-1.407 0-2.552 1.119-2.552 2.494v12.788c0 1.376 1.145 2.496 2.552 2.496h14.832zM10.826 66.04V53.253c0-.083.07-.15.155-.15h14.832c.085 0 .155.067.155.15v12.788c0 .084-.07.152-.155.152H10.98a.153.153 0 01-.155-.152z" fill="#333"/><path d="M78.296 21.808c0-1.252 1.042-2.27 2.324-2.27.662 0 1.198-.525 1.198-1.172V15.5c0-.647-.536-1.172-1.198-1.172H60.835c-.662 0-1.199.525-1.199 1.172 0 .647.537 1.172 1.199 1.172H79.42v.674c-1.64.421-2.936 1.687-3.368 3.291H57.2V10.233c0-3.144-2.616-5.702-5.832-5.702H30.452c-3.217 0-5.832 2.558-5.832 5.702v4.094H1.199c-.663 0-1.199.525-1.199 1.172v2.867c0 .647.536 1.172 1.199 1.172 1.281 0 2.323 1.018 2.323 2.27 0 .423.229.794.572 1v8.004H1.938c-1.014 0-1.839.806-1.839 1.797v6.381c0 .99.825 1.797 1.839 1.797h2.156v9.018c0 .647.536 1.172 1.199 1.172.662 0 1.198-.525 1.198-1.172v-9.018h68.935v9.02c0 .647.536 1.172 1.199 1.172.661 0 1.198-.525 1.198-1.172v-9.02h2.157c1.014 0 1.838-.806 1.838-1.797V32.61c0-.99-.824-1.797-1.838-1.797h-2.157v-8.07c.287-.215.473-.553.473-.934zm-51.28-11.575c0-1.851 1.542-3.358 3.435-3.358h20.916c1.894 0 3.434 1.507 3.434 3.358V23.02c0 1.852-1.54 3.358-3.434 3.358H30.452c-1.894 0-3.435-1.506-3.435-3.358V10.233zm52.405 28.21H2.496v-5.287h76.925v5.287zm-72.93-7.631V22.98h14.534c.662 0 1.199-.524 1.199-1.172 0-.647-.537-1.172-1.199-1.172H5.765c-.432-1.604-1.727-2.87-3.368-3.29v-.675h22.222v6.35c0 3.143 2.616 5.701 5.832 5.701h20.916c3.216 0 5.831-2.558 5.831-5.702v-.04h18.227v7.832H6.492zM36.275 60.71h-.959c-.662 0-1.198.524-1.198 1.171s.536 1.172 1.198 1.172h.959c.662 0 1.198-.525 1.198-1.172 0-.647-.536-1.172-1.198-1.172z" fill="#333"/><path d="M32.324 11.552h1.469l1.507 7.044c.292 1.364 1.54 2.355 2.965 2.355h7.117c1.253 0 2.392-.77 2.835-1.916l2.35-6.083a1.85 1.85 0 00-.217-1.737 1.94 1.94 0 00-1.585-.813H38.699c-.661 0-1.198.524-1.198 1.172 0 .647.537 1.172 1.198 1.172h9.386l-2.11 5.461c-.093.24-.33.4-.592.4h-7.118a.633.633 0 01-.619-.491l-1.513-7.071c-.228-1.065-1.2-1.837-2.312-1.837h-1.496c-.663 0-1.199.525-1.199 1.172 0 .647.536 1.172 1.198 1.172zM38.472 21.935h-.32c-.662 0-1.198.524-1.198 1.172 0 .647.536 1.172 1.199 1.172h.32c.661 0 1.198-.525 1.198-1.172 0-.648-.537-1.172-1.199-1.172zM43.666 21.935h-.32c-.662 0-1.198.524-1.198 1.172 0 .647.536 1.172 1.198 1.172h.32c.662 0 1.198-.525 1.198-1.172 0-.648-.536-1.172-1.198-1.172z" fill="#333"/></g><defs><clipPath id="clip0_1818:22393"><path fill="#fff" d="M0 0h81.818v80H0z"/></clipPath></defs></svg>