<svg viewBox="0 0 200 249" fill="none" xmlns="http://www.w3.org/2000/svg"><path d="M149 11.1H70.9v128.2h128.7V64.7c0-29.6-22.7-53.6-50.6-53.6z" fill="#fff"/><path d="M121.5 139.3V64.7c0-29.6-22.6-53.6-50.5-53.6s-50.5 24-50.5 53.6v74.6h101zM121.5 139.3h-19.6v109.1h19.6V139.3z" fill="#E1E1E1"/><path d="M136.3 138.3h-14.8v110.1h14.8V138.3z" fill="#fff"/><path d="M20.921 25.502L.145 95.376l110.994 33.003 20.776-69.874L20.921 25.502z" fill="#F2F3F4"/><path d="M.2 95.3l111 33-36.6-68.5L.2 95.3z" fill="#E7E6E7"/><path d="M20.9 25.5l111.1 33L65.9 89l-45-63.5z" fill="#fff"/><path d="M158.4 81.9c6.627 0 12-5.373 12-12s-5.373-12-12-12c-6.628 0-12 5.373-12 12s5.372 12 12 12z" fill="#E51A1E"/><path d="M156.2.9h-9.8v69h9.8V.9z" fill="#E51A1E"/><path d="M184 .9h-37.6v25.2H184V.9z" fill="#E51A1E"/></svg>