<svg viewBox="0 0 80 80" fill="none" xmlns="http://www.w3.org/2000/svg"><g clip-path="url(#clip0_1793:23108)"><path d="M79.97 35.557a4.935 4.935 0 00-4.973-4.922h-.046a.468.468 0 01-.434-.348 35.646 35.646 0 00-3.336-7.996.543.543 0 01.082-.657 4.795 4.795 0 001.423-3.435 5.018 5.018 0 00-1.466-3.548l-6.09-6.047c-1.92-1.907-5.07-1.961-6.983.006a2.36 2.36 0 01-.084.082c-.128.12-.34.134-.517.035a35.682 35.682 0 00-8.073-3.31.47.47 0 01-.352-.433V4.93A4.971 4.971 0 0044.157 0h-.018l-8.607.03a4.88 4.88 0 00-3.488 1.47 4.873 4.873 0 00-1.41 3.5v.049a.47.47 0 01-.348.434 35.674 35.674 0 00-8.05 3.368c-.176.1-.388.087-.518-.033a2.857 2.857 0 01-.084-.081 4.797 4.797 0 00-3.435-1.43h-.008c-1.32 0-2.61.536-3.54 1.473l-6.048 6.09c-1.892 1.906-1.953 5.078.006 6.984.008.015.31.26.106.622a35.676 35.676 0 00-3.298 8.051.488.488 0 01-.487.353A4.972 4.972 0 000 35.86l.03 8.57a4.948 4.948 0 004.955 4.934h.018c.016.006.374-.03.48.35a35.686 35.686 0 003.363 8.041c.203.355-.101.595-.11.61-1.966 1.94-1.84 5.114.044 6.984l6.09 6.047c1.917 1.903 5.068 1.963 6.984-.007.165-.17.353-.256.6-.117a35.665 35.665 0 008.074 3.311.47.47 0 01.352.432c.013.066-.132 1.966 1.453 3.545.932.929 2.169 1.44 3.484 1.44h.018l8.558-.03c2.724-.01 4.954-2.233 4.971-4.97v-.048c.004-.2.148-.38.351-.437a35.678 35.678 0 008.047-3.365c.177-.101.39-.088.52.032 2.266 2.098 5.196 1.92 7.067.037l6.047-6.09c1.896-1.909 1.95-5.08-.006-6.983l-.003-.003a.53.53 0 01-.09-.64 35.667 35.667 0 003.286-8.032.469.469 0 01.435-.351c.053-.01 2.008.133 3.6-1.52.91-.946 1.386-2.227 1.381-3.54l-.03-8.503zm-5.007 11.22a2.827 2.827 0 00-2.64 2.077c-.802 2.937-1.85 5.494-3.416 8.105-.513.855-.182 1.791.85 2.868.982 1.024.957 2.664-.023 3.651l-6.047 6.09c-.844.85-1.896.785-1.88.782-.976-.002-1.467-.457-1.932-.888-.886-.82-2.202-.96-3.274-.347a33.341 33.341 0 01-7.518 3.144 2.828 2.828 0 00-2.06 2.656c-.03 1.66-1.283 2.706-2.637 2.711l-8.558.03c-1.346-.007-2.568-.988-2.604-2.694a2.827 2.827 0 00-2.078-2.64 33.328 33.328 0 01-7.543-3.093c-1.033-.581-2.404-.53-3.43.527-1.002 1.031-2.658.963-3.65-.023l-6.09-6.047c-.932-.925-1.14-2.522.03-3.731a2.835 2.835 0 00.42-3.361A33.334 33.334 0 017.74 49.08a2.824 2.824 0 00-2.75-2.06 2.605 2.605 0 01-2.617-2.599l-.03-8.57a2.622 2.622 0 012.596-2.628h.02a2.838 2.838 0 002.718-2.08 33.332 33.332 0 013.082-7.521 2.849 2.849 0 00-.516-3.45c-1.017-.99-.957-2.665.023-3.652l6.048-6.09a2.662 2.662 0 011.877-.781h.004a2.47 2.47 0 011.77.734l.162.156c.886.819 2.2.958 3.27.346A33.34 33.34 0 0130.92 7.74a2.828 2.828 0 002.06-2.658v-.103a2.553 2.553 0 01.737-1.837c.495-.504 1.185-.766 1.891-.769l8.54-.03h.043c1.433 0 2.58 1.174 2.585 2.607a2.827 2.827 0 002.08 2.728 33.332 33.332 0 017.542 3.093c1.058.595 2.424.509 3.43-.528.997-1.026 2.652-.968 3.651.024l6.09 6.047a2.66 2.66 0 01.774 1.881 2.468 2.468 0 01-.726 1.77c-.214.212-.407.441-.578.687a2.285 2.285 0 00-.079 2.474c1.495 2.506 2.507 4.964 3.3 7.794a2.825 2.825 0 002.65 2.058c1.725.031 2.712 1.261 2.717 2.587l.03 8.594c.004 1.328-.98 2.575-2.694 2.618z" fill="#333"/><path d="M40 15.871c-13.305 0-24.129 10.824-24.129 24.129 0 13.305 10.824 24.129 24.13 24.129 13.304 0 24.128-10.824 24.128-24.129 0-13.305-10.824-24.129-24.129-24.129zm0 45.914c-12.012 0-21.785-9.773-21.785-21.785S27.988 18.215 40 18.215c12.013 0 21.785 9.773 21.785 21.785S52.013 61.785 40 61.785z" fill="#333"/><path d="M57.056 60.77A26.92 26.92 0 0140 66.875c-14.819 0-26.875-12.056-26.875-26.875 0-6.21 2.168-12.267 6.104-17.055a1.172 1.172 0 00-1.81-1.488A29.269 29.269 0 0010.78 40c0 16.111 13.108 29.219 29.22 29.219a29.27 29.27 0 0018.544-6.638 1.172 1.172 0 10-1.489-1.81zM40 10.781a29.269 29.269 0 00-18.547 6.64 1.172 1.172 0 101.489 1.81A26.919 26.919 0 0140 13.126c14.82 0 26.875 12.056 26.875 26.875a26.92 26.92 0 01-6.105 17.056 1.172 1.172 0 001.81 1.489A29.27 29.27 0 0069.22 40c0-16.111-13.107-29.219-29.219-29.219z" fill="#333"/><circle cx="40" cy="40" r="5.333" fill="#E51A1E"/></g><defs><clipPath id="clip0_1793:23108"><path fill="#fff" d="M0 0h80v80H0z"/></clipPath></defs></svg>