<svg viewBox="0 0 44 44" fill="none" xmlns="http://www.w3.org/2000/svg"><path d="M41.556 30.556c-2.934 0-5.867-.49-8.8-1.467-.734-.245-1.712 0-2.445.489l-5.378 5.378C18.09 31.533 12.467 25.666 8.8 18.822l5.378-5.378c.733-.733.978-1.71.489-2.444-.734-2.689-1.223-5.622-1.223-8.556C13.444.978 12.467 0 11 0H2.444C.978 0 0 .978 0 2.444 0 25.422 18.578 44 41.556 44 43.022 44 44 43.022 44 41.556V33c0-1.467-.978-2.444-2.444-2.444zM39.11 22H44C44 9.778 34.222 0 22 0v4.889c9.533 0 17.111 7.578 17.111 17.111zm-9.778 0h4.89c0-6.844-5.379-12.222-12.223-12.222v4.889c4.156 0 7.333 3.177 7.333 7.333z" fill="#333"/></svg>