<svg viewBox="0 0 46 46" fill="none" xmlns="http://www.w3.org/2000/svg"><path d="M36.145 28.572c-.911-.949-2.01-1.456-3.175-1.456-1.156 0-2.264.498-3.213 1.447l-2.969 2.959c-.244-.132-.488-.254-.723-.376-.338-.17-.658-.329-.93-.498-2.78-1.766-5.308-4.068-7.732-7.046-1.174-1.484-1.963-2.733-2.536-4.002.77-.704 1.484-1.437 2.18-2.142.263-.262.526-.535.789-.798 1.972-1.973 1.972-4.528 0-6.5L15.27 7.594c-.291-.292-.592-.592-.874-.893a44.336 44.336 0 00-1.766-1.747c-.911-.902-2-1.381-3.147-1.381-1.146 0-2.255.479-3.194 1.38l-.019.02-3.194 3.222a6.873 6.873 0 00-2.038 4.368c-.226 2.743.582 5.299 1.202 6.97 1.522 4.106 3.795 7.91 7.187 11.988 4.114 4.913 9.065 8.793 14.72 11.527 2.161 1.024 5.045 2.235 8.268 2.442.197.01.404.019.591.019 2.17 0 3.993-.78 5.42-2.33.01-.019.03-.028.038-.047.489-.592 1.053-1.127 1.644-1.7.404-.385.818-.79 1.222-1.212.93-.968 1.418-2.095 1.418-3.25 0-1.165-.498-2.283-1.446-3.223l-5.158-5.176zm3.363 9.892c-.01 0-.01.01 0 0-.366.395-.742.752-1.146 1.146-.61.583-1.23 1.193-1.813 1.88-.949 1.014-2.067 1.493-3.532 1.493-.141 0-.291 0-.432-.01-2.79-.178-5.383-1.268-7.328-2.198-5.317-2.574-9.986-6.228-13.866-10.86-3.203-3.86-5.345-7.43-6.764-11.263-.873-2.34-1.193-4.162-1.052-5.881.094-1.1.517-2.01 1.297-2.79l3.203-3.204c.46-.432.949-.667 1.428-.667.592 0 1.07.357 1.371.658l.029.028c.573.536 1.118 1.09 1.69 1.682.292.3.592.6.893.91l2.565 2.566c.996.995.996 1.916 0 2.912-.273.272-.536.545-.808.808-.79.808-1.54 1.56-2.358 2.292-.019.019-.038.028-.047.047-.808.808-.658 1.597-.489 2.132l.029.085c.667 1.616 1.606 3.138 3.034 4.95l.01.01c2.592 3.194 5.326 5.684 8.341 7.59.386.245.78.442 1.156.63.338.17.657.329.93.498.038.019.075.047.113.066.32.16.62.235.93.235.78 0 1.268-.489 1.428-.649l3.212-3.213c.32-.319.827-.704 1.42-.704.581 0 1.06.366 1.352.686l.019.018 5.176 5.177c.968.958.968 1.944.01 2.94zM25.021 11.589c2.462.413 4.698 1.578 6.482 3.363a11.975 11.975 0 013.364 6.482 1.26 1.26 0 001.25 1.052c.074 0 .14-.01.215-.019a1.27 1.27 0 001.043-1.465 14.49 14.49 0 00-4.068-7.844 14.49 14.49 0 00-7.844-4.068 1.275 1.275 0 00-1.466 1.033 1.254 1.254 0 001.024 1.466zM45.43 20.635c-.837-4.904-3.148-9.367-6.699-12.918-3.551-3.55-8.013-5.862-12.917-6.698a1.263 1.263 0 00-1.456 1.034A1.274 1.274 0 0025.4 3.518c4.377.742 8.37 2.819 11.545 5.984 3.175 3.176 5.242 7.168 5.984 11.546a1.26 1.26 0 001.25 1.052c.075 0 .14-.01.216-.019a1.245 1.245 0 001.033-1.446z" fill="#333" stroke="#3E3E41" stroke-width=".25"/></svg>