<svg viewBox="0 0 40 28" fill="none" xmlns="http://www.w3.org/2000/svg"><path d="M37.656 4.455h-.291V20.34a4.693 4.693 0 01-4.688 4.688H4.98v.292a2.344 2.344 0 002.344 2.343h30.333A2.344 2.344 0 0040 25.321V6.798a2.344 2.344 0 00-2.344-2.343z" fill="#333"/><path d="M35.02 20.341V2.345A2.344 2.344 0 0032.678 0H2.344A2.344 2.344 0 000 2.344V20.34a2.344 2.344 0 002.344 2.344h30.333a2.344 2.344 0 002.344-2.343zM3.735 4.052h6.07v2.343h-6.07V4.05zm8.666 7.322H3.734V9.03H12.4v2.343zm18.813 7.505H28.87v-2.344h2.343v2.344z" fill="#333"/></svg>