<svg viewBox="0 0 80 80" fill="none" xmlns="http://www.w3.org/2000/svg"><g clip-path="url(#clip0_1793:23199)"><path d="M50.238 23.333v-5.476l15.476 1.905.477 3.571H50.237zM3.81 38.571h46.191v5.238H3.81z" fill="#E51A1E"/><path d="M20.572 53.894a4.515 4.515 0 00-4.511 4.51 4.517 4.517 0 004.51 4.513 4.52 4.52 0 004.516-4.514 4.517 4.517 0 00-4.515-4.51zm0 6.661a2.151 2.151 0 112.154-2.152 2.155 2.155 0 01-2.154 2.152zM62.214 54.075a4.52 4.52 0 00-4.515 4.514 4.517 4.517 0 004.515 4.51 4.515 4.515 0 004.51-4.51 4.517 4.517 0 00-4.51-4.514zm0 6.661a2.153 2.153 0 01-2.154-2.147c0-1.187.966-2.153 2.154-2.153a2.151 2.151 0 010 4.3z" fill="#333"/><path d="M76.145 51.343h-.086V37.76c.002-.027.004-.054.004-.082 0-.032-.002-.063-.004-.094v-8.767c0-2.28-1.072-4.11-3.1-5.293-1.564-.91-3.39-1.235-4.577-1.235h-.767v-.7c0-1.924-1.517-3.493-3.605-3.732l-13.066-1.512c-.59-1.97-2.271-4.317-6.018-4.317a1.18 1.18 0 100 2.362c3.544 0 3.886 3.06 3.916 3.497v1.662H28.281a1.18 1.18 0 000 2.361h20.561v14.941H5.032V22.212c0-.163.138-.302.302-.302h17.447a1.18 1.18 0 000-2.361H5.334a2.667 2.667 0 00-2.664 2.663V51.53A3.856 3.856 0 000 55.193a3.857 3.857 0 003.85 3.855h7.174c.333 4.976 4.487 8.923 9.548 8.923 5.06 0 9.214-3.947 9.547-8.923h8.32a1.18 1.18 0 000-2.362h-8.453a9.494 9.494 0 00-1.08-2.98h24.973a9.495 9.495 0 00-1.08 2.98h-9.033a1.18 1.18 0 100 2.362h8.9c.333 4.976 4.487 8.923 9.547 8.923 5.061 0 9.215-3.947 9.548-8.923h4.383A3.86 3.86 0 0080 55.193a3.856 3.856 0 00-3.854-3.85zM73.698 36.49l-11.147-.036a.622.622 0 01-.618-.614l.01-5.11c0-.334.282-.617.616-.617h11.139v6.377zm0 9.538h-3.482a.463.463 0 01-.458-.456V44.34c0-.248.21-.457.458-.457h3.482v2.144zm-.14-18.276H62.56a2.981 2.981 0 00-2.978 2.976l-.01 5.104a2.941 2.941 0 00.871 2.108 2.97 2.97 0 002.1.876l11.155.036v2.67h-3.482a2.822 2.822 0 00-2.819 2.819v1.23a2.822 2.822 0 002.82 2.82h3.481v2.953h-5.029a9.537 9.537 0 00-6.454-2.51 9.537 9.537 0 00-6.455 2.51h-4.555V24.651h17.178c.048 0 4.347.093 5.177 3.1zM20.573 48.834a9.537 9.537 0 00-6.455 2.51H5.032v-6.319h43.81v6.319H27.026a9.537 9.537 0 00-6.454-2.51zm44.681-27.246v.7h-14.05v-3.535l12.537 1.45c.729.083 1.513.552 1.513 1.385zm-16.41 21.075H28.114v-3.45h20.727v3.45zm-23.089-3.45v3.45H5.032v-3.45h20.722zM2.362 55.193c0-.82.668-1.488 1.489-1.488h8.386a9.495 9.495 0 00-1.08 2.981H3.85c-.821 0-1.49-.67-1.49-1.492zm18.21 10.417c-3.976 0-7.211-3.233-7.211-7.207 0-3.974 3.235-7.208 7.21-7.208a7.19 7.19 0 015.114 2.132l.04.042a7.18 7.18 0 012.057 5.034c0 3.974-3.235 7.207-7.21 7.207zm41.642 0c-3.976 0-7.21-3.233-7.21-7.207 0-3.974 3.234-7.208 7.21-7.208s7.21 3.233 7.21 7.208c0 3.974-3.235 7.207-7.21 7.207zm13.93-8.924H71.63a9.494 9.494 0 00-1.08-2.981h5.596c.823 0 1.493.668 1.493 1.488 0 .824-.67 1.493-1.493 1.493z" fill="#333"/></g><defs><clipPath id="clip0_1793:23199"><path fill="#fff" d="M0 0h80v80H0z"/></clipPath></defs></svg>