<svg viewBox="0 0 58 58" fill="none" xmlns="http://www.w3.org/2000/svg"><g clip-path="url(#clip0_1854:24364)"><path fill="#E51A1E" d="M36 14h20v4H36z"/><circle cx="12" cy="40" r="3" fill="#E51A1E"/><circle cx="46" cy="40" r="3" fill="#E51A1E"/><path d="M8.925 20.603c.396 0 .61-.411.61-.883 0-.411-.183-.853-.61-.853H3.61c-.441 0-.868.213-.868.624v9.885c0 .41.487.624.99.624.487 0 .99-.213.99-.624v-4.174h2.33c.427 0 .61-.41.61-.76 0-.412-.214-.793-.61-.793h-2.33v-3.046h4.203zM17.743 22.05c0-2.422-1.614-3.183-3.61-3.183h-3.015c-.38 0-.64.29-.64.61v9.899c0 .41.503.624.99.624.503 0 .99-.213.99-.624V25.4h1.28l2.162 4.204c.153.305.412.472.685.472.58 0 1.234-.533 1.234-1.035a.41.41 0 00-.076-.244l-1.995-3.7c1.142-.351 1.995-1.296 1.995-3.047zm-3.61 1.797h-1.675v-3.244h1.676c.99 0 1.63.426 1.63 1.63 0 1.203-.64 1.614-1.63 1.614zM25.45 20.603c.395 0 .624-.411.624-.883 0-.411-.199-.853-.625-.853h-5.422c-.441 0-.868.213-.868.624v9.885c0 .41.427.624.868.624h5.422c.426 0 .625-.442.625-.853 0-.472-.229-.883-.625-.883h-4.31v-3.062h2.315c.426 0 .624-.41.624-.76 0-.412-.228-.793-.624-.793H21.14v-3.046h4.31zM33.522 20.603c.396 0 .625-.411.625-.883 0-.411-.198-.853-.625-.853h-5.421c-.442 0-.869.213-.869.624v9.885c0 .41.427.624.869.624h5.421c.427 0 .625-.442.625-.853 0-.472-.229-.883-.625-.883h-4.31v-3.062h2.315c.426 0 .625-.41.625-.76 0-.412-.229-.793-.625-.793h-2.315v-3.046h4.31zM46.14 44.047c2.443 0 4.204-2.3 3.648-4.61a3.753 3.753 0 00-3.647-2.886 3.752 3.752 0 00-3.647 2.886c-.559 2.324 1.217 4.61 3.647 4.61zm-1.83-4.61c.73-1.548 2.932-1.546 3.662 0 .635 1.342-.354 2.886-1.831 2.886-1.485 0-2.462-1.554-1.83-2.886zM39.24 30.124a.862.862 0 100 1.724h2.551a.862.862 0 100-1.724H39.24z" fill="#333"/><path d="M57.138 36.123a.861.861 0 00.862-.862V30.24a3.301 3.301 0 00-3.297-3.297h-3.421v-7.188h2.52a3.279 3.279 0 003.276-3.274v-.531a3.28 3.28 0 00-3.276-3.276h-17.02a2.396 2.396 0 00-2.285-1.685H15.566a.862.862 0 000 1.724h18.93c.368 0 .668.299.668.667v26.058H18.641a6.834 6.834 0 00-6.689-5.97.863.863 0 10-.022 1.724c3.84.049 6.225 4.158 4.44 7.512a5.107 5.107 0 01-6.908 2.103c-3.48-1.854-3.604-6.754-.331-8.822a.862.862 0 10-.922-1.457 6.842 6.842 0 00-3.122 4.91H2.391a.667.667 0 01-.667-.666V13.378c0-.368.299-.667.667-.667h9.727a.862.862 0 000-1.724H2.39A2.393 2.393 0 000 13.38V38.77a2.393 2.393 0 002.39 2.391h2.697a6.812 6.812 0 003.563 5.165c4.203 2.242 9.383-.409 9.991-5.165h20.723c.426 3.36 3.302 5.969 6.777 5.969 3.474 0 6.351-2.608 6.776-5.969h1.785a3.308 3.308 0 003.102-2.175.862.862 0 10-1.62-.587 1.578 1.578 0 01-1.481 1.038h-1.786c-.425-3.36-3.302-5.969-6.776-5.969-3.475 0-6.351 2.608-6.777 5.97H36.89V28.664h17.813c.868 0 1.574.707 1.574 1.574v5.022c0 .477.386.862.862.862zm-16.031 3.314a5.115 5.115 0 015.034-4.245 5.116 5.116 0 015.034 4.245c.529 3.15-1.898 5.969-5.034 5.969a5.112 5.112 0 01-5.034-5.969zm-4.218-25.04h16.913c.856 0 1.552.697 1.552 1.552v.53c0 .856-.696 1.551-1.552 1.551H36.89v-3.633zm12.669 12.545h-12.67v-7.188h12.67v7.188z" fill="#333"/><path d="M8.218 41.161a3.752 3.752 0 003.646 2.886 3.753 3.753 0 003.748-3.748 3.753 3.753 0 00-3.748-3.748c-2.427 0-4.206 2.285-3.646 4.61zm1.816-1.724c.73-1.547 2.931-1.546 3.66 0 .636 1.342-.353 2.886-1.83 2.886-1.476 0-2.466-1.546-1.83-2.886z" fill="#333"/></g><defs><clipPath id="clip0_1854:24364"><path fill="#fff" d="M0 0h58v58H0z"/></clipPath></defs></svg>