<svg viewBox="0 0 44 15" fill="none" xmlns="http://www.w3.org/2000/svg"><path d="M39.587 9.491c-.38-1.708-.712-3.417-1.092-5.126 0-.023-.047-.023-.047-.023a614.166 614.166 0 00-1.852 5.125h2.99v.024zm-8.401 4.794c.28-.665.546-1.282.816-1.946 1.495-3.56 2.985-7.167 4.51-10.726.236-.627.758-.973 1.423-.983.95-.019 1.898 0 2.848-.009.142-.001.19.057.237.202.522 2.482 1.044 4.983 1.566 7.451.38 1.946.76 3.892 1.187 5.838.047.143 0 .237-.19.237h-2.8c-.143 0-.19-.047-.238-.237-.095-.522-.237-1.091-.332-1.614-.047-.142-.095-.237-.237-.237-1.377.048-2.8.048-4.186 0-.152 0-.219.095-.27.19-.196.57-.41 1.139-.608 1.709-.038.142-.09.19-.219.19h-3.365c-.036 0-.072 0-.143-.048v-.017zM.003.986l.08-.37C.156.614.22.607.285.607c1.917 0 3.83 0 5.743.003.901.001 1.518.536 1.708 1.452.475 2.568.95 5.173 1.472 7.736 0 0 0 .048.047.095.048-.095.095-.142.095-.237 1.187-2.943 2.326-5.885 3.512-8.828.048-.14.095-.2.285-.2 1.139.008 2.278.004 3.465.004-.048.086-.048.152-.095.214a7619.346 7619.346 0 00-5.553 13.337c-.048.143-.095.19-.285.19H7.357c-.143 0-.238-.047-.238-.19a906.25 906.25 0 01-2.8-10.821c-.138-.565-.408-.964-.916-1.22-.95-.47-1.955-.745-2.971-1.006-.135-.038-.27-.069-.432-.11M21.21 13.83c.214-.997.421-1.994.635-2.99.332.142.64.284.954.427 1.096.38 2.226.57 3.403.332a1.91 1.91 0 00.95-.427c.569-.333.616-1.044.19-1.519a4.02 4.02 0 00-.903-.664c-.474-.285-.973-.523-1.438-.807a7.908 7.908 0 01-.996-.665c-1.353-1.139-1.704-2.662-.973-4.267.555-1.22 1.556-1.946 2.767-2.406C26.819.456 27.91.341 29.002.38c.902.032 1.804.217 2.706.503.047.02.095.038.142.062.047.01.047.029.095.052-.237.93-.427 1.87-.617 2.83-.237-.086-.427-.172-.665-.243-.996-.346-2.088-.498-3.132-.285-.38.08-.76.247-.997.57-.284.36-.284.773 0 1.106.19.218.428.408.712.55.475.285.95.522 1.424.807.38.237.76.427 1.092.712 1.471 1.044 1.85 2.515 1.329 4.177-.475 1.376-1.472 2.23-2.8 2.752-.95.428-1.947.57-3 .57-1.244 0-2.454-.142-3.636-.522-.146-.048-.287-.143-.446-.19M21.693.613c-.19.94-.38 1.847-.57 2.749a854.243 854.243 0 00-2.23 10.441c-.143.522-.143.522-.665.522h-2.99c.095-.284.143-.57.19-.854.854-4.082 1.756-8.211 2.61-12.293.143-.574.143-.574.712-.574l2.658.001h.285v.008z" fill="#898989"/></svg>