<svg viewBox="0 0 116 24" fill="none" xmlns="http://www.w3.org/2000/svg"><path fill-rule="evenodd" clip-rule="evenodd" d="M99.101 12.001C99.101 18.629 93.496 24 86.578 24 79.659 24 74.054 18.629 74.054 12S79.659 0 86.578 0C93.496 0 99.1 5.371 99.1 12.001z" fill="#E64D3C"/><path class="painted" fill-rule="evenodd" clip-rule="evenodd" d="M103.32 0a12.13 12.13 0 00-9.358 4.375h2.447c.338.406.642.828.925 1.273H93.04c-.26.408-.493.832-.7 1.27h5.693c.192.409.361.837.514 1.272h-6.718c-.14.412-.258.835-.352 1.268h7.418c.18.82.274 1.67.274 2.542 0 1.333-.218 2.614-.621 3.812h-6.72c.147.434.316.86.512 1.272h5.693c-.21.437-.444.86-.7 1.268H93.04c.282.445.59.868.922 1.273h2.444c-.373.451-.782.874-1.22 1.27A12.132 12.132 0 00103.321 24c6.691 0 12.114-5.371 12.114-11.999C115.435 5.375 110.012 0 103.32 0z" fill="#FCB614"/><path fill-rule="evenodd" clip-rule="evenodd" d="M13.398 15.955l5.138-12.687h5.422l-8.142 18.546h-5.423L5.444 4.297l4.372-.078 2.324 6.144 1.258 5.592zM26.172 3.27h5.409l-3.398 18.547H22.87l3.303-18.547zm18.815 4.644l.751-3.857s-7.652-2.639-11.74 1.746c-4.103 4.378 1.231 7.406 1.892 7.704.66.304 4.239 1.306 3.7 3.214-.551 1.911-5.164 1.427-7.11.638-1.948-.775-1.332-.547-1.332-.547l-.656 4.032s5.068 1.912 9.658.37c4.602-1.53 4.693-4.465 4.741-5.406.044-.94-.288-3.393-4.165-4.961-3.892-1.554-3.681-3.506-.288-3.856 3.391-.336 4.548.922 4.548.922v.001zm7.566 7.343l2.805-6.886 1.633 6.886h-4.438zM59.02 3.27h-3.86c-2.703 0-3.078 2.085-3.078 2.085l-7.433 16.46h5.402l1.064-2.783h6.75l.57 2.783h4.728L59.02 3.268v.001z" fill="#0058B6"/><path fill-rule="evenodd" clip-rule="evenodd" d="M.096 2.178L0 2.555s3.76.752 6.038 2.426c2.276 1.694 3.013 2.313 4.274 4.025 1.251 1.712 1.667 2.99 1.667 2.99l-1.666-8.132S9.921 2.16 7.991 2.178c-1.926.018-7.895 0-7.895 0z" fill="#FEAD33"/></svg>