<svg viewBox="0 0 40 40" fill="none" xmlns="http://www.w3.org/2000/svg"><path d="M25.234 22.112c-2.277 0-4.13 1.806-4.13 4.025 0 2.219 1.853 4.025 4.13 4.025h14.223v-8.05H25.234zm0 5.814c-1.014 0-1.836-.801-1.836-1.79 0-.987.822-1.788 1.836-1.788 1.013 0 1.835.8 1.835 1.789 0 .988-.822 1.789-1.835 1.789z" fill="#333"/><path d="M25.235 19.43H39.46v-7.156H0V40h39.459v-7.155H25.235c-3.795 0-6.882-3.01-6.882-6.708 0-3.699 3.087-6.708 6.882-6.708zM24.011 0l-9.84 9.59h19.68L24.011 0zM9.797.297L7.49 9.591h2.79l1.946-1.898L17.86 2.2 9.797.297z" fill="#333"/></svg>