<svg viewBox="0 0 58 58" fill="none" xmlns="http://www.w3.org/2000/svg"><circle cx="47" cy="36" r="2" fill="#E51A1E"/><path d="M10 4l-2 9h31.5L10 4z" fill="#E51A1E"/><path d="M55.451 24.75h-.849V13.14a5.387 5.387 0 00-5.38-5.38H25.887L10.146 3.26l-.014-.004c-.004 0-.009-.003-.014-.004l-.028-.005-.044-.009-.04-.005a.795.795 0 00-.045-.004l-.037-.001a.82.82 0 00-.048 0l-.035.002a.76.76 0 00-.048.006l-.032.005a.79.79 0 00-.05.01l-.03.008a.953.953 0 00-.125.047l-.025.012a.755.755 0 00-.047.025l-.024.015a.778.778 0 00-.044.03l-.023.017a.828.828 0 00-.04.033l-.023.02a.914.914 0 00-.036.037c-.008.007-.014.016-.022.024a.844.844 0 00-.031.038l-.021.028a.782.782 0 00-.026.038l-.02.035a.791.791 0 00-.02.038l-.018.039a.766.766 0 00-.017.038l-.014.043-.01.027c0 .004-.001.009-.003.013 0 .005-.003.01-.004.014l-.971 3.887H5.38a5.387 5.387 0 00-5.38 5.363L0 13.14v29.453a.85.85 0 001.7 0V17.058A5.36 5.36 0 005.38 18.52h43.843a3.686 3.686 0 013.679 3.682v5.947h-9.347-.002a.853.853 0 00-.153.015l-.012.002a.912.912 0 00-.066.017l-.014.003a.846.846 0 00-.056.02l-.022.008-.046.022-.03.014-.034.02-.037.023-.024.018c-.015.01-.03.02-.043.032l-.017.015-.044.04-.024.026-.032.036a.869.869 0 00-.05.067v.001l-4.532 6.797a.836.836 0 00-.08.15l-.02.059-.007.018a.913.913 0 00-.015.063l-.004.016a.792.792 0 00-.009.058l-.003.024-.003.047-.001.037.001.035.003.048c0 .008.002.015.003.023.002.02.005.04.009.059 0 .005.002.01.004.016.004.02.01.042.016.063l.006.018.02.06a.836.836 0 00.08.15l4.532 6.795v.001a.88.88 0 00.06.078l.02.023a.805.805 0 00.124.111l.024.018a.858.858 0 00.08.047l.02.01a.816.816 0 00.16.06l.027.008c.023.005.046.01.07.013.009 0 .017.003.026.004a.87.87 0 00.089.005h9.353v5.949a3.686 3.686 0 01-3.681 3.681H5.382A3.686 3.686 0 011.7 49.391v-3.4a.85.85 0 00-1.7 0v3.4l.002.026a5.387 5.387 0 005.38 5.355h43.84a5.387 5.387 0 005.38-5.38v-5.95h.85A2.551 2.551 0 0058 40.894V27.299a2.552 2.552 0 00-2.549-2.548zM10.524 5.137l14.991 4.283h.002l10.048 2.871H8.735l1.789-7.154zm42.379 13.147a5.36 5.36 0 00-3.682-1.462H5.381A3.686 3.686 0 011.7 13.139 3.686 3.686 0 015.38 9.457h2.311l-.708 2.833H5.382a.85.85 0 000 1.7h42.705a.85.85 0 000-1.7H41.75l-9.915-2.833H49.22a3.686 3.686 0 013.682 3.682v5.144zm3.397 22.61a.85.85 0 01-.849.85h-11.44l-3.965-5.947 3.965-5.947h11.44l.035-.002a2.54 2.54 0 00.814-.145v11.192zm-.849-12.745l-.017.001h-.832V26.45h.85a.85.85 0 010 1.698z" fill="#333"/><path d="M46.956 32.68a3.119 3.119 0 00-3.115 3.116 3.119 3.119 0 003.115 3.115 3.119 3.119 0 003.115-3.115 3.119 3.119 0 00-3.115-3.115zm0 4.532c-.78 0-1.416-.635-1.416-1.416 0-.78.635-1.416 1.416-1.416.78 0 1.416.635 1.416 1.416 0 .781-.635 1.416-1.416 1.416z" fill="#333"/></svg>