<svg viewBox="0 0 80 80" fill="none" xmlns="http://www.w3.org/2000/svg"><g clip-path="url(#clip0_1793:23121)"><path fill="#E51A1E" d="M10.695 48.342h8.556v9.412h-8.556zM23.529 33.369H56.47v4.278H23.529zM35.936 56.471h5.989v6.417h-5.989z"/><path d="M77.6 17.036L41.475 2.168a3.853 3.853 0 00-2.95 0l-9.373 3.858a1.172 1.172 0 00.892 2.168l9.374-3.858c.376-.155.79-.155 1.165 0l36.125 14.867a1.533 1.533 0 01-.584 2.948c-.2 0-.395-.039-.582-.116L40.446 7.591a1.17 1.17 0 00-.892 0L4.46 22.035a1.53 1.53 0 11-1.166-2.832l22.328-9.19a1.171 1.171 0 10-.893-2.166L2.401 17.036a3.88 3.88 0 00-2.109 5.058 3.873 3.873 0 005.058 2.109l3.497-1.439v21.39a1.172 1.172 0 102.344 0V21.798L40 9.942 68.81 21.8v47.157a.765.765 0 01-.766.764h-9.509V35.195a3.558 3.558 0 00-3.553-3.553H25.019a3.557 3.557 0 00-3.553 3.553v12.569H2.556A2.558 2.558 0 000 50.319v26.772c0 .648.524 1.172 1.172 1.172h47.51c.647 0 1.171-.524 1.171-1.172v-5.027h18.191a3.112 3.112 0 003.11-3.108V22.764l3.496 1.439a3.85 3.85 0 001.474.292 3.862 3.862 0 003.584-2.401 3.879 3.879 0 00-2.108-5.058zM23.81 39.082H56.19v3.169H23.81v-3.17zm1.209-5.096h29.963c.667 0 1.21.542 1.21 1.21v1.542H23.81v-1.543c0-.667.542-1.21 1.209-1.21zM12.582 56.188c-.285 0-.57.09-.808.269l-.126.094v-6.444h6.076v6.444l-.125-.094a1.35 1.35 0 00-1.616 0l-1.296.976-1.297-.976a1.34 1.34 0 00-.808-.269zM2.344 50.32c0-.117.094-.212.212-.212h6.748v8.447c0 .513.285.974.744 1.203.459.229.998.18 1.408-.128l1.126-.847 1.298.976c.238.179.523.268.807.268.286 0 .57-.089.809-.268l1.296-.976 1.124.847c.41.308.95.357 1.408.128.46-.229.744-.69.744-1.203v-8.446h6.75c.116 0 .211.095.211.211v25.6H2.344v-25.6zm45.166 25.6H29.373V56.93h4.706v6.116c0 .497.276.944.72 1.165.444.222.967.175 1.365-.124l.682-.513.813.611a1.302 1.302 0 001.566 0l.811-.61.682.512c.396.299.92.346 1.364.125.444-.222.72-.669.72-1.166V56.93h4.707v18.99zm-7.05-18.99v4.11a1.31 1.31 0 00-1.206.19l-.812.611-.813-.61a1.299 1.299 0 00-1.206-.19v-4.111h4.037zm7.173-2.344h-18.26v-4.266a2.558 2.558 0 00-2.556-2.556H23.81v-3.168H56.19V69.72h-6.338V56.805c0-1.224-.996-2.22-2.22-2.22z" fill="#333"/><path d="M20.156 64.602H9.216a1.171 1.171 0 100 2.344h10.94a1.172 1.172 0 100-2.344zM20.156 69.524H9.216a1.171 1.171 0 100 2.344h10.94a1.172 1.172 0 100-2.344zM42.11 67.148h-7.338a1.172 1.172 0 000 2.344h7.338a1.172 1.172 0 100-2.344zM42.11 70.45h-7.338a1.171 1.171 0 100 2.343h7.338a1.172 1.172 0 000-2.344zM37.017 26.993a1.172 1.172 0 000-2.343h-6.066a1.172 1.172 0 100 2.343h6.066zM49.05 26.993a1.172 1.172 0 100-2.343h-6.067a1.172 1.172 0 100 2.343h6.067z" fill="#333"/></g><defs><clipPath id="clip0_1793:23121"><path fill="#fff" d="M0 0h80v80H0z"/></clipPath></defs></svg>